<svg width="1060" height="1148" viewBox="0 0 1060 1148" fill="none" xmlns="http://www.w3.org/2000/svg" xmlns:xlink="http://www.w3.org/1999/xlink">
<path d="M28,8L1030.894,8L1030.894,0L28,0L28,8ZM1050.894,28L1050.894,1030.894L1058.894,1030.894L1058.894,28L1050.894,28ZM1030.894,1050.894L28,1050.894L28,1058.894L1030.894,1058.894L1030.894,1050.894ZM8,1030.894L8,28L0,28L0,1030.894L8,1030.894ZM28,1050.894C16.954,1050.894 8,1041.94 8,1030.894L0,1030.894C0,1046.358 12.536,1058.894 28,1058.894L28,1050.894ZM1050.894,1030.894C1050.894,1041.94 1041.94,1050.894 1030.894,1050.894L1030.894,1058.894C1046.358,1058.894 1058.894,1046.358 1058.894,1030.894L1050.894,1030.894ZM1030.894,8C1041.94,8 1050.894,16.954 1050.894,28L1058.894,28C1058.894,12.536 1046.358,0 1030.894,0L1030.894,8ZM28,0C12.536,0 0,12.536 0,28L8,28C8,16.954 16.954,8 28,8L28,0Z" fill="#000000"/>
<path d="M226.171,1056.806L775.24,1056.806C777.546,1035.824 693.442,589.651 594.648,446.216C583.432,429.938 487.42,418.095 452.174,458.584C265.468,673 221.659,1051.666 226.171,1056.806Z" fill="#000000"/>
<path d="M607.669,483.244C623.255,523.617 682.047,665.169 713.999,766.757C735.443,834.931 743.607,892.145 748.299,907.181C748.299,907.181 586.175,855.105 549.672,855.015C493.457,854.873 403.276,972.291 425.398,986.991C460.171,1010.127 625.933,1088.797 758.309,1113.497C830.263,1126.929 965.841,1035.465 955.127,962.755C940.093,860.705 755.681,591.714 685.521,515.44C649.095,475.848 588.675,434.039 607.669,483.244Z" fill="#FF9581"/>
<path d="M965.007,984.326C961.611,1057.832 869.661,1119.712 816.331,1122.98C724.355,1128.556 448.443,1048.206 448.443,1048.206L555.696,841.582C555.696,841.582 743.439,905.308 748.207,907.102L748.207,907.026C746.555,901.552 700.285,727.69 679.611,670.078C678.509,666.898 677.227,663.644 676.023,660.222C670.075,644.264 661.911,623.193 652.887,600.43L652.797,600.263C647.8,587.664 642.519,574.488 637.328,561.492L637.328,561.415C614.655,505.084 592.558,451.47 592.558,451.47C624.165,456.661 655.373,473.272 706.617,527.052C757.757,580.768 970.621,863.064 965.007,984.326Z" fill="#000000"/>
<path d="M519.95,1003.499C527.602,988.875 535.382,974.315 543.059,959.703C550.596,945.4 558.222,931.147 565.912,916.92C573.859,902.206 582.202,887.518 588.624,872.061C588.739,871.766 588.342,871.522 588.15,871.779C578.498,884.506 570.552,898.541 562.618,912.37C554.402,926.7 546.392,941.157 538.458,955.653C530.678,969.855 523.193,984.197 515.81,998.59C508.222,1013.407 500.558,1028.762 495.072,1044.501C494.854,1045.129 495.726,1045.744 496.136,1045.129C505.005,1031.966 512.593,1017.547 519.95,1003.499Z" fill="#2B454E"/>
<path d="M805.629,937.594L748.298,907.192L748.208,907.116L748.208,907.038C746.555,901.566 700.286,727.703 679.612,670.09C678.509,666.912 677.228,663.656 676.023,660.234C670.076,644.277 661.911,623.205 652.888,600.442L805.629,937.594Z" fill="#1C1C1C"/>
<path d="M853.09,962.819C837.172,950.924 820.01,940.286 802.72,930.507C794.081,925.611 785.263,921.112 776.201,917.062C766.563,912.755 756.373,909.641 746.799,905.308C746.068,904.975 745.53,906.103 746.26,906.436C755.207,910.487 763.704,916.126 772.343,920.83C781.328,925.726 790.351,930.545 799.451,935.223C817.318,944.413 834.865,954.167 852.629,963.549C853.052,963.78 853.488,963.113 853.09,962.819Z" fill="#1C1C1C"/>
<path d="M811.344,918.306C796.952,918.498 710.078,895.298 697.428,907.218C620.32,979.904 595.942,965.266 579.524,974.738C452.468,1047.834 282.796,1133.708 222.236,1134.246C130.389,1134.99 93.809,1057.908 109.1,985.082C139.284,841.122 333.436,560.415 421.284,485.82C467.862,446.331 464.182,505.891 444.918,570.643C433.614,608.607 413.85,665.053 393.69,720.448C375.836,769.794 328.514,895.888 327.694,898.85L327.694,898.926C327.618,899.092 327.54,899.182 327.554,899.272C327.49,899.606 327.822,899.67 328.566,899.464C332.604,898.72 441.254,847.516 550.518,819.384C589.02,809.476 669.204,795.352 697.952,808.182C715.05,815.808 715.332,826.01 715.332,826.01C715.332,826.01 729.034,824.766 743.492,836.66C753.078,844.556 756.052,855.72 756.052,855.72C756.052,855.72 771.048,857.822 778.854,866.512C788.158,876.88 788.98,887.852 788.98,887.852C809.23,893.26 811.344,918.306 811.344,918.306Z" fill="#FFFFFF"/>
<path d="M683.008,822.972C671.422,823.138 660.117,824.817 648.736,826.817C647.967,826.958 647.992,828.15 648.812,828.06C659.989,826.83 671.306,826.573 682.534,826.202C693.698,825.83 705.041,825.587 716.204,825.817C716.269,825.817 716.281,825.702 716.217,825.689C705.079,823.856 694.339,822.805 683.008,822.972Z" fill="#1A2E35"/>
<path d="M755.732,855.053C735.84,849.593 719.985,846.568 695.005,849.696C694.197,849.798 694.261,850.99 695.056,850.939C718.793,849.465 734.276,851.875 755.693,855.476C755.937,855.528 755.95,855.117 755.732,855.053Z" fill="#1A2E35"/>
<path d="M788.761,887.185C768.818,878.982 753.463,876.419 731.328,876.419C730.546,876.419 730.29,877.573 731.098,877.649C752.335,879.675 767.87,882.725 788.467,888.082C788.979,888.211 789.248,887.39 788.761,887.185Z" fill="#1A2E35"/>
<path d="M545.212,820.652C535.676,821.896 526.14,824.703 516.809,826.997C506.863,829.445 496.943,832.149 487.202,835.366C467.695,841.801 448.764,849.517 430.089,858.027C429.372,858.36 429.756,859.463 430.525,859.193C449.546,852.529 468.758,846.287 487.984,840.237C497.443,837.263 506.838,834.098 516.258,831.021C525.922,827.856 535.984,825.459 545.481,821.857C546.122,821.614 545.93,820.55 545.212,820.652Z" fill="#1A2E35"/>
<path d="M469.22,841.248C489.33,834.444 498.418,834.404 498.418,834.404L612.732,1027.442C612.732,1027.442 297.868,1140.796 233.233,1147.422C168.584,1154.048 95.04,1103.14 93.796,1021.982C92.053,907.91 278.067,633.972 371.644,528.039C414.53,479.488 464.528,444.229 477.282,452.188C492.342,461.583 464.99,522.63 450.572,568.169C423.962,652.236 328.592,899.464 328.592,899.464C328.592,899.464 445.264,849.362 469.22,841.248Z" fill="#000000"/>
<path d="M497.391,834.251C479.653,835.289 402.969,862 365.364,878.136C327.887,894.222 291.832,913.306 258.008,936.146C238.872,949.066 220.711,963.126 202.767,977.648C202.151,978.148 202.818,979.147 203.484,978.673C236.552,955.026 271.876,933.929 307.623,914.614C343.19,895.401 379.411,877.162 417.105,862.461C438.575,854.092 475.487,841.557 496.455,836.058C502.391,834.494 497.943,834.212 497.391,834.251Z" fill="#1C1C1C"/>
<path d="M421.899,665.451C417.106,673.192 412.248,680.882 408.147,689.034C407.954,689.418 407.775,689.803 407.583,690.187C413.671,671.667 419.451,653.095 424.988,634.395C425.334,633.241 423.425,632.626 422.989,633.741C395.932,702.261 370.823,771.614 346.471,841.146C339.652,860.59 333.68,880.238 327.489,899.874C327.271,900.554 328.386,900.9 328.668,900.258C336.102,883.418 343.587,866.69 350.393,849.554C357.199,832.431 363.518,815.115 369.913,797.838C381.09,767.628 391.741,737.264 402.007,706.747C405.224,701.402 408.467,696.07 411.505,690.636C415.927,682.702 419.567,674.397 423.258,666.104C423.655,665.194 422.399,664.643 421.899,665.451Z" fill="#1C1C1C"/>
<path d="M536.125,985.403C527.742,971.176 519.488,956.885 511.144,942.645C502.967,928.687 494.905,914.678 486.882,900.643C478.589,886.122 470.527,871.28 460.799,857.655C460.62,857.399 460.184,857.617 460.312,857.911C466.016,872.83 473.731,886.993 481.294,901.028C489.125,915.575 497.174,930.007 505.287,944.401C513.234,958.5 521.449,972.432 529.78,986.312C538.342,1000.578 547.34,1015.202 557.811,1028.173C558.234,1028.686 559.208,1028.288 558.913,1027.596C552.415,1013.113 544.174,999.065 536.125,985.403Z" fill="#1C1C1C"/>
<path d="M617.282,1027.853C607.798,1009.153 593.046,990.786 582.124,972.996C581.714,972.317 580.702,973.022 581.1,973.701C591.02,990.389 600.108,1008.371 609.592,1025.341C566.348,1043.195 520.436,1059.114 476.334,1074.737C431.076,1090.784 385.525,1105.985 339.345,1119.289C313.531,1126.723 287.679,1134.785 261.712,1141.604C260.097,1142.027 260.533,1143.36 262.186,1143.039C308.904,1134.247 354.776,1120.751 400.008,1106.396C446.136,1091.759 491.662,1075.404 536.97,1058.473C562.464,1048.95 618.052,1029.365 617.282,1027.853Z" fill="#1C1C1C"/>
<path d="M542.303,820.78C482.845,836.007 414.427,861.064 383.769,873.061C382.961,873.343 382.231,873.625 381.5,873.894C354.495,884.506 337.769,892.376 333.757,893.042C333.424,892.889 333.167,892.658 332.911,892.504L332.911,892.427C330.104,890.402 327.323,888.864 324.554,887.826C316.941,885.096 243.781,875.957 245.627,853.297C247.408,830.88 277.221,832.277 281.604,832.585C276.862,831.546 237.155,822.241 250.087,802.413C259.226,788.353 298.548,790.417 302.509,790.57C298.497,789.25 262.02,777.356 274.568,757.118C283.553,742.635 327.451,744.519 332.514,745.377C328.412,743.814 295.895,738.367 311.071,720.922C321.606,708.772 404.263,721.128 441.01,739.469C495.649,766.743 542.303,820.78 542.303,820.78Z" fill="#FFFFFF"/>
<path d="M383.769,873.062C382.961,873.344 382.231,873.626 381.5,873.895C368.811,864.038 320.799,838.609 283.078,833.777C280.745,833.483 280.592,832.137 283.065,832.252C329.642,834.367 371.516,861.795 383.769,873.062Z" fill="#1A2E35"/>
<path d="M304.303,792.07C356.366,802.4 379.898,813.897 424.668,842.338C425.296,842.736 426.001,841.813 425.398,841.351C383.666,810.116 357.699,794.646 304.752,790.75C302.355,790.57 301.919,791.596 304.303,792.07Z" fill="#1A2E35"/>
<path d="M334.115,746.454C384.063,759.733 410.39,771.242 450.622,803.798C451.571,804.567 452.737,803.4 451.866,802.541C413.953,765.769 381.192,751.196 334.59,745.07C331.411,744.66 330.975,745.621 334.115,746.454Z" fill="#1A2E35"/>
<path d="M584.214,546.15C554.632,556.787 497.174,516.247 472.296,480.949C470.604,478.514 471.475,450.868 470.937,417.21C470.54,396.793 469.604,374.055 467.259,353.381L600.53,370.172C600.53,370.172 592.699,414.967 597.005,450.996C597.403,454.008 598.018,456.776 598.864,459.378C598.954,459.763 599.12,460.224 599.21,460.762C603.683,476.579 612.809,535.845 584.214,546.15Z" fill="#FFFFFF" stroke="#000000" stroke-width="0.641" stroke-miterlimit="10"/>
<path d="M599.261,460.75C599.518,461.608 599.774,462.544 599.941,463.659C520.155,460.275 489.804,425.195 470.168,391.538C469.566,378.708 468.72,365.699 467.259,353.381L600.543,370.146C600.543,370.146 592.673,414.98 597.031,450.996C597.377,453.995 598.056,456.725 598.915,459.378C599.005,459.711 599.082,460.237 599.261,460.75Z" fill="#000000" stroke="#000000" stroke-width="0.641" stroke-miterlimit="10"/>
<path d="M412.633,213.586C405.404,261.432 449.072,390.153 485.985,414.851C539.496,450.649 617.397,443.357 645.365,381.245C672.473,321.044 612.591,154.307 572.269,132.864C512.875,101.27 423.309,142.9 412.633,213.586Z" fill="#FFFFFF" stroke="#000000" stroke-width="1.282" stroke-miterlimit="10"/>
<path d="M535.868,271.481C535.689,271.173 535.33,272.122 535.458,272.468C538.624,281.055 540.816,291.437 533.92,296.935C533.702,297.102 533.882,297.538 534.151,297.397C543.289,292.86 540.252,279.107 535.868,271.481Z" fill="#000000"/>
<path d="M525.077,265.008C510.76,268.61 519.014,296.987 532.28,293.655C545.34,290.361 537.086,261.984 525.077,265.008Z" fill="#000000"/>
<path d="M589.341,255.383C589.316,255.024 590.149,255.601 590.238,255.96C592.52,264.829 596.621,274.608 605.427,275.211C605.696,275.224 605.811,275.685 605.503,275.724C595.391,277.185 590.072,264.15 589.341,255.383Z" fill="#000000"/>
<path d="M594.519,243.912C608.349,238.721 617.705,266.764 604.888,271.558C592.289,276.3 582.932,248.256 594.519,243.912Z" fill="#000000"/>
<path d="M510.106,255.28C513.682,253.178 516.643,250.653 519.976,248.205C523.731,245.45 526.999,243.642 528.653,239.08C529.537,236.632 527.871,233.184 525.577,232.094C520.219,229.569 514.785,231.799 510.132,234.927C505.082,238.323 502.057,242.233 500.289,248.052C498.571,253.691 505.377,258.049 510.106,255.28Z" fill="#000000"/>
<path d="M601.338,226.429C597.21,226.929 593.327,226.711 589.213,226.788C584.56,226.877 580.856,227.429 576.767,224.788C574.576,223.378 573.819,219.623 574.986,217.367C577.703,212.112 583.381,210.587 588.982,210.254C595.057,209.895 599.838,211.164 604.76,214.727C609.54,218.175 606.772,225.762 601.338,226.429Z" fill="#000000"/>
<path d="M556.209,352.972C558.913,354.42 561.835,356.637 565.104,355.984C568.231,355.356 571.423,352.933 573.909,351.023C574.153,350.831 574.524,351.049 574.422,351.369C573.127,355.407 568.936,358.919 564.655,359.393C560.477,359.854 557.503,356.983 555.478,353.625C555.196,353.151 555.811,352.766 556.209,352.972Z" fill="#000000"/>
<path d="M557.786,323.967C564.925,330.17 573.371,332.234 581.638,331.465C585.329,331.144 589.046,330.196 592.545,328.824C593.25,328.607 593.93,328.325 594.532,327.991C595.147,327.722 595.711,327.479 596.377,327.133C597.364,326.684 597.685,325.671 597.57,324.646L597.544,324.582C597.441,324.262 597.364,324.005 597.198,323.71C597.198,323.71 597.198,323.71 597.185,323.646L596.941,322.877C595.16,316.059 591.507,305.959 591.507,305.959C594.34,306.472 608.605,308.484 607.375,304.998C597.108,276.236 585.701,244.245 569.411,217.791C568.924,216.893 567.514,217.547 567.873,218.483C576.639,246.513 590.289,272.814 599.543,300.845C595.07,300.486 587.688,299.563 584.163,300.665C583.279,301.217 591.571,320.058 592.122,323.185C592.122,323.185 592.161,323.313 592.161,323.531C581.215,328.299 571.641,327.35 558.375,322.929C557.58,322.621 557.055,323.416 557.786,323.967Z" fill="#000000"/>
<g opacity="0.2">
<path d="M426.68,304.267C434.229,298.089 443.765,266.431 448.2,253.357C452.801,239.771 439.151,184.697 434.691,168.316C423.424,181.031 415.491,196.578 412.697,214.086C409.492,234.017 415.696,269.34 426.68,304.267Z" fill="#000000"/>
</g>
<path d="M552.684,184.145C546.289,197.936 533.331,207.806 518.13,209.626C503.326,211.394 486.472,205.665 477.448,193.399C477.179,193.04 476.615,193.45 476.884,193.822C486.536,206.921 501.878,215.586 518.514,213.189C534.125,210.933 548.275,199.385 553.684,184.594C553.915,183.927 552.979,183.504 552.684,184.145Z" fill="#1A2E35"/>
<path d="M478.794,92.183C454.403,99.784 435.78,119.843 431.615,139.145C429.077,150.873 431.23,161.421 435.896,171.444C436.088,171.854 436.934,171.508 436.78,171.085C430.589,154.872 433.358,133.582 447.828,116.856C461.735,100.796 483.447,90.812 505.249,92.619C516.63,93.555 526.82,97.682 533.369,104.398C534.1,105.154 535.779,104.039 535.125,103.245C524.038,89.838 500.865,85.313 478.794,92.183Z" fill="#1A2E35"/>
<path d="M636.636,104.424C629.292,93.452 617.872,85.519 605.209,81.956C587.47,76.957 570.833,83.237 554.44,89.8C553.992,89.979 554.274,90.671 554.71,90.492C568.693,84.942 583.189,80.136 598.364,83.096C610.733,85.519 622.409,92.119 630.42,101.912C647.056,122.24 645.903,153.705 627.446,172.495C617,183.133 602.004,189.157 587.111,188.67C586.521,188.657 586.355,189.555 586.957,189.593C614.398,191.208 640.455,171.418 644.826,143.99C646.992,130.455 644.313,115.869 636.636,104.424Z" fill="#1A2E35"/>
<path d="M412.338,240.976C412.338,240.976 376.566,203.627 388.883,172.662C395.855,155.115 433.076,146.643 433.076,146.643C433.076,146.643 438.933,122.214 467.361,106.667C496.084,90.966 537.65,98.579 537.65,98.579C537.65,98.579 562.092,73.65 593.814,81.545C638.046,92.555 649.67,151.911 616.602,181.39C593.378,202.089 550.108,188.58 550.108,188.58C546.725,190.054 516.861,221.917 480.589,197.475C480.589,197.475 464.016,223.379 440.279,215.201C440.292,215.214 435.87,238.003 412.338,240.976Z" fill="#000000"/>
<path d="M598.826,457.943L570.474,536.37L471.27,442.755L445.393,474.99C445.393,474.99 544.699,625.949 545.02,618.938L574.178,551.482L621.653,595.829L613.539,480.257L598.826,457.943Z" fill="#EDEFEF"/>
<path d="M620.884,538.472C618.897,519.439 617.436,500.201 614.578,481.283C614.475,480.616 613.412,480.347 613.271,481.155C610.143,499.727 618.103,572.489 618.692,589.984C618.628,589.92 618.551,589.856 618.487,589.792C616.5,587.869 574.563,550.854 574.179,551.469C567.706,562.248 546.302,611.376 544.879,615.823C529.178,591.843 469.143,504.776 450.776,482.231C450.251,481.578 449.238,482.167 449.661,482.936C463.696,508.352 543.2,625.654 544.341,625.269C545.148,625.846 571.782,565.324 574.807,553.968C581.971,562.107 624.485,604.07 624.511,601.225C624.716,582.063 622.858,557.531 620.884,538.472Z" fill="#1C1C1C"/>
<path d="M456.787,317.225C456.787,317.225 419.81,279.594 402.251,293.475C384.692,307.356 417.49,365.404 441.625,370.044C465.759,374.683 470.489,352.433 470.489,352.433L456.787,317.225Z" fill="#FFFFFF" stroke="#000000" stroke-width="1.282" stroke-miterlimit="10"/>
<path d="M412.069,309.867C411.697,309.893 411.71,310.418 412.056,310.495C429.064,314.276 439.933,327.632 448.38,341.961C442.65,336.86 435.665,334.72 428.705,341.679C428.347,342.051 428.846,342.628 429.282,342.461C435.575,339.974 440.472,340.308 445.752,344.794C449.495,347.972 452.417,352.292 455.365,356.188C456.352,357.483 458.8,356.291 457.98,354.74C457.915,354.624 457.851,354.509 457.787,354.394C454.763,334.027 434.217,308.252 412.069,309.867Z" fill="#1A2E35"/>
</svg>
