<svg xmlns="http://www.w3.org/2000/svg" width="62" height="57" fill="none" viewBox="0 0 62 57">
  <g clip-path="url(#a)">
    <path fill="#000" d="m26.827 34.086.021.016-2.54 5.734c-2.437-1.458-4.29-3.626-5.272-6.169l6.552-1.04.01.009c.2-.033.405-.015.594.052.19.068.356.181.482.33a.994.994 0 0 1 .153 1.068Zm-2.114-5.057c.196-.05.373-.15.513-.286a1.02 1.02 0 0 0 .282-.492.981.981 0 0 0-.028-.558 1.044 1.044 0 0 0-.33-.465l.01-.028-4.986-4.167c-1.52 2.313-2.173 5.032-1.858 7.73l6.384-1.718.013-.016Zm2.909-4.704c.724.491 1.737.028 1.777-.807l.03-.01.376-6.225c-2.89.316-5.585 1.525-7.656 3.435l5.462 3.607h.011Zm1.935 6.532 1.838.826 1.837-.826.456-1.846-1.272-1.484h-2.043L29.1 29.011l.456 1.846Zm3.812-7.357c.008.19.07.374.182.533.111.159.267.286.45.368a1.182 1.182 0 0 0 1.147-.105l.017.01 5.421-3.59c-2.061-1.894-4.734-3.098-7.604-3.425l.376 6.207.011.002ZM61.01 37.684 46.338 54.736c-.776.89-1.937 1.41-3.167 1.41l-23.54.01c-1.23 0-2.402-.52-3.178-1.42L1.781 37.684A3.676 3.676 0 0 1 1 36.176a3.532 3.532 0 0 1-.005-1.675L6.24 13.238c.133-.553.4-1.071.78-1.513a3.94 3.94 0 0 1 1.414-1.037L29.63 1.216a4.373 4.373 0 0 1 1.762-.37c.609 0 1.21.127 1.761.37l21.207 9.462a4.021 4.021 0 0 1 1.407 1.042c.38.442.649.957.787 1.508L61.8 34.503a3.549 3.549 0 0 1-.007 1.675 3.693 3.693 0 0 1-.778 1.508l-.004-.002Zm-8.359-4.888c-.109-.02-.257-.066-.366-.085-.448-.073-.806-.055-1.222-.084-.882-.093-1.616-.157-2.272-.35-.269-.093-.458-.39-.547-.52l-.517-.142a14.093 14.093 0 0 0-.268-5.537 14.808 14.808 0 0 0-2.372-5.13c.13-.113.376-.314.444-.38.021-.214 0-.435.239-.668.505-.447 1.134-.807 1.885-1.245.368-.194.696-.322 1.062-.575.082-.056.19-.148.28-.214.604-.444.745-1.233.307-1.744-.439-.511-1.281-.556-1.886-.112-.09.066-.207.15-.29.214-.335.277-.543.546-.832.835-.626.593-1.152 1.085-1.716 1.438-.238.14-.608.092-.764.083l-.488.326c-2.775-2.73-6.52-4.421-10.532-4.76l-.03-.528c-.169-.148-.367-.278-.418-.594-.06-.639.04-1.325.15-2.151.048-.39.147-.706.168-1.131v-.335c0-.725-.578-1.318-1.271-1.318-.704 0-1.272.593-1.272 1.318v.335c.021.425.12.74.168 1.13.108.827.2 1.513.15 2.152a1.36 1.36 0 0 1-.417.613l-.03.5c-4.04.302-7.813 1.999-10.584 4.76-.158-.101-.307-.205-.458-.306-.226.028-.455.092-.753-.064-.566-.364-1.092-.855-1.717-1.448-.288-.287-.496-.556-.833-.825-.082-.066-.198-.15-.28-.214a1.676 1.676 0 0 0-.883-.315 1.307 1.307 0 0 0-.56.097 1.227 1.227 0 0 0-.454.321c-.437.52-.297 1.299.307 1.753l.02.01.27.193c.356.251.684.38 1.052.576.755.447 1.38.806 1.885 1.245.189.194.229.536.25.685l.406.334c-2.243 3.15-3.166 6.961-2.593 10.707l-.526.14c-.139.177-.337.435-.547.52-.656.195-1.39.259-2.272.343-.418.037-.776.02-1.222.092-.1.02-.229.057-.337.073l-.008.01h-.021c-.745.168-1.233.817-1.073 1.447.147.629.882 1.02 1.637.862h.021l.021-.009.328-.064c.437-.112.755-.27 1.142-.408.833-.278 1.54-.52 2.213-.612.28-.02.587.165.724.242l.557-.086c1.24 3.586 3.844 6.623 7.318 8.536l-.229.52c.09.205.181.472.11.668-.24.604-.666 1.235-1.143 1.931-.238.322-.478.575-.686.946-.048.093-.109.233-.158.326-.328.648-.09 1.402.535 1.689.635.278 1.419-.02 1.756-.677.052-.093.12-.214.16-.307.178-.38.239-.714.366-1.085.328-.788.517-1.615.984-2.135.13-.137.328-.194.547-.24l.288-.492a17.509 17.509 0 0 0 11.714.026l.268.456c.22.065.458.102.647.371.349.547.585 1.206.875 1.995.127.37.188.705.366 1.085.04.084.108.214.16.306.335.657 1.12.955 1.746.668.635-.278.875-1.031.547-1.689a11.84 11.84 0 0 1-.168-.315c-.208-.37-.448-.62-.677-.946-.486-.696-.884-1.28-1.13-1.883-.099-.306.017-.491.1-.696-.052-.055-.151-.344-.209-.483 3.484-1.933 6.088-4.992 7.319-8.6.158.027.444.074.543.093.19-.121.358-.27.707-.251.673.093 1.38.335 2.213.613.387.14.704.297 1.142.408.09.028.22.048.328.064l.02.009h.022c.755.158 1.489-.23 1.637-.862.16-.633-.328-1.283-1.073-1.449Zm-10.078-9.76-4.955 4.146v.02a1.048 1.048 0 0 0-.327.465.986.986 0 0 0-.027.556c.044.184.142.354.28.491.14.137.316.237.51.288l.01.02 6.423 1.724a11.374 11.374 0 0 0-.277-3.97 11.803 11.803 0 0 0-1.64-3.74h.003ZM32.378 35.688a1.088 1.088 0 0 0-.427-.413 1.188 1.188 0 0 0-.596-.143 1.2 1.2 0 0 0-.555.161 1.103 1.103 0 0 0-.399.395l-3.225 5.445a13.96 13.96 0 0 0 8.458 0l-3.227-5.445h-.029Zm4.794-3.07a1.198 1.198 0 0 0-.592.05 1.12 1.12 0 0 0-.48.327.986.986 0 0 0-.158 1.061v.01l2.56 5.787c2.456-1.46 4.319-3.644 5.293-6.206L37.182 32.6l-.01.018Z"/>
  </g>
  <defs>
    <clipPath id="a">
      <path fill="#fff" d="M.895 0h61v57h-61z"/>
    </clipPath>
  </defs>
</svg>
