<svg width="64" height="64" viewBox="0 0 64 64" fill="none" xmlns="http://www.w3.org/2000/svg" xmlns:xlink="http://www.w3.org/1999/xlink">
<path d="M60,32C60,47.456 47.47,60 32,60C16.53,60 4,47.456 4,32C4,16.53 16.53,4 32,4C47.47,4 60,16.53 60,32Z" fill="#283544"/>
<path d="M45.124,24.915C44.971,25.004 41.334,26.885 41.334,31.056C41.506,35.812 45.924,37.48 46,37.48C45.924,37.569 45.333,39.753 43.581,42.041C42.191,44.012 40.648,46 38.306,46C36.077,46 35.277,44.686 32.706,44.686C29.944,44.686 29.163,46 27.048,46C24.706,46 23.048,43.906 21.583,41.953C19.678,39.397 18.06,35.386 18.002,31.535C17.964,29.494 18.384,27.488 19.45,25.784C20.954,23.405 23.64,21.79 26.573,21.737C28.82,21.667 30.82,23.175 32.191,23.175C33.506,23.175 35.963,21.737 38.743,21.737C39.943,21.738 43.143,22.075 45.124,24.915ZM32.001,21.33C31.601,19.466 32.706,17.602 33.734,16.414C35.048,14.976 37.124,14 38.914,14C39.029,15.864 38.304,17.691 37.01,19.023C35.848,20.46 33.848,21.543 32.001,21.33Z" fill="#FFFFFF"/>
</svg>
