<svg width="112" height="82" viewBox="0 0 112 82" fill="none" xmlns="http://www.w3.org/2000/svg" xmlns:xlink="http://www.w3.org/1999/xlink">
<path d="M22.494,64.609C19.306,64.609 16.408,62.005 16.408,58.83C16.408,55.656 19.012,53.034 22.494,53.034C25.994,53.034 28.623,55.642 28.623,58.83C28.623,62.005 25.707,64.609 22.515,64.609L22.494,64.609ZM97.216,33.056C96.575,28.426 93.716,24.653 89.939,21.772L88.466,20.607L87.279,22.045C84.983,24.653 84.056,29.283 84.343,32.745C84.619,35.373 85.452,37.977 86.933,40C85.729,40.62 84.273,41.166 83.139,41.768C80.479,42.639 77.889,42.933 75.302,42.933L0.455,42.933L0.161,44.645C-0.405,50.29 0.5,55.987 2.79,61.179L3.938,63.205L3.938,63.475C10.938,75.07 23.387,80.285 36.967,80.285C63.073,80.285 84.472,69.001 94.622,44.666C101.276,44.956 107.989,43.224 111.139,36.843L111.979,35.405L110.593,34.526C106.802,32.213 101.622,31.905 97.289,33.07L97.195,33.088L97.216,33.056ZM59.846,28.426L48.51,28.426L48.51,39.724L59.846,39.724L59.846,28.426ZM59.846,14.226L48.51,14.226L48.51,25.524L59.846,25.524L59.846,14.226ZM59.846,-0.267L48.51,-0.267L48.51,11.034L59.846,11.034L59.846,-0.267ZM73.699,28.426L62.433,28.426L62.433,39.724L73.734,39.724L73.734,28.426L73.699,28.426ZM31.72,28.426L20.454,28.426L20.454,39.724L31.755,39.724L31.755,28.426L31.72,28.426ZM45.846,28.426L34.657,28.426L34.657,39.724L45.923,39.724L45.923,28.426L45.846,28.426ZM17.721,28.426L6.524,28.426L6.524,39.724L17.864,39.724L17.864,28.426L17.721,28.426ZM45.846,14.226L34.657,14.226L34.657,25.524L45.923,25.524L45.923,14.24L45.846,14.226ZM31.643,14.226L20.471,14.226L20.471,25.524L31.738,25.524L31.738,14.24L31.664,14.226L31.643,14.226Z" fill="#000000"/>
</svg>
