<svg width="40" height="40" viewBox="0 0 40 40" fill="none" xmlns="http://www.w3.org/2000/svg" xmlns:xlink="http://www.w3.org/1999/xlink">
<path d="M20.252,16.388C19.471,17.169 19.471,18.436 20.252,19.217C21.033,19.998 22.3,19.998 23.081,19.217L20.252,16.388ZM36.747,5.55C37.528,4.769 37.528,3.503 36.747,2.722C35.966,1.94 34.7,1.94 33.919,2.722L36.747,5.55ZM23.081,19.217L36.747,5.55L33.919,2.722L20.252,16.388L23.081,19.217Z" fill="#FFFFFF"/>
<path d="M34.667,10.802C34.667,11.906 35.562,12.802 36.667,12.802C37.771,12.802 38.667,11.906 38.667,10.802L34.667,10.802ZM36.667,2.802L38.667,2.802C38.667,1.697 37.771,0.802 36.667,0.802L36.667,2.802ZM28.667,0.802C27.562,0.802 26.667,1.697 26.667,2.802C26.667,3.906 27.562,4.802 28.667,4.802L28.667,0.802ZM38.667,10.802L38.667,2.802L34.667,2.802L34.667,10.802L38.667,10.802ZM36.667,0.802L28.667,0.802L28.667,4.802L36.667,4.802L36.667,0.802Z" fill="#FFFFFF"/>
<path d="M18.333,4.802C19.438,4.802 20.333,3.906 20.333,2.802C20.333,1.697 19.438,0.802 18.333,0.802L18.333,4.802ZM38.667,21.135C38.667,20.031 37.771,19.135 36.667,19.135C35.562,19.135 34.667,20.031 34.667,21.135L38.667,21.135ZM18.333,0.802L15,0.802L15,4.802L18.333,4.802L18.333,0.802ZM15,0.802C10.636,0.802 7.061,1.662 4.628,4.096C2.194,6.529 1.333,10.104 1.333,14.468L5.333,14.468C5.333,10.499 6.14,8.241 7.456,6.924C8.772,5.608 11.031,4.802 15,4.802L15,0.802ZM1.333,14.468L1.333,24.468L5.333,24.468L5.333,14.468L1.333,14.468ZM1.333,24.468C1.333,28.832 2.194,32.407 4.628,34.841C7.061,37.275 10.636,38.135 15,38.135L15,34.135C11.031,34.135 8.772,33.329 7.456,32.013C6.14,30.696 5.333,28.438 5.333,24.468L1.333,24.468ZM15,38.135L25,38.135L25,34.135L15,34.135L15,38.135ZM25,38.135C29.364,38.135 32.939,37.275 35.373,34.841C37.806,32.407 38.667,28.832 38.667,24.468L34.667,24.468C34.667,28.438 33.861,30.696 32.544,32.013C31.228,33.329 28.969,34.135 25,34.135L25,38.135ZM38.667,24.468L38.667,21.135L34.667,21.135L34.667,24.468L38.667,24.468Z" fill="#FFFFFF"/>
</svg>
