<svg width="40" height="42" viewBox="0 0 40 42" fill="none" xmlns="http://www.w3.org/2000/svg" xmlns:xlink="http://www.w3.org/1999/xlink">
<path d="M20.253,17.857C19.471,18.638 19.471,19.904 20.253,20.685C21.034,21.466 22.3,21.466 23.081,20.685L20.253,17.857ZM36.748,7.019C37.529,6.238 37.529,4.971 36.748,4.19C35.967,3.409 34.7,3.409 33.919,4.19L36.748,7.019ZM23.081,20.685L36.748,7.019L33.919,4.19L20.253,17.857L23.081,20.685Z" fill="#FFFFFF"/>
<path d="M34.667,12.271C34.667,13.375 35.562,14.271 36.667,14.271C37.771,14.271 38.667,13.375 38.667,12.271L34.667,12.271ZM36.667,4.271L38.667,4.271C38.667,3.166 37.771,2.271 36.667,2.271L36.667,4.271ZM28.667,2.271C27.562,2.271 26.667,3.166 26.667,4.271C26.667,5.375 27.562,6.271 28.667,6.271L28.667,2.271ZM38.667,12.271L38.667,4.271L34.667,4.271L34.667,12.271L38.667,12.271ZM36.667,2.271L28.667,2.271L28.667,6.271L36.667,6.271L36.667,2.271Z" fill="#FFFFFF"/>
<path d="M18.333,6.271C19.438,6.271 20.333,5.375 20.333,4.271C20.333,3.166 19.438,2.271 18.333,2.271L18.333,6.271ZM38.667,22.604C38.667,21.499 37.771,20.604 36.667,20.604C35.562,20.604 34.667,21.499 34.667,22.604L38.667,22.604ZM18.333,2.271L15,2.271L15,6.271L18.333,6.271L18.333,2.271ZM15,2.271C10.636,2.271 7.061,3.131 4.627,5.565C2.194,7.998 1.333,11.573 1.333,15.937L5.333,15.937C5.333,11.968 6.139,9.709 7.456,8.393C8.772,7.077 11.031,6.271 15,6.271L15,2.271ZM1.333,15.937L1.333,25.937L5.333,25.937L5.333,15.937L1.333,15.937ZM1.333,25.937C1.333,30.301 2.194,33.876 4.627,36.31C7.061,38.743 10.636,39.604 15,39.604L15,35.604C11.031,35.604 8.772,34.798 7.456,33.481C6.139,32.165 5.333,29.907 5.333,25.937L1.333,25.937ZM15,39.604L25,39.604L25,35.604L15,35.604L15,39.604ZM25,39.604C29.364,39.604 32.939,38.743 35.372,36.31C37.806,33.876 38.667,30.301 38.667,25.937L34.667,25.937C34.667,29.907 33.86,32.165 32.544,33.481C31.228,34.798 28.969,35.604 25,35.604L25,39.604ZM38.667,25.937L38.667,22.604L34.667,22.604L34.667,25.937L38.667,25.937Z" fill="#FFFFFF"/>
</svg>
