<svg width="40" height="40" viewBox="0 0 40 40" fill="none" xmlns="http://www.w3.org/2000/svg" xmlns:xlink="http://www.w3.org/1999/xlink">
<path d="M20.252,16.919C19.471,17.7 19.471,18.966 20.252,19.747C21.033,20.528 22.3,20.528 23.081,19.747L20.252,16.919ZM36.748,6.081C37.529,5.3 37.529,4.033 36.748,3.252C35.967,2.471 34.7,2.471 33.919,3.252L36.748,6.081ZM23.081,19.747L36.748,6.081L33.919,3.252L20.252,16.919L23.081,19.747Z" fill="#FFFFFF"/>
<path d="M34.667,11.333C34.667,12.438 35.562,13.333 36.667,13.333C37.771,13.333 38.667,12.438 38.667,11.333L34.667,11.333ZM36.667,3.333L38.667,3.333C38.667,2.229 37.771,1.333 36.667,1.333L36.667,3.333ZM28.667,1.333C27.562,1.333 26.667,2.229 26.667,3.333C26.667,4.438 27.562,5.333 28.667,5.333L28.667,1.333ZM38.667,11.333L38.667,3.333L34.667,3.333L34.667,11.333L38.667,11.333ZM36.667,1.333L28.667,1.333L28.667,5.333L36.667,5.333L36.667,1.333Z" fill="#FFFFFF"/>
<path d="M18.333,5.333C19.438,5.333 20.333,4.438 20.333,3.333C20.333,2.229 19.438,1.333 18.333,1.333L18.333,5.333ZM38.667,21.667C38.667,20.562 37.771,19.667 36.667,19.667C35.562,19.667 34.667,20.562 34.667,21.667L38.667,21.667ZM18.333,1.333L15,1.333L15,5.333L18.333,5.333L18.333,1.333ZM15,1.333C10.636,1.333 7.061,2.194 4.627,4.628C2.194,7.061 1.333,10.636 1.333,15L5.333,15C5.333,11.031 6.139,8.772 7.456,7.456C8.772,6.14 11.031,5.333 15,5.333L15,1.333ZM1.333,15L1.333,25L5.333,25L5.333,15L1.333,15ZM1.333,25C1.333,29.364 2.194,32.939 4.627,35.373C7.061,37.806 10.636,38.667 15,38.667L15,34.667C11.031,34.667 8.772,33.861 7.456,32.544C6.139,31.228 5.333,28.969 5.333,25L1.333,25ZM15,38.667L25,38.667L25,34.667L15,34.667L15,38.667ZM25,38.667C29.364,38.667 32.939,37.806 35.373,35.373C37.806,32.939 38.667,29.364 38.667,25L34.667,25C34.667,28.969 33.861,31.228 32.544,32.544C31.228,33.861 28.969,34.667 25,34.667L25,38.667ZM38.667,25L38.667,21.667L34.667,21.667L34.667,25L38.667,25Z" fill="#FFFFFF"/>
</svg>
