<svg width="40" height="42" viewBox="0 0 40 42" fill="none" xmlns="http://www.w3.org/2000/svg" xmlns:xlink="http://www.w3.org/1999/xlink">
<path d="M20.253,17.327C19.471,18.108 19.471,19.374 20.253,20.155C21.034,20.936 22.3,20.936 23.081,20.155L20.253,17.327ZM36.748,6.488C37.529,5.707 37.529,4.441 36.748,3.66C35.967,2.879 34.7,2.879 33.919,3.66L36.748,6.488ZM23.081,20.155L36.748,6.488L33.919,3.66L20.253,17.327L23.081,20.155Z" fill="#FFFFFF"/>
<path d="M34.667,11.74C34.667,12.845 35.562,13.74 36.667,13.74C37.771,13.74 38.667,12.845 38.667,11.74L34.667,11.74ZM36.667,3.74L38.667,3.74C38.667,2.636 37.771,1.74 36.667,1.74L36.667,3.74ZM28.667,1.74C27.562,1.74 26.667,2.636 26.667,3.74C26.667,4.845 27.562,5.74 28.667,5.74L28.667,1.74ZM38.667,11.74L38.667,3.74L34.667,3.74L34.667,11.74L38.667,11.74ZM36.667,1.74L28.667,1.74L28.667,5.74L36.667,5.74L36.667,1.74Z" fill="#FFFFFF"/>
<path d="M18.333,5.74C19.438,5.74 20.333,4.845 20.333,3.74C20.333,2.636 19.438,1.74 18.333,1.74L18.333,5.74ZM38.667,22.074C38.667,20.969 37.771,20.074 36.667,20.074C35.562,20.074 34.667,20.969 34.667,22.074L38.667,22.074ZM18.333,1.74L15,1.74L15,5.74L18.333,5.74L18.333,1.74ZM15,1.74C10.636,1.74 7.061,2.601 4.627,5.034C2.194,7.468 1.333,11.043 1.333,15.407L5.333,15.407C5.333,11.437 6.139,9.179 7.456,7.863C8.772,6.546 11.031,5.74 15,5.74L15,1.74ZM1.333,15.407L1.333,25.407L5.333,25.407L5.333,15.407L1.333,15.407ZM1.333,25.407C1.333,29.771 2.194,33.346 4.627,35.779C7.061,38.213 10.636,39.074 15,39.074L15,35.074C11.031,35.074 8.772,34.267 7.456,32.951C6.139,31.635 5.333,29.376 5.333,25.407L1.333,25.407ZM15,39.074L25,39.074L25,35.074L15,35.074L15,39.074ZM25,39.074C29.364,39.074 32.939,38.213 35.372,35.779C37.806,33.346 38.667,29.771 38.667,25.407L34.667,25.407C34.667,29.376 33.86,31.635 32.544,32.951C31.228,34.267 28.969,35.074 25,35.074L25,39.074ZM38.667,25.407L38.667,22.074L34.667,22.074L34.667,25.407L38.667,25.407Z" fill="#FFFFFF"/>
</svg>
