<svg width="40" height="42" viewBox="0 0 40 42" fill="none" xmlns="http://www.w3.org/2000/svg" xmlns:xlink="http://www.w3.org/1999/xlink">
<path d="M20.252,17.482C19.471,18.263 19.471,19.529 20.252,20.31C21.033,21.091 22.3,21.091 23.081,20.31L20.252,17.482ZM36.747,6.644C37.528,5.863 37.528,4.596 36.747,3.815C35.966,3.034 34.7,3.034 33.919,3.815L36.747,6.644ZM23.081,20.31L36.747,6.644L33.919,3.815L20.252,17.482L23.081,20.31Z" fill="#FFFFFF"/>
<path d="M34.667,11.896C34.667,13 35.562,13.896 36.667,13.896C37.771,13.896 38.667,13 38.667,11.896L34.667,11.896ZM36.667,3.896L38.667,3.896C38.667,2.791 37.771,1.896 36.667,1.896L36.667,3.896ZM28.667,1.896C27.562,1.896 26.667,2.791 26.667,3.896C26.667,5 27.562,5.896 28.667,5.896L28.667,1.896ZM38.667,11.896L38.667,3.896L34.667,3.896L34.667,11.896L38.667,11.896ZM36.667,1.896L28.667,1.896L28.667,5.896L36.667,5.896L36.667,1.896Z" fill="#FFFFFF"/>
<path d="M18.333,5.896C19.438,5.896 20.333,5 20.333,3.896C20.333,2.791 19.438,1.896 18.333,1.896L18.333,5.896ZM38.667,22.229C38.667,21.124 37.771,20.229 36.667,20.229C35.562,20.229 34.667,21.124 34.667,22.229L38.667,22.229ZM18.333,1.896L15,1.896L15,5.896L18.333,5.896L18.333,1.896ZM15,1.896C10.636,1.896 7.061,2.756 4.628,5.19C2.194,7.623 1.333,11.198 1.333,15.562L5.333,15.562C5.333,11.593 6.14,9.334 7.456,8.018C8.772,6.702 11.031,5.896 15,5.896L15,1.896ZM1.333,15.562L1.333,25.562L5.333,25.562L5.333,15.562L1.333,15.562ZM1.333,25.562C1.333,29.926 2.194,33.501 4.628,35.935C7.061,38.368 10.636,39.229 15,39.229L15,35.229C11.031,35.229 8.772,34.423 7.456,33.106C6.14,31.79 5.333,29.532 5.333,25.562L1.333,25.562ZM15,39.229L25,39.229L25,35.229L15,35.229L15,39.229ZM25,39.229C29.364,39.229 32.939,38.368 35.373,35.935C37.806,33.501 38.667,29.926 38.667,25.562L34.667,25.562C34.667,29.532 33.861,31.79 32.544,33.106C31.228,34.423 28.969,35.229 25,35.229L25,39.229ZM38.667,25.562L38.667,22.229L34.667,22.229L34.667,25.562L38.667,25.562Z" fill="#FFFFFF"/>
</svg>
