<svg width="1260" height="1260" viewBox="0 0 1260 1260" fill="none" xmlns="http://www.w3.org/2000/svg" xmlns:xlink="http://www.w3.org/1999/xlink">
<path d="M639.651,166.244C716.311,118.692 891.097,363.963 752.851,505.739C722.107,537.265 712.983,517.987 672.765,524.613C650.109,528.343 640.887,480.539 539.003,510.477C472.021,530.157 481.824,438.253 386.82,459.699C179.399,506.495 458.69,153.216 639.677,166.244L639.651,166.244Z" fill="#000000"/>
<path d="M656.46,165.64C645.599,184.464 616.972,188.622 590.864,180.508C562.892,171.814 548.377,141.397 559.843,114.458C566.798,98.104 579.65,84.017 598.853,76.507C618.055,68.998 639.45,77.036 649.127,95.054C661.399,117.911 665.784,149.537 656.485,165.665L656.46,165.64Z" clip-rule="evenodd" fill-rule="evenodd" fill="#000000"/>
<path d="M685.792,367.517C688.06,356.152 692.848,347.18 698.921,341.309C707.792,332.741 719.535,330.473 730.346,336.395C736.696,339.872 742.568,346.324 747.28,356.101C743.147,360.536 738.536,362.275 733.571,362.502C722.685,342.367 705.977,348.415 700.962,368.676C695.519,370.087 690.479,369.281 685.792,367.492L685.792,367.517Z" fill="#FFF8F5"/>
<path d="M688.614,357.613C691.184,350.86 694.737,345.366 698.92,341.309C707.791,332.741 719.534,330.473 730.345,336.395C734.125,338.461 737.728,341.586 741.004,345.82C736.015,348.34 730.647,350.557 724.977,352.397C718.4,348.113 711.394,350.104 706.38,356.681C700.256,357.538 694.258,357.84 688.588,357.588L688.614,357.613Z" fill="#FFFFFF" stroke="#000000" stroke-width="2.52" stroke-miterlimit="10"/>
<path d="M657.618,346.853C648.975,335.488 607.848,322.963 600.717,328.558C598.776,367.668 591.015,419.227 582.9,439.236C604.85,446.242 648.395,443.722 667.421,438.757C657.291,419.807 655.653,361.343 657.618,346.828L657.618,346.853Z" clip-rule="evenodd" fill-rule="evenodd" fill="#FFFFFF" stroke="#020202" stroke-width="2.52" stroke-miterlimit="10"/>
<path d="M699.577,273.092C710.413,270.094 721.803,277.15 725.029,288.817C728.254,300.51 722.105,312.404 711.269,315.378C700.433,318.377 689.043,311.321 685.817,299.653C682.592,287.986 688.741,276.066 699.577,273.092Z" clip-rule="evenodd" fill-rule="evenodd" fill="#FFFFFF" stroke="#020202" stroke-width="2.52" stroke-miterlimit="10"/>
<path d="M600.692,328.558C558.582,350.683 543.891,267.977 597.164,289.926C610.52,269.237 634.938,265.331 637.206,227.858C646.354,227.228 655.3,227.38 664.019,228.539C684.104,231.185 701.013,244.667 708.472,263.516C728.178,313.312 705.574,364.316 673.494,375.102C651.066,382.662 626.295,363.51 600.666,328.583L600.692,328.558Z" clip-rule="evenodd" fill-rule="evenodd" fill="#FFFFFF" stroke="#020202" stroke-width="2.52" stroke-miterlimit="10"/>
<path d="M574.812,305.6C573.476,306.382 571.788,305.953 570.982,304.618C570.2,303.282 570.629,301.594 571.964,300.787C572.468,300.485 572.998,300.208 573.527,299.956C577.256,298.141 581.339,297.536 585.245,298.62C589.126,299.678 592.729,302.375 595.526,307.087C595.879,307.667 596.207,308.297 596.534,308.952C596.988,309.784 597.038,310.817 596.534,311.699C595.778,313.034 594.065,313.488 592.729,312.732C591.066,311.774 589.504,311.144 588.042,310.766C586.58,310.388 585.194,310.313 583.96,310.439C582.422,310.615 581.062,309.506 580.885,307.969C580.709,306.432 581.818,305.071 583.355,304.895C584.186,304.794 585.018,304.769 585.9,304.819C585.22,304.441 584.514,304.139 583.783,303.937C581.263,303.232 578.542,303.685 575.971,304.92C575.593,305.096 575.215,305.298 574.812,305.55L574.812,305.6Z" fill="#000000"/>
<path d="M598.349,330.044C597.517,328.734 597.92,327.02 599.23,326.214C600.541,325.382 602.254,325.786 603.061,327.096C607.395,333.976 612.637,341.057 618.962,347.81C625.287,354.539 632.671,360.939 641.34,366.433C642.625,367.265 643.028,368.978 642.196,370.263C641.365,371.549 639.651,371.952 638.366,371.12C629.269,365.324 621.532,358.646 614.93,351.615C608.328,344.585 602.884,337.226 598.374,330.07L598.349,330.044Z" fill="#000000"/>
<path d="M532.98,366.635C540.616,355.925 549.763,348.844 558.76,345.618C571.939,340.855 585.144,343.98 593.586,355.169C598.551,361.721 601.625,371.146 601.953,383.468C595.602,386.114 590.008,385.787 584.766,383.72C582.876,357.815 562.741,356.303 548.125,374.951C541.825,373.867 536.987,370.717 532.955,366.66L532.98,366.635Z" fill="#FFF8F5"/>
<path d="M540.515,357.689C546.311,351.893 552.586,347.836 558.785,345.618C571.965,340.855 585.17,343.98 593.612,355.169C596.56,359.075 598.828,363.964 600.264,369.886C593.939,370.188 587.337,369.986 580.608,369.23C575.795,361.721 567.605,360.511 559.365,365.022C552.611,363.056 546.286,360.587 540.515,357.689Z" fill="#FFFFFF" stroke="#000000" stroke-width="2.52" stroke-miterlimit="10"/>
<path d="M642.625,1016.543L585.724,1015.283L581.742,1174.698C631.941,1194.454 930.284,1201.384 957.5,1146.55C744.61,1095.116 766.761,923.278 642.625,1016.543Z" clip-rule="evenodd" fill-rule="evenodd" fill="#FFFFFF" stroke="#000000" stroke-width="2.52" stroke-miterlimit="10"/>
<path d="M877.162,1180.015C918.439,1173.312 949.561,1162.577 957.499,1146.55C924.008,1138.46 896.314,1127.372 872.978,1114.823C870.458,1123.29 869.098,1132.362 869.098,1141.787C869.098,1155.521 871.996,1168.499 877.162,1180.015Z" clip-rule="evenodd" fill-rule="evenodd" fill="#FFFFFF" stroke="#231F20" stroke-width="2.52" stroke-miterlimit="10"/>
<path d="M689.346,1172.027L685.365,1012.611C702.123,1003.187 908.233,932.652 913.777,919.447C897.977,886.964 893.743,844.049 788.181,816.858C1315.517,628.312 1290.417,1138.485 689.346,1172.001L689.346,1172.027Z" clip-rule="evenodd" fill-rule="evenodd" fill="#000000"/>
<path d="M685.844,1031.865L685.365,1012.637C702.123,1003.213 908.233,932.677 913.777,919.472C897.977,886.99 893.743,844.074 788.181,816.883C975.719,749.826 1093.327,771.196 1140.073,827.996C1077.477,934.693 901.607,1015.459 685.844,1031.839L685.844,1031.865Z" clip-rule="evenodd" fill-rule="evenodd" fill="#1C1B1B"/>
<path d="M593.259,1163.661C626.573,1123.769 825.779,1022.237 813.431,960.372C795.135,868.568 543.185,821.016 472.525,843.167C76.734,701.694 -53.751,1042.095 313.563,1143.853C387.677,1164.391 476.103,1167.693 593.233,1163.661L593.259,1163.661Z" clip-rule="evenodd" fill-rule="evenodd" fill="#000000"/>
<path d="M781.832,1019.944C803.554,998.449 816.934,977.836 813.458,960.372C795.162,868.569 543.212,821.016 472.552,843.167C289.121,777.596 162.718,815.573 116.4,885.276C212.336,974.56 395.062,1034.914 604.75,1034.914C666.642,1034.914 726.164,1029.646 781.832,1019.944Z" clip-rule="evenodd" fill-rule="evenodd" fill="#1C1B1B"/>
<path d="M628.464,1013.872L685.366,1012.612L689.348,1172.027C639.148,1191.783 340.806,1198.713 313.59,1143.878C526.48,1092.445 504.329,920.606 628.464,1013.872Z" clip-rule="evenodd" fill-rule="evenodd" fill="#FFFFFF" stroke="#000000" stroke-width="2.52" stroke-miterlimit="10"/>
<path d="M393.927,1177.344C352.65,1170.641 321.528,1159.906 313.59,1143.878C347.081,1135.789 374.775,1124.701 398.111,1112.152C400.631,1120.619 401.991,1129.691 401.991,1139.116C401.991,1152.85 399.093,1165.828 393.927,1177.344Z" clip-rule="evenodd" fill-rule="evenodd" fill="#FFFFFF" stroke="#231F20" stroke-width="2.52" stroke-miterlimit="10"/>
<path d="M491.124,1038.316C535.501,992.3 559.24,961.859 628.464,1013.872C612.412,1037.509 581.844,1053.486 546.766,1053.486C525.925,1053.486 506.698,1047.841 491.124,1038.316Z" clip-rule="evenodd" fill-rule="evenodd" fill="#FFFFFF" stroke="#231F20" stroke-width="2.52" stroke-miterlimit="10"/>
<path d="M691.464,1010.167C690.028,1010.747 688.415,1010.066 687.835,1008.63C687.256,1007.194 687.936,1005.581 689.373,1005.001L945.531,900.522C946.967,899.942 948.579,900.623 949.159,902.059C949.739,903.496 949.059,905.108 947.623,905.688L691.464,1010.167Z" fill="#FFFFFF"/>
<path d="M313.363,918.263C311.926,917.708 311.221,916.096 311.775,914.659C312.329,913.223 313.942,912.517 315.379,913.072L526.782,995.072C528.218,995.627 528.924,997.24 528.37,998.676C527.814,1000.112 526.202,1000.818 524.766,1000.264L313.363,918.263Z" fill="#FFFFFF"/>
<path d="M718.201,486.31C731.783,467.082 724.349,437.094 719.083,425.275C655.327,422.226 595.275,419.404 544.397,412.423C534.191,425.93 528.041,468.67 539.583,491.929C420.412,511.585 51.887,836.061 408.089,917.103C1038.241,1111.067 1200.453,690.555 718.175,486.284L718.201,486.31Z" clip-rule="evenodd" fill-rule="evenodd" fill="#FFFFFF" stroke="#000000" stroke-width="2.52" stroke-miterlimit="10"/>
<path d="M552.257,495.911C550.871,495.256 550.266,493.592 550.921,492.206C551.577,490.82 553.24,490.216 554.626,490.871C564.151,495.331 584.941,499.187 606.311,501.43C628.059,503.698 650.26,504.277 661.675,502.06C663.187,501.782 664.649,502.765 664.926,504.277C665.203,505.789 664.221,507.251 662.709,507.528C650.764,509.846 627.933,509.292 605.706,506.974C583.807,504.68 562.337,500.648 552.232,495.911L552.257,495.911Z" fill="#000000"/>
<path d="M470.711,595.148C470.938,593.636 472.374,592.578 473.886,592.805C475.398,593.032 476.456,594.468 476.23,595.98L444.679,818.974C444.452,820.486 443.016,821.546 441.504,821.318C440.294,821.142 439.387,820.184 439.186,819.05C438.556,816.756 435.607,810.104 434.725,807.862C426.258,786.316 407.534,770.314 385.56,761.141C363.46,751.943 338.159,749.65 316.613,755.572C313.891,756.328 311.195,757.21 308.524,758.268C307.087,758.822 305.474,758.117 304.92,756.68C304.366,755.244 305.071,753.631 306.508,753.077C309.28,751.993 312.178,751.036 315.176,750.204C337.907,743.954 364.543,746.348 387.727,756C410.004,765.274 429.156,781.301 438.707,802.872L470.761,595.148L470.711,595.148Z" fill="#000000"/>
<path d="M769.279,613.645C768.977,612.133 769.935,610.672 771.447,610.344C772.959,610.042 774.42,610.999 774.748,612.511L810.204,783.392C810.507,784.904 809.549,786.366 808.037,786.694C806.525,787.021 805.063,786.038 804.736,784.526L769.279,613.645Z" fill="#000000"/>
<path d="M408.114,917.129L442.789,821.369L536.735,843.318L649.126,912.19C642.928,922.925 638.568,931.997 622.742,932.803C630.908,940.64 645.372,943.866 650.866,949.183C643.256,967.428 611.326,962.237 606.816,959.944C578.164,990.486 527.537,954.5 508.259,947.873C496.591,949.032 429.862,942.178 408.139,917.154L408.114,917.129Z" clip-rule="evenodd" fill-rule="evenodd" fill="#FFFFFF" stroke="#000000" stroke-width="2.52" stroke-miterlimit="10"/>
<path d="M526.983,912.215C525.698,911.383 525.294,909.67 526.126,908.384C526.958,907.099 528.671,906.696 529.956,907.528L608.278,957.6C609.563,958.432 609.966,960.145 609.135,961.43C608.303,962.716 606.59,963.119 605.304,962.287L526.983,912.215Z" fill="#000000"/>
<path d="M538.776,882.025C537.541,881.093 537.289,879.354 538.196,878.119C539.129,876.884 540.868,876.632 542.102,877.54C551.225,884.369 573.527,898.834 595.778,912.82C621.432,928.948 646.934,944.37 651.974,946.638C653.386,947.268 654.016,948.906 653.386,950.317C652.756,951.728 651.118,952.358 649.706,951.728C644.414,949.36 618.635,933.761 592.805,917.557C570.402,903.47 547.949,888.905 538.776,882.05L538.776,882.025Z" fill="#000000"/>
<path d="M553.443,856.825C552.132,856.019 551.704,854.305 552.51,852.995C553.317,851.684 555.03,851.256 556.341,852.062L650.589,909.796C651.899,910.602 652.327,912.316 651.521,913.626C650.715,914.936 649.001,915.365 647.691,914.558L553.443,856.825Z" fill="#000000"/>
<path d="M805.393,490.72C816.052,496.667 820.79,508.46 815.976,517.054C811.188,525.647 798.639,527.789 788.005,521.842C777.345,515.894 772.607,504.101 777.42,495.508C782.234,486.914 794.758,484.772 805.393,490.72Z" clip-rule="evenodd" fill-rule="evenodd" fill="#FFFFFF" stroke="#000000" stroke-width="2.52" stroke-miterlimit="10"/>
<path d="M861.865,509.947C845.158,501.833 799.798,498.053 774.623,502.412C760.637,504.832 767.643,532.174 775.681,534.517C769.684,543.64 769.432,559.289 777.571,571.007C773.01,579.575 775.152,597.013 783.342,604.548C791.885,634.183 806.627,635.342 823.108,636.552L822.251,908.132C982.422,904.478 947.218,718.83 894.978,590.94L861.891,509.922L861.865,509.947Z" clip-rule="evenodd" fill-rule="evenodd" fill="#FFFFFF" stroke="#000000" stroke-width="2.52" stroke-miterlimit="10"/>
<path d="M775.934,537.289C774.396,537.415 773.061,536.281 772.935,534.744C772.809,533.207 773.943,531.871 775.48,531.745C784.124,531.014 795.035,531.443 805.594,532.4C819.202,533.66 832.281,535.802 839.312,537.592C840.798,537.97 841.706,539.482 841.353,540.968C841,542.455 839.463,543.362 837.976,542.984C831.096,541.246 818.37,539.129 805.09,537.919C794.859,536.987 784.3,536.584 775.934,537.289Z" fill="#000000"/>
<path d="M777.799,573.703C776.262,573.829 774.926,572.695 774.8,571.158C774.674,569.621 775.808,568.285 777.345,568.159C785.838,567.428 795.918,567.857 805.67,568.84C818.673,570.125 831.047,572.418 838.203,574.232C839.69,574.61 840.597,576.122 840.245,577.609C839.867,579.096 838.355,580.003 836.868,579.65C829.887,577.886 817.791,575.669 805.141,574.409C795.741,573.476 785.989,573.048 777.824,573.754L777.799,573.703Z" fill="#000000"/>
<path d="M783.317,607.32C781.78,607.32 780.545,606.06 780.545,604.523C780.545,602.986 781.805,601.751 783.343,601.751C792.717,601.801 802.671,602.507 811.869,603.54C822.05,604.699 831.374,606.312 837.951,607.975C839.438,608.353 840.345,609.865 839.992,611.352C839.614,612.839 838.102,613.746 836.615,613.393C830.24,611.78 821.193,610.218 811.289,609.109C802.192,608.076 792.415,607.396 783.343,607.345L783.317,607.32Z" fill="#000000"/>
<path d="M745.87,671.454L1145.944,671.454L1005.48,969.67L605.43,969.67L745.87,671.454Z" clip-rule="evenodd" fill-rule="evenodd" fill="#FFFFFF"/>
<path d="M746.349,668.657L1150.809,668.657L1007.723,972.469L601.499,972.469C649.177,871.189 696.881,769.91 744.585,668.657L746.349,668.657ZM1142.013,674.251L748.113,674.251L610.294,966.899L1004.195,966.899L1142.013,674.251Z" fill="#000000"/>
<path d="M491.475,972.468C489.938,972.468 488.678,971.208 488.678,969.671C488.678,968.134 489.938,966.874 491.475,966.874L1005.504,966.874C1007.042,966.874 1008.302,968.134 1008.302,969.671C1008.302,971.208 1007.042,972.468 1005.504,972.468L491.475,972.468Z" fill="#1A1A1A"/>
<path d="M876.152,844.301C889.263,844.301 899.891,833.673 899.891,820.562C899.891,807.452 889.263,796.824 876.152,796.824C863.042,796.824 852.414,807.452 852.414,820.562C852.414,833.673 863.042,844.301 876.152,844.301Z" fill="#000000"/>
</svg>
