<svg width="664" height="664" viewBox="0 0 664 664" fill="none" xmlns="http://www.w3.org/2000/svg" xmlns:xlink="http://www.w3.org/1999/xlink">
<path d="M337.086,87.608C377.484,62.549 469.594,191.803 396.74,266.516C380.538,283.129 375.732,272.97 354.536,276.463C342.598,278.428 337.737,253.236 284.046,269.013C248.748,279.385 253.914,230.952 203.848,242.254C94.54,266.915 241.723,80.742 337.1,87.608L337.086,87.608Z" fill="#000000"/>
<path d="M345.944,87.289C340.22,97.21 325.134,99.401 311.376,95.125C296.635,90.543 288.986,74.514 295.028,60.318C298.694,51.699 305.466,44.276 315.586,40.318C325.705,36.361 336.98,40.597 342.079,50.092C348.547,62.137 350.858,78.803 345.957,87.303L345.944,87.289Z" clip-rule="evenodd" fill-rule="evenodd" fill="#000000"/>
<path d="M361.401,193.676C362.597,187.686 365.12,182.959 368.32,179.864C372.995,175.349 379.183,174.154 384.88,177.275C388.227,179.107 391.321,182.507 393.805,187.66C391.627,189.997 389.196,190.913 386.58,191.033C380.843,180.422 372.039,183.609 369.396,194.286C366.527,195.03 363.871,194.605 361.401,193.662L361.401,193.676Z" fill="#FFF8F5"/>
<path d="M362.888,188.456C364.243,184.897 366.115,182.002 368.32,179.864C372.994,175.349 379.183,174.154 384.88,177.275C386.872,178.364 388.771,180.01 390.497,182.241C387.868,183.569 385.039,184.738 382.051,185.708C378.585,183.45 374.893,184.499 372.251,187.965C369.024,188.417 365.863,188.576 362.875,188.443L362.888,188.456Z" fill="#FFFFFF" stroke="#000000" stroke-width="2.52" stroke-miterlimit="10"/>
<path d="M346.554,182.786C341.999,176.797 320.326,170.196 316.568,173.145C315.546,193.755 311.455,220.926 307.179,231.47C318.746,235.162 341.694,233.834 351.72,231.218C346.382,221.232 345.519,190.422 346.554,182.773L346.554,182.786Z" clip-rule="evenodd" fill-rule="evenodd" fill="#FFFFFF" stroke="#020202" stroke-width="2.52" stroke-miterlimit="10"/>
<path d="M368.665,143.915C374.376,142.335 380.378,146.053 382.078,152.202C383.778,158.364 380.538,164.632 374.827,166.199C369.117,167.78 363.114,164.061 361.415,157.913C359.715,151.764 362.955,145.482 368.665,143.915Z" clip-rule="evenodd" fill-rule="evenodd" fill="#FFFFFF" stroke="#020202" stroke-width="2.52" stroke-miterlimit="10"/>
<path d="M316.555,173.145C294.364,184.805 286.622,141.22 314.696,152.786C321.734,141.884 334.603,139.825 335.798,120.078C340.618,119.746 345.333,119.825 349.928,120.436C360.512,121.831 369.423,128.936 373.354,138.869C383.739,165.11 371.826,191.989 354.921,197.673C343.102,201.657 330.047,191.564 316.542,173.158L316.555,173.145Z" clip-rule="evenodd" fill-rule="evenodd" fill="#FFFFFF" stroke="#020202" stroke-width="2.52" stroke-miterlimit="10"/>
<path d="M302.917,161.047C302.213,161.458 301.323,161.232 300.898,160.529C300.486,159.825 300.712,158.935 301.416,158.51C301.682,158.351 301.96,158.205 302.239,158.072C304.205,157.116 306.356,156.797 308.414,157.368C310.46,157.926 312.359,159.347 313.833,161.83C314.019,162.136 314.191,162.468 314.364,162.813C314.603,163.251 314.63,163.796 314.364,164.26C313.966,164.964 313.062,165.203 312.359,164.805C311.482,164.3 310.659,163.968 309.889,163.769C309.118,163.57 308.388,163.53 307.737,163.596C306.927,163.689 306.21,163.105 306.117,162.295C306.024,161.485 306.608,160.768 307.418,160.675C307.857,160.622 308.295,160.608 308.76,160.635C308.401,160.436 308.029,160.276 307.644,160.17C306.316,159.798 304.882,160.037 303.527,160.688C303.328,160.781 303.129,160.887 302.917,161.02L302.917,161.047Z" fill="#000000"/>
<path d="M315.32,173.928C314.882,173.238 315.094,172.335 315.785,171.91C316.476,171.471 317.379,171.684 317.804,172.374C320.088,176 322.85,179.732 326.183,183.291C329.517,186.836 333.408,190.209 337.976,193.105C338.653,193.543 338.866,194.446 338.427,195.123C337.989,195.8 337.086,196.013 336.409,195.575C331.615,192.52 327.538,189.001 324.058,185.296C320.579,181.591 317.711,177.713 315.334,173.941L315.32,173.928Z" fill="#000000"/>
<path d="M280.872,193.211C284.896,187.567 289.716,183.835 294.457,182.135C301.403,179.625 308.361,181.272 312.81,187.168C315.426,190.621 317.046,195.588 317.219,202.082C313.872,203.476 310.924,203.303 308.162,202.215C307.166,188.563 296.555,187.766 288.853,197.593C285.533,197.022 282.983,195.362 280.858,193.224L280.872,193.211Z" fill="#FFF8F5"/>
<path d="M284.842,188.496C287.897,185.442 291.203,183.304 294.47,182.135C301.416,179.625 308.374,181.272 312.823,187.168C314.377,189.227 315.572,191.803 316.329,194.924C312.996,195.083 309.516,194.977 305.971,194.579C303.434,190.621 299.118,189.984 294.776,192.361C291.217,191.325 287.883,190.024 284.842,188.496Z" fill="#FFFFFF" stroke="#000000" stroke-width="2.52" stroke-miterlimit="10"/>
<path d="M338.653,535.702L308.667,535.038L306.569,619.047C333.023,629.459 490.244,633.111 504.587,604.213C392.397,577.109 404.071,486.553 338.653,535.702Z" clip-rule="evenodd" fill-rule="evenodd" fill="#FFFFFF" stroke="#000000" stroke-width="2.52" stroke-miterlimit="10"/>
<path d="M462.25,621.849C484.003,618.317 500.403,612.66 504.587,604.213C486.938,599.951 472.343,594.107 460.046,587.494C458.718,591.956 458,596.737 458,601.704C458,608.941 459.528,615.78 462.25,621.849Z" clip-rule="evenodd" fill-rule="evenodd" fill="#FFFFFF" stroke="#231F20" stroke-width="2.52" stroke-miterlimit="10"/>
<path d="M363.274,617.639L361.176,533.63C370.007,528.664 478.624,491.493 481.546,484.534C473.22,467.416 470.989,444.8 415.359,430.471C693.256,331.11 680.028,599.964 363.274,617.627L363.274,617.639Z" clip-rule="evenodd" fill-rule="evenodd" fill="#000000"/>
<path d="M361.429,543.776L361.176,533.644C370.007,528.677 478.625,491.506 481.546,484.547C473.22,467.43 470.989,444.814 415.359,430.485C514.188,395.146 576.166,406.408 600.8,436.341C567.812,492.569 475.132,535.131 361.429,543.763L361.429,543.776Z" clip-rule="evenodd" fill-rule="evenodd" fill="#1C1B1B"/>
<path d="M312.638,613.231C330.194,592.208 435.172,538.703 428.666,506.101C419.024,457.722 286.25,432.662 249.013,444.336C40.438,369.782 -28.326,549.168 165.243,602.793C204.3,613.616 250.899,615.355 312.624,613.231L312.638,613.231Z" clip-rule="evenodd" fill-rule="evenodd" fill="#000000"/>
<path d="M412.013,537.495C423.461,526.167 430.511,515.304 428.679,506.101C419.037,457.722 286.265,432.662 249.027,444.336C152.362,409.781 85.749,429.794 61.341,466.526C111.898,513.577 208.191,545.383 318.695,545.383C351.309,545.383 382.677,542.607 412.013,537.495Z" clip-rule="evenodd" fill-rule="evenodd" fill="#1C1B1B"/>
<path d="M331.19,534.294L361.177,533.63L363.275,617.64C336.821,628.051 179.599,631.703 165.257,602.806C277.446,575.701 265.773,485.145 331.19,534.294Z" clip-rule="evenodd" fill-rule="evenodd" fill="#FFFFFF" stroke="#000000" stroke-width="2.52" stroke-miterlimit="10"/>
<path d="M207.593,620.442C185.841,616.909 169.44,611.252 165.257,602.806C182.906,598.543 197.501,592.7 209.798,586.086C211.126,590.548 211.843,595.329 211.843,600.296C211.843,607.533 210.316,614.373 207.593,620.442Z" clip-rule="evenodd" fill-rule="evenodd" fill="#FFFFFF" stroke="#231F20" stroke-width="2.52" stroke-miterlimit="10"/>
<path d="M258.814,547.176C282.2,522.927 294.71,506.884 331.19,534.294C322.731,546.751 306.622,555.17 288.137,555.17C277.154,555.17 267.021,552.196 258.814,547.176Z" clip-rule="evenodd" fill-rule="evenodd" fill="#FFFFFF" stroke="#231F20" stroke-width="2.52" stroke-miterlimit="10"/>
<path d="M364.39,532.342C363.633,532.648 362.783,532.289 362.478,531.532C362.173,530.775 362.531,529.925 363.288,529.62L498.279,474.561C499.036,474.255 499.886,474.614 500.192,475.371C500.497,476.128 500.139,476.978 499.382,477.283L364.39,532.342Z" fill="#FFFFFF"/>
<path d="M165.136,483.91C164.379,483.618 164.008,482.768 164.3,482.011C164.592,481.254 165.442,480.882 166.199,481.174L277.605,524.387C278.362,524.679 278.734,525.529 278.441,526.286C278.149,527.043 277.299,527.415 276.542,527.123L165.136,483.91Z" fill="#FFFFFF"/>
<path d="M378.48,256.277C385.638,246.145 381.72,230.342 378.944,224.113C345.346,222.506 313.7,221.019 286.888,217.34C281.51,224.459 278.269,246.981 284.352,259.239C221.551,269.597 27.344,440.59 215.057,483.298C547.136,585.514 632.62,363.912 378.466,256.264L378.48,256.277Z" clip-rule="evenodd" fill-rule="evenodd" fill="#FFFFFF" stroke="#000000" stroke-width="2.52" stroke-miterlimit="10"/>
<path d="M291.031,261.337C290.3,260.992 289.982,260.115 290.327,259.385C290.672,258.655 291.549,258.336 292.279,258.681C297.299,261.032 308.255,263.064 319.516,264.245C330.977,265.441 342.677,265.746 348.693,264.577C349.489,264.431 350.26,264.949 350.406,265.746C350.552,266.543 350.034,267.313 349.237,267.459C342.942,268.681 330.911,268.389 319.198,267.167C307.657,265.959 296.343,263.834 291.018,261.337L291.031,261.337Z" fill="#000000"/>
<path d="M248.057,313.634C248.177,312.837 248.934,312.279 249.73,312.399C250.527,312.518 251.085,313.275 250.965,314.072L234.339,431.587C234.219,432.384 233.462,432.941 232.666,432.822C232.028,432.729 231.55,432.224 231.444,431.627C231.112,430.418 229.558,426.912 229.093,425.73C224.631,414.376 214.764,405.943 203.184,401.109C191.537,396.262 178.204,395.053 166.85,398.174C165.416,398.573 163.995,399.037 162.587,399.595C161.83,399.887 160.98,399.516 160.688,398.759C160.396,398.002 160.768,397.152 161.525,396.86C162.985,396.288 164.513,395.784 166.093,395.346C178.071,392.052 192.108,393.314 204.326,398.4C216.066,403.287 226.158,411.733 231.192,423.101L248.084,313.634L248.057,313.634Z" fill="#000000"/>
<path d="M405.399,323.381C405.239,322.584 405.744,321.814 406.541,321.642C407.337,321.482 408.108,321.987 408.28,322.784L426.965,412.835C427.125,413.632 426.62,414.402 425.823,414.575C425.026,414.748 424.256,414.23 424.083,413.433L405.399,323.381Z" fill="#000000"/>
<path d="M215.07,483.312L233.343,432.848L282.851,444.415L342.08,480.709C338.813,486.367 336.515,491.147 328.176,491.572C332.478,495.702 340.101,497.402 342.996,500.204C338.985,509.819 322.16,507.083 319.783,505.875C304.683,521.97 278.004,503.006 267.845,499.514C261.696,500.125 226.53,496.513 215.083,483.325L215.07,483.312Z" clip-rule="evenodd" fill-rule="evenodd" fill="#FFFFFF" stroke="#000000" stroke-width="2.52" stroke-miterlimit="10"/>
<path d="M277.712,480.723C277.035,480.284 276.822,479.381 277.26,478.704C277.699,478.027 278.602,477.814 279.279,478.253L320.553,504.64C321.23,505.078 321.443,505.981 321.005,506.659C320.566,507.336 319.663,507.548 318.986,507.11L277.712,480.723Z" fill="#000000"/>
<path d="M283.927,464.813C283.276,464.322 283.143,463.406 283.621,462.755C284.113,462.104 285.029,461.971 285.68,462.449C290.487,466.048 302.24,473.671 313.966,481.041C327.485,489.541 340.925,497.668 343.581,498.863C344.324,499.195 344.656,500.058 344.324,500.802C343.992,501.546 343.129,501.878 342.385,501.546C339.597,500.297 326.011,492.077 312.399,483.538C300.593,476.115 288.761,468.439 283.927,464.827L283.927,464.813Z" fill="#000000"/>
<path d="M291.656,451.533C290.965,451.108 290.739,450.205 291.164,449.515C291.589,448.824 292.492,448.598 293.183,449.023L342.85,479.448C343.541,479.873 343.766,480.776 343.341,481.466C342.916,482.157 342.013,482.383 341.323,481.958L291.656,451.533Z" fill="#000000"/>
<path d="M424.429,258.601C430.047,261.736 432.543,267.951 430.007,272.479C427.484,277.007 420.87,278.136 415.266,275.002C409.649,271.868 407.152,265.653 409.689,261.125C412.225,256.596 418.825,255.467 424.429,258.601Z" clip-rule="evenodd" fill-rule="evenodd" fill="#FFFFFF" stroke="#000000" stroke-width="2.52" stroke-miterlimit="10"/>
<path d="M454.19,268.734C445.385,264.458 421.481,262.466 408.214,264.763C400.844,266.038 404.536,280.447 408.772,281.682C405.611,286.489 405.479,294.736 409.768,300.912C407.364,305.427 408.493,314.616 412.809,318.587C417.311,334.204 425.08,334.815 433.765,335.453L433.314,478.572C517.721,476.646 499.169,378.812 471.64,311.416L454.203,268.721L454.19,268.734Z" clip-rule="evenodd" fill-rule="evenodd" fill="#FFFFFF" stroke="#000000" stroke-width="2.52" stroke-miterlimit="10"/>
<path d="M408.905,283.143C408.095,283.209 407.391,282.612 407.324,281.802C407.258,280.992 407.856,280.288 408.666,280.221C413.221,279.836 418.971,280.062 424.535,280.567C431.707,281.231 438.599,282.359 442.304,283.302C443.087,283.501 443.566,284.298 443.38,285.082C443.194,285.865 442.384,286.343 441.6,286.144C437.975,285.228 431.268,284.112 424.27,283.475C418.878,282.984 413.314,282.771 408.905,283.143Z" fill="#000000"/>
<path d="M409.888,302.333C409.078,302.399 408.374,301.801 408.307,300.991C408.241,300.181 408.838,299.477 409.649,299.411C414.124,299.026 419.436,299.252 424.575,299.769C431.428,300.447 437.948,301.655 441.72,302.611C442.503,302.811 442.981,303.607 442.795,304.391C442.596,305.174 441.799,305.653 441.016,305.467C437.337,304.537 430.963,303.368 424.296,302.704C419.343,302.213 414.204,301.987 409.901,302.359L409.888,302.333Z" fill="#000000"/>
<path d="M412.796,320.048C411.986,320.048 411.335,319.384 411.335,318.574C411.335,317.764 411.999,317.113 412.809,317.113C417.749,317.14 422.995,317.512 427.842,318.056C433.207,318.667 438.121,319.517 441.587,320.393C442.37,320.592 442.848,321.389 442.663,322.173C442.463,322.956 441.667,323.434 440.883,323.249C437.523,322.399 432.756,321.575 427.537,320.991C422.743,320.446 417.59,320.088 412.809,320.061L412.796,320.048Z" fill="#000000"/>
<path d="M393.062,353.846L603.894,353.846L529.872,511.001L319.052,511.001L393.062,353.846Z" clip-rule="evenodd" fill-rule="evenodd" fill="#FFFFFF"/>
<path d="M393.314,352.372L606.458,352.372L531.054,512.475L316.98,512.475C342.106,459.103 367.245,405.731 392.384,352.372L393.314,352.372ZM601.822,355.32L394.243,355.32L321.615,509.54L529.194,509.54L601.822,355.32Z" fill="#000000"/>
<path d="M258.999,512.475C258.189,512.475 257.525,511.811 257.525,511.001C257.525,510.191 258.189,509.527 258.999,509.527L529.885,509.527C530.695,509.527 531.359,510.191 531.359,511.001C531.359,511.811 530.695,512.475 529.885,512.475L258.999,512.475Z" fill="#1A1A1A"/>
<path d="M461.718,444.933C468.627,444.933 474.228,439.332 474.228,432.423C474.228,425.514 468.627,419.914 461.718,419.914C454.809,419.914 449.208,425.514 449.208,432.423C449.208,439.332 454.809,444.933 461.718,444.933Z" fill="#000000"/>
</svg>
