<svg width="64" height="64" viewBox="0 0 64 64" fill="none" xmlns="http://www.w3.org/2000/svg" xmlns:xlink="http://www.w3.org/1999/xlink">
<path d="M60.003,32.622C60.003,30.32 59.812,28.64 59.4,26.897L32.574,26.897L32.574,37.288L48.32,37.288C48.003,39.871 46.288,43.76 42.479,46.373L42.425,46.721L50.907,53.16L51.495,53.217C56.892,48.333 60.003,41.146 60.003,32.622Z" fill="#4285F4"/>
<path d="M32.573,60C40.287,60 46.763,57.511 51.493,53.218L42.477,46.373C40.065,48.022 36.826,49.173 32.573,49.173C25.017,49.173 18.605,44.289 16.319,37.538L15.984,37.565L7.164,44.254L7.049,44.569C11.747,53.715 21.398,60 32.573,60Z" fill="#34A853"/>
<path d="M16.32,37.538C15.717,35.795 15.368,33.929 15.368,32C15.368,30.071 15.717,28.204 16.289,26.462L16.273,26.091L7.343,19.295L7.05,19.431C5.114,23.226 4.003,27.489 4.003,32C4.003,36.511 5.114,40.773 7.05,44.569L16.32,37.538Z" fill="#FBBC05"/>
<path d="M32.573,14.827C37.938,14.827 41.557,17.098 43.62,18.996L51.684,11.28C46.732,6.769 40.287,4 32.573,4C21.398,4 11.747,10.284 7.049,19.431L16.287,26.462C18.605,19.711 25.017,14.827 32.573,14.827Z" fill="#EB4335"/>
</svg>
