<svg width="678" height="734" viewBox="0 0 678 734" fill="none" xmlns="http://www.w3.org/2000/svg" xmlns:xlink="http://www.w3.org/1999/xlink">
<g opacity="0.98">
<path d="M16.134,4.224L661.865,4.224L661.865,-0.224L16.134,-0.224L16.134,4.224ZM672.987,15.347L672.987,661.078L677.437,661.078L677.437,15.347L672.987,15.347ZM661.865,672.2L16.134,672.2L16.134,676.65L661.865,676.65L661.865,672.2ZM5.012,661.078L5.012,15.347L0.563,15.347L0.563,661.078L5.012,661.078ZM16.134,672.2C9.991,672.2 5.012,667.222 5.012,661.078L0.563,661.078C0.563,669.678 7.534,676.65 16.134,676.65L16.134,672.2ZM672.987,661.078C672.987,667.222 668.009,672.2 661.865,672.2L661.865,676.65C670.465,676.65 677.437,669.678 677.437,661.078L672.987,661.078ZM661.865,4.224C668.009,4.224 672.987,9.204 672.987,15.347L677.437,15.347C677.437,6.747 670.465,-0.224 661.865,-0.224L661.865,4.224ZM16.134,-0.224C7.534,-0.224 0.563,6.747 0.563,15.347L5.012,15.347C5.012,9.204 9.991,4.224 16.134,4.224L16.134,-0.224Z" fill="#000000"/>
<path d="M144.945,675.648L496.273,675.648C497.749,662.224 443.933,376.735 380.719,284.956C373.543,274.541 312.109,266.963 289.556,292.87C170.09,430.067 142.059,672.36 144.945,675.648Z" fill="#000000"/>
<path d="M389.051,308.649C399.024,334.482 436.642,425.055 457.088,490.057C470.809,533.679 476.033,570.289 479.035,579.909C479.035,579.909 375.298,546.587 351.941,546.529C315.971,546.439 258.268,621.569 272.423,630.977C294.673,645.779 400.738,696.117 485.439,711.921C531.481,720.517 618.231,661.993 611.375,615.469C601.755,550.171 483.757,378.055 438.865,329.25C415.557,303.917 376.897,277.165 389.051,308.649Z" fill="#FF9581"/>
<path d="M617.699,629.27C615.525,676.304 556.691,715.9 522.565,717.99C463.714,721.558 287.169,670.146 287.169,670.146L355.796,537.936C355.796,537.936 475.926,578.712 478.977,579.86L478.977,579.81C477.919,576.308 448.313,465.06 435.084,428.197C434.379,426.163 433.559,424.08 432.788,421.89C428.983,411.679 423.758,398.197 417.985,383.632L417.927,383.525C414.729,375.463 411.35,367.033 408.029,358.717L408.029,358.667C393.521,322.624 379.382,288.318 379.382,288.318C399.606,291.64 419.576,302.268 452.364,336.68C485.086,371.051 621.291,551.68 617.699,629.27Z" fill="#000000"/>
<path d="M332.923,641.54C337.819,632.183 342.797,622.866 347.71,613.517C352.532,604.365 357.412,595.245 362.332,586.142C367.417,576.727 372.756,567.328 376.865,557.438C376.938,557.249 376.684,557.093 376.561,557.257C370.386,565.401 365.301,574.381 360.224,583.23C354.968,592.399 349.842,601.65 344.765,610.925C339.787,620.012 334.998,629.189 330.274,638.399C325.419,647.88 320.515,657.705 317.005,667.776C316.865,668.177 317.423,668.571 317.685,668.177C323.361,659.755 328.216,650.529 332.923,641.54Z" fill="#2B454E"/>
<path d="M515.718,599.37L479.034,579.917L478.977,579.868L478.977,579.818C477.919,576.316 448.313,465.068 435.084,428.204C434.379,426.171 433.559,424.087 432.788,421.898C428.983,411.687 423.759,398.205 417.985,383.64L515.718,599.37Z" fill="#1C1C1C"/>
<path d="M546.086,615.51C535.9,607.899 524.919,601.092 513.856,594.835C508.328,591.702 502.686,588.823 496.888,586.232C490.721,583.476 484.201,581.483 478.074,578.711C477.607,578.498 477.262,579.22 477.73,579.433C483.454,582.025 488.892,585.633 494.419,588.643C500.168,591.776 505.942,594.859 511.765,597.853C523.197,603.733 534.424,609.974 545.791,615.977C546.062,616.125 546.34,615.698 546.086,615.51Z" fill="#1C1C1C"/>
<path d="M519.374,587.027C510.166,587.151 454.578,572.307 446.484,579.933C397.146,626.443 381.548,617.077 371.042,623.137C289.744,669.909 181.178,724.855 142.428,725.201C83.659,725.675 60.253,676.355 70.037,629.755C89.35,537.641 213.581,358.028 269.79,310.297C299.594,285.03 297.24,323.14 284.914,364.572C277.68,388.864 265.034,424.982 252.134,460.427C240.71,492.001 210.431,572.685 209.907,574.579L209.907,574.627C209.857,574.735 209.808,574.791 209.816,574.849C209.775,575.063 209.989,575.103 210.464,574.973C213.048,574.497 282.568,541.733 352.482,523.731C377.118,517.393 428.424,508.355 446.82,516.563C457.76,521.443 457.94,527.971 457.94,527.971C457.94,527.971 466.708,527.177 475.958,534.787C482.092,539.839 483.996,546.981 483.996,546.981C483.996,546.981 493.59,548.327 498.586,553.887C504.54,560.521 505.064,567.543 505.064,567.543C518.022,571.003 519.374,587.027 519.374,587.027Z" fill="#FFFFFF"/>
<path d="M437.258,526.028C429.844,526.134 422.611,527.209 415.328,528.488C414.836,528.578 414.852,529.341 415.377,529.284C422.529,528.496 429.77,528.332 436.954,528.094C444.098,527.856 451.356,527.701 458.499,527.848C458.54,527.848 458.548,527.774 458.507,527.766C451.38,526.594 444.508,525.921 437.258,526.028Z" fill="#1A2E35"/>
<path d="M483.791,546.556C471.063,543.062 460.918,541.127 444.934,543.128C444.418,543.193 444.459,543.956 444.967,543.923C460.156,542.98 470.063,544.522 483.767,546.826C483.923,546.859 483.931,546.597 483.791,546.556Z" fill="#1A2E35"/>
<path d="M504.925,567.115C492.164,561.866 482.339,560.226 468.176,560.226C467.676,560.226 467.512,560.964 468.029,561.013C481.618,562.309 491.558,564.261 504.737,567.689C505.065,567.771 505.237,567.246 504.925,567.115Z" fill="#1A2E35"/>
<path d="M349.088,524.544C342.986,525.339 336.884,527.135 330.914,528.603C324.55,530.169 318.202,531.9 311.969,533.958C299.487,538.075 287.374,543.012 275.425,548.458C274.966,548.671 275.212,549.376 275.704,549.204C287.875,544.94 300.168,540.946 312.47,537.075C318.522,535.172 324.533,533.146 330.561,531.178C336.745,529.153 343.183,527.619 349.26,525.314C349.67,525.159 349.547,524.478 349.088,524.544Z" fill="#1A2E35"/>
<path d="M300.463,537.723C313.331,533.369 319.145,533.343 319.145,533.343L392.291,656.861C392.291,656.861 190.823,729.391 149.464,733.631C108.098,737.871 61.04,705.297 60.245,653.367C59.129,580.377 178.152,405.094 238.028,337.312C265.469,306.246 297.461,283.685 305.621,288.778C315.259,294.789 297.757,333.851 288.531,362.99C271.505,416.781 210.481,574.973 210.481,574.973C210.481,574.973 285.135,542.915 300.463,537.723Z" fill="#000000"/>
<path d="M318.489,533.245C307.139,533.909 258.072,551 234.01,561.325C210.03,571.618 186.96,583.829 165.317,598.443C153.073,606.71 141.452,615.707 129.97,624.999C129.577,625.318 130.003,625.958 130.43,625.655C151.589,610.524 174.191,597.025 197.064,584.666C219.822,572.372 242.998,560.702 267.118,551.295C280.854,545.94 304.474,537.919 317.891,534.401C321.688,533.401 318.842,533.22 318.489,533.245Z" fill="#1C1C1C"/>
<path d="M270.185,425.236C267.118,430.19 264.009,435.11 261.385,440.326C261.262,440.572 261.147,440.818 261.024,441.064C264.92,429.214 268.618,417.33 272.161,405.365C272.383,404.627 271.161,404.233 270.882,404.947C253.569,448.79 237.503,493.166 221.921,537.657C217.558,550.098 213.736,562.67 209.775,575.235C209.636,575.669 210.349,575.891 210.53,575.481C215.286,564.704 220.076,554.002 224.431,543.037C228.785,532.08 232.829,521.001 236.921,509.946C244.072,490.615 250.888,471.187 257.457,451.66C259.515,448.24 261.59,444.829 263.534,441.351C266.363,436.275 268.692,430.961 271.054,425.655C271.308,425.072 270.505,424.72 270.185,425.236Z" fill="#1C1C1C"/>
<path d="M343.273,629.961C337.91,620.857 332.628,611.713 327.289,602.602C322.057,593.671 316.898,584.707 311.765,575.727C306.458,566.435 301.3,556.938 295.075,548.22C294.96,548.056 294.682,548.195 294.764,548.384C298.413,557.93 303.35,566.992 308.189,575.973C313.2,585.281 318.35,594.515 323.541,603.725C328.626,612.746 333.883,621.661 339.214,630.543C344.692,639.671 350.449,649.028 357.15,657.328C357.42,657.656 358.043,657.401 357.855,656.959C353.697,647.691 348.424,638.703 343.273,629.961Z" fill="#1C1C1C"/>
<path d="M395.202,657.123C389.134,645.158 379.694,633.406 372.708,622.022C372.444,621.588 371.796,622.039 372.052,622.473C378.398,633.151 384.214,644.658 390.282,655.516C362.611,666.94 333.235,677.126 305.015,687.123C276.057,697.391 246.91,707.117 217.361,715.63C200.844,720.387 184.303,725.545 167.687,729.908C166.654,730.179 166.933,731.032 167.991,730.827C197.884,725.201 227.236,716.565 256.177,707.38C285.693,698.014 314.823,687.549 343.814,676.716C360.126,670.622 395.694,658.091 395.202,657.123Z" fill="#1C1C1C"/>
<path d="M347.226,524.625C309.181,534.368 265.403,550.401 245.786,558.077C245.27,558.258 244.802,558.438 244.335,558.61C227.055,565.401 216.353,570.436 213.786,570.863C213.572,570.764 213.408,570.617 213.244,570.518L213.244,570.469C211.448,569.173 209.669,568.189 207.897,567.525C203.026,565.778 156.214,559.931 157.395,545.431C158.535,531.087 177.611,531.981 180.415,532.178C177.381,531.514 151.974,525.56 160.249,512.873C166.096,503.876 191.257,505.197 193.791,505.295C191.224,504.45 167.884,496.84 175.913,483.89C181.662,474.623 209.751,475.828 212.99,476.378C210.366,475.377 189.56,471.892 199.27,460.73C206.011,452.955 258.9,460.861 282.412,472.597C317.374,490.049 347.226,524.625 347.226,524.625Z" fill="#FFFFFF"/>
<path d="M245.786,558.078C245.269,558.258 244.802,558.439 244.334,558.611C236.215,552.304 205.494,536.033 181.358,532.941C179.866,532.753 179.767,531.892 181.35,531.965C211.153,533.319 237.946,550.869 245.786,558.078Z" fill="#1A2E35"/>
<path d="M194.939,506.255C228.252,512.865 243.31,520.221 271.956,538.419C272.358,538.673 272.809,538.083 272.423,537.788C245.721,517.802 229.105,507.903 195.226,505.41C193.693,505.295 193.414,505.951 194.939,506.255Z" fill="#1A2E35"/>
<path d="M214.015,477.067C245.975,485.563 262.82,492.928 288.563,513.759C289.17,514.251 289.916,513.504 289.359,512.955C265.1,489.426 244.138,480.101 214.319,476.181C212.285,475.919 212.006,476.534 214.015,477.067Z" fill="#1A2E35"/>
<path d="M374.043,348.9C355.115,355.707 318.35,329.767 302.431,307.181C301.349,305.623 301.906,287.933 301.562,266.397C301.308,253.333 300.709,238.784 299.208,225.556L384.483,236.299C384.483,236.299 379.472,264.962 382.228,288.015C382.482,289.943 382.876,291.714 383.417,293.379C383.475,293.625 383.581,293.92 383.639,294.264C386.501,304.385 392.34,342.307 374.043,348.9Z" fill="#FFFFFF" stroke="#000000" stroke-width="0.356" stroke-miterlimit="10"/>
<path d="M383.671,294.256C383.835,294.806 383.999,295.404 384.106,296.118C333.054,293.953 313.634,271.506 301.07,249.97C300.684,241.761 300.143,233.437 299.208,225.556L384.492,236.283C384.492,236.283 379.456,264.97 382.244,288.015C382.466,289.934 382.901,291.681 383.45,293.379C383.507,293.592 383.557,293.928 383.671,294.256Z" fill="#000000" stroke="#000000" stroke-width="0.356" stroke-miterlimit="10"/>
<path d="M264.255,136.106C259.63,166.721 287.571,249.085 311.19,264.888C345.43,287.794 395.276,283.128 413.171,243.385C430.516,204.865 392.2,98.176 366.4,84.456C328.396,64.24 271.087,90.877 264.255,136.106Z" fill="#FFFFFF" stroke="#000000" stroke-width="0.713" stroke-miterlimit="10"/>
<path d="M343.109,173.151C342.994,172.955 342.765,173.562 342.847,173.783C344.872,179.278 346.275,185.921 341.863,189.439C341.723,189.545 341.838,189.824 342.01,189.734C347.858,186.831 345.914,178.031 343.109,173.151Z" fill="#000000"/>
<path d="M336.204,169.01C327.043,171.314 332.325,189.472 340.813,187.339C349.17,185.232 343.888,167.074 336.204,169.01Z" fill="#000000"/>
<path d="M377.324,162.85C377.308,162.62 377.841,162.989 377.898,163.219C379.358,168.894 381.982,175.151 387.617,175.537C387.789,175.545 387.863,175.84 387.666,175.865C381.195,176.8 377.792,168.459 377.324,162.85Z" fill="#000000"/>
<path d="M380.637,155.51C389.486,152.188 395.473,170.132 387.272,173.2C379.21,176.234 373.223,158.29 380.637,155.51Z" fill="#000000"/>
<path d="M326.625,162.785C328.913,161.44 330.808,159.824 332.94,158.258C335.343,156.494 337.434,155.338 338.492,152.418C339.058,150.852 337.992,148.646 336.524,147.949C333.096,146.333 329.618,147.76 326.641,149.761C323.41,151.934 321.475,154.436 320.343,158.159C319.244,161.768 323.599,164.556 326.625,162.785Z" fill="#000000"/>
<path d="M385,144.324C382.359,144.644 379.874,144.505 377.242,144.554C374.265,144.611 371.895,144.964 369.279,143.274C367.876,142.372 367.392,139.969 368.139,138.526C369.877,135.164 373.51,134.188 377.094,133.974C380.982,133.745 384.041,134.557 387.19,136.837C390.249,139.043 388.477,143.898 385,144.324Z" fill="#000000"/>
<path d="M356.124,225.293C357.855,226.22 359.724,227.639 361.816,227.221C363.817,226.819 365.859,225.269 367.45,224.047C367.606,223.924 367.844,224.063 367.778,224.268C366.95,226.851 364.268,229.099 361.529,229.402C358.855,229.697 356.952,227.86 355.657,225.712C355.476,225.408 355.87,225.162 356.124,225.293Z" fill="#000000"/>
<path d="M357.133,206.735C361.701,210.704 367.106,212.024 372.395,211.532C374.757,211.327 377.136,210.721 379.375,209.843C379.826,209.704 380.26,209.523 380.646,209.31C381.039,209.138 381.4,208.982 381.827,208.76C382.458,208.473 382.663,207.826 382.589,207.169L382.573,207.128C382.507,206.923 382.458,206.759 382.352,206.571C382.352,206.571 382.352,206.571 382.343,206.53L382.188,206.038C381.048,201.675 378.71,195.212 378.71,195.212C380.523,195.54 389.651,196.828 388.863,194.597C382.294,176.194 374.995,155.724 364.572,138.797C364.26,138.223 363.358,138.641 363.587,139.24C369.197,157.175 377.931,174.004 383.852,191.94C380.99,191.71 376.266,191.12 374.011,191.825C373.445,192.178 378.751,204.233 379.104,206.235C379.104,206.235 379.129,206.317 379.129,206.456C372.125,209.507 365.999,208.9 357.51,206.07C357.002,205.874 356.666,206.382 357.133,206.735Z" fill="#000000"/>
<g opacity="0.2">
<path d="M273.244,194.129C278.074,190.176 284.176,169.92 287.013,161.555C289.957,152.861 281.223,117.621 278.369,107.14C271.161,115.276 266.084,125.224 264.296,136.426C262.246,149.179 266.215,171.781 273.244,194.129Z" fill="#000000"/>
</g>
<path d="M353.869,117.268C349.776,126.093 341.485,132.408 331.759,133.572C322.286,134.704 311.502,131.038 305.728,123.19C305.556,122.96 305.195,123.222 305.367,123.46C311.543,131.842 321.36,137.386 332.005,135.852C341.994,134.409 351.048,127.019 354.508,117.555C354.656,117.129 354.057,116.858 353.869,117.268Z" fill="#1A2E35"/>
<path d="M306.589,58.425C290.983,63.289 279.066,76.123 276.401,88.474C274.777,95.978 276.155,102.728 279.14,109.141C279.263,109.403 279.805,109.182 279.706,108.911C275.745,98.537 277.516,84.915 286.776,74.212C295.674,63.936 309.566,57.548 323.516,58.704C330.799,59.303 337.319,61.944 341.51,66.241C341.977,66.725 343.051,66.011 342.633,65.503C335.539,56.924 320.712,54.029 306.589,58.425Z" fill="#1A2E35"/>
<path d="M407.586,66.257C402.887,59.237 395.579,54.161 387.477,51.881C376.126,48.682 365.481,52.701 354.992,56.9C354.705,57.015 354.886,57.458 355.164,57.343C364.112,53.792 373.387,50.716 383.097,52.611C391.011,54.161 398.483,58.384 403.608,64.65C414.253,77.657 413.515,97.791 401.706,109.813C395.022,116.62 385.426,120.475 375.897,120.163C375.519,120.155 375.413,120.729 375.798,120.754C393.357,121.787 410.03,109.124 412.826,91.574C414.212,82.914 412.498,73.581 407.586,66.257Z" fill="#1A2E35"/>
<path d="M264.067,153.632C264.067,153.632 241.177,129.734 249.059,109.92C253.52,98.692 277.336,93.272 277.336,93.272C277.336,93.272 281.084,77.64 299.274,67.692C317.653,57.646 344.249,62.517 344.249,62.517C344.249,62.517 359.888,46.566 380.186,51.618C408.488,58.663 415.927,96.642 394.768,115.505C379.907,128.75 352.22,120.106 352.22,120.106C350.055,121.049 330.947,141.437 307.737,125.797C307.737,125.797 297.133,142.372 281.945,137.139C281.953,137.147 279.124,151.729 264.067,153.632Z" fill="#000000"/>
<path d="M383.393,292.46L365.252,342.643L301.775,282.742L285.217,303.367C285.217,303.367 348.759,399.96 348.964,395.474L367.622,352.312L397.999,380.687L392.808,306.738L383.393,292.46Z" fill="#EDEFEF"/>
<path d="M397.507,343.988C396.236,331.809 395.301,319.499 393.472,307.394C393.407,306.968 392.726,306.795 392.636,307.312C390.635,319.196 395.728,365.753 396.105,376.948C396.064,376.907 396.015,376.866 395.974,376.825C394.702,375.595 367.869,351.91 367.622,352.303C363.481,359.201 349.785,390.635 348.875,393.481C338.828,378.137 300.414,322.427 288.662,308.001C288.326,307.583 287.678,307.96 287.949,308.452C296.929,324.715 347.8,399.771 348.53,399.525C349.047,399.894 366.089,361.169 368.024,353.903C372.609,359.11 399.812,385.961 399.828,384.14C399.959,371.879 398.77,356.183 397.507,343.988Z" fill="#1C1C1C"/>
<path d="M292.508,202.42C292.508,202.42 268.848,178.342 257.612,187.224C246.377,196.105 267.363,233.248 282.806,236.217C298.249,239.186 301.275,224.949 301.275,224.949L292.508,202.42Z" fill="#FFFFFF" stroke="#000000" stroke-width="0.713" stroke-miterlimit="10"/>
<path d="M263.895,197.713C263.657,197.73 263.665,198.066 263.886,198.115C274.769,200.534 281.724,209.08 287.128,218.249C283.462,214.985 278.993,213.615 274.54,218.068C274.31,218.306 274.63,218.675 274.909,218.569C278.935,216.978 282.068,217.191 285.447,220.061C287.842,222.095 289.712,224.859 291.598,227.352C292.229,228.18 293.796,227.418 293.271,226.425C293.23,226.352 293.189,226.278 293.148,226.204C291.212,213.172 278.066,196.68 263.895,197.713Z" fill="#1A2E35"/>
</g>
</svg>
