<svg width="156" height="104" viewBox="0 0 156 104" fill="none" xmlns="http://www.w3.org/2000/svg" xmlns:xlink="http://www.w3.org/1999/xlink">
<path d="M76.155,103.85C75.627,103.85 75.134,103.697 74.676,103.429L69.992,100.405C69.288,99.984 69.64,99.831 69.852,99.754C70.802,99.41 70.978,99.333 71.964,98.721C72.07,98.644 72.211,98.682 72.316,98.759L75.908,101.094C76.049,101.171 76.225,101.171 76.331,101.094L90.381,92.251C90.522,92.175 90.593,92.021 90.593,91.83L90.593,74.184C90.593,73.992 90.522,73.839 90.381,73.762L76.331,64.958C76.19,64.881 76.014,64.881 75.908,64.958L61.858,73.762C61.717,73.839 61.646,74.03 61.646,74.183L61.646,91.83C61.646,91.983 61.717,92.175 61.858,92.251L65.696,94.663C67.774,95.811 69.077,94.471 69.077,93.132L69.077,75.714C69.077,75.485 69.253,75.255 69.499,75.255L71.295,75.255C71.507,75.255 71.718,75.446 71.718,75.714L71.718,93.132C71.718,96.156 70.203,97.917 67.562,97.917C66.753,97.917 66.119,97.917 64.323,96.96L60.625,94.663C59.71,94.089 59.146,93.017 59.146,91.868L59.146,74.222C59.146,73.073 59.71,72.001 60.625,71.427L74.676,62.585C75.556,62.049 76.754,62.049 77.634,62.585L91.684,71.427C92.6,72.001 93.164,73.073 93.164,74.222L93.164,91.868C93.164,93.017 92.6,94.089 91.684,94.663L77.634,103.506C77.176,103.735 76.648,103.85 76.155,103.85ZM80.486,91.715C74.324,91.715 73.056,88.653 73.056,86.05C73.056,85.82 73.232,85.591 73.479,85.591L75.31,85.591C75.521,85.591 75.697,85.744 75.697,85.974C75.979,88.002 76.789,88.998 80.522,88.998C83.48,88.998 84.748,88.27 84.748,86.548C84.748,85.552 84.395,84.825 79.782,84.327C75.944,83.906 73.549,82.988 73.549,79.657C73.549,76.557 75.944,74.719 79.958,74.719C84.466,74.719 86.684,76.404 86.966,80.078C86.966,80.193 86.931,80.308 86.86,80.423C86.79,80.499 86.684,80.576 86.579,80.576L84.747,80.576C84.571,80.576 84.395,80.423 84.36,80.231C83.938,78.126 82.846,77.437 79.958,77.437C76.719,77.437 76.331,78.662 76.331,79.581C76.331,80.691 76.789,81.035 81.156,81.648C85.487,82.26 87.53,83.141 87.53,86.433C87.494,89.801 84.959,91.715 80.486,91.715Z" fill="#539E43"/>
<path d="M32.559,34.832C32.559,34.143 32.207,33.492 31.644,33.147L16.713,23.807C16.466,23.654 16.185,23.577 15.903,23.539L15.762,23.539C15.48,23.539 15.199,23.654 14.952,23.807L0.021,33.147C-0.542,33.492 -0.894,34.143 -0.894,34.832L-0.859,59.943C-0.859,60.288 -0.683,60.632 -0.401,60.785C-0.12,60.977 0.232,60.977 0.479,60.785L9.353,55.273C9.917,54.929 10.269,54.278 10.269,53.589L10.269,41.837C10.269,41.148 10.621,40.497 11.184,40.153L14.952,37.779C15.234,37.588 15.551,37.511 15.868,37.511C16.185,37.511 16.501,37.588 16.748,37.779L20.516,40.153C21.08,40.497 21.432,41.148 21.432,41.837L21.432,53.589C21.432,54.278 21.784,54.929 22.347,55.273L31.221,60.785C31.358,60.879 31.517,60.929 31.679,60.929C31.841,60.929 32,60.879 32.137,60.785C32.419,60.632 32.595,60.288 32.595,59.943L32.559,34.832ZM104.326,0.265C104.045,0.112 103.693,0.112 103.446,0.265C103.164,0.456 102.988,0.763 102.988,1.107L102.988,25.989C102.988,26.219 102.883,26.448 102.671,26.602C102.46,26.716 102.249,26.716 102.038,26.602L98.305,24.266C98.031,24.097 97.722,24.008 97.407,24.008C97.092,24.008 96.782,24.097 96.509,24.266L81.578,33.645C81.014,33.989 80.662,34.64 80.662,35.329L80.662,54.048C80.662,54.737 81.014,55.388 81.578,55.732L96.509,65.111C96.782,65.28 97.092,65.369 97.407,65.369C97.722,65.369 98.031,65.28 98.305,65.111L113.236,55.732C113.799,55.388 114.151,54.737 114.151,54.048L114.151,7.385C114.151,6.658 113.799,6.007 113.236,5.662L104.326,0.265ZM102.953,47.885C102.953,48.077 102.883,48.23 102.742,48.306L97.636,51.521C97.564,51.559 97.486,51.579 97.407,51.579C97.327,51.579 97.249,51.559 97.178,51.521L92.072,48.306C91.931,48.23 91.86,48.038 91.86,47.885L91.86,41.454C91.86,41.263 91.931,41.11 92.072,41.033L97.178,37.817C97.249,37.779 97.327,37.76 97.407,37.76C97.486,37.76 97.564,37.779 97.636,37.817L102.742,41.033C102.883,41.109 102.953,41.301 102.953,41.454L102.953,47.885ZM154.014,41.301C154.578,40.957 154.894,40.306 154.894,39.616L154.894,35.061C154.894,34.372 154.542,33.722 154.014,33.377L139.189,24.037C138.915,23.868 138.606,23.779 138.291,23.779C137.976,23.779 137.666,23.868 137.393,24.037L122.462,33.415C121.898,33.76 121.546,34.41 121.546,35.099L121.546,53.818C121.546,54.507 121.898,55.158 122.462,55.503L137.287,64.69C137.851,65.034 138.52,65.034 139.048,64.69L148.027,59.255C148.309,59.101 148.485,58.757 148.485,58.412C148.485,58.068 148.309,57.723 148.027,57.57L133.026,48.191C132.744,48 132.568,47.694 132.568,47.35L132.568,41.493C132.568,41.148 132.744,40.804 133.026,40.65L137.709,37.741C137.847,37.647 138.005,37.598 138.167,37.598C138.329,37.598 138.488,37.647 138.625,37.741L143.309,40.65C143.591,40.842 143.766,41.148 143.766,41.493L143.766,46.086C143.766,46.431 143.942,46.775 144.224,46.928C144.361,47.022 144.52,47.072 144.682,47.072C144.844,47.072 145.003,47.022 145.14,46.928L154.014,41.301Z" fill="#333333"/>
<path d="M138.062,40.42C138.114,40.383 138.175,40.363 138.238,40.363C138.3,40.363 138.362,40.383 138.414,40.42L141.266,42.219C141.372,42.296 141.442,42.411 141.442,42.564L141.442,46.163C141.442,46.316 141.372,46.43 141.266,46.507L138.414,48.306C138.362,48.344 138.3,48.364 138.238,48.364C138.175,48.364 138.114,48.344 138.062,48.306L135.209,46.507C135.104,46.43 135.033,46.316 135.033,46.163L135.033,42.564C135.033,42.411 135.103,42.296 135.209,42.22L138.062,40.42Z" fill="#539E43"/>
<path d="M57.526,24.114C57.253,23.944 56.943,23.855 56.628,23.855C56.314,23.855 56.004,23.944 55.731,24.114L40.905,33.415C40.342,33.759 40.025,34.41 40.025,35.099L40.025,53.742C40.025,54.431 40.377,55.081 40.905,55.426L55.731,64.728C56.004,64.897 56.314,64.986 56.628,64.986C56.943,64.986 57.253,64.897 57.526,64.728L72.352,55.426C72.915,55.081 73.232,54.431 73.232,53.742L73.232,35.099C73.232,34.411 72.88,33.76 72.352,33.415L57.526,24.114Z" fill="url(#pf_0_i_196_568;196_531;1502_921)"/>
<defs>
<linearGradient id="pf_0_i_196_568;196_531;1502_921" x1="2304.384" y1="743.108" x2="963.959" y2="3715.544" gradientUnits="userSpaceOnUse">
<stop stop-color="#41873F"/>
<stop offset="0.329" stop-color="#418B3D"/>
<stop offset="0.635" stop-color="#419637"/>
<stop offset="0.932" stop-color="#3FA92D"/>
<stop offset="1" stop-color="#3FAE2A"/>
</linearGradient>
</defs>
</svg>
