<svg width="1046" height="1190" viewBox="0 0 1046 1190" fill="none" xmlns="http://www.w3.org/2000/svg" xmlns:xlink="http://www.w3.org/1999/xlink">
<path d="M28,8L1016.716,8L1016.716,0L28,0L28,8ZM1036.716,28L1036.716,1016.716L1044.716,1016.716L1044.716,28L1036.716,28ZM1016.716,1036.716L28,1036.716L28,1044.716L1016.716,1044.716L1016.716,1036.716ZM8,1016.716L8,28L0,28L0,1016.716L8,1016.716ZM28,1036.716C16.954,1036.716 8,1027.762 8,1016.716L0,1016.716C0,1032.18 12.536,1044.716 28,1044.716L28,1036.716ZM1036.716,1016.716C1036.716,1027.762 1027.762,1036.716 1016.716,1036.716L1016.716,1044.716C1032.18,1044.716 1044.716,1032.18 1044.716,1016.716L1036.716,1016.716ZM1016.716,8C1027.762,8 1036.716,16.954 1036.716,28L1044.716,28C1044.716,12.536 1032.18,0 1016.716,0L1016.716,8ZM28,0C12.536,0 0,12.536 0,28L8,28C8,16.954 16.954,8 28,8L28,0Z" fill="#000000"/>
<path d="M346.82,620.005C351.299,620.295 372.263,621.741 402.916,623.905C414.543,604.843 428.737,570.817 425.554,521.579C424.975,513.425 442.025,560.889 431.405,625.907C490.635,630.033 571.218,635.621 641.636,639.823C644.252,612.367 647.926,587.049 647.926,587.049C649.436,606.993 652.86,625.077 656.948,640.805C666.576,641.459 676.026,641.913 685.072,642.429C684.96,599.619 695.642,525.529 695.642,525.529C699.656,577.587 714.304,619.691 725.112,644.593C769.846,646.795 799.316,647.425 797.518,645.221C733.38,564.525 784.984,522.095 768.866,452.873C749.512,369.923 679.498,353.679 684.406,292.273C688.268,242.303 698.65,151.779 636.324,129.481C636.324,129.481 587.476,70.805 505.294,98.123C403.633,131.822 436.124,287.968 427.869,319.049C416.129,363.455 394.058,378.279 375.774,428.689C357.138,479.701 379.146,515.135 380.216,550.357C381.16,585.577 335.595,619.389 346.82,620.005Z" fill="#000000"/>
<path d="M800.033,634.249C791.64,619.979 784.266,605.005 780.315,589.439C775.898,573.949 778.83,558.421 782.655,542.453C786.455,526.561 790.872,510.329 793.15,493.379C795.226,476.491 795.427,458.636 790.57,441.623C786.015,424.585 777.031,408.894 765.655,395.996C754.418,382.896 741.332,372.176 728.723,361.606C716.24,350.922 703.783,340.352 694.673,327.064C685.336,313.965 680.026,298.098 678.78,281.513C677.358,298.047 680.982,315.4 689.539,330.273C697.969,345.247 710.112,357.529 722.155,368.929C734.197,380.405 746.34,391.365 756.356,403.747C766.297,416.116 774.073,429.933 777.886,445.02C781.749,460.058 782.316,475.95 780.441,491.869C778.792,507.837 775.068,523.805 772.148,540.315C770.764,548.581 769.481,557.013 769.367,565.733C769.204,574.465 771.003,583.413 773.86,591.415C779.95,607.447 789.111,621.703 800.033,634.249Z" fill="#000000"/>
<path d="M446.177,152.961C437.532,171.572 433.707,192.007 429.857,212.052C426.384,232.236 423.905,252.546 421.652,272.78L418.091,302.979C416.883,313.071 415.172,322.521 412.202,331.732C406.389,350.243 395.152,366.111 382.543,382.191C376.415,390.359 370.199,398.877 365.002,408.177C359.793,417.451 355.514,427.341 352.507,437.559C349.789,447.915 347.826,458.095 346.693,468.577C345.51,479.033 345.586,489.791 346.97,500.273C348.316,510.793 350.808,520.785 352.821,530.575C354.872,540.339 356.018,550.305 356.156,560.145C356.76,579.687 345.573,598.651 329.228,610.679C347.184,601.103 360.9,581.989 362.485,560.409C363.253,549.915 362.649,539.483 361.29,529.177C359.981,518.885 357.867,508.993 357.2,499.217C355.64,479.839 359.012,459.855 364.511,441.169C367.569,431.947 371.357,423.037 376.239,414.619C381.058,406.163 386.96,398.247 393.126,390.195C399.191,382.091 405.52,373.761 410.994,364.651C416.455,355.553 421.136,345.75 424.181,335.457C427.176,325.176 428.737,314.456 429.63,304.288C430.674,294.045 431.316,283.853 431.958,273.686C433.317,253.363 434.387,233.079 436.287,212.895C437.973,192.687 440.401,172.528 446.177,152.961Z" fill="#000000"/>
<path d="M448.04,486.91C322.107,628.599 169.609,920.784 203.773,976.628C241.838,1038.828 423.528,837.066 417.274,827.93C411.964,820.166 471.03,645.384 513.928,517.576C556.774,389.88 479.184,451.866 448.04,486.91Z" fill="#D3766A"/>
<path d="M448.04,486.91C322.107,628.599 169.609,920.784 203.773,976.628C241.838,1038.828 423.528,837.066 417.274,827.93C411.964,820.166 471.03,645.384 513.928,517.576C556.774,389.88 479.184,451.866 448.04,486.91Z" fill="#000000" stroke="#FFFFFF" stroke-width="2" stroke-miterlimit="10"/>
<path d="M464.99,664.197C452.709,701.481 441.434,736.451 432.877,764.398C413.411,765.266 356.484,762.121 297.33,705.282C315.11,673.748 334.362,642.076 354.206,611.825C369.08,627.491 405.169,658.031 464.99,664.197Z" fill="#000000" stroke="#FFFFFF" stroke-width="1.258" stroke-miterlimit="10"/>
<path d="M326.535,1041.231L358.17,826.925C358.17,826.925 307.471,738.413 336.879,674.881C351.727,642.705 453.539,485.464 508.377,445.65C559.829,408.315 630.297,442.366 654.267,474.843C723.175,568.237 756.759,736.349 795.239,1041.231L326.535,1041.231Z" fill="#FFFFFF" stroke="#000000" stroke-width="2" stroke-miterlimit="3.999327"/>
<path d="M418.796,544.466C408.39,558.748 398.285,573.232 388.357,587.854C391.063,582.166 393.793,576.491 396.461,570.791C396.65,570.375 396.046,570.036 395.844,570.451C392.145,577.598 388.747,584.846 385.438,592.132C372.162,611.787 359.277,631.706 346.845,651.89C341.572,660.459 336.728,669.18 333.167,678.617C329.719,687.753 327.58,697.366 326.447,707.043C325.315,716.745 325.227,726.497 325.982,736.224C326.749,746.252 327.97,756.18 330.21,765.984C332.751,777.044 336.212,788.054 340.691,798.498C342.894,803.62 345.247,808.716 347.776,813.7C350.091,818.242 354.797,827.516 354.734,827.868C353.791,833.002 352.822,836.6 352.167,840.916C351.501,845.308 350.846,849.712 350.179,854.104C348.858,862.9 337.432,948.492 336.149,957.3C333.594,974.778 331.392,992.27 329.215,1009.798C327.957,1019.852 327.303,1029.994 325.893,1040.036C325.831,1040.438 326.447,1040.602 326.523,1040.186C327.97,1031.442 330.134,1022.822 331.72,1014.114C333.305,1005.394 334.928,996.66 336.564,987.94C339.874,970.324 352.595,875.748 355.351,858.03C356.119,853.136 356.874,848.228 357.641,843.332C358.396,838.464 359.705,831.92 359.516,826.988C359.516,826.988 343.825,794.736 337.722,772.136C335.167,762.648 332.55,752.77 331.48,742.994C330.436,733.367 330.335,723.678 331.128,714.039C331.921,704.4 333.733,694.824 336.69,685.613C339.735,676.1 344.114,667.254 349.009,658.559C359.252,640.351 370.149,622.483 381.185,604.74C393.705,584.632 406.376,564.6 419.325,544.768C419.551,544.428 419.023,544.164 418.796,544.466Z" fill="#000000"/>
<path d="M203.773,976.629C235.923,1017.877 317.815,1021.79 523.062,1051.021C551.462,1055.061 633.934,862.297 603.822,856.42C565.896,849.021 417.124,828.511 406.05,828.372C312.694,827.315 181.966,948.644 203.773,976.629Z" fill="#000000"/>
<path d="M562.699,849.261C562.699,849.261 649.448,857.792 693.642,876.378C752.82,901.268 793.654,947.121 809.61,967.381C842.918,1009.648 894.22,1134.877 860.722,1155.941C830.41,1175.019 784.43,1044.365 784.43,1044.365C784.43,1044.365 853.286,1169.835 812.566,1186.091C771.846,1202.349 727.1,1047.637 727.1,1047.637C727.1,1047.637 794.962,1178.139 750.304,1188.255C716.568,1195.907 668.148,1058.069 668.148,1058.069C668.148,1058.069 725.69,1170.651 691.338,1180.001C653.374,1190.345 600.701,1065.921 600.701,1065.921C509.358,1075.005 462.146,1041.962 431.367,1014.467C423.93,1007.811 562.699,849.261 562.699,849.261Z" fill="#FFFFFF" stroke="#000000" stroke-width="2.5" stroke-miterlimit="10"/>
<path d="M763.416,999.443C772.036,1013.889 780.87,1028.447 788.168,1043.623C795.479,1058.786 802.261,1074.213 808.125,1089.992C822.508,1128.686 825.465,1155.162 825.1,1153.551C816.569,1115.348 791.251,1060.661 783.94,1045.485C776.641,1030.36 770.111,1014.857 762.825,999.707C762.649,999.317 763.215,999.103 763.416,999.443Z" fill="#000000"/>
<path d="M708.175,1024.836C718.381,1043.762 729.215,1062.171 738.589,1081.549C747.914,1100.84 755.086,1119.954 763.064,1139.823C763.68,1141.358 762.649,1141.182 761.969,1139.672C753.199,1120.13 743.585,1102.74 734.6,1083.298C725.641,1063.933 717.361,1044.063 707.697,1025.037C707.559,1024.748 708.024,1024.547 708.175,1024.836Z" fill="#000000"/>
<path d="M656.862,1038.111C673.95,1066.235 685.829,1097.467 696.738,1128.396C697.279,1129.932 695.983,1129.567 695.342,1128.032C682.645,1097.769 672.905,1073.936 655.88,1038.715C655.616,1038.149 656.497,1037.507 656.862,1038.111Z" fill="#000000"/>
<path d="M628.247,850.758L459.265,1049.599C459.265,1049.599 228.449,1033.543 201.873,972.74C175.297,911.925 351.036,823.301 405.773,828.07C460.511,832.839 628.247,850.758 628.247,850.758Z" fill="#000000" stroke="#FFFFFF" stroke-width="2" stroke-miterlimit="3.999327"/>
<path d="M316.859,854.406C330.121,845.346 367.809,823.816 405.773,828.069C406.2,828.12 406.213,828.724 405.785,828.736C374.654,829.693 330.763,847.221 317.198,854.947C316.833,855.149 316.531,854.633 316.859,854.406Z" fill="#000000"/>
<path d="M423.528,1015.234C489.943,944.893 549.072,860.887 560.422,846.982C560.963,846.328 559.831,845.535 559.327,846.227C548.908,860.446 470.917,949.121 422.333,1014.403C421.766,1015.158 422.899,1015.914 423.528,1015.234Z" fill="#000000"/>
<path d="M688.017,519.249C823.741,691.955 874.943,1002.211 799.607,1026.395C730.775,1048.491 447.676,977.647 363.342,949.007C338.578,940.589 415.072,748.015 441.573,756.987C473.597,767.821 648.683,809.307 652.079,809.383C659.353,809.547 620.445,618.532 603.747,531.984C580.493,411.385 637.055,454.382 688.017,519.249Z" fill="#FFFFFF" stroke="#000000" stroke-width="1.258" stroke-miterlimit="10"/>
<path d="M215.261,684.62C200.929,700.878 212.531,720.092 212.531,720.092C212.531,720.092 195.807,724.559 187.289,738.841C177.536,755.2 198.903,777.661 198.903,777.661C198.903,777.661 182.91,785.689 175.435,801.67C167.671,818.267 185.992,844 185.992,844C185.992,844 175.209,859.654 178.656,878.113C184.545,909.673 230.185,927.579 259.089,939.257C287.98,950.933 380.884,956.999 398.476,959.943L475.032,775.132C475.032,775.132 360.36,685.891 324.434,676.994C294.159,669.495 231.343,666.374 215.261,684.62Z" fill="#FFFFFF" stroke="#000000" stroke-width="2.5" stroke-miterlimit="10"/>
<path d="M215.035,717.651C249.123,717.903 281.286,728.234 313.965,736.715C314.695,736.904 314.38,738.036 313.663,737.848C281.261,729.039 247.512,726.774 214.833,719.262C213.915,719.061 214.116,717.651 215.035,717.651Z" fill="#000000"/>
<path d="M200.488,775.485C208.202,775.774 215.789,778.605 223.088,780.895C230.952,783.362 238.754,785.966 246.53,788.685C262.096,794.133 277.536,799.934 292.799,806.188C293.479,806.465 293.214,807.572 292.497,807.32C276.982,801.922 261.379,796.75 245.637,792.006C237.76,789.628 229.87,787.325 221.955,785.073C214.594,782.972 206.666,781.374 199.897,777.674C198.915,777.12 199.33,775.447 200.488,775.485Z" fill="#000000"/>
<path d="M186.659,844.214C193.366,844.201 200.539,847.851 206.742,850.166C213.776,852.796 220.836,855.388 227.908,857.942C242.039,863.039 256.182,868.135 270.477,872.74C271.194,872.967 270.892,874.099 270.175,873.873C255.616,869.267 241.007,864.863 226.486,860.119C219.351,857.791 212.241,855.426 205.144,853.022C199.104,850.984 191.328,849.109 186.383,844.906C186.093,844.68 186.32,844.214 186.659,844.214Z" fill="#000000"/>
<path d="M649.55,801.557C651.74,800.249 611.07,615.889 597.43,519.677C583.79,423.478 626.762,432.714 688.584,514.959C754.81,603.054 872.728,841.535 831.882,1018.117C818.658,1075.295 408.982,995.189 408.982,995.189L464.185,759.729C464.172,759.743 646.152,803.583 649.55,801.557Z" fill="#000000" stroke="#FFFFFF" stroke-width="2" stroke-miterlimit="10"/>
<path d="M816.48,784.078C749.662,803.683 677.22,793.73 647.649,788.168C643.371,765.027 633.002,714.883 622.432,660.686C692.635,668.463 740.275,658.446 766.297,649.726C785.311,690.823 803.129,736.677 816.48,784.078Z" fill="#000000" stroke="#FFFFFF" stroke-width="2" stroke-miterlimit="10"/>
<path d="M462.599,970.979C487.514,888.999 501.255,799.053 504.766,783.55C504.929,782.82 503.734,782.632 503.595,783.387C500.94,798.776 474.087,899.858 461.303,970.803C461.164,971.621 462.36,971.772 462.599,970.979Z" fill="#000000"/>
<path d="M726.558,828.8C718.656,827.441 509.509,768.538 463.768,761.454C463.051,761.341 463.693,758.937 464.448,759.076C604.979,783.865 720.444,821.439 729.29,824.974C739.796,829.14 741.294,831.329 726.558,828.8Z" fill="#000000"/>
<path d="M647.524,803.432C647.675,803.029 633.733,732.437 631.266,728.033C628.737,723.465 623.251,713.323 621.011,708.591C616.481,699.053 612.555,689.301 608.39,679.637C608.038,678.844 609.245,678.215 609.598,679.021C614.103,688.37 619.413,697.329 624.761,706.175C627.428,710.517 630.084,714.908 632.751,719.212C632.953,719.501 619.878,650.23 618.054,638.075C617.903,637.181 618.884,636.929 619.161,637.684C623.087,649.928 650.506,788.684 654.256,804.049C654.256,804.061 651.664,804.011 647.524,803.432Z" fill="#000000"/>
<path d="M493.34,1009.823C479.687,1006.048 424.95,997.202 411.636,995.29C412.945,990.47 416.833,970.878 416.468,965.354C416.431,964.838 415.651,964.523 415.336,964.989C412.228,969.544 406.893,993.641 405.307,999.329C405.005,1000.411 479.045,1009.71 493.227,1010.465C493.63,1010.478 493.743,1009.937 493.34,1009.823Z" fill="#000000"/>
<path d="M475.019,462.788C475.019,462.788 480.518,516.959 525.428,525.402C570.338,533.833 654.269,474.843 654.269,474.843C654.269,474.843 620.558,429.48 559.667,429.341C501.092,429.19 475.019,462.788 475.019,462.788Z" fill="#000000" stroke="#FFFFFF" stroke-width="2" stroke-miterlimit="10"/>
<path d="M603.972,447.65C601.569,455.791 559.138,507.081 521.539,503.155C509.295,501.859 513.397,434.714 513.397,434.714L512.567,429.694L501.003,359.34L585.601,311.637L597.794,305.383C597.794,305.383 599.694,324.837 601.808,349.097C601.909,350.217 602.022,351.35 602.11,352.558C602.261,353.929 602.425,355.213 602.513,356.496C602.878,360.12 603.23,363.807 603.507,367.507C603.733,370.313 603.96,373.043 604.086,376C604.287,378.97 604.425,381.839 604.627,384.809C605.986,414.027 604.941,444.177 603.972,447.65Z" fill="#FFFFFF"/>
<path d="M601.809,351.086C578.743,405.244 533.292,425.252 512.58,431.695L501.016,361.341L585.614,313.638L597.807,307.384C597.795,307.371 599.682,326.825 601.809,351.086Z" fill="#FFFFFF" stroke="#000000" stroke-width="2.5" stroke-miterlimit="10"/>
<path d="M419.69,227.996C386.772,348.733 455.364,382.079 481.399,389.151C505.043,395.569 586.356,414.419 631.568,297.733C676.792,181.048 631.064,127.581 577.775,110.04C524.497,92.499 452.621,107.259 419.69,227.996Z" fill="#FFFFFF" stroke="#000000" stroke-width="2.5" stroke-miterlimit="10"/>
<path d="M463.177,204.377C466.109,204.729 468.878,204.566 471.822,204.616C475.132,204.679 477.774,205.056 480.681,203.181C482.241,202.175 482.782,199.507 481.952,197.896C480.001,194.159 475.962,193.077 471.973,192.838C467.644,192.586 464.247,193.505 460.736,196.034C457.314,198.5 459.302,203.911 463.177,204.377Z" fill="#000000"/>
<path d="M549.222,216.432C546.429,215.463 544.013,214.092 541.358,212.846C538.35,211.437 535.821,210.631 534.034,207.662C533.078,206.076 533.77,203.434 535.217,202.364C538.602,199.86 542.717,200.665 546.404,202.213C550.405,203.887 553.06,206.202 555.099,210.027C557.062,213.727 552.897,217.703 549.222,216.432Z" fill="#000000"/>
<path d="M521.627,255.025C521.766,254.723 522.181,255.579 522.08,255.918C519.777,264.123 518.506,273.912 525.314,278.505C525.528,278.644 525.402,279.059 525.125,278.946C516.317,275.41 518.129,262.424 521.627,255.025Z" fill="#000000"/>
<path d="M531.152,248.217C544.705,250.495 539.143,277.436 526.597,275.322C514.228,273.246 519.79,246.305 531.152,248.217Z" fill="#000000"/>
<path d="M536.149,250.734C538.187,252.747 539.936,255.906 542.717,256.774C545.939,257.781 548.996,255.465 551.702,253.2C551.979,252.961 552.167,253.251 552.092,253.603C551.098,258.775 548.027,263.67 542.34,263.292C537.143,262.952 534.463,257.63 534.249,252.181C534.198,251.162 535.331,249.916 536.149,250.734Z" fill="#000000"/>
<path d="M471.923,238.566C471.923,238.239 471.181,238.818 471.118,239.17C469.583,247.55 466.412,256.9 458.283,258.032C458.031,258.07 457.968,258.485 458.258,258.511C467.72,259.203 471.81,246.758 471.923,238.566Z" fill="#000000"/>
<path d="M466.361,228.26C453.187,224.347 446.329,250.985 458.547,254.609C470.552,258.183 477.409,231.544 466.361,228.26Z" fill="#000000"/>
<path d="M460.359,228.587C457.893,229.456 455.149,231.482 452.595,231.003C449.625,230.45 448.216,227.014 447.071,223.768C446.958,223.428 446.681,223.604 446.58,223.957C445.133,229.015 445.448,234.753 450.091,236.98C454.319,239.019 458.723,235.496 461.24,230.739C461.693,229.858 461.353,228.235 460.359,228.587Z" fill="#000000"/>
<path d="M500.299,318.142C497.971,319.791 495.53,322.182 492.434,321.955C489.464,321.729 486.243,319.866 483.726,318.394C483.475,318.243 483.16,318.495 483.298,318.772C484.972,322.345 489.238,325.101 493.252,325.038C497.165,324.975 499.581,321.993 501.054,318.658C501.255,318.193 500.638,317.903 500.299,318.142Z" fill="#000000"/>
<path d="M472.074,280.443C472.074,280.443 467.645,292.498 466.349,298.362C466.236,298.916 467.595,299.482 469.558,300.035C469.646,300.086 469.696,300.136 469.784,300.098C479.788,303.974 491,302.678 499.141,295.606C499.669,295.115 499.053,294.348 498.449,294.599C489.477,298.588 480.618,298.186 471.395,296.323C471.332,294.612 479.687,275.926 478.769,275.662C475.623,274.68 468.828,275.485 464.788,275.762C473.295,250.382 485.815,226.574 493.906,201.168C494.183,200.262 492.912,199.683 492.459,200.451C477.586,224.485 467.142,253.477 457.679,279.462C456.471,282.696 469.507,280.934 472.074,280.443Z" fill="#000000"/>
<path d="M471.886,298.186C471.886,298.186 475.422,307.12 482.267,311.826C484.784,313.575 487.69,314.771 491.05,314.771C497.971,314.796 499.708,308.907 499.884,303.521C500.035,299.092 499.066,294.977 499.066,294.977C499.066,294.977 487.275,301.294 471.886,298.186Z" fill="#000000"/>
<path d="M482.267,311.827C484.784,313.576 487.691,314.771 491.05,314.771C497.971,314.796 499.708,308.907 499.884,303.522C492.774,302.376 484.658,305.258 482.267,311.827Z" fill="#FFFFFF" stroke="#000000" stroke-width="1" stroke-miterlimit="3.999327"/>
<path d="M624.836,295.706C611.964,291.176 588.194,245.361 605.282,181.815C605.282,181.815 593.881,239.937 595.756,249.488C597.644,259.026 582.506,223.743 595.567,172.302C595.567,172.302 561.467,184.596 535.444,184.432C509.422,184.281 494.75,179.827 493.529,177.587C492.309,175.347 530.952,174.353 543.712,166.048C543.712,166.048 471.106,177.461 440.918,171.245C437.42,170.528 453.502,99.105 507.698,82.381C561.907,65.658 625,118.596 639.055,142.958C639.055,142.958 660.964,152.76 676.1,193.643C691.264,234.527 638.703,300.588 624.836,295.706Z" fill="#000000"/>
<path d="M606.15,298.362C606.15,298.362 639.999,264.815 655.703,277.562C671.394,290.308 641.081,342.353 619.211,346.254C597.354,350.155 593.34,329.996 593.34,329.996L606.15,298.362Z" fill="#FFFFFF" stroke="#000000" stroke-width="2.5" stroke-miterlimit="10"/>
<path d="M646.643,292.259C646.983,292.284 646.958,292.763 646.656,292.826C631.241,296.034 621.275,307.976 613.474,320.811C618.708,316.281 625.05,314.419 631.241,320.798C631.568,321.138 631.103,321.654 630.713,321.49C625.063,319.163 620.633,319.414 615.801,323.403C612.379,326.222 609.698,330.097 606.98,333.583C606.074,334.741 603.885,333.633 604.64,332.249C604.69,332.148 604.766,332.048 604.816,331.935C607.773,313.563 626.648,290.535 646.643,292.259Z" fill="#000000"/>
</svg>
