<svg width="36" height="42" viewBox="0 0 36 42" fill="none" xmlns="http://www.w3.org/2000/svg" xmlns:xlink="http://www.w3.org/1999/xlink">
<path d="M14.48,17.343C13.34,17.343 12.44,18.343 12.44,19.563C12.44,20.783 13.36,21.783 14.48,21.783C15.62,21.783 16.52,20.783 16.52,19.563C16.54,18.343 15.62,17.343 14.48,17.343ZM21.78,17.343C20.64,17.343 19.74,18.343 19.74,19.563C19.74,20.783 20.66,21.783 21.78,21.783C22.92,21.783 23.82,20.783 23.82,19.563C23.82,18.343 22.92,17.343 21.78,17.343Z" fill="#000000"/>
<path d="M31.5,0.563L4.7,0.563C2.44,0.563 0.6,2.403 0.6,4.683L0.6,31.722C0.6,34.003 2.44,35.843 4.7,35.843L27.38,35.843L26.32,32.142L28.88,34.522L31.3,36.763L35.6,40.563L35.6,4.683C35.6,2.403 33.76,0.563 31.5,0.563ZM23.78,26.683C23.78,26.683 23.06,25.823 22.46,25.063C25.08,24.323 26.08,22.683 26.08,22.683C25.26,23.222 24.48,23.603 23.78,23.862C22.78,24.282 21.82,24.563 20.88,24.722C18.96,25.083 17.2,24.983 15.7,24.702C14.56,24.483 13.58,24.163 12.76,23.843C12.3,23.663 11.8,23.442 11.3,23.163C11.24,23.122 11.18,23.103 11.12,23.063C11.08,23.042 11.06,23.022 11.04,23.003C10.68,22.802 10.48,22.663 10.48,22.663C10.48,22.663 11.44,24.263 13.98,25.022C13.38,25.782 12.64,26.683 12.64,26.683C8.22,26.542 6.54,23.642 6.54,23.642C6.54,17.202 9.42,11.983 9.42,11.983C12.3,9.823 15.04,9.882 15.04,9.882L15.24,10.122C11.64,11.163 9.98,12.743 9.98,12.743C9.98,12.743 10.42,12.503 11.16,12.163C13.3,11.222 15,10.962 15.7,10.903C15.82,10.882 15.92,10.862 16.04,10.862C17.26,10.702 18.64,10.663 20.08,10.823C21.98,11.042 24.02,11.603 26.1,12.743C26.1,12.743 24.52,11.243 21.12,10.202L21.4,9.882C21.4,9.882 24.14,9.823 27.02,11.983C27.02,11.983 29.9,17.202 29.9,23.642C29.9,23.642 28.2,26.542 23.78,26.683L23.78,26.683Z" fill="#000000"/>
</svg>
