<svg width="36" height="42" viewBox="0 0 36 42" fill="none" xmlns="http://www.w3.org/2000/svg" xmlns:xlink="http://www.w3.org/1999/xlink">
<path d="M14.48,17.188C13.34,17.188 12.44,18.188 12.44,19.408C12.44,20.627 13.36,21.627 14.48,21.627C15.62,21.627 16.52,20.627 16.52,19.408C16.54,18.188 15.62,17.188 14.48,17.188ZM21.78,17.188C20.64,17.188 19.74,18.188 19.74,19.408C19.74,20.627 20.66,21.627 21.78,21.627C22.92,21.627 23.82,20.627 23.82,19.408C23.82,18.188 22.92,17.188 21.78,17.188Z" fill="#000000"/>
<path d="M31.5,0.408L4.7,0.408C2.44,0.408 0.6,2.248 0.6,4.528L0.6,31.568C0.6,33.848 2.44,35.688 4.7,35.688L27.38,35.688L26.32,31.988L28.88,34.368L31.3,36.608L35.6,40.408L35.6,4.528C35.6,2.248 33.76,0.408 31.5,0.408ZM23.78,26.528C23.78,26.528 23.06,25.668 22.46,24.908C25.08,24.168 26.08,22.528 26.08,22.528C25.26,23.068 24.48,23.448 23.78,23.708C22.78,24.128 21.82,24.408 20.88,24.568C18.96,24.928 17.2,24.828 15.7,24.548C14.56,24.328 13.58,24.008 12.76,23.688C12.3,23.508 11.8,23.288 11.3,23.008C11.24,22.968 11.18,22.948 11.12,22.908C11.08,22.888 11.06,22.868 11.04,22.848C10.68,22.648 10.48,22.508 10.48,22.508C10.48,22.508 11.44,24.108 13.98,24.868C13.38,25.628 12.64,26.528 12.64,26.528C8.22,26.388 6.54,23.488 6.54,23.488C6.54,17.048 9.42,11.828 9.42,11.828C12.3,9.668 15.04,9.728 15.04,9.728L15.24,9.968C11.64,11.008 9.98,12.588 9.98,12.588C9.98,12.588 10.42,12.348 11.16,12.008C13.3,11.068 15,10.808 15.7,10.748C15.82,10.728 15.92,10.708 16.04,10.708C17.26,10.548 18.64,10.508 20.08,10.668C21.98,10.888 24.02,11.448 26.1,12.588C26.1,12.588 24.52,11.088 21.12,10.048L21.4,9.728C21.4,9.728 24.14,9.668 27.02,11.828C27.02,11.828 29.9,17.048 29.9,23.488C29.9,23.488 28.2,26.388 23.78,26.528L23.78,26.528Z" fill="#000000"/>
</svg>
