<svg width="156" height="104" viewBox="0 0 156 104" fill="none" xmlns="http://www.w3.org/2000/svg" xmlns:xlink="http://www.w3.org/1999/xlink">
<path d="M77.049,103.85C76.521,103.85 76.028,103.697 75.57,103.429L70.887,100.405C70.183,99.984 70.535,99.831 70.746,99.754C71.697,99.41 71.873,99.333 72.859,98.721C72.965,98.644 73.106,98.682 73.211,98.759L76.803,101.094C76.944,101.171 77.12,101.171 77.225,101.094L91.276,92.251C91.417,92.175 91.487,92.021 91.487,91.83L91.487,74.184C91.487,73.992 91.417,73.839 91.276,73.762L77.225,64.958C77.085,64.881 76.909,64.881 76.803,64.958L62.752,73.762C62.612,73.839 62.541,74.03 62.541,74.183L62.541,91.83C62.541,91.983 62.612,92.175 62.752,92.251L66.591,94.663C68.669,95.811 69.971,94.471 69.971,93.132L69.971,75.714C69.971,75.485 70.147,75.255 70.394,75.255L72.19,75.255C72.401,75.255 72.612,75.446 72.612,75.714L72.612,93.132C72.612,96.156 71.098,97.917 68.457,97.917C67.647,97.917 67.013,97.917 65.217,96.96L61.52,94.663C60.604,94.089 60.041,93.017 60.041,91.868L60.041,74.222C60.041,73.073 60.604,72.001 61.52,71.427L75.57,62.585C76.451,62.049 77.648,62.049 78.529,62.585L92.579,71.427C93.494,72.001 94.058,73.073 94.058,74.222L94.058,91.868C94.058,93.017 93.494,94.089 92.579,94.663L78.529,103.506C78.071,103.735 77.542,103.85 77.049,103.85ZM81.381,91.715C75.219,91.715 73.951,88.653 73.951,86.05C73.951,85.82 74.127,85.591 74.374,85.591L76.205,85.591C76.416,85.591 76.592,85.744 76.592,85.974C76.874,88.002 77.684,88.998 81.416,88.998C84.374,88.998 85.642,88.27 85.642,86.548C85.642,85.552 85.29,84.825 80.677,84.327C76.838,83.906 74.444,82.988 74.444,79.657C74.444,76.557 76.839,74.719 80.853,74.719C85.36,74.719 87.579,76.404 87.861,80.078C87.861,80.193 87.826,80.308 87.755,80.423C87.684,80.499 87.579,80.576 87.473,80.576L85.642,80.576C85.466,80.576 85.29,80.423 85.255,80.231C84.832,78.126 83.741,77.437 80.853,77.437C77.613,77.437 77.226,78.662 77.226,79.581C77.226,80.691 77.684,81.035 82.05,81.648C86.382,82.26 88.424,83.141 88.424,86.433C88.389,89.801 85.854,91.715 81.381,91.715Z" fill="#539E43"/>
<path d="M33.454,34.832C33.454,34.143 33.102,33.492 32.538,33.147L17.607,23.807C17.36,23.654 17.079,23.577 16.797,23.539L16.656,23.539C16.375,23.539 16.093,23.654 15.846,23.807L0.916,33.147C0.352,33.492 0,34.143 0,34.832L0.035,59.943C0.035,60.288 0.211,60.632 0.493,60.785C0.775,60.977 1.127,60.977 1.374,60.785L10.248,55.273C10.811,54.929 11.163,54.278 11.163,53.589L11.163,41.837C11.163,41.148 11.515,40.497 12.079,40.153L15.846,37.779C16.128,37.588 16.445,37.511 16.762,37.511C17.079,37.511 17.396,37.588 17.643,37.779L21.41,40.153C21.974,40.497 22.326,41.148 22.326,41.837L22.326,53.589C22.326,54.278 22.678,54.929 23.242,55.273L32.116,60.785C32.253,60.879 32.411,60.929 32.573,60.929C32.735,60.929 32.894,60.879 33.031,60.785C33.313,60.632 33.489,60.288 33.489,59.943L33.454,34.832ZM105.221,0.265C104.939,0.112 104.587,0.112 104.34,0.265C104.059,0.456 103.883,0.762 103.883,1.107L103.883,25.989C103.883,26.219 103.777,26.448 103.566,26.602C103.354,26.716 103.143,26.716 102.932,26.602L99.199,24.266C98.926,24.097 98.616,24.008 98.301,24.008C97.986,24.008 97.677,24.097 97.403,24.266L82.472,33.645C81.909,33.989 81.557,34.64 81.557,35.329L81.557,54.048C81.557,54.737 81.909,55.388 82.472,55.732L97.403,65.111C97.677,65.28 97.986,65.369 98.301,65.369C98.616,65.369 98.926,65.28 99.199,65.111L114.13,55.732C114.694,55.388 115.046,54.737 115.046,54.048L115.046,7.385C115.046,6.658 114.694,6.007 114.13,5.662L105.221,0.265ZM103.848,47.885C103.848,48.077 103.777,48.23 103.636,48.306L98.53,51.521C98.459,51.559 98.381,51.579 98.301,51.579C98.222,51.579 98.144,51.559 98.072,51.521L92.966,48.306C92.825,48.23 92.755,48.038 92.755,47.885L92.755,41.454C92.755,41.263 92.825,41.11 92.966,41.033L98.072,37.817C98.144,37.779 98.222,37.76 98.301,37.76C98.381,37.76 98.459,37.779 98.53,37.817L103.636,41.033C103.777,41.109 103.848,41.301 103.848,41.454L103.848,47.885ZM154.908,41.301C155.472,40.957 155.789,40.306 155.789,39.616L155.789,35.061C155.789,34.372 155.437,33.722 154.908,33.377L140.083,24.037C139.809,23.868 139.5,23.779 139.185,23.779C138.87,23.779 138.561,23.868 138.287,24.037L123.356,33.415C122.792,33.76 122.441,34.41 122.441,35.099L122.441,53.818C122.441,54.507 122.793,55.158 123.356,55.503L138.181,64.69C138.745,65.034 139.414,65.034 139.942,64.69L148.922,59.255C149.204,59.101 149.38,58.757 149.38,58.412C149.38,58.068 149.204,57.723 148.922,57.57L133.921,48.191C133.639,48 133.463,47.694 133.463,47.35L133.463,41.493C133.463,41.148 133.639,40.804 133.921,40.65L138.604,37.741C138.741,37.647 138.9,37.598 139.062,37.598C139.224,37.598 139.382,37.647 139.519,37.741L144.203,40.65C144.485,40.842 144.661,41.148 144.661,41.493L144.661,46.086C144.661,46.431 144.837,46.775 145.119,46.928C145.256,47.022 145.414,47.072 145.576,47.072C145.738,47.072 145.897,47.022 146.034,46.928L154.908,41.301Z" fill="#333333"/>
<path d="M138.956,40.42C139.008,40.383 139.07,40.363 139.132,40.363C139.195,40.363 139.256,40.383 139.308,40.42L142.161,42.219C142.266,42.296 142.337,42.411 142.337,42.564L142.337,46.162C142.337,46.315 142.266,46.43 142.161,46.507L139.308,48.306C139.256,48.343 139.195,48.363 139.132,48.363C139.07,48.363 139.008,48.343 138.956,48.306L136.104,46.507C135.998,46.43 135.928,46.315 135.928,46.162L135.928,42.564C135.928,42.411 135.998,42.296 136.104,42.22L138.956,40.42Z" fill="#539E43"/>
<path d="M58.421,24.113C58.147,23.944 57.838,23.855 57.523,23.855C57.208,23.855 56.899,23.944 56.625,24.113L41.8,33.415C41.236,33.759 40.919,34.41 40.919,35.099L40.919,53.741C40.919,54.43 41.272,55.081 41.8,55.425L56.625,64.728C56.899,64.897 57.208,64.986 57.523,64.986C57.838,64.986 58.147,64.897 58.421,64.728L73.246,55.425C73.81,55.081 74.127,54.43 74.127,53.741L74.127,35.099C74.127,34.41 73.774,33.759 73.246,33.415L58.421,24.113Z" fill="url(#pf_0_1502_921)"/>
<defs>
<linearGradient id="pf_0_1502_921" x1="2305.278" y1="743.108" x2="964.854" y2="3715.543" gradientUnits="userSpaceOnUse">
<stop stop-color="#41873F"/>
<stop offset="0.329" stop-color="#418B3D"/>
<stop offset="0.635" stop-color="#419637"/>
<stop offset="0.932" stop-color="#3FA92D"/>
<stop offset="1" stop-color="#3FAE2A"/>
</linearGradient>
</defs>
</svg>
