<svg width="1592" height="1882" viewBox="0 0 1592 1882" fill="none" xmlns="http://www.w3.org/2000/svg" xmlns:xlink="http://www.w3.org/1999/xlink">
<path d="M995.209,1882L728.001,1864.944L731.853,1748.396L832.016,1741.29C845.311,1806.756 921.574,1844.12 956.835,1850.731C993.221,1857.553 997.579,1874.42 995.209,1882Z" transform="rotate(360 861.87 1811.645)" fill="#000000"/>
<path d="M886.709,1692.965C921.768,1686.332 991.887,1673.92 991.887,1677.331C982.623,1700.97 981.185,1722.312 985.039,1741.291L884.876,1748.398L886.709,1692.965Z" transform="rotate(360 938.382 1712.573)" fill="#FFFFFF" stroke="#000000" stroke-width="2.911" stroke-miterlimit="3.999327"/>
<path d="M885.862,1692.965C920.921,1686.332 991.04,1673.92 991.04,1677.331L884.875,1722.814L885.862,1692.965Z" transform="rotate(360 937.957 1699.781)" fill="#241715"/>
<path d="M586.915,877.348C434.989,962.899 520.539,1173.826 570.69,1182.676C609.316,1189.492 736.298,1185.584 797.842,1182.676L1274.27,830.148L995.49,791.798C909.94,791.798 708.456,808.908 586.915,877.348Z" fill="#FFFFFF" stroke="#000000" stroke-width="2.911" stroke-miterlimit="3.999327"/>
<path d="M628.212,906.304C733.232,886.244 818.488,947.93 847.988,981.281C852.916,974.39 858.244,967.579 863.996,960.879C854.93,921.054 678.362,878.279 628.212,906.304Z" fill="#000001"/>
<path d="M787.192,1187.04C790.92,1186.878 794.478,1186.716 797.841,1186.558L1186.972,898.623C1169.83,892.826 1125.646,874.988 1086.056,850.018C817.467,881.846 774.901,1087.962 787.192,1187.04Z" fill="#0E1729"/>
<path d="M1231.488,1186.555C1424.712,1124.605 1274.264,844.353 1274.264,834.028L1201.986,824.085C833.825,846.811 779.153,1075.201 797.837,1186.555L859.968,1698.383L1020.074,1698.383L1033.838,1186.555L1231.488,1186.555Z" fill="#FFFFFF" stroke="#000000" stroke-width="2.911" stroke-miterlimit="3.999327"/>
<path d="M1021.308,1652.49L854.397,1652.49L850.627,1621.439L1020.074,1621.439L1021.308,1621.439L1021.308,1652.49Z" fill="#0E1729"/>
<path d="M1023.265,1579.715L845.562,1579.715L842.382,1553.515L1023.969,1553.515L1023.265,1579.715Z" fill="#0E1729"/>
<path d="M995.49,1080.356C1019.09,1103.956 1030.891,1160.99 1033.842,1186.557L1055.965,1186.557C1050.065,1157.548 1029.71,1095.696 995.49,1080.356Z" fill="#000001"/>
<rect  x="0" y="1186" width="1592" height="6" fill="#000000"/>
<path d="M1022.4,292.174C1030.169,282.286 1050.369,251.916 1069.015,209.539C1064.777,204.595 1056.725,189.621 1058.42,169.28C1080.457,165.889 1093.81,118.427 1097.732,95.119C1068.47,78.887 1093.405,35.586 1083.847,33.673C1073.252,31.553 1045.707,42.148 1045.707,69.693C1045.707,97.238 998.514,84.236 986.379,78.168C956.716,63.336 967.309,99.359 980.022,133.26C986.803,145.126 963.072,167.868 950.359,177.756C946.97,211.658 977.198,263.924 992.735,285.818C990.617,349.384 990.193,476.516 1005.449,476.516C1015.619,456.174 1020.987,345.146 1022.4,292.174Z" transform="rotate(360 1023.914 254.963)" fill="#FFFFFF" stroke="#000000" stroke-width="1.941" stroke-miterlimit="3.999327"/>
<path d="M1000.988,100.031C1004.254,103.297 1009.031,112.802 1000.885,124.207L1002.464,125.335C1011.268,113.009 1006.158,102.457 1002.361,98.659L1000.988,100.031Z" transform="rotate(360 1004.014 112.058)" fill="#241715"/>
<path d="M1001.16,131.317C1001.527,133.332 1002.206,135.615 1003.25,137.669C1004.289,139.713 1005.731,141.609 1007.666,142.735C1009.644,143.888 1012.04,144.177 1014.806,143.158C1017.528,142.156 1020.586,139.899 1024.029,136.026L1022.579,134.737C1019.241,138.491 1016.437,140.49 1014.136,141.337C1011.878,142.168 1010.09,141.901 1008.642,141.058C1007.151,140.19 1005.927,138.652 1004.98,136.789C1004.038,134.936 1003.41,132.84 1003.07,130.97L1001.16,131.317Z" transform="rotate(360 1012.709 136.978)" fill="#241715"/>
<path d="M1071.907,105.376C1070.507,101.528 1068.957,95.917 1068.786,91.526C1068.7,89.304 1068.977,87.58 1069.631,86.538C1069.942,86.044 1070.329,85.715 1070.814,85.532C1071.311,85.346 1071.99,85.284 1072.923,85.47L1073.304,83.567C1072.118,83.33 1071.054,83.369 1070.132,83.716C1069.199,84.066 1068.494,84.7 1067.988,85.506C1067.01,87.064 1066.757,89.286 1066.847,91.602C1067.029,96.287 1068.657,102.118 1070.083,106.039L1071.907,105.376Z" transform="rotate(360 1070.457 95.047)" fill="#241715"/>
<path d="M1063.602,192.583C1061.734,186.114 1060.598,178.213 1061.342,169.277C1049.601,175.634 1029.563,177.753 987.185,148.087C985.493,170.123 1037.425,186.933 1063.602,192.583Z" transform="rotate(360 1025.374 170.335)" fill="#000000"/>
<path d="M938.945,33.671C924.113,69.692 958.015,118.426 966.49,133.258C953.777,99.357 945.302,63.334 972.847,78.166C984.792,84.599 1032.175,97.236 1032.175,69.691C1032.175,42.146 1059.72,31.551 1070.315,33.671C1079.873,35.584 1054.938,78.885 1084.2,95.117C1087.372,96.877 1091.181,98.319 1095.741,99.355C1085.147,84.523 1089.384,86.642 1097.86,50.621C1106.335,14.6 1068.196,6.126 1032.175,1.888C996.154,-2.35 953.777,-2.35 938.945,33.671Z" transform="rotate(360 1017.146 66.629)" fill="#000000"/>
<path d="M826.839,262.512C853.961,226.915 969.51,191.177 1023.893,177.757C1020.505,211.659 1050.733,263.924 1066.269,285.819C1064.151,349.385 1063.727,476.517 1078.983,476.517C1089.153,456.177 1094.521,345.148 1095.935,292.176C1103.703,282.288 1123.903,251.917 1142.549,209.54C1146.787,222.253 1261.205,309.127 1280.275,336.672C1299.345,364.217 1305.701,629.075 1305.701,652.383C1305.701,675.691 1314.177,834.607 1244.255,834.607C1188.317,834.607 959.621,842.375 843.79,845.201C826.839,665.803 799.718,298.109 826.839,262.512Z" transform="rotate(360 1060.679 511.479)" fill="#000000"/>
<path d="M1008.054,302.757L1009.019,302.663L1008.054,302.757ZM1158.494,391.75L1157.558,391.492L1158.494,391.75ZM1186.038,569.734L1186.624,570.508L1186.678,570.468L1186.724,570.422L1186.038,569.734ZM916.942,569.734L917.863,570.042L917.88,569.992L917.891,569.94L916.942,569.734ZM956.799,197.497C970.502,203.728 1000.328,233.561 1007.088,302.851L1009.019,302.663C1002.219,232.956 972.151,202.346 957.602,195.73L956.799,197.497ZM1007.088,302.851C1011.333,346.36 1020.276,375.648 1030.988,394.091C1041.698,412.528 1054.274,420.266 1065.776,420.266L1065.776,418.324C1055.236,418.324 1043.19,411.232 1032.666,393.116C1022.148,375.008 1013.25,346.028 1009.019,302.663L1007.088,302.851ZM1086.938,424.384C1096.088,429.398 1110.714,433.836 1124.838,430.732C1139.07,427.604 1152.57,416.874 1159.428,392.008L1157.558,391.492C1150.856,415.784 1137.834,425.888 1124.422,428.836C1110.904,431.806 1096.766,427.556 1087.87,422.682L1086.938,424.384ZM1159.428,392.008C1167.874,361.389 1180.884,337.736 1196.61,323.066C1212.31,308.423 1230.696,302.736 1250.084,307.932L1250.588,306.058C1230.448,300.66 1211.39,306.626 1195.286,321.647C1179.212,336.642 1166.062,360.662 1157.558,391.492L1159.428,392.008ZM894.013,221.016C893.897,221.066 893.875,221.026 894.069,221.055C894.236,221.08 894.48,221.144 894.811,221.264C895.471,221.505 896.367,221.933 897.477,222.569C899.692,223.837 902.669,225.879 906.166,228.726C913.155,234.418 922.171,243.288 931.26,255.519C949.435,279.975 967.898,317.855 971.064,370.619L973.001,370.503C969.811,317.324 951.194,279.088 932.818,254.362C923.633,242.002 914.505,233.015 907.391,227.221C903.836,224.326 900.771,222.218 898.442,220.885C897.28,220.219 896.278,219.733 895.476,219.441C895.076,219.295 894.699,219.188 894.359,219.136C894.049,219.089 893.638,219.068 893.256,219.229L894.013,221.016ZM971.064,370.619C974.249,423.698 992.819,500.174 1028.186,550.166C1045.876,575.172 1067.846,593.658 1094.3,599.158C1120.778,604.662 1151.518,597.104 1186.624,570.508L1185.452,568.962C1150.636,595.338 1120.458,602.612 1094.694,597.258C1068.904,591.896 1047.306,573.832 1029.77,549.046C994.684,499.45 976.173,423.368 973.001,370.503L971.064,370.619ZM1186.724,570.422C1213.176,543.97 1239.14,522.464 1259.544,508.02C1269.75,500.796 1278.546,495.352 1285.306,491.938C1288.688,490.23 1291.534,489.044 1293.772,488.396C1294.892,488.07 1295.834,487.886 1296.602,487.83C1297.38,487.774 1297.914,487.854 1298.258,487.996L1298.998,486.202C1298.27,485.902 1297.4,485.828 1296.462,485.896C1295.516,485.964 1294.432,486.182 1293.232,486.532C1290.83,487.228 1287.868,488.47 1284.432,490.206C1277.554,493.678 1268.672,499.182 1258.424,506.436C1237.922,520.948 1211.876,542.526 1185.352,569.048L1186.724,570.422ZM1304.892,651.42C1246.94,639.406 1159.988,626.784 1087.494,627.988C1051.262,628.588 1018.544,632.642 994.851,642.012C971.144,651.388 956.23,666.208 956.23,688.392L958.171,688.392C958.171,667.35 972.215,653.052 995.565,643.818C1018.928,634.578 1051.366,630.528 1087.528,629.928C1159.822,628.728 1246.618,641.322 1304.498,653.32L1304.892,651.42ZM956.23,688.392C956.23,732.06 983.349,766.14 1017.012,790.948C1050.686,815.762 1091.066,831.426 1117.996,838.26L1118.474,836.378C1091.726,829.59 1051.59,814.016 1018.164,789.384C984.73,764.746 958.171,731.174 958.171,688.392L956.23,688.392ZM1142.214,835.98C1132.728,826.85 1119.776,811.688 1111.736,795.896C1103.658,780.028 1100.744,763.966 1110.496,752.588L1109.022,751.326C1098.432,763.68 1101.876,780.804 1110.006,796.776C1118.176,812.822 1131.286,828.154 1140.87,837.378L1142.214,835.98ZM1110.496,752.588C1112.862,749.828 1116.616,747.81 1121.606,746.484C1126.59,745.16 1132.72,744.548 1139.734,744.538C1153.76,744.518 1171.162,746.902 1189.632,750.63C1226.566,758.088 1267.606,770.89 1294.122,780.416L1294.778,778.59C1268.208,769.044 1227.072,756.21 1190.016,748.728C1171.494,744.988 1153.948,742.578 1139.732,742.598C1132.624,742.608 1126.312,743.226 1121.108,744.608C1115.914,745.988 1111.742,748.154 1109.022,751.326L1110.496,752.588ZM815.153,318.415C860.705,346.534 944.695,436.156 915.994,569.53L917.891,569.94C946.823,435.49 862.153,345.147 816.172,316.763L815.153,318.415ZM916.022,569.428C903.364,607.402 885.554,624.216 868.641,630C851.698,635.792 835.383,630.608 825.537,624.02L824.458,625.632C834.666,632.462 851.61,637.872 869.269,631.836C886.959,625.788 905.094,608.348 917.863,570.042L916.022,569.428ZM832.651,729.62C846.109,729.798 865.738,735.67 880.742,752.742C895.726,769.794 906.209,798.146 901.146,843.502L903.075,843.718C908.182,797.972 897.635,769.026 882.2,751.462C866.785,733.92 846.605,727.864 832.677,727.68L832.651,729.62Z" transform="rotate(360 1060.179 520.112)" fill="#FFFFFF"/>
<line x1="1043.347" y1="478.617" x2="1043.347" y2="834.587" stroke="#027269" stroke-width="0.97" stroke-miterlimit="3.999327"/>
<path d="M1049.076,801.149L1011.427,732.697C990.892,745.246 946.4,766.923 912.174,784.036C876.343,801.952 874.525,825.108 901.905,821.685C888.215,825.108 880.559,848.77 904.516,848.77C891.332,860.113 923.911,854.474 938.742,848.77C930.756,853.333 916.962,861.387 922.439,869.602C927.915,877.816 1009.145,827.389 1049.076,801.149Z" transform="rotate(42.302 966.097 801.596)" fill="#FFFFFF"/>
<path d="M1052.514,822.427L1014.865,753.974C1010.088,756.894 1004.014,760.308 997.074,764.043L1005.736,852.085C1022.994,841.528 1039.836,830.758 1052.514,822.427Z" transform="rotate(42.302 1024.794 803.03)" fill="#000000"/>
<path d="M927.578,842.699L954.959,822.163L953.794,820.611L926.413,841.147L927.578,842.699Z" transform="rotate(42.302 940.686 831.655)" fill="#000000"/>
<path d="M902.859,826.643L954.199,799.262L953.285,797.549L901.946,824.93L902.859,826.643Z" transform="rotate(42.302 928.072 812.096)" fill="#000000"/>
<path d="M903.309,808.3L954.648,777.496L953.649,775.832L902.31,806.636L903.309,808.3Z" transform="rotate(42.302 928.479 792.066)" fill="#000000"/>
<path d="M1028.372,738.897C1035.188,657.875 1089.563,252.529 1183.34,244.133C1291.738,234.428 1233.232,620.009 1174.759,701.291L1385.264,754.669L1345.46,885.045C1242.628,862.399 1017.094,872.969 1028.372,738.897Z" transform="rotate(-343.151 1206.614 564.499)" fill="#000000"/>
<path d="M1038.306,691.24L1037.518,690.672L1036.686,691.83L1038.067,692.18L1038.306,691.24ZM1249.05,743.678L1038.544,690.298L1038.067,692.18L1248.572,745.558L1249.05,743.678ZM1039.094,691.806C1053.828,671.324 1068.483,631.828 1080.499,584.392C1092.527,536.912 1101.944,481.344 1106.141,428.618C1110.337,375.91 1109.324,325.961 1100.443,289.757C1096.003,271.66 1089.575,256.903 1080.766,246.962C1071.92,236.979 1060.685,231.873 1046.801,233.116L1046.974,235.049C1060.191,233.865 1070.839,238.686 1079.313,248.249C1087.824,257.854 1094.153,272.264 1098.558,290.22C1107.366,326.123 1108.396,375.829 1104.206,428.464C1100.018,481.08 1090.619,536.54 1078.618,583.914C1066.607,631.332 1052.021,670.512 1037.518,690.672L1039.094,691.806Z" transform="rotate(-343.151 1143.559 489.26)" fill="#FFFFFF"/>
<path d="M1265.844,305.418C1281.468,310.273 1306.151,320.787 1328.033,335.912C1349.947,351.06 1368.856,370.695 1373.286,393.731L1375.192,393.365C1370.614,369.561 1351.172,349.546 1329.136,334.315C1307.068,319.062 1282.201,308.468 1266.42,303.564L1265.844,305.418ZM1231.964,371.264C1245.114,380.362 1266.505,398.828 1284.6,420.671C1302.729,442.555 1317.373,467.622 1317.373,489.947L1319.313,489.947C1319.313,466.896 1304.267,441.37 1286.094,419.433C1267.887,397.453 1246.364,378.867 1233.068,369.668L1231.964,371.264ZM1317.373,489.947C1317.373,495.46 1316.045,499.707 1313.724,502.936C1311.402,506.167 1308.027,508.459 1303.791,509.961C1295.276,512.979 1283.44,512.739 1270.349,510.575C1244.21,506.253 1213.665,494.375 1196.191,486.759L1195.416,488.538C1212.922,496.168 1243.647,508.127 1270.032,512.489C1283.204,514.667 1295.444,514.977 1304.439,511.791C1308.959,510.189 1312.697,507.689 1315.3,504.068C1317.905,500.445 1319.313,495.779 1319.313,489.947L1317.373,489.947ZM1178.062,564.527C1185.075,569.639 1196.897,575.339 1211.097,580.579C1225.315,585.827 1241.986,590.637 1258.741,593.947C1275.491,597.255 1292.361,599.069 1306.967,598.301C1321.539,597.535 1334.033,594.191 1341.844,587.005L1340.531,585.577C1333.223,592.299 1321.292,595.605 1306.866,596.363C1292.474,597.119 1275.774,595.333 1259.117,592.043C1242.466,588.753 1225.894,583.971 1211.769,578.759C1197.624,573.539 1186.001,567.911 1179.205,562.959L1178.062,564.527ZM1151.207,700.859C1168.537,694.485 1201.414,686.247 1232.534,681.983C1248.092,679.851 1263.17,678.717 1275.623,679.295C1281.85,679.585 1287.392,680.301 1291.997,681.521C1296.613,682.745 1300.215,684.455 1302.631,686.685L1303.947,685.259C1301.207,682.731 1297.267,680.911 1292.495,679.645C1287.712,678.379 1282.023,677.651 1275.713,677.357C1263.094,676.771 1247.886,677.921 1232.27,680.059C1201.042,684.339 1168.024,692.605 1150.537,699.037L1151.207,700.859ZM1379.706,738.163C1381.564,745.777 1380.46,757.849 1376.696,771.785C1372.946,785.683 1366.588,801.297 1358.086,815.935C1341.035,845.289 1315.58,870.363 1285.497,870.363L1285.497,872.303C1316.679,872.303 1342.637,846.395 1359.764,816.909C1368.35,802.127 1374.774,786.355 1378.57,772.291C1382.356,758.269 1383.568,745.805 1381.59,737.701L1379.706,738.163Z" transform="rotate(-337.89 1266.216 587.912)" fill="#FFFFFF"/>
<path d="M1201.071,558.916L837.199,558.916C830.823,558.916 825.095,562.814 822.757,568.744L714.689,842.682C712.349,848.614 706.621,852.512 700.247,852.512L417.216,852.512C412.01,852.512 407.789,856.732 407.789,861.938C407.789,867.144 412.01,871.366 417.216,871.366L1089.481,871.366C1095.847,871.366 1101.567,867.48 1103.913,861.564L1215.503,580.165C1219.545,569.973 1212.035,558.916 1201.071,558.916Z" transform="rotate(360 815.859 715.141)" fill="#FFFFFF" stroke="#000000" stroke-width="2.911" stroke-miterlimit="3.999327"/>
<path d="M906.007,564.258L786.305,852.51L794.389,852.51C800.658,852.51 806.312,848.742 808.722,842.954L922.009,570.913C924.386,565.205 920.192,558.916 914.01,558.916C910.508,558.916 907.35,561.024 906.007,564.258Z" transform="rotate(360 856.655 705.714)" fill="#000000"/>
<path d="M1103.913,861.564L1215.503,580.165C1219.545,569.973 1212.035,558.916 1201.071,558.916L1173.015,558.916C1170.705,558.916 1168.431,559.433 1166.333,560.399C1156.403,564.973 1139.809,572.164 1112.257,586.086C1020.073,632.662 1008.429,731.637 1027.837,780.154C1043.569,819.486 835.611,860.142 753.907,871.366L1089.481,871.366C1095.847,871.366 1101.567,867.48 1103.913,861.564Z" transform="rotate(360 815.859 715.141)" fill="#000000"/>
<path d="M676.545,689.003C676.545,703.704 666.182,715.622 653.398,715.622C640.614,715.622 630.251,703.704 630.251,689.003C630.251,674.301 640.614,662.384 653.398,662.384C666.182,662.384 676.545,674.301 676.545,689.003Z" transform="rotate(318.882 653.398 689.003)" fill="#000000"/>
</svg>
