<svg width="36" height="40" viewBox="0 0 36 40" fill="none" xmlns="http://www.w3.org/2000/svg" xmlns:xlink="http://www.w3.org/1999/xlink">
<path d="M14.48,16.78C13.34,16.78 12.44,17.78 12.44,19C12.44,20.22 13.36,21.22 14.48,21.22C15.62,21.22 16.52,20.22 16.52,19C16.54,17.78 15.62,16.78 14.48,16.78ZM21.78,16.78C20.64,16.78 19.74,17.78 19.74,19C19.74,20.22 20.66,21.22 21.78,21.22C22.92,21.22 23.82,20.22 23.82,19C23.82,17.78 22.92,16.78 21.78,16.78Z" fill="#000000"/>
<path d="M31.5,0L4.7,0C2.44,0 0.6,1.84 0.6,4.12L0.6,31.16C0.6,33.44 2.44,35.28 4.7,35.28L27.38,35.28L26.32,31.58L28.88,33.96L31.3,36.2L35.6,40L35.6,4.12C35.6,1.84 33.76,0 31.5,0ZM23.78,26.12C23.78,26.12 23.06,25.26 22.46,24.5C25.08,23.76 26.08,22.12 26.08,22.12C25.26,22.66 24.48,23.04 23.78,23.3C22.78,23.72 21.82,24 20.88,24.16C18.96,24.52 17.2,24.42 15.7,24.14C14.56,23.92 13.58,23.6 12.76,23.28C12.3,23.1 11.8,22.88 11.3,22.6C11.24,22.56 11.18,22.54 11.12,22.5C11.08,22.48 11.06,22.46 11.04,22.44C10.68,22.24 10.48,22.1 10.48,22.1C10.48,22.1 11.44,23.7 13.98,24.46C13.38,25.22 12.64,26.12 12.64,26.12C8.22,25.98 6.54,23.08 6.54,23.08C6.54,16.64 9.42,11.42 9.42,11.42C12.3,9.26 15.04,9.32 15.04,9.32L15.24,9.56C11.64,10.6 9.98,12.18 9.98,12.18C9.98,12.18 10.42,11.94 11.16,11.6C13.3,10.66 15,10.4 15.7,10.34C15.82,10.32 15.92,10.3 16.04,10.3C17.26,10.14 18.64,10.1 20.08,10.26C21.98,10.48 24.02,11.04 26.1,12.18C26.1,12.18 24.52,10.68 21.12,9.64L21.4,9.32C21.4,9.32 24.14,9.26 27.02,11.42C27.02,11.42 29.9,16.64 29.9,23.08C29.9,23.08 28.2,25.98 23.78,26.12L23.78,26.12Z" fill="#000000"/>
</svg>
