<svg width="650" height="736" viewBox="0 0 650 736" fill="none" xmlns="http://www.w3.org/2000/svg" xmlns:xlink="http://www.w3.org/1999/xlink">
<path d="M28.681,8L621.319,8L621.319,0L28.681,0L28.681,8ZM641.319,28L641.319,620.638L649.319,620.638L649.319,28L641.319,28ZM621.319,640.638L28.681,640.638L28.681,648.638L621.319,648.638L621.319,640.638ZM8.681,620.638L8.681,28L0.681,28L0.681,620.638L8.681,620.638ZM28.681,640.638C17.635,640.638 8.681,631.684 8.681,620.638L0.681,620.638C0.681,636.102 13.217,648.638 28.681,648.638L28.681,640.638ZM641.319,620.638C641.319,631.684 632.365,640.638 621.319,640.638L621.319,648.638C636.783,648.638 649.319,636.102 649.319,620.638L641.319,620.638ZM621.319,8C632.365,8 641.319,16.954 641.319,28L649.319,28C649.319,12.536 636.783,0 621.319,0L621.319,8ZM28.681,0C13.217,0 0.681,12.536 0.681,28L8.681,28C8.681,16.954 17.635,8 28.681,8L28.681,0Z" fill="#000000"/>
<path d="M216.526,384.661C219.294,384.839 232.249,385.733 251.191,387.071C258.376,375.291 267.147,354.265 265.179,323.837C264.822,318.799 275.358,348.129 268.795,388.307C305.396,390.857 355.193,394.309 398.707,396.907C400.324,379.941 402.595,364.295 402.595,364.295C403.528,376.619 405.643,387.793 408.17,397.513C414.118,397.917 419.958,398.197 425.55,398.517C425.48,372.063 432.08,326.279 432.08,326.279C434.562,358.447 443.612,384.465 450.292,399.855C477.936,401.215 496.146,401.603 495.034,400.243C455.4,350.377 487.29,324.155 477.328,281.381C465.37,230.123 422.104,220.084 425.138,182.138C427.524,151.26 433.94,95.32 395.425,81.541C395.425,81.541 365.239,45.282 314.455,62.164C251.634,82.988 271.711,179.478 266.61,198.685C259.355,226.126 245.716,235.286 234.418,266.435C222.902,297.959 236.502,319.855 237.163,341.621C237.746,363.385 209.59,384.279 216.526,384.661Z" fill="#000000"/>
<path d="M496.589,393.463C491.402,384.645 486.846,375.391 484.404,365.772C481.675,356.2 483.486,346.605 485.85,336.737C488.199,326.916 490.928,316.885 492.335,306.411C493.618,295.976 493.743,284.942 490.741,274.429C487.926,263.9 482.375,254.204 475.345,246.234C468.401,238.139 460.314,231.514 452.523,224.982C444.809,218.38 437.111,211.849 431.481,203.637C425.712,195.543 422.43,185.737 421.661,175.489C420.782,185.706 423.021,196.429 428.309,205.62C433.519,214.874 441.022,222.463 448.464,229.508C455.905,236.599 463.409,243.372 469.599,251.024C475.742,258.667 480.547,267.205 482.903,276.528C485.29,285.821 485.64,295.642 484.482,305.478C483.463,315.346 481.161,325.213 479.357,335.415C478.502,340.524 477.709,345.734 477.639,351.122C477.538,356.519 478.65,362.047 480.415,366.993C484.179,376.899 489.839,385.709 496.589,393.463Z" fill="#000000"/>
<path d="M277.924,96.05C272.582,107.551 270.218,120.179 267.838,132.566C265.692,145.038 264.16,157.588 262.769,170.092L260.568,188.754C259.821,194.99 258.764,200.83 256.929,206.522C253.336,217.96 246.393,227.766 238.601,237.703C234.814,242.75 230.973,248.014 227.762,253.76C224.542,259.491 221.899,265.603 220.04,271.917C218.361,278.317 217.148,284.607 216.448,291.085C215.717,297.546 215.763,304.194 216.619,310.672C217.451,317.172 218.99,323.346 220.235,329.396C221.502,335.43 222.21,341.588 222.295,347.67C222.668,359.746 215.756,371.464 205.655,378.898C216.751,372.98 225.227,361.168 226.206,347.832C226.681,341.348 226.308,334.902 225.468,328.532C224.659,322.172 223.353,316.06 222.941,310.018C221.976,298.044 224.06,285.696 227.458,274.149C229.348,268.449 231.688,262.944 234.705,257.742C237.684,252.516 241.33,247.625 245.141,242.649C248.889,237.641 252.8,232.493 256.182,226.864C259.557,221.242 262.45,215.184 264.332,208.824C266.182,202.471 267.146,195.846 267.698,189.563C268.344,183.233 268.74,176.935 269.137,170.652C269.977,158.094 270.638,145.559 271.812,133.087C272.854,120.599 274.355,108.142 277.924,96.05Z" fill="#000000"/>
<path d="M279.076,302.414C201.255,389.971 107.019,570.526 128.13,605.036C151.652,643.472 263.928,518.794 260.064,513.148C256.782,508.35 293.282,400.344 319.79,321.364C346.267,242.455 298.321,280.759 279.076,302.414Z" fill="#D3766A"/>
<path d="M279.076,302.414C201.255,389.971 107.019,570.526 128.13,605.036C151.652,643.472 263.928,518.794 260.064,513.148C256.782,508.35 293.282,400.344 319.79,321.364C346.267,242.455 298.321,280.759 279.076,302.414Z" fill="#000000" stroke="#FFFFFF" stroke-width="2" stroke-miterlimit="10"/>
<path d="M289.549,411.969C281.96,435.008 274.993,456.618 269.705,473.888C257.676,474.424 222.498,472.48 185.944,437.357C196.931,417.87 208.828,398.299 221.091,379.605C230.282,389.286 252.583,408.158 289.549,411.969Z" fill="#000000" stroke="#FFFFFF" stroke-width="1.258" stroke-miterlimit="10"/>
<path d="M203.991,644.958L223.54,512.526C223.54,512.526 192.211,457.831 210.383,418.571C219.559,398.688 282.473,301.52 316.36,276.918C348.156,253.847 391.701,274.888 406.513,294.958C449.095,352.67 469.847,456.556 493.627,644.958L203.991,644.958Z" fill="#FFFFFF" stroke="#000000" stroke-width="2" stroke-miterlimit="3.999327"/>
<path d="M261.004,337.981C254.573,346.807 248.329,355.757 242.194,364.792C243.866,361.278 245.553,357.771 247.202,354.248C247.318,353.992 246.945,353.782 246.821,354.038C244.535,358.455 242.435,362.934 240.39,367.436C232.187,379.582 224.224,391.891 216.542,404.364C213.283,409.659 210.29,415.048 208.089,420.88C205.959,426.525 204.637,432.466 203.937,438.445C203.237,444.441 203.183,450.467 203.649,456.478C204.124,462.675 204.878,468.81 206.262,474.867C207.833,481.702 209.971,488.506 212.739,494.96C214.1,498.125 215.554,501.274 217.117,504.354C218.548,507.161 221.456,512.891 221.417,513.109C220.834,516.282 220.235,518.506 219.831,521.173C219.419,523.887 219.014,526.608 218.602,529.322C217.786,534.757 210.725,587.649 209.932,593.091C208.354,603.893 206.993,614.701 205.648,625.533C204.87,631.745 204.466,638.013 203.595,644.217C203.556,644.467 203.937,644.567 203.984,644.311C204.878,638.907 206.215,633.581 207.195,628.199C208.175,622.811 209.178,617.415 210.189,612.025C212.234,601.139 220.095,542.697 221.798,531.748C222.272,528.723 222.739,525.691 223.213,522.666C223.68,519.657 224.489,515.613 224.372,512.565C224.372,512.565 214.675,492.635 210.904,478.67C209.326,472.807 207.708,466.703 207.047,460.661C206.402,454.712 206.34,448.725 206.83,442.769C207.319,436.812 208.439,430.895 210.266,425.203C212.148,419.324 214.854,413.858 217.879,408.485C224.209,397.233 230.942,386.191 237.762,375.228C245.499,362.802 253.329,350.423 261.331,338.168C261.471,337.958 261.144,337.795 261.004,337.981Z" fill="#000000"/>
<path d="M128.13,605.036C147.997,630.525 198.603,632.944 325.435,651.007C342.985,653.503 393.947,534.385 375.341,530.753C351.903,526.181 259.97,513.506 253.127,513.421C195.438,512.768 114.654,587.743 128.13,605.036Z" fill="#000000"/>
<path d="M349.929,526.329C349.929,526.329 403.536,531.601 430.845,543.086C467.415,558.466 492.648,586.802 502.508,599.321C523.09,625.44 554.792,702.825 534.092,715.842C515.36,727.631 486.948,646.893 486.948,646.893C486.948,646.893 529.498,724.427 504.334,734.473C479.172,744.519 451.521,648.915 451.521,648.915C451.521,648.915 493.456,729.559 465.859,735.811C445.012,740.539 415.091,655.361 415.091,655.361C415.091,655.361 450.65,724.932 429.422,730.709C405.962,737.101 373.412,660.213 373.412,660.213C316.967,665.828 287.792,645.408 268.772,628.418C264.177,624.305 349.929,526.329 349.929,526.329Z" fill="#FFFFFF" stroke="#000000" stroke-width="2.5" stroke-miterlimit="10"/>
<path d="M473.962,619.134C479.288,628.061 484.747,637.057 489.257,646.435C493.775,655.805 497.966,665.338 501.589,675.089C510.477,699 512.305,715.36 512.079,714.365C506.807,690.757 491.162,656.964 486.644,647.586C482.134,638.239 478.099,628.659 473.596,619.297C473.488,619.056 473.837,618.924 473.962,619.134Z" fill="#000000"/>
<path d="M439.826,634.825C446.132,646.52 452.827,657.896 458.62,669.871C464.382,681.791 468.814,693.603 473.744,705.881C474.125,706.83 473.488,706.721 473.068,705.788C467.648,693.712 461.707,682.966 456.155,670.952C450.619,658.985 445.502,646.707 439.53,634.95C439.445,634.771 439.733,634.646 439.826,634.825Z" fill="#000000"/>
<path d="M408.117,643.029C418.676,660.408 426.017,679.708 432.758,698.821C433.093,699.769 432.292,699.544 431.895,698.595C424.049,679.894 418.031,665.167 407.51,643.402C407.347,643.052 407.891,642.656 408.117,643.029Z" fill="#000000"/>
<path d="M390.434,527.254L286.011,650.128C286.011,650.128 143.379,640.206 126.956,602.633C110.533,565.052 219.131,510.287 252.956,513.234C286.781,516.181 390.434,527.254 390.434,527.254Z" fill="#000000" stroke="#FFFFFF" stroke-width="2" stroke-miterlimit="3.999327"/>
<path d="M198.012,529.508C206.207,523.91 229.496,510.605 252.956,513.233C253.22,513.264 253.228,513.638 252.964,513.645C233.726,514.236 206.604,525.068 198.222,529.843C197.996,529.967 197.81,529.648 198.012,529.508Z" fill="#000000"/>
<path d="M263.928,628.892C304.969,585.425 341.508,533.513 348.522,524.921C348.856,524.516 348.156,524.026 347.845,524.454C341.407,533.241 293.212,588.037 263.189,628.379C262.839,628.845 263.539,629.312 263.928,628.892Z" fill="#000000"/>
<path d="M427.369,322.398C511.239,429.122 542.879,620.844 496.325,635.788C453.791,649.444 278.85,605.666 226.736,587.968C211.433,582.766 258.703,463.764 275.079,469.308C294.868,476.003 403.062,501.64 405.161,501.686C409.656,501.788 385.613,383.75 375.294,330.267C360.924,255.743 395.877,282.314 427.369,322.398Z" fill="#FFFFFF" stroke="#000000" stroke-width="1.258" stroke-miterlimit="10"/>
<path d="M135.23,424.589C126.373,434.635 133.542,446.509 133.542,446.509C133.542,446.509 123.208,449.269 117.944,458.095C111.918,468.204 125.121,482.084 125.121,482.084C125.121,482.084 115.238,487.045 110.619,496.92C105.821,507.176 117.143,523.078 117.143,523.078C117.143,523.078 110.479,532.751 112.61,544.158C116.249,563.66 144.452,574.725 162.313,581.941C180.166,589.157 237.576,592.905 248.446,594.725L295.755,480.521C295.755,480.521 224.893,425.374 202.693,419.877C183.984,415.242 145.167,413.314 135.23,424.589Z" fill="#FFFFFF" stroke="#000000" stroke-width="2.5" stroke-miterlimit="10"/>
<path d="M135.09,445.001C156.154,445.156 176.03,451.54 196.223,456.781C196.674,456.898 196.48,457.598 196.037,457.481C176.014,452.038 155.159,450.638 134.965,445.996C134.398,445.872 134.522,445.001 135.09,445.001Z" fill="#000000"/>
<path d="M126.101,480.739C130.867,480.918 135.556,482.667 140.066,484.082C144.926,485.606 149.747,487.216 154.553,488.896C164.172,492.263 173.713,495.847 183.145,499.712C183.565,499.883 183.401,500.567 182.958,500.412C173.37,497.076 163.728,493.88 154.001,490.948C149.133,489.479 144.257,488.056 139.366,486.664C134.818,485.365 129.919,484.378 125.735,482.092C125.129,481.75 125.385,480.715 126.101,480.739Z" fill="#000000"/>
<path d="M117.555,523.21C121.7,523.202 126.132,525.457 129.966,526.888C134.312,528.513 138.674,530.115 143.044,531.693C151.777,534.843 160.517,537.992 169.35,540.838C169.793,540.978 169.607,541.678 169.164,541.538C160.167,538.692 151.139,535.97 142.166,533.039C137.757,531.6 133.364,530.138 128.978,528.653C125.246,527.393 120.44,526.235 117.384,523.638C117.205,523.498 117.345,523.21 117.555,523.21Z" fill="#000000"/>
<path d="M403.598,496.849C404.951,496.041 379.819,382.117 371.39,322.663C362.961,263.216 389.516,268.924 427.719,319.747C468.643,374.186 541.511,521.553 516.271,630.673C508.097,666.007 254.939,616.505 254.939,616.505L289.052,471.003C289.044,471.011 401.499,498.101 403.598,496.849Z" fill="#000000" stroke="#FFFFFF" stroke-width="2" stroke-miterlimit="10"/>
<path d="M506.752,486.049C465.463,498.164 420.697,492.013 402.424,488.577C399.78,474.277 393.373,443.29 386.841,409.799C430.222,414.605 459.662,408.415 475.742,403.026C487.492,428.422 498.502,456.758 506.752,486.049Z" fill="#000000" stroke="#FFFFFF" stroke-width="2" stroke-miterlimit="10"/>
<path d="M288.071,601.545C303.468,550.885 311.959,495.303 314.128,485.723C314.229,485.272 313.491,485.156 313.405,485.622C311.764,495.132 295.171,557.596 287.271,601.436C287.185,601.941 287.924,602.035 288.071,601.545Z" fill="#000000"/>
<path d="M451.186,513.685C446.303,512.845 317.06,476.446 288.795,472.068C288.351,471.998 288.748,470.513 289.215,470.599C376.055,485.917 447.407,509.136 452.873,511.321C459.366,513.895 460.291,515.248 451.186,513.685Z" fill="#000000"/>
<path d="M402.346,498.009C402.44,497.76 393.824,454.138 392.3,451.416C390.737,448.593 387.347,442.326 385.963,439.402C383.163,433.508 380.737,427.482 378.163,421.51C377.946,421.02 378.692,420.631 378.91,421.129C381.694,426.907 384.975,432.443 388.28,437.909C389.928,440.592 391.569,443.306 393.217,445.965C393.342,446.144 385.263,403.338 384.135,395.826C384.042,395.274 384.648,395.119 384.82,395.585C387.246,403.151 404.189,488.896 406.506,498.39C406.506,498.398 404.905,498.367 402.346,498.009Z" fill="#000000"/>
<path d="M307.069,625.548C298.632,623.216 264.807,617.749 256.58,616.567C257.388,613.589 259.791,601.482 259.566,598.068C259.542,597.75 259.06,597.555 258.866,597.843C256.945,600.658 253.648,615.549 252.669,619.063C252.482,619.732 298.235,625.478 306.999,625.945C307.247,625.953 307.317,625.618 307.069,625.548Z" fill="#000000"/>
<path d="M295.747,287.508C295.747,287.508 299.145,320.983 326.897,326.201C354.649,331.411 406.514,294.957 406.514,294.957C406.514,294.957 385.682,266.925 348.055,266.84C311.858,266.746 295.747,287.508 295.747,287.508Z" fill="#000000" stroke="#FFFFFF" stroke-width="2" stroke-miterlimit="10"/>
<path d="M375.434,278.153C373.949,283.184 347.728,314.879 324.494,312.453C316.928,311.652 319.463,270.16 319.463,270.16L318.95,267.057L311.804,223.582L364.081,194.104L371.616,190.239C371.616,190.239 372.79,202.261 374.096,217.253C374.158,217.945 374.228,218.644 374.283,219.391C374.376,220.238 374.477,221.032 374.532,221.825C374.757,224.064 374.975,226.343 375.146,228.629C375.286,230.363 375.426,232.05 375.504,233.877C375.628,235.712 375.714,237.485 375.838,239.32C376.678,257.376 376.032,276.007 375.434,278.153Z" fill="#FFFFFF"/>
<path d="M374.096,218.482C359.843,251.949 331.757,264.313 318.958,268.294L311.812,224.819L364.089,195.341L371.624,191.476C371.616,191.468 372.782,203.49 374.096,218.482Z" fill="#FFFFFF" stroke="#000000" stroke-width="2.5" stroke-miterlimit="10"/>
<path d="M261.556,142.418C241.215,217.028 283.601,237.634 299.689,242.004C314.3,245.97 364.548,257.618 392.486,185.512C420.433,113.407 392.175,80.367 359.244,69.527C326.321,58.688 281.906,67.809 261.556,142.418Z" fill="#FFFFFF" stroke="#000000" stroke-width="2.5" stroke-miterlimit="10"/>
<path d="M288.429,127.823C290.241,128.04 291.952,127.939 293.771,127.97C295.816,128.009 297.449,128.243 299.246,127.084C300.21,126.462 300.544,124.813 300.031,123.818C298.826,121.509 296.33,120.84 293.865,120.692C291.19,120.537 289.09,121.104 286.921,122.667C284.806,124.191 286.034,127.535 288.429,127.823Z" fill="#000000"/>
<path d="M341.601,135.272C339.875,134.674 338.382,133.826 336.741,133.056C334.883,132.185 333.32,131.688 332.215,129.853C331.624,128.873 332.052,127.24 332.946,126.579C335.038,125.032 337.581,125.529 339.859,126.486C342.332,127.52 343.972,128.951 345.232,131.315C346.445,133.601 343.871,136.058 341.601,135.272Z" fill="#000000"/>
<path d="M324.548,159.121C324.634,158.934 324.89,159.463 324.828,159.673C323.405,164.743 322.62,170.792 326.827,173.631C326.959,173.716 326.881,173.973 326.71,173.903C321.267,171.718 322.387,163.693 324.548,159.121Z" fill="#000000"/>
<path d="M330.434,154.914C338.809,156.321 335.372,172.97 327.62,171.663C319.976,170.38 323.413,153.732 330.434,154.914Z" fill="#000000"/>
<path d="M333.522,156.469C334.782,157.713 335.862,159.665 337.581,160.202C339.571,160.824 341.461,159.393 343.133,157.993C343.304,157.846 343.421,158.024 343.374,158.242C342.76,161.438 340.862,164.463 337.348,164.23C334.136,164.02 332.48,160.73 332.348,157.364C332.317,156.734 333.016,155.964 333.522,156.469Z" fill="#000000"/>
<path d="M293.834,148.95C293.834,148.748 293.375,149.105 293.336,149.323C292.387,154.502 290.428,160.279 285.405,160.979C285.249,161.003 285.21,161.259 285.389,161.275C291.236,161.702 293.764,154.012 293.834,148.95Z" fill="#000000"/>
<path d="M290.397,142.582C282.255,140.163 278.018,156.625 285.568,158.864C292.986,161.073 297.224,144.611 290.397,142.582Z" fill="#000000"/>
<path d="M286.688,142.784C285.164,143.32 283.469,144.572 281.89,144.277C280.055,143.935 279.184,141.812 278.477,139.806C278.407,139.596 278.236,139.705 278.173,139.922C277.279,143.048 277.473,146.594 280.343,147.97C282.955,149.23 285.677,147.053 287.232,144.113C287.512,143.569 287.302,142.566 286.688,142.784Z" fill="#000000"/>
<path d="M311.368,198.124C309.93,199.143 308.421,200.62 306.508,200.48C304.673,200.34 302.683,199.19 301.128,198.28C300.972,198.186 300.778,198.342 300.863,198.513C301.897,200.721 304.533,202.424 307.014,202.385C309.432,202.347 310.925,200.504 311.835,198.443C311.959,198.155 311.578,197.977 311.368,198.124Z" fill="#000000"/>
<path d="M293.927,174.828C293.927,174.828 291.19,182.277 290.389,185.901C290.319,186.243 291.159,186.593 292.372,186.935C292.426,186.966 292.458,186.997 292.512,186.974C298.694,189.369 305.622,188.568 310.653,184.198C310.98,183.895 310.599,183.42 310.225,183.576C304.681,186.041 299.207,185.792 293.507,184.641C293.468,183.583 298.632,172.036 298.064,171.873C296.12,171.267 291.921,171.764 289.425,171.935C294.681,156.251 302.418,141.539 307.418,125.84C307.589,125.28 306.804,124.922 306.524,125.397C297.333,140.249 290.879,158.164 285.032,174.221C284.285,176.22 292.341,175.131 293.927,174.828Z" fill="#000000"/>
<path d="M293.811,185.792C293.811,185.792 295.996,191.313 300.226,194.221C301.781,195.302 303.577,196.041 305.653,196.041C309.93,196.056 311.003,192.417 311.112,189.089C311.205,186.352 310.606,183.809 310.606,183.809C310.606,183.809 303.32,187.713 293.811,185.792Z" fill="#000000"/>
<path d="M300.226,194.222C301.781,195.302 303.577,196.041 305.653,196.041C309.93,196.057 311.003,192.418 311.112,189.09C306.718,188.382 301.703,190.163 300.226,194.222Z" fill="#FFFFFF" stroke="#000000" stroke-width="1" stroke-miterlimit="3.999327"/>
<path d="M388.326,184.26C380.371,181.461 365.683,153.149 376.242,113.881C376.242,113.881 369.197,149.798 370.356,155.7C371.522,161.594 362.168,139.79 370.239,108.002C370.239,108.002 349.167,115.599 333.086,115.498C317.006,115.405 307.939,112.652 307.185,111.268C306.431,109.884 330.31,109.27 338.195,104.138C338.195,104.138 293.328,111.19 274.674,107.349C272.512,106.906 282.45,62.77 315.941,52.436C349.439,42.102 388.427,74.815 397.113,89.869C397.113,89.869 410.651,95.926 420.005,121.19C429.375,146.454 396.895,187.277 388.326,184.26Z" fill="#000000"/>
<path d="M376.779,185.901C376.779,185.901 397.696,165.17 407.4,173.047C417.097,180.924 398.365,213.085 384.85,215.496C371.344,217.906 368.863,205.449 368.863,205.449L376.779,185.901Z" fill="#FFFFFF" stroke="#000000" stroke-width="2.5" stroke-miterlimit="10"/>
<path d="M401.802,182.13C402.012,182.145 401.996,182.441 401.81,182.48C392.284,184.462 386.126,191.842 381.305,199.773C384.54,196.974 388.459,195.823 392.284,199.765C392.487,199.975 392.199,200.294 391.958,200.193C388.466,198.755 385.729,198.91 382.743,201.375C380.628,203.117 378.972,205.512 377.292,207.666C376.733,208.381 375.38,207.697 375.846,206.841C375.877,206.779 375.924,206.717 375.955,206.647C377.782,195.294 389.446,181.064 401.802,182.13Z" fill="#000000"/>
</svg>
