<svg width="86" height="84" viewBox="0 0 86 84" fill="none" xmlns="http://www.w3.org/2000/svg" xmlns:xlink="http://www.w3.org/1999/xlink">
<path d="M41.699,0C20.37,0 21.7,9.296 21.7,9.296L21.725,18.928L42.074,18.928L42.074,21.819L13.65,21.819C13.65,21.819 0,20.261 0,41.891C0,63.521 11.91,62.752 11.91,62.752L19.016,62.752L19.016,52.717C19.016,52.717 18.634,40.747 30.741,40.747L50.922,40.747C50.922,40.747 62.262,40.929 62.262,29.729L62.262,11.207C62.262,11.207 63.984,0 41.699,0ZM30.478,6.475C32.501,6.475 34.139,8.12 34.139,10.157C34.139,12.19 32.501,13.836 30.478,13.836C28.452,13.836 26.817,12.19 26.817,10.157C26.817,8.12 28.452,6.475 30.478,6.475Z" fill="#000000"/>
<path d="M42.304,84C63.626,84 62.296,74.704 62.296,74.704L62.272,65.072L41.923,65.072L41.923,62.181L70.353,62.181C70.353,62.181 84.003,63.739 84.003,42.109C84.003,20.479 72.089,21.249 72.089,21.249L64.984,21.249L64.984,31.283C64.984,31.283 65.366,43.253 53.259,43.253L33.082,43.253C33.082,43.253 21.742,43.071 21.742,54.271L21.742,72.793C21.742,72.793 20.02,84 42.304,84ZM53.525,77.525C51.499,77.525 49.864,75.88 49.864,73.843C49.864,71.81 51.499,70.165 53.525,70.165C55.548,70.165 57.186,71.81 57.186,73.843C57.186,75.88 55.548,77.525 53.525,77.525Z" fill="#000000"/>
</svg>
