<svg width="702" height="1050" viewBox="0 0 702 1050" fill="none" xmlns="http://www.w3.org/2000/svg" xmlns:xlink="http://www.w3.org/1999/xlink">
<path d="M368.888,1048.362L220.04,1038.861L222.187,973.939L277.982,969.98C285.388,1006.448 327.87,1027.261 347.511,1030.944C367.78,1034.744 370.208,1044.14 368.888,1048.362Z" transform="rotate(360 294.612 1009.171)" fill="#000000"/>
<path d="M308.449,943.061C327.978,939.366 367.038,932.452 367.038,934.352C361.877,947.52 361.076,959.408 363.223,969.981L307.428,973.94L308.449,943.061Z" transform="rotate(360 337.233 953.984)" fill="#FFFFFF" stroke="#000000" stroke-width="1.622" stroke-miterlimit="3.999327"/>
<path d="M307.977,943.061C327.506,939.366 366.566,932.452 366.566,934.352L307.427,959.688L307.977,943.061Z" transform="rotate(360 336.996 946.858)" fill="#241715"/>
<path d="M141.449,488.724C56.819,536.38 104.475,653.877 132.411,658.805C153.928,662.603 224.662,660.427 258.945,658.805L524.338,462.431L369.044,441.069C321.39,441.069 209.153,450.6 141.449,488.724Z" fill="#FFFFFF" stroke="#000000" stroke-width="1.622" stroke-miterlimit="3.999327"/>
<path d="M164.453,504.854C222.955,493.679 270.446,528.042 286.879,546.619C289.624,542.781 292.592,538.987 295.796,535.255C290.745,513.07 192.389,489.242 164.453,504.854Z" fill="#000001"/>
<path d="M253.013,661.237C255.09,661.146 257.072,661.056 258.945,660.968L475.71,500.575C466.16,497.346 441.548,487.409 419.495,473.5C269.877,491.229 246.166,606.045 253.013,661.237Z" fill="#0E1729"/>
<path d="M500.507,660.966C608.143,626.458 524.335,470.344 524.335,464.593L484.073,459.054C278.99,471.713 248.535,598.937 258.942,660.966L293.553,946.08L382.74,946.08L390.406,660.966L500.507,660.966Z" fill="#FFFFFF" stroke="#000000" stroke-width="1.622" stroke-miterlimit="3.999327"/>
<path d="M383.427,920.514L290.449,920.514L288.349,903.218L382.739,903.218L383.427,903.218L383.427,920.514Z" fill="#0E1729"/>
<path d="M384.517,879.975L285.528,879.975L283.756,865.381L384.909,865.381L384.517,879.975Z" fill="#0E1729"/>
<path d="M369.044,601.809C382.191,614.955 388.765,646.726 390.408,660.968L402.732,660.968C399.445,644.809 388.107,610.354 369.044,601.809Z" fill="#000001"/>
<rect  x="0" y="660" width="702" height="4" fill="#000000"/>
<path d="M384.034,162.755C388.362,157.247 399.614,140.329 410.001,116.723C407.64,113.969 403.155,105.628 404.1,94.297C416.375,92.408 423.813,65.969 425.998,52.986C409.698,43.944 423.588,19.823 418.263,18.758C412.362,17.577 397.018,23.478 397.018,38.822C397.018,54.166 370.729,46.923 363.969,43.543C347.445,35.281 353.346,55.348 360.428,74.232C364.205,80.842 350.986,93.51 343.904,99.019C342.016,117.903 358.855,147.018 367.51,159.214C366.33,194.624 366.094,265.441 374.592,265.441C380.257,254.111 383.247,192.263 384.034,162.755Z" transform="rotate(360 384.878 142.027)" fill="#FFFFFF" stroke="#000000" stroke-width="1.081" stroke-miterlimit="3.999327"/>
<path d="M372.107,55.722C373.926,57.541 376.588,62.836 372.05,69.189L372.929,69.818C377.834,62.951 374.987,57.073 372.872,54.958L372.107,55.722Z" transform="rotate(360 373.793 62.422)" fill="#241715"/>
<path d="M372.203,73.15C372.407,74.272 372.785,75.544 373.367,76.688C373.946,77.826 374.749,78.883 375.827,79.51C376.929,80.152 378.264,80.313 379.804,79.746C381.321,79.188 383.024,77.931 384.942,75.773L384.134,75.055C382.275,77.146 380.713,78.26 379.431,78.732C378.173,79.195 377.177,79.046 376.371,78.576C375.54,78.092 374.858,77.236 374.331,76.198C373.806,75.166 373.456,73.998 373.267,72.957L372.203,73.15Z" transform="rotate(360 378.637 76.303)" fill="#241715"/>
<path d="M411.612,58.699C410.833,56.556 409.969,53.43 409.874,50.985C409.826,49.747 409.98,48.786 410.345,48.206C410.518,47.93 410.734,47.747 411.004,47.646C411.28,47.542 411.659,47.507 412.179,47.611L412.391,46.551C411.73,46.419 411.137,46.441 410.624,46.634C410.104,46.829 409.711,47.182 409.429,47.631C408.884,48.499 408.744,49.737 408.794,51.027C408.895,53.637 409.802,56.885 410.596,59.069L411.612,58.699Z" transform="rotate(360 410.805 52.946)" fill="#241715"/>
<path d="M406.986,107.278C405.946,103.674 405.313,99.273 405.727,94.295C399.187,97.836 388.024,99.017 364.418,82.491C363.475,94.767 392.404,104.13 406.986,107.278Z" transform="rotate(360 385.691 94.885)" fill="#000000"/>
<path d="M337.546,18.756C329.284,38.822 348.169,65.969 352.89,74.231C345.808,55.347 341.088,35.28 356.431,43.542C363.085,47.126 389.48,54.165 389.48,38.821C389.48,23.477 404.824,17.576 410.725,18.756C416.05,19.822 402.16,43.943 418.46,52.985C420.227,53.965 422.349,54.768 424.889,55.345C418.987,47.083 421.348,48.264 426.069,28.198C430.791,8.133 409.545,3.412 389.48,1.052C369.414,-1.309 345.808,-1.309 337.546,18.756Z" transform="rotate(360 381.108 37.115)" fill="#000000"/>
<path d="M275.098,146.231C290.206,126.402 354.572,106.494 384.867,99.019C382.979,117.904 399.817,147.018 408.472,159.215C407.292,194.624 407.056,265.443 415.554,265.443C421.22,254.112 424.21,192.263 424.997,162.756C429.325,157.248 440.577,140.33 450.964,116.724C453.324,123.805 517.061,172.198 527.683,187.542C538.307,202.886 541.847,350.425 541.847,363.409C541.847,376.391 546.569,464.915 507.619,464.915C476.459,464.915 349.064,469.243 284.541,470.817C275.098,370.883 259.99,166.061 275.098,146.231Z" transform="rotate(360 405.358 284.918)" fill="#000000"/>
<path d="M376.043,168.65L376.581,168.597L376.581,168.597L376.043,168.65ZM459.845,218.223L459.324,218.079L459.845,218.223ZM475.19,317.369L475.516,317.799L475.546,317.777L475.572,317.751L475.19,317.369ZM325.29,317.369L325.803,317.539L325.812,317.511L325.818,317.483L325.29,317.369ZM347.492,110.015C355.125,113.486 371.739,130.104 375.505,168.702L376.581,168.597C372.793,129.767 356.044,112.716 347.939,109.031L347.492,110.015ZM375.505,168.702C377.87,192.939 382.851,209.254 388.819,219.527C394.784,229.797 401.79,234.107 408.197,234.107L408.197,233.026C402.326,233.026 395.615,229.075 389.754,218.984C383.894,208.897 378.938,192.754 376.581,168.597L375.505,168.702ZM419.985,236.402C425.082,239.194 433.23,241.666 441.098,239.937C449.025,238.196 456.545,232.218 460.366,218.367L459.324,218.079C455.591,231.611 448.337,237.24 440.866,238.882C433.336,240.536 425.46,238.169 420.505,235.454L419.985,236.402ZM460.366,218.367C465.071,201.311 472.318,188.135 481.078,179.963C489.824,171.806 500.066,168.638 510.866,171.533L511.146,170.488C499.928,167.482 489.312,170.805 480.34,179.173C471.386,187.525 464.061,200.906 459.324,218.079L460.366,218.367ZM312.517,123.116C312.452,123.144 312.44,123.122 312.548,123.138C312.641,123.152 312.777,123.187 312.962,123.255C313.329,123.388 313.828,123.627 314.447,123.981C315.68,124.688 317.339,125.825 319.287,127.411C323.18,130.582 328.202,135.523 333.266,142.336C343.39,155.959 353.675,177.06 355.438,206.452L356.517,206.387C354.74,176.764 344.37,155.465 334.133,141.691C329.017,134.806 323.932,129.8 319.969,126.573C317.989,124.96 316.282,123.786 314.984,123.043C314.337,122.672 313.779,122.402 313.332,122.239C313.109,122.158 312.899,122.098 312.71,122.069C312.537,122.043 312.308,122.031 312.096,122.121L312.517,123.116ZM355.438,206.452C357.212,236.02 367.557,278.62 387.257,306.468C397.112,320.397 409.351,330.695 424.086,333.759C438.836,336.825 455.959,332.615 475.516,317.799L474.862,316.939C455.468,331.631 438.658,335.683 424.306,332.701C409.939,329.713 397.908,319.651 388.14,305.844C368.595,278.217 358.284,235.836 356.517,206.387L355.438,206.452ZM475.572,317.751C490.306,303.017 504.768,291.037 516.136,282.991C521.82,278.966 526.72,275.934 530.486,274.032C532.37,273.081 533.954,272.421 535.202,272.059C535.826,271.878 536.35,271.775 536.778,271.745C537.212,271.713 537.51,271.758 537.7,271.837L538.112,270.837C537.708,270.67 537.222,270.628 536.7,270.666C536.172,270.704 535.57,270.826 534.9,271.021C533.564,271.409 531.912,272.101 529.998,273.067C526.168,275.002 521.22,278.067 515.512,282.108C504.09,290.193 489.582,302.213 474.806,316.987L475.572,317.751ZM541.396,362.871C509.114,356.179 460.678,349.149 420.296,349.819C400.112,350.153 381.886,352.411 368.689,357.631C355.483,362.855 347.175,371.109 347.175,383.467L348.256,383.467C348.256,371.745 356.079,363.781 369.086,358.637C382.101,353.489 400.17,351.233 420.314,350.899C460.585,350.231 508.936,357.245 541.176,363.931L541.396,362.871ZM347.175,383.467C347.175,407.791 362.282,426.775 381.034,440.595C399.791,454.417 422.285,463.143 437.286,466.949L437.552,465.903C422.652,462.121 400.294,453.445 381.675,439.725C363.051,425.999 348.256,407.297 348.256,383.467L347.175,383.467ZM450.777,465.679C445.493,460.595 438.278,452.149 433.799,443.351C429.299,434.511 427.676,425.565 433.108,419.227L432.288,418.523C426.389,425.405 428.306,434.943 432.836,443.841C437.387,452.779 444.689,461.321 450.028,466.459L450.777,465.679ZM433.108,419.227C434.427,417.689 436.518,416.565 439.298,415.827C442.073,415.089 445.489,414.749 449.396,414.743C457.209,414.731 466.902,416.059 477.192,418.137C497.764,422.291 520.626,429.423 535.398,434.729L535.762,433.711C520.96,428.393 498.046,421.245 477.406,417.077C467.087,414.993 457.313,413.651 449.394,413.661C445.435,413.667 441.918,414.011 439.02,414.781C436.126,415.551 433.802,416.757 432.288,418.523L433.108,419.227ZM268.588,177.372C293.963,193.036 340.749,242.959 324.761,317.255L325.818,317.483C341.935,242.588 294.77,192.263 269.156,176.452L268.588,177.372ZM324.777,317.197C317.726,338.351 307.805,347.717 298.384,350.939C288.946,354.165 279.857,351.277 274.373,347.607L273.772,348.507C279.458,352.311 288.897,355.325 298.734,351.961C308.588,348.593 318.69,338.879 325.803,317.539L324.777,317.197ZM278.336,406.433C285.832,406.531 296.767,409.803 305.125,419.313C313.472,428.811 319.311,444.605 316.49,469.871L317.565,469.991C320.41,444.507 314.535,428.383 305.937,418.599C297.35,408.827 286.109,405.453 278.35,405.351L278.336,406.433Z" transform="rotate(360 405.079 289.727)" fill="#FFFFFF"/>
<line x1="395.703" y1="266.612" x2="395.703" y2="464.904" stroke="#027269" stroke-width="0.541" stroke-miterlimit="3.999327"/>
<path d="M398.894,446.278L377.922,408.147C366.483,415.137 341.699,427.212 322.634,436.745C302.674,446.725 301.662,459.624 316.913,457.717C309.287,459.624 305.023,472.805 318.368,472.805C311.024,479.123 329.172,475.982 337.433,472.805C332.985,475.347 325.301,479.833 328.352,484.409C331.402,488.985 376.651,460.895 398.894,446.278Z" transform="rotate(42.302 352.671 446.527)" fill="#FFFFFF"/>
<path d="M400.81,458.13L379.838,419.999C377.176,421.625 373.793,423.527 369.927,425.608L374.752,474.651C384.366,468.771 393.747,462.771 400.81,458.13Z" transform="rotate(42.302 385.369 447.325)" fill="#000000"/>
<path d="M331.214,469.423L346.467,457.984L345.818,457.119L330.566,468.558L331.214,469.423Z" transform="rotate(42.302 338.516 463.271)" fill="#000000"/>
<path d="M317.445,460.479L346.044,445.226L345.535,444.272L316.936,459.525L317.445,460.479Z" transform="rotate(42.302 331.49 452.376)" fill="#000000"/>
<path d="M317.695,450.261L346.294,433.102L345.738,432.175L317.139,449.334L317.695,450.261Z" transform="rotate(42.302 331.717 441.218)" fill="#000000"/>
<path d="M387.362,411.601C391.159,366.467 421.448,140.671 473.686,135.993C534.069,130.587 501.478,345.373 468.906,390.651L586.167,420.385L563.995,493.011C506.712,480.397 381.079,486.285 387.362,411.601Z" transform="rotate(-343.151 486.651 314.453)" fill="#000000"/>
<path d="M392.895,385.052L392.456,384.736L391.993,385.38L392.762,385.576L392.895,385.052ZM510.289,414.262L393.028,384.528L392.762,385.576L510.024,415.31L510.289,414.262ZM393.334,385.368C401.542,373.958 409.705,351.958 416.399,325.533C423.099,299.085 428.344,268.131 430.682,238.76C433.02,209.4 432.456,181.575 427.508,161.408C425.035,151.327 421.454,143.107 416.547,137.569C411.62,132.008 405.361,129.164 397.628,129.856L397.724,130.933C405.086,130.274 411.018,132.959 415.738,138.286C420.479,143.637 424.004,151.663 426.458,161.666C431.365,181.666 431.939,209.354 429.605,238.674C427.272,267.984 422.036,298.878 415.351,325.268C408.66,351.68 400.535,373.506 392.456,384.736L393.334,385.368Z" transform="rotate(-343.151 451.526 272.541)" fill="#FFFFFF"/>
<path d="M519.645,170.132C528.348,172.836 542.098,178.693 554.287,187.119C566.494,195.557 577.027,206.494 579.495,219.327L580.556,219.123C578.006,205.863 567.176,194.714 554.901,186.229C542.608,177.732 528.756,171.831 519.965,169.1L519.645,170.132ZM500.772,206.811C508.097,211.88 520.013,222.166 530.092,234.333C540.191,246.524 548.349,260.487 548.349,272.924L549.43,272.924C549.43,260.083 541.048,245.864 530.925,233.644C520.782,221.4 508.793,211.047 501.387,205.922L500.772,206.811ZM548.349,272.924C548.349,275.994 547.609,278.36 546.316,280.159C545.023,281.959 543.143,283.236 540.783,284.072C536.039,285.753 529.447,285.619 522.154,284.414C507.593,282.007 490.578,275.39 480.845,271.147L480.413,272.138C490.164,276.389 507.28,283.051 521.978,285.481C529.315,286.693 536.133,286.867 541.144,285.091C543.662,284.199 545.744,282.807 547.194,280.79C548.645,278.771 549.43,276.172 549.43,272.924L548.349,272.924ZM470.746,314.468C474.653,317.315 481.238,320.491 489.148,323.41C497.068,326.333 506.355,329.013 515.688,330.856C525.018,332.699 534.416,333.709 542.552,333.282C550.669,332.855 557.629,330.992 561.98,326.99L561.249,326.194C557.178,329.938 550.532,331.78 542.496,332.202C534.479,332.624 525.176,331.628 515.898,329.795C506.622,327.964 497.39,325.299 489.522,322.396C481.643,319.488 475.168,316.354 471.383,313.595L470.746,314.468ZM455.786,390.412C465.44,386.86 483.754,382.272 501.089,379.896C509.756,378.71 518.155,378.078 525.092,378.4C528.561,378.562 531.648,378.96 534.213,379.64C536.784,380.322 538.791,381.274 540.137,382.516L540.87,381.722C539.343,380.314 537.148,379.3 534.49,378.594C531.826,377.888 528.657,377.484 525.142,377.32C518.113,376.994 509.641,377.634 500.942,378.826C483.547,381.21 465.154,385.814 455.413,389.398L455.786,390.412ZM583.071,411.192C584.106,415.434 583.491,422.158 581.395,429.922C579.305,437.662 575.764,446.36 571.028,454.514C561.53,470.866 547.35,484.834 530.593,484.834L530.593,485.914C547.962,485.914 562.422,471.482 571.962,455.058C576.746,446.822 580.324,438.036 582.439,430.202C584.548,422.392 585.223,415.45 584.121,410.934L583.071,411.192Z" transform="rotate(-337.89 519.852 327.495)" fill="#FFFFFF"/>
<path d="M483.564,311.343L280.87,311.343C277.318,311.343 274.128,313.514 272.824,316.817L212.625,469.414C211.322,472.718 208.131,474.889 204.58,474.889L46.919,474.889C44.019,474.889 41.668,477.24 41.668,480.14C41.668,483.041 44.019,485.392 46.919,485.392L421.402,485.392C424.948,485.392 428.136,483.227 429.442,479.931L491.602,323.179C493.854,317.502 489.67,311.343 483.564,311.343Z" transform="rotate(360 268.982 398.367)" fill="#FFFFFF" stroke="#000000" stroke-width="1.622" stroke-miterlimit="3.999327"/>
<path d="M319.198,314.318L252.518,474.889L257.022,474.889C260.514,474.889 263.663,472.789 265.006,469.565L328.112,318.025C329.436,314.846 327.1,311.343 323.656,311.343C321.705,311.343 319.946,312.517 319.198,314.318Z" transform="rotate(360 291.707 393.116)" fill="#000000"/>
<path d="M429.442,479.931L491.602,323.179C493.854,317.502 489.67,311.343 483.564,311.343L467.934,311.343C466.648,311.343 465.382,311.63 464.212,312.168C458.68,314.716 449.438,318.722 434.09,326.477C382.74,352.423 376.254,407.556 387.064,434.582C395.828,456.493 279.986,479.14 234.472,485.392L421.402,485.392C424.948,485.392 428.136,483.227 429.442,479.931Z" transform="rotate(360 268.982 398.367)" fill="#000000"/>
<path d="M191.377,383.807C191.377,391.996 185.604,398.635 178.483,398.635C171.362,398.635 165.589,391.996 165.589,383.807C165.589,375.618 171.362,368.979 178.483,368.979C185.604,368.979 191.377,375.618 191.377,383.807Z" transform="rotate(318.882 178.483 383.807)" fill="#000000"/>
</svg>
