<svg width="40" height="40" viewBox="0 0 40 40" fill="none" xmlns="http://www.w3.org/2000/svg" xmlns:xlink="http://www.w3.org/1999/xlink">
<path d="M12.982,9.006C13.883,8.989 14.782,9.081 15.661,9.281C16.4,9.442 17.102,9.743 17.73,10.166C18.31,10.588 18.768,11.154 19.06,11.808C19.395,12.613 19.556,13.479 19.534,14.351C19.572,15.307 19.328,16.254 18.831,17.073C18.309,17.847 17.587,18.464 16.743,18.861C17.889,19.17 18.888,19.878 19.559,20.857C20.203,21.895 20.527,23.1 20.49,24.321C20.511,25.294 20.31,26.26 19.901,27.144C19.524,27.915 18.971,28.587 18.287,29.106C17.583,29.619 16.79,29.999 15.949,30.227C15.077,30.468 14.176,30.589 13.271,30.587L3.333,30.587L3.333,9.006L12.982,9.006ZM12.409,17.734C13.116,17.764 13.813,17.552 14.385,17.134C14.658,16.89 14.871,16.586 15.006,16.245C15.142,15.904 15.195,15.537 15.163,15.171C15.181,14.745 15.096,14.32 14.915,13.934C14.762,13.626 14.523,13.369 14.228,13.193C13.929,12.999 13.592,12.869 13.241,12.812C12.859,12.738 12.47,12.704 12.081,12.712L7.835,12.712L7.835,17.754L12.409,17.754L12.409,17.734ZM12.656,26.922C13.084,26.928 13.511,26.882 13.928,26.785C14.309,26.701 14.67,26.544 14.992,26.324C15.308,26.104 15.563,25.808 15.733,25.463C15.931,25.024 16.022,24.544 15.999,24.062C16.042,23.624 15.984,23.181 15.829,22.768C15.674,22.355 15.427,21.983 15.106,21.681C14.427,21.18 13.594,20.932 12.751,20.98L7.835,20.98L7.835,26.922L12.656,26.922Z" fill="#000000"/>
<path d="M26.901,26.842C27.255,27.17 27.671,27.422 28.125,27.584C28.579,27.746 29.061,27.813 29.541,27.783C30.304,27.802 31.051,27.57 31.669,27.123C32.171,26.796 32.551,26.313 32.751,25.748L36.341,25.748C35.958,27.356 35.024,28.78 33.701,29.771C32.431,30.614 30.931,31.041 29.408,30.992C28.321,31.007 27.242,30.802 26.236,30.391C25.325,30.012 24.509,29.438 23.843,28.71C23.18,27.947 22.671,27.063 22.343,26.107C21.975,25.038 21.795,23.914 21.811,22.783C21.804,21.672 21.99,20.568 22.361,19.52C22.859,18.047 23.811,16.768 25.08,15.869C26.35,14.97 27.872,14.496 29.427,14.515C30.576,14.491 31.711,14.76 32.727,15.296C33.646,15.8 34.438,16.505 35.044,17.359C35.665,18.255 36.109,19.26 36.355,20.322C36.624,21.462 36.72,22.636 36.639,23.805L25.946,23.805C25.859,24.903 26.202,25.992 26.901,26.842L26.901,26.842ZM31.593,18.635C31.294,18.336 30.934,18.104 30.537,17.955C30.141,17.807 29.717,17.745 29.295,17.774C28.735,17.753 28.179,17.877 27.681,18.134C27.286,18.352 26.938,18.644 26.655,18.995C26.405,19.324 26.218,19.697 26.105,20.095C26.003,20.427 25.94,20.769 25.915,21.115L32.539,21.115C32.481,20.213 32.152,19.349 31.596,18.636L31.593,18.635Z" fill="#000000"/>
<path d="M33.361,10.447L25.062,10.447L25.062,12.568L33.361,12.568L33.361,10.447Z" fill="#000000"/>
</svg>
