<svg width="28" height="24" viewBox="0 0 28 24" fill="none" xmlns="http://www.w3.org/2000/svg" xmlns:xlink="http://www.w3.org/1999/xlink">
<path d="M2.333,10C1.229,10 0.333,10.895 0.333,12C0.333,13.105 1.229,14 2.333,14L2.333,10ZM24,14C25.105,14 26,13.105 26,12C26,10.895 25.105,10 24,10L24,14ZM17.081,0.586C16.3,-0.195 15.034,-0.195 14.253,0.586C13.472,1.367 13.472,2.633 14.253,3.414L17.081,0.586ZM14.253,20.586C13.472,21.367 13.472,22.633 14.253,23.414C15.034,24.195 16.3,24.195 17.081,23.414L14.253,20.586ZM2.333,14L24,14L24,10L2.333,10L2.333,14ZM14.253,3.414L23.074,12.236L25.902,9.407L17.081,0.586L14.253,3.414ZM23.074,11.764L14.253,20.586L17.081,23.414L25.902,14.593L23.074,11.764ZM23.074,12.236C22.944,12.106 22.944,11.894 23.074,11.764L25.902,14.593C27.334,13.161 27.334,10.839 25.902,9.407L23.074,12.236Z" fill="#000000"/>
</svg>
