<svg width="112" height="112" viewBox="0 0 112 112" fill="none" xmlns="http://www.w3.org/2000/svg" xmlns:xlink="http://www.w3.org/1999/xlink">
<path d="M19.71,97.307L16.672,16.408C16.576,13.736 18.629,11.475 21.296,11.312L75.215,7.94L79.333,9.333L84.688,7.348L90.092,7.009C92.806,6.837 95.146,8.897 95.321,11.611C95.328,11.716 95.331,11.823 95.331,11.93L95.331,100.077C95.328,102.8 93.119,105.005 90.396,105.002C90.323,105.002 90.251,105 90.181,104.998L24.414,102.044C21.852,101.929 19.808,99.871 19.71,97.307Z" clip-rule="evenodd" fill-rule="evenodd" fill="#000000"/>
<path d="M84.684,7.348L75.218,7.936L74.758,19.045C74.742,19.451 75.057,19.791 75.463,19.81C75.633,19.817 75.799,19.766 75.934,19.663L80.246,16.389L83.891,19.262C84.208,19.514 84.672,19.46 84.922,19.143C85.029,19.005 85.085,18.835 85.081,18.66L84.689,7.35L84.684,7.348ZM77.315,44.539C75.586,45.885 62.669,46.802 62.669,44.886C62.944,37.571 59.671,37.252 57.848,37.252C56.124,37.252 53.212,37.772 53.212,41.692C53.212,45.684 57.466,47.938 62.459,50.584C69.55,54.343 78.139,58.896 78.139,70.341C78.139,81.317 69.221,87.374 57.853,87.374C46.119,87.374 35.861,82.626 37.019,66.166C37.474,64.237 52.395,64.696 52.395,66.166C52.209,72.959 53.758,74.956 57.669,74.956C60.672,74.956 62.034,73.299 62.034,70.516C62.034,66.297 57.606,63.807 52.505,60.947C45.601,57.071 37.476,52.509 37.476,42.037C37.476,31.591 44.66,24.624 57.487,24.624C70.313,24.624 77.315,31.486 77.315,44.539Z" clip-rule="evenodd" fill-rule="evenodd" fill="#FFFFFF"/>
</svg>
