<svg width="124" height="130" viewBox="0 0 124 130" fill="none" xmlns="http://www.w3.org/2000/svg" xmlns:xlink="http://www.w3.org/1999/xlink">
<path d="M61.091,75.852C67.518,75.852 72.727,70.545 72.727,64C72.727,57.454 67.518,52.148 61.091,52.148C54.664,52.148 49.455,57.454 49.455,64C49.455,70.545 54.664,75.852 61.091,75.852Z" fill="#000000"/>
<path d="M116.273,64C116.273,69.477 111.298,75.401 100.982,80.129C90.928,84.737 76.827,87.667 61.091,87.667L61.091,93.667C77.488,93.667 92.478,90.627 103.482,85.583C114.223,80.66 122.273,73.25 122.273,64L116.273,64ZM61.091,87.667C45.355,87.667 31.254,84.737 21.2,80.129C10.884,75.401 5.909,69.477 5.909,64L-0.091,64C-0.091,73.25 7.959,80.66 18.7,85.583C29.704,90.627 44.694,93.667 61.091,93.667L61.091,87.667ZM5.909,64C5.909,58.523 10.884,52.599 21.2,47.871C31.254,43.263 45.355,40.333 61.091,40.333L61.091,34.333C44.694,34.333 29.704,37.374 18.7,42.417C7.959,47.34 -0.091,54.75 -0.091,64L5.909,64ZM61.091,40.333C76.827,40.333 90.928,43.263 100.982,47.871C111.298,52.599 116.273,58.523 116.273,64L122.273,64C122.273,54.75 114.223,47.34 103.482,42.417C92.478,37.374 77.488,34.333 61.091,34.333L61.091,40.333Z" fill="#000000"/>
<path d="M117.083,64C117.083,66.659 115.887,69.416 113.27,72.174C110.639,74.948 106.691,77.582 101.583,79.86C91.374,84.412 77.061,87.304 61.091,87.304L61.091,93.304C77.702,93.304 92.884,90.308 104.026,85.34C109.594,82.857 114.284,79.823 117.624,76.303C120.978,72.768 123.083,68.605 123.083,64L117.083,64ZM61.091,87.304C45.121,87.304 30.808,84.412 20.599,79.86C15.491,77.582 11.543,74.948 8.912,72.174C6.295,69.416 5.099,66.659 5.099,64L-0.901,64C-0.901,68.605 1.205,72.768 4.559,76.303C7.898,79.823 12.588,82.857 18.156,85.34C29.298,90.308 44.481,93.304 61.091,93.304L61.091,87.304ZM5.099,64C5.099,61.341 6.295,58.584 8.912,55.826C11.543,53.052 15.491,50.418 20.599,48.14C30.808,43.588 45.121,40.696 61.091,40.696L61.091,34.696C44.481,34.696 29.298,37.692 18.156,42.66C12.588,45.143 7.898,48.177 4.559,51.697C1.205,55.233 -0.901,59.395 -0.901,64L5.099,64ZM61.091,40.696C77.061,40.696 91.374,43.588 101.583,48.14C106.691,50.418 110.639,53.052 113.27,55.826C115.887,58.584 117.083,61.341 117.083,64L123.083,64C123.083,59.395 120.978,55.233 117.624,51.697C114.284,48.177 109.594,45.143 104.026,42.66C92.884,37.692 77.702,34.696 61.091,34.696L61.091,40.696Z" transform="rotate(120.906 61.091 64)" fill="#000000"/>
<path d="M117.083,64C117.083,66.659 115.887,69.416 113.27,72.174C110.639,74.948 106.691,77.582 101.583,79.86C91.374,84.411 77.061,87.304 61.091,87.304L61.091,93.304C77.702,93.304 92.884,90.308 104.026,85.339C109.594,82.857 114.284,79.823 117.623,76.303C120.977,72.767 123.083,68.604 123.083,64L117.083,64ZM61.091,87.304C45.121,87.304 30.808,84.411 20.599,79.86C15.491,77.582 11.543,74.948 8.912,72.174C6.295,69.416 5.099,66.659 5.099,64L-0.901,64C-0.901,68.604 1.205,72.767 4.559,76.303C7.898,79.823 12.588,82.857 18.156,85.339C29.298,90.308 44.48,93.304 61.091,93.304L61.091,87.304ZM5.099,64C5.099,61.341 6.295,58.584 8.912,55.826C11.543,53.052 15.491,50.418 20.599,48.14C30.808,43.588 45.121,40.696 61.091,40.696L61.091,34.696C44.48,34.696 29.298,37.692 18.156,42.66C12.588,45.143 7.898,48.176 4.559,51.697C1.205,55.232 -0.901,59.395 -0.901,64L5.099,64ZM61.091,40.696C77.061,40.696 91.374,43.588 101.583,48.14C106.691,50.418 110.639,53.052 113.27,55.826C115.887,58.584 117.083,61.341 117.083,64L123.083,64C123.083,59.395 120.977,55.232 117.623,51.697C114.284,48.176 109.594,45.143 104.026,42.66C92.884,37.692 77.702,34.696 61.091,34.696L61.091,40.696Z" transform="rotate(239.094 61.091 64)" fill="#000000"/>
</svg>
