<svg width="114" height="112" viewBox="0 0 114 112" fill="none" xmlns="http://www.w3.org/2000/svg" xmlns:xlink="http://www.w3.org/1999/xlink">
<path d="M20.21,97.307L17.172,16.408C17.076,13.736 19.129,11.475 21.796,11.312L75.715,7.94L79.833,9.333L85.188,7.348L90.592,7.009C93.306,6.837 95.646,8.897 95.821,11.611C95.828,11.716 95.831,11.823 95.831,11.93L95.831,100.077C95.828,102.8 93.619,105.005 90.896,105.002C90.823,105.002 90.751,105 90.681,104.998L24.914,102.044C22.352,101.929 20.308,99.871 20.21,97.307Z" clip-rule="evenodd" fill-rule="evenodd" fill="#000000"/>
<path d="M85.183,7.348L75.717,7.936L75.257,19.045C75.241,19.451 75.556,19.791 75.962,19.81C76.132,19.817 76.298,19.766 76.433,19.663L80.745,16.389L84.39,19.262C84.707,19.514 85.172,19.46 85.421,19.143C85.529,19.005 85.585,18.835 85.58,18.66L85.188,7.35L85.183,7.348ZM77.815,44.539C76.086,45.885 63.168,46.802 63.168,44.886C63.444,37.571 60.17,37.252 58.348,37.252C56.623,37.252 53.711,37.772 53.711,41.692C53.711,45.684 57.965,47.938 62.958,50.584C70.049,54.343 78.638,58.896 78.638,70.341C78.638,81.317 69.72,87.374 58.352,87.374C46.618,87.374 36.361,82.626 37.518,66.166C37.973,64.237 52.895,64.696 52.895,66.166C52.708,72.959 54.257,74.956 58.168,74.956C61.171,74.956 62.534,73.299 62.534,70.516C62.534,66.297 58.105,63.807 53.004,60.947C46.1,57.071 37.975,52.509 37.975,42.037C37.975,31.591 45.16,24.624 57.986,24.624C70.812,24.624 77.815,31.486 77.815,44.539Z" clip-rule="evenodd" fill-rule="evenodd" fill="#FFFFFF"/>
</svg>
