<svg width="26" height="24" viewBox="0 0 26 24" fill="none" xmlns="http://www.w3.org/2000/svg" xmlns:xlink="http://www.w3.org/1999/xlink">
<path d="M23.667,14C24.772,14 25.667,13.105 25.667,12C25.667,10.895 24.772,10 23.667,10L23.667,14ZM2,10C0.896,10 0,10.895 0,12C0,13.105 0.896,14 2,14L2,10ZM11.748,3.414C12.529,2.633 12.529,1.367 11.748,0.586C10.967,-0.195 9.7,-0.195 8.919,0.586L11.748,3.414ZM8.919,23.414C9.7,24.195 10.967,24.195 11.748,23.414C12.529,22.633 12.529,21.367 11.748,20.586L8.919,23.414ZM23.667,10L2,10L2,14L23.667,14L23.667,10ZM8.919,0.586L0.098,9.407L2.926,12.236L11.748,3.414L8.919,0.586ZM0.098,14.593L8.919,23.414L11.748,20.586L2.926,11.764L0.098,14.593ZM0.098,9.407C-1.334,10.839 -1.334,13.161 0.098,14.593L2.926,11.764C3.056,11.894 3.056,12.106 2.926,12.236L0.098,9.407Z" fill="#000000"/>
</svg>
