<svg width="24" height="26" viewBox="0 0 24 26" fill="none" xmlns="http://www.w3.org/2000/svg" xmlns:xlink="http://www.w3.org/1999/xlink">
<path d="M10,23.667C10,24.771 10.895,25.667 12,25.667C13.105,25.667 14,24.771 14,23.667L10,23.667ZM14,2C14,0.895 13.105,0 12,0C10.895,0 10,0.895 10,2L14,2ZM0.586,8.919C-0.195,9.7 -0.195,10.966 0.586,11.748C1.367,12.529 2.633,12.529 3.414,11.748L0.586,8.919ZM10.821,1.512L12.236,2.926L12.236,2.926L10.821,1.512ZM13.179,1.512L14.593,0.098L14.593,0.098L13.179,1.512ZM20.586,11.748C21.367,12.529 22.633,12.529 23.414,11.748C24.195,10.966 24.195,9.7 23.414,8.919L20.586,11.748ZM14,23.667L14,2L10,2L10,23.667L14,23.667ZM3.414,11.748L12.236,2.926L9.407,0.098L0.586,8.919L3.414,11.748ZM11.764,2.926L20.586,11.748L23.414,8.919L14.593,0.098L11.764,2.926ZM12.236,2.926C12.106,3.056 11.894,3.056 11.764,2.926L14.593,0.098C13.161,-1.334 10.839,-1.334 9.407,0.098L12.236,2.926Z" fill="#000000"/>
</svg>
