<svg width="76" height="112" viewBox="0 0 76 112" fill="none" xmlns="http://www.w3.org/2000/svg" xmlns:xlink="http://www.w3.org/1999/xlink">
<path d="M35.188,56C35.188,51.049 37.155,46.301 40.655,42.8C44.156,39.3 48.904,37.333 53.855,37.333C58.805,37.333 63.553,39.3 67.054,42.8C70.555,46.301 72.521,51.049 72.521,56C72.521,60.95 70.555,65.698 67.054,69.199C63.553,72.7 58.805,74.666 53.855,74.666C48.904,74.666 44.156,72.7 40.655,69.199C37.155,65.698 35.188,60.95 35.188,56Z" fill="#000000"/>
<path d="M-0.146,93.333C-0.146,88.382 1.821,83.635 5.322,80.134C8.823,76.633 13.57,74.667 18.521,74.667L37.188,74.667L37.188,93.333C37.188,98.284 35.221,103.032 31.72,106.533C28.22,110.033 23.472,112 18.521,112C13.57,112 8.823,110.033 5.322,106.533C1.821,103.032 -0.146,98.284 -0.146,93.333Z" fill="#000000" stroke="#000000" stroke-width="1" stroke-miterlimit="3.999327"/>
<path d="M33.188,0L33.188,37.333L51.855,37.333C56.805,37.333 61.553,35.367 65.054,31.866C68.555,28.365 70.521,23.617 70.521,18.667C70.521,13.716 68.555,8.968 65.054,5.467C61.553,1.967 56.805,0 51.855,0L33.188,0Z" stroke="#000000" stroke-width="1" stroke-miterlimit="3.999327"/>
<path d="M-0.146,18.667C-0.146,23.617 1.821,28.365 5.322,31.866C8.823,35.367 13.57,37.333 18.521,37.333L37.188,37.333L37.188,0L18.521,0C13.57,0 8.823,1.967 5.322,5.467C1.821,8.968 -0.146,13.716 -0.146,18.667Z" fill="#000000"/>
<path d="M-0.146,56C-0.146,60.951 1.821,65.699 5.322,69.199C8.823,72.7 13.57,74.667 18.521,74.667L37.188,74.667L37.188,37.333L18.521,37.333C13.57,37.333 8.823,39.3 5.322,42.801C1.821,46.302 -0.146,51.049 -0.146,56Z" stroke="#000000" stroke-width="1" stroke-miterlimit="3.999327"/>
</svg>
