<svg width="114" height="112" viewBox="0 0 114 112" fill="none" xmlns="http://www.w3.org/2000/svg" xmlns:xlink="http://www.w3.org/1999/xlink">
<path d="M107.25,0L5.75,0C2.851,0 0.5,2.351 0.5,5.25L0.5,106.75C0.5,109.649 2.851,112 5.75,112L107.25,112C110.149,112 112.5,109.649 112.5,106.75L112.5,5.25C112.5,2.351 110.149,0 107.25,0Z" fill="#FFFFFF"/>
<path d="M65.479,87.035L65.479,99.307C67.468,100.329 69.819,101.097 72.534,101.608C75.249,102.119 78.11,102.375 81.118,102.375C84.05,102.375 86.835,102.094 89.473,101.532C92.112,100.969 94.424,100.042 96.413,98.751C98.401,97.459 99.975,95.772 101.135,93.688C102.295,91.605 102.875,89.029 102.875,85.961C102.875,83.736 102.543,81.787 101.881,80.112C101.218,78.437 100.262,76.948 99.013,75.644C97.764,74.34 96.266,73.17 94.521,72.135C92.774,71.1 90.805,70.122 88.612,69.201C87.007,68.536 85.566,67.891 84.292,67.264C83.017,66.638 81.934,65.999 81.042,65.347C80.15,64.695 79.461,64.005 78.977,63.276C78.493,62.547 78.25,61.723 78.25,60.802C78.25,59.958 78.467,59.198 78.901,58.52C79.334,57.843 79.946,57.261 80.736,56.775C81.526,56.29 82.495,55.912 83.642,55.644C84.789,55.375 86.064,55.241 87.466,55.241C88.486,55.241 89.562,55.318 90.697,55.471C91.831,55.625 92.972,55.861 94.119,56.181C95.266,56.5 96.381,56.903 97.465,57.389C98.548,57.875 99.548,58.437 100.466,59.076L100.466,47.609C98.605,46.893 96.572,46.363 94.367,46.018C92.162,45.673 89.633,45.5 86.777,45.5C83.871,45.5 81.118,45.813 78.518,46.44C75.918,47.066 73.63,48.044 71.655,49.373C69.679,50.703 68.118,52.397 66.971,54.455C65.824,56.513 65.25,58.974 65.25,61.838C65.25,65.494 66.301,68.613 68.405,71.195C70.508,73.778 73.7,75.964 77.983,77.753C79.665,78.444 81.233,79.121 82.686,79.786C84.139,80.451 85.394,81.141 86.452,81.857C87.51,82.573 88.345,83.353 88.956,84.196C89.569,85.04 89.874,85.999 89.874,87.073C89.874,87.866 89.684,88.601 89.301,89.278C88.919,89.955 88.339,90.543 87.561,91.042C86.784,91.541 85.815,91.931 84.655,92.212C83.495,92.493 82.138,92.634 80.583,92.634C77.932,92.634 75.306,92.167 72.706,91.234C70.106,90.301 67.697,88.901 65.479,87.035ZM44.865,56.485L60.875,56.485L60.875,46.375L16.25,46.375L16.25,56.485L32.182,56.485L32.182,101.5L44.865,101.5L44.865,56.485Z" clip-rule="evenodd" fill-rule="evenodd" fill="#000000"/>
</svg>
