<svg width="24" height="28" viewBox="0 0 24 28" fill="none" xmlns="http://www.w3.org/2000/svg" xmlns:xlink="http://www.w3.org/1999/xlink">
<path d="M14,2.333C14,1.229 13.105,0.333 12,0.333C10.895,0.333 10,1.229 10,2.333L14,2.333ZM10,24C10,25.104 10.895,26 12,26C13.105,26 14,25.104 14,24L10,24ZM23.414,17.081C24.195,16.3 24.195,15.033 23.414,14.252C22.633,13.471 21.367,13.471 20.586,14.252L23.414,17.081ZM13.179,24.488L14.593,25.902L14.593,25.902L13.179,24.488ZM10.821,24.488L12.236,23.074L12.236,23.074L10.821,24.488ZM3.414,14.252C2.633,13.471 1.367,13.471 0.586,14.252C-0.195,15.033 -0.195,16.3 0.586,17.081L3.414,14.252ZM10,2.333L10,24L14,24L14,2.333L10,2.333ZM20.586,14.252L11.764,23.074L14.593,25.902L23.414,17.081L20.586,14.252ZM12.236,23.074L3.414,14.252L0.586,17.081L9.407,25.902L12.236,23.074ZM11.764,23.074C11.894,22.944 12.106,22.944 12.236,23.074L9.407,25.902C10.839,27.334 13.161,27.334 14.593,25.902L11.764,23.074Z" fill="#000000"/>
</svg>
