<svg width="100" height="112" viewBox="0 0 100 112" fill="none" xmlns="http://www.w3.org/2000/svg" xmlns:xlink="http://www.w3.org/1999/xlink">
<path d="M49.636,112C48.134,112 46.733,111.592 45.431,110.877L32.119,102.815C30.117,101.693 31.118,101.284 31.718,101.08C34.421,100.162 34.921,99.958 37.724,98.325C38.024,98.121 38.425,98.223 38.725,98.427L48.935,104.652C49.335,104.856 49.836,104.856 50.136,104.652L90.074,81.078C90.475,80.874 90.675,80.466 90.675,79.956L90.675,32.91C90.675,32.4 90.475,31.992 90.074,31.788L50.136,8.316C49.736,8.112 49.235,8.112 48.935,8.316L8.996,31.788C8.596,31.992 8.396,32.502 8.396,32.91L8.396,79.956C8.396,80.364 8.596,80.874 8.996,81.078L19.907,87.508C25.813,90.569 29.516,86.997 29.516,83.426L29.516,36.992C29.516,36.38 30.017,35.768 30.717,35.768L35.822,35.768C36.423,35.768 37.023,36.278 37.023,36.992L37.023,83.426C37.023,91.488 32.719,96.182 25.212,96.182C22.91,96.182 21.108,96.182 16.003,93.631L5.493,87.508C2.891,85.977 1.289,83.119 1.289,80.058L1.289,33.012C1.289,29.951 2.891,27.093 5.493,25.563L45.431,1.989C47.934,0.56 51.337,0.56 53.84,1.989L93.778,25.563C96.38,27.093 97.982,29.951 97.982,33.012L97.982,80.058C97.982,83.119 96.38,85.977 93.778,87.508L53.84,111.081C52.638,111.592 51.137,112 49.636,112Z" fill="#000000"/>
<path d="M62.048,79.65C44.531,79.65 40.927,71.486 40.927,64.546C40.927,63.934 41.428,63.322 42.128,63.322L47.333,63.322C47.934,63.322 48.434,63.73 48.434,64.342C49.235,69.751 51.537,72.404 62.148,72.404C70.556,72.404 74.159,70.465 74.159,65.873C74.159,63.22 73.158,61.281 60.046,59.954C49.135,58.832 42.329,56.382 42.329,47.504C42.329,39.238 49.135,34.339 60.546,34.339C73.358,34.339 79.664,38.83 80.465,48.626C80.465,48.933 80.365,49.239 80.165,49.545C79.965,49.749 79.664,49.953 79.364,49.953L74.059,49.953C73.558,49.953 73.058,49.545 72.958,49.035C71.757,43.422 68.654,41.585 60.446,41.585C51.237,41.585 50.136,44.851 50.136,47.3C50.136,50.259 51.437,51.178 63.849,52.811C76.161,54.443 81.967,56.791 81.967,65.567C81.967,74.547 74.66,79.65 62.048,79.65Z" fill="#000000"/>
</svg>
