<svg width="36" height="36" viewBox="0 0 36 36" fill="none" xmlns="http://www.w3.org/2000/svg" xmlns:xlink="http://www.w3.org/1999/xlink">
<path d="M35,23C35,21.895 34.105,21 33,21C31.895,21 31,21.895 31,23L35,23ZM5,23C5,21.895 4.105,21 3,21C1.895,21 1,21.895 1,23L5,23ZM5.73,32.455L6.638,30.673L6.638,30.673L5.73,32.455ZM3.545,30.27L5.327,29.362L5.327,29.362L3.545,30.27ZM30.27,32.455L29.362,30.673L29.362,30.673L30.27,32.455ZM32.455,30.27L34.237,31.178L34.237,31.178L32.455,30.27ZM27.748,16.081C28.529,15.3 28.529,14.033 27.748,13.252C26.966,12.471 25.7,12.471 24.919,13.252L27.748,16.081ZM18,23L16.586,24.414C17.367,25.195 18.633,25.195 19.414,24.414L18,23ZM11.081,13.252C10.3,12.471 9.033,12.471 8.252,13.252C7.471,14.033 7.471,15.3 8.252,16.081L11.081,13.252ZM20,3C20,1.895 19.105,1 18,1C16.895,1 16,1.895 16,3L20,3ZM25,31L11,31L11,35L25,35L25,31ZM31,23L31,25L35,25L35,23L31,23ZM5,25L5,23L1,23L1,25L5,25ZM11,31C9.567,31 8.612,30.998 7.879,30.939C7.169,30.881 6.844,30.778 6.638,30.673L4.822,34.237C5.686,34.677 6.596,34.847 7.553,34.925C8.487,35.002 9.633,35 11,35L11,31ZM1,25C1,26.367 0.998,27.513 1.075,28.447C1.153,29.404 1.323,30.314 1.763,31.178L5.327,29.362C5.222,29.156 5.12,28.831 5.061,28.121C5.002,27.388 5,26.433 5,25L1,25ZM6.638,30.673C6.074,30.385 5.615,29.926 5.327,29.362L1.763,31.178C2.434,32.495 3.505,33.566 4.822,34.237L6.638,30.673ZM25,35C26.367,35 27.513,35.002 28.447,34.925C29.404,34.847 30.314,34.677 31.178,34.237L29.362,30.673C29.156,30.778 28.831,30.881 28.121,30.939C27.388,30.998 26.433,31 25,31L25,35ZM31,25C31,26.433 30.998,27.388 30.939,28.121C30.881,28.831 30.778,29.156 30.673,29.362L34.237,31.178C34.677,30.314 34.847,29.404 34.925,28.447C35.002,27.513 35,26.367 35,25L31,25ZM31.178,34.237C32.495,33.566 33.566,32.495 34.237,31.178L30.673,29.362C30.385,29.926 29.926,30.385 29.362,30.673L31.178,34.237ZM24.919,13.252L16.586,21.586L19.414,24.414L27.748,16.081L24.919,13.252ZM19.414,21.586L11.081,13.252L8.252,16.081L16.586,24.414L19.414,21.586ZM16,3L16,23L20,23L20,3L16,3Z" fill="#000000"/>
</svg>
