<svg width="112" height="112" viewBox="0 0 112 112" fill="none" xmlns="http://www.w3.org/2000/svg" xmlns:xlink="http://www.w3.org/1999/xlink">
<path d="M106.75,0L5.25,0C2.35,0 0,2.35 0,5.25L0,106.75C0,109.649 2.35,112 5.25,112L106.75,112C109.649,112 112,109.649 112,106.75L112,5.25C112,2.35 109.649,0 106.75,0Z" fill="#000000"/>
<path d="M64.979,87.035L64.979,99.307C66.968,100.329 69.319,101.097 72.034,101.608C74.749,102.119 77.61,102.375 80.618,102.375C83.55,102.375 86.335,102.094 88.973,101.532C91.612,100.969 93.924,100.042 95.913,98.751C97.901,97.459 99.475,95.772 100.635,93.688C101.795,91.605 102.375,89.029 102.375,85.961C102.375,83.736 102.043,81.787 101.381,80.112C100.718,78.437 99.762,76.948 98.513,75.644C97.264,74.34 95.766,73.17 94.021,72.135C92.274,71.1 90.305,70.122 88.112,69.201C86.507,68.536 85.066,67.891 83.792,67.264C82.517,66.638 81.434,65.999 80.542,65.347C79.65,64.695 78.961,64.005 78.477,63.276C77.993,62.547 77.75,61.723 77.75,60.802C77.75,59.958 77.967,59.198 78.401,58.52C78.834,57.843 79.446,57.261 80.236,56.775C81.026,56.29 81.995,55.912 83.142,55.644C84.289,55.375 85.564,55.241 86.966,55.241C87.986,55.241 89.062,55.318 90.197,55.471C91.331,55.625 92.472,55.861 93.619,56.181C94.766,56.5 95.881,56.903 96.965,57.389C98.048,57.875 99.048,58.437 99.966,59.076L99.966,47.609C98.105,46.893 96.072,46.363 93.867,46.018C91.662,45.673 89.133,45.5 86.277,45.5C83.371,45.5 80.618,45.813 78.018,46.44C75.418,47.066 73.13,48.044 71.155,49.373C69.179,50.703 67.618,52.397 66.471,54.455C65.324,56.513 64.75,58.974 64.75,61.838C64.75,65.494 65.801,68.613 67.905,71.195C70.008,73.778 73.2,75.964 77.483,77.753C79.165,78.444 80.733,79.121 82.186,79.786C83.639,80.451 84.894,81.141 85.952,81.857C87.01,82.573 87.845,83.353 88.456,84.196C89.069,85.04 89.374,85.999 89.374,87.073C89.374,87.866 89.184,88.601 88.801,89.278C88.419,89.955 87.839,90.543 87.061,91.042C86.284,91.541 85.315,91.931 84.155,92.212C82.995,92.493 81.638,92.634 80.083,92.634C77.432,92.634 74.806,92.167 72.206,91.234C69.606,90.301 67.197,88.901 64.979,87.035ZM44.365,56.485L60.375,56.485L60.375,46.375L15.75,46.375L15.75,56.485L31.682,56.485L31.682,101.5L44.365,101.5L44.365,56.485Z" clip-rule="evenodd" fill-rule="evenodd" fill="#FFFFFF"/>
</svg>
