<svg width="22" height="22" viewBox="0 0 22 22" fill="none" xmlns="http://www.w3.org/2000/svg" xmlns:xlink="http://www.w3.org/1999/xlink">
<path d="M0.336,16.835C-0.445,17.616 -0.445,18.883 0.336,19.664C1.117,20.445 2.384,20.445 3.165,19.664L0.336,16.835ZM18.485,4.343C19.266,3.562 19.266,2.296 18.485,1.515C17.704,0.734 16.438,0.734 15.657,1.515L18.485,4.343ZM4.108,-0.25C3.003,-0.25 2.108,0.646 2.108,1.75C2.108,2.855 3.003,3.75 4.108,3.75L4.108,-0.25ZM16.25,15.893C16.25,16.997 17.145,17.893 18.25,17.893C19.354,17.893 20.25,16.997 20.25,15.893L16.25,15.893ZM3.165,19.664L18.485,4.343L15.657,1.515L0.336,16.835L3.165,19.664ZM4.108,3.75L16.583,3.75L16.583,-0.25L4.108,-0.25L4.108,3.75ZM16.25,3.417L16.25,15.893L20.25,15.893L20.25,3.417L16.25,3.417ZM16.583,3.75C16.399,3.75 16.25,3.601 16.25,3.417L20.25,3.417C20.25,1.392 18.608,-0.25 16.583,-0.25L16.583,3.75Z" fill="#000000"/>
</svg>
