<svg width="114" height="112" viewBox="0 0 114 112" fill="none" xmlns="http://www.w3.org/2000/svg" xmlns:xlink="http://www.w3.org/1999/xlink">
<path d="M20.231,97.307L17.193,16.408C17.097,13.736 19.15,11.475 21.817,11.312L75.736,7.94L79.854,9.333L85.209,7.347L90.613,7.009C93.327,6.836 95.667,8.897 95.842,11.61C95.849,11.715 95.852,11.823 95.852,11.93L95.852,100.076C95.849,102.799 93.64,105.004 90.917,105.002C90.844,105.002 90.772,105 90.702,104.997L24.935,102.043C22.373,101.929 20.329,99.871 20.231,97.307Z" clip-rule="evenodd" fill-rule="evenodd" fill="#000000"/>
<path d="M85.205,7.348L75.739,7.936L75.279,19.045C75.263,19.451 75.578,19.791 75.984,19.81C76.154,19.817 76.32,19.766 76.455,19.663L80.767,16.389L84.412,19.262C84.729,19.514 85.193,19.46 85.443,19.143C85.55,19.005 85.606,18.835 85.602,18.66L85.21,7.35L85.205,7.348ZM77.836,44.539C76.107,45.885 63.19,46.802 63.19,44.886C63.465,37.571 60.192,37.252 58.369,37.252C56.645,37.252 53.733,37.772 53.733,41.692C53.733,45.684 57.987,47.938 62.98,50.584C70.071,54.343 78.66,58.896 78.66,70.341C78.66,81.317 69.742,87.374 58.374,87.374C46.64,87.374 36.382,82.626 37.54,66.166C37.995,64.237 52.916,64.696 52.916,66.166C52.73,72.959 54.279,74.956 58.19,74.956C61.193,74.956 62.555,73.299 62.555,70.516C62.555,66.297 58.127,63.807 53.026,60.947C46.122,57.071 37.997,52.509 37.997,42.037C37.997,31.591 45.181,24.624 58.008,24.624C70.834,24.624 77.836,31.486 77.836,44.539Z" clip-rule="evenodd" fill-rule="evenodd" fill="#FFFFFF"/>
</svg>
