<svg xmlns="http://www.w3.org/2000/svg" width="68" height="68" fill="none" viewBox="0 0 48 48">
  <g clip-path="url(#a)">
    <path fill="#fff" d="M36.75 0h-25.5C5.037 0 0 5.037 0 11.25v25.5C0 42.963 5.037 48 11.25 48h25.5C42.963 48 48 42.963 48 36.75v-25.5C48 5.037 42.963 0 36.75 0Z"/>
    <path fill="#0A66C2" d="M36.75 0h-25.5C5.037 0 0 5.037 0 11.25v25.5C0 42.963 5.037 48 11.25 48h25.5C42.963 48 48 42.963 48 36.75v-25.5C48 5.037 42.963 0 36.75 0Z"/>
    <path fill="#fff" d="M34.634 40.816h5.488a.75.75 0 0 0 .75-.75l.003-11.595c0-6.06-1.306-10.72-8.388-10.72a7.36 7.36 0 0 0-6.602 3.606.06.06 0 0 1-.099.006.06.06 0 0 1-.012-.036V19.06a.75.75 0 0 0-.75-.75h-5.208a.75.75 0 0 0-.75.75v21.004a.75.75 0 0 0 .75.75h5.487a.75.75 0 0 0 .75-.75V29.683c0-2.936.557-5.78 4.197-5.78 3.588 0 3.634 3.36 3.634 5.97v10.193a.75.75 0 0 0 .75.75ZM7.125 11.18c0 2.225 1.831 4.055 4.056 4.055 2.224 0 4.054-1.832 4.054-4.056s-1.83-4.054-4.055-4.054c-2.225 0-4.055 1.83-4.055 4.055ZM8.43 40.816h5.495a.75.75 0 0 0 .75-.75V19.06a.75.75 0 0 0-.75-.75H8.43a.75.75 0 0 0-.75.75v21.005a.75.75 0 0 0 .75.75Z"/>
  </g>
  <defs>
    <clipPath id="a">
      <path fill="#fff" d="M0 0h48v48H0z"/>
    </clipPath>
  </defs>
</svg>
