<svg xmlns="http://www.w3.org/2000/svg" fill="none" viewBox="-0.75 -0.75 24 24" id="Share-Link--Streamline-Flex" height="24" width="24"><desc>Share Link Streamline Icon: https://streamlinehq.com</desc><g id="share-link--share-transmit"><path id="Vector" stroke="#000000" stroke-linecap="round" stroke-linejoin="round" d="M14.439117857142856 5.420571428571428c-4.186157142857143 0.9966374999999998 -4.4771624999999995 1.0281696428571427 -8.0395875 2.720635714285714" stroke-width="1.5"></path><path id="Vector_2" stroke="#000000" stroke-linecap="round" stroke-linejoin="round" d="M14.439117857142856 17.09710714285714c-4.186157142857143 -0.9965892857142856 -4.4771624999999995 -1.0281857142857143 -8.0395875 -2.7206517857142853" stroke-width="1.5"></path><path id="Vector_3" stroke="#000000" stroke-linecap="round" stroke-linejoin="round" d="M17.838642857142855 8.123560714285714c2.211910714285714 0 3.4561607142857143 -1.2452785714285712 3.4561607142857143 -3.4591017857142856S20.05055357142857 1.2053571428571428 17.838642857142855 1.2053571428571428c-2.211798214285714 0 -3.455967857142857 1.2452785714285712 -3.455967857142857 3.4591017857142856s1.2441696428571427 3.4591017857142856 3.455967857142857 3.4591017857142856Z" stroke-width="1.5"></path><path id="Vector_4" stroke="#000000" stroke-linecap="round" stroke-linejoin="round" d="M4.661389285714285 14.718005357142857c2.2118625 0 3.4560321428571426 -1.2452785714285712 3.4560321428571426 -3.4591017857142856s-1.2441696428571427 -3.4591017857142856 -3.4560321428571426 -3.4591017857142856C2.4495267857142853 7.799801785714284 1.2053571428571428 9.045080357142856 1.2053571428571428 11.25890357142857s1.2441696428571427 3.4591017857142856 3.4560321428571426 3.4591017857142856Z" stroke-width="1.5"></path><path id="Vector_5" stroke="#000000" stroke-linecap="round" stroke-linejoin="round" d="M17.838642857142855 14.376439285714284c2.211910714285714 0 3.4561607142857143 1.2452785714285712 3.4561607142857143 3.4591499999999993 0 2.2138392857142852 -1.2442499999999999 3.459053571428571 -3.4561607142857143 3.459053571428571 -2.211798214285714 0 -3.455967857142857 -1.2452142857142856 -3.455967857142857 -3.459053571428571 0 -2.2138714285714283 1.2441696428571427 -3.4591499999999993 3.455967857142857 -3.4591499999999993Z" stroke-width="1.5"></path></g></svg>