<svg xmlns="http://www.w3.org/2000/svg" width="20" height="20" fill="none" viewBox="0 0 20 20">
  <path fill="#000" d="M17.5 3.603v12.794a1.103 1.103 0 0 1-1.103 1.103H3.603A1.103 1.103 0 0 1 2.5 16.397V3.603A1.103 1.103 0 0 1 3.603 2.5h12.794A1.103 1.103 0 0 1 17.5 3.603ZM6.912 8.235H4.706v7.06h2.206v-7.06ZM7.11 5.81a1.27 1.27 0 0 0-1.261-1.28h-.04a1.28 1.28 0 0 0 0 2.56A1.27 1.27 0 0 0 7.11 5.85v-.04Zm8.184 5.197c0-2.122-1.35-2.947-2.691-2.947a2.515 2.515 0 0 0-2.232 1.138h-.062v-.962H8.235v7.06h2.206V11.54a1.465 1.465 0 0 1 1.324-1.58h.083c.702 0 1.223.441 1.223 1.553v3.781h2.206l.017-4.288Z"/>
</svg>
