<svg xmlns="http://www.w3.org/2000/svg" width="64" height="34" fill="none" viewBox="0 0 64 34">
  <path fill="#000" d="M0 30.23h2.121v-8.112l3.283 7.07c.386.858.916 1.159 1.957 1.159s1.549-.3 1.936-1.158l3.282-7.071v8.111H14.7v-8.098c0-.79-.325-1.173-1-1.37-1.611-.486-2.691-.066-3.181.988l-3.22 6.98-3.12-6.98c-.468-1.054-1.57-1.474-3.179-.987-.674.196-1 .578-1 1.37v8.098Zm16.465-6.604h2.119v4.47c-.02.242.08.811 1.242.83h4.611v-5.322h2.125c.01 0-.004 7.257-.004 7.288.012 1.79-2.29 2.178-3.353 2.208H16.51v-1.38l6.707-.002c1.365-.138 1.203-.797 1.203-1.016v-.54h-4.506c-2.098-.019-3.431-.906-3.449-1.926-.002-.092.045-4.563 0-4.609Zm11.73 6.604h6.098c.713 0 1.407-.146 1.957-.396.918-.406 1.365-.96 1.365-1.685v-1.5c0-.593-.508-1.147-1.508-1.514-.53-.199-1.184-.303-1.815-.303h-2.57c-.856 0-1.264-.25-1.365-.802-.02-.067-.02-.12-.02-.186v-.935c0-.052 0-.106.02-.172.102-.42.326-.539 1.08-.605l.205-.013h6.055V20.75h-5.953c-.855 0-1.305.053-1.713.17-1.264.383-1.814.988-1.814 2.042v1.198c0 .921 1.08 1.712 2.894 1.896.205.013.408.027.611.027h2.203c.083 0 .163 0 .225.013.672.052.957.171 1.162.408.105.095.166.23.162.367v1.2c0 .144-.101.33-.304.487-.184.159-.49.263-.897.29l-.225.012h-5.853v1.369Zm22.649-2.384c0 1.41 1.082 2.198 3.261 2.357.206.013.409.027.614.027h5.526v-1.37h-5.567c-1.244 0-1.713-.303-1.713-1.027v-7.085h-2.119v7.097h-.002Zm-11.875.071v-4.883c0-1.24.9-1.992 2.678-2.23.19-.026.38-.039.572-.039h4.023c.206 0 .389.013.595.04 1.777.236 2.675.99 2.675 2.229v4.883c0 1.007-.38 1.544-1.261 1.896l2.09 1.826h-2.463l-1.69-1.478-1.7.105H42.22a4.742 4.742 0 0 1-1.246-.17c-1.35-.357-2.004-1.043-2.004-2.179h-.001Zm2.289-.119c0 .067.021.132.041.212.123.568.676.884 1.511.884h1.926l-1.769-1.548h2.463l1.543 1.351c.285-.148.473-.37.537-.66.022-.066.022-.132.022-.199v-4.683c0-.052 0-.119-.022-.185-.123-.528-.674-.83-1.49-.83h-3.209c-.94 0-1.553.395-1.553 1.015v4.643Zm20.851-9.322c-1.302-.034-2.299.083-3.15.431-.242.099-.629.1-.668.394.133.136.155.339.26.504.203.32.547.745.853.968.332.246.678.507 1.037.72.637.375 1.35.591 1.965.968.362.223.721.503 1.075.755.173.123.29.318.519.395v-.036c-.119-.147-.15-.35-.26-.503l-.483-.467c-.47-.606-1.068-1.138-1.704-1.58-.508-.352-1.641-.83-1.854-1.4l-.037-.037c.36-.037.782-.164 1.111-.25.559-.145 1.057-.108 1.631-.251l.78-.218v-.142c-.291-.29-.498-.672-.816-.935-.829-.683-1.735-1.367-2.669-1.939-.517-.316-1.155-.52-1.704-.79-.184-.09-.508-.135-.631-.287-.287-.355-.444-.806-.666-1.22a46.362 46.362 0 0 1-1.334-2.729c-.281-.622-.465-1.237-.817-1.795-1.681-2.681-3.494-4.3-6.301-5.889-.596-.338-1.317-.47-2.074-.645l-1.224-.071c-.248-.103-.507-.398-.74-.54-.93-.57-3.315-1.806-4.005-.18-.433 1.028.651 2.03 1.04 2.552.271.365.62.774.814 1.184.129.269.15.539.26.825.27.703.504 1.468.853 2.119.176.33.37.676.593.969.136.18.37.26.407.539-.228.31-.242.79-.37 1.184-.58 1.769-.362 3.967.482 5.279.258.4.867 1.263 1.705.933.732-.29.569-1.185.777-1.976.05-.177.02-.31.112-.43v.037l.668 1.292c.494.77 1.369 1.574 2.112 2.117.386.282.689.77 1.187.935v-.038h-.037c-.097-.144-.248-.204-.371-.322a8.058 8.058 0 0 1-.852-.934 21.62 21.62 0 0 1-1.816-2.873c-.26-.482-.486-1.016-.705-1.508-.084-.189-.082-.476-.258-.573-.24.36-.593.65-.78 1.077-.297.679-.334 1.51-.445 2.369l-.074.036c-.516-.122-.698-.636-.889-1.077-.486-1.117-.575-2.916-.148-4.2.11-.333.61-1.382.406-1.688-.095-.307-.413-.485-.592-.719a5.623 5.623 0 0 1-.593-1.005c-.397-.872-.582-1.848-1-2.728-.199-.422-.537-.848-.815-1.222-.308-.414-.652-.719-.89-1.22-.084-.179-.199-.464-.074-.648.039-.123.098-.174.223-.214.214-.16.814.053 1.036.142.596.24 1.093.468 1.596.791.24.155.484.456.777.54h.334c.522.115 1.106.033 1.595.177.861.254 1.635.65 2.334 1.079a14.164 14.164 0 0 1 5.078 5.385c.193.357.275.698.445 1.076.342.765.771 1.552 1.111 2.3.34.747.67 1.498 1.149 2.118.252.326 1.227.5 1.668.681.31.127.819.26 1.111.432.563.328 1.106.717 1.634 1.077.261.181 1.07.575 1.111.898h-.003ZM45.541 4.796a2.732 2.732 0 0 0-.666.072v.036h.037c.129.259.358.425.517.647l.371.753.038-.034c.23-.157.334-.409.334-.79-.094-.095-.106-.213-.186-.324-.105-.15-.31-.233-.445-.36Z"/>
</svg>
