<svg width="122" height="130" viewBox="0 0 122 130" fill="none" xmlns="http://www.w3.org/2000/svg" xmlns:xlink="http://www.w3.org/1999/xlink">
<path d="M60,75.852C65.891,75.852 70.667,70.546 70.667,64C70.667,57.454 65.891,52.148 60,52.148C54.109,52.148 49.333,57.454 49.333,64C49.333,70.546 54.109,75.852 60,75.852Z" fill="#000000"/>
<path d="M110.333,64C110.333,69.615 105.703,75.507 96.371,80.173C87.218,84.75 74.363,87.667 60,87.667L60,93.667C75.092,93.667 88.904,90.614 99.054,85.54C109.024,80.554 116.333,73.112 116.333,64L110.333,64ZM60,87.667C45.637,87.667 32.782,84.75 23.629,80.173C14.297,75.507 9.667,69.615 9.667,64L3.667,64C3.667,73.112 10.976,80.554 20.946,85.54C31.096,90.614 44.908,93.667 60,93.667L60,87.667ZM9.667,64C9.667,58.385 14.297,52.493 23.629,47.827C32.782,43.251 45.637,40.333 60,40.333L60,34.333C44.908,34.333 31.096,37.386 20.946,42.461C10.976,47.446 3.667,54.888 3.667,64L9.667,64ZM60,40.333C74.363,40.333 87.218,43.251 96.371,47.827C105.703,52.493 110.333,58.385 110.333,64L116.333,64C116.333,54.888 109.024,47.446 99.054,42.461C88.904,37.386 75.092,34.333 60,34.333L60,40.333Z" fill="#000000"/>
<path d="M114.835,64C114.835,66.391 113.712,68.922 111.158,71.501C108.592,74.092 104.729,76.562 99.717,78.702C89.705,82.977 75.665,85.694 60,85.694L60,91.694C76.276,91.694 91.153,88.883 102.073,84.22C107.528,81.891 112.134,79.041 115.421,75.723C118.72,72.393 120.835,68.428 120.835,64L114.835,64ZM60,85.694C44.335,85.694 30.294,82.977 20.283,78.702C15.271,76.562 11.408,74.092 8.842,71.501C6.287,68.922 5.165,66.391 5.165,64L-0.835,64C-0.835,68.428 1.28,72.393 4.579,75.723C7.866,79.041 12.472,81.891 17.927,84.22C28.847,88.883 43.724,91.694 60,91.694L60,85.694ZM5.165,64C5.165,61.609 6.287,59.078 8.842,56.499C11.408,53.909 15.271,51.438 20.283,49.298C30.294,45.023 44.335,42.306 60,42.306L60,36.306C43.724,36.306 28.847,39.117 17.927,43.78C12.472,46.109 7.866,48.959 4.579,52.277C1.28,55.607 -0.835,59.572 -0.835,64L5.165,64ZM60,42.306C75.665,42.306 89.705,45.023 99.717,49.298C104.729,51.438 108.592,53.909 111.158,56.499C113.712,59.078 114.835,61.609 114.835,64L120.835,64C120.835,59.572 118.72,55.607 115.421,52.277C112.134,48.959 107.528,46.109 102.073,43.78C91.153,39.117 76.276,36.306 60,36.306L60,42.306Z" transform="rotate(125.086 60 64)" fill="#000000"/>
<path d="M114.835,64C114.835,66.391 113.712,68.922 111.158,71.501C108.592,74.092 104.729,76.562 99.717,78.702C89.705,82.977 75.665,85.694 60,85.694L60,91.694C76.276,91.694 91.153,88.883 102.073,84.22C107.528,81.891 112.134,79.041 115.421,75.723C118.72,72.393 120.835,68.428 120.835,64L114.835,64ZM60,85.694C44.335,85.694 30.294,82.977 20.283,78.702C15.271,76.562 11.408,74.092 8.842,71.501C6.287,68.922 5.165,66.391 5.165,64L-0.835,64C-0.835,68.428 1.28,72.393 4.579,75.723C7.866,79.041 12.472,81.891 17.927,84.22C28.847,88.883 43.724,91.694 60,91.694L60,85.694ZM5.165,64C5.165,61.609 6.287,59.078 8.842,56.499C11.408,53.909 15.271,51.438 20.283,49.298C30.294,45.023 44.335,42.306 60,42.306L60,36.306C43.724,36.306 28.847,39.117 17.927,43.78C12.472,46.109 7.866,48.959 4.579,52.277C1.28,55.607 -0.835,59.572 -0.835,64L5.165,64ZM60,42.306C75.665,42.306 89.705,45.023 99.717,49.298C104.729,51.438 108.592,53.909 111.158,56.499C113.712,59.078 114.835,61.609 114.835,64L120.835,64C120.835,59.572 118.72,55.607 115.421,52.277C112.134,48.959 107.528,46.109 102.073,43.78C91.153,39.117 76.276,36.306 60,36.306L60,42.306Z" transform="rotate(234.914 60 64)" fill="#000000"/>
</svg>
