<svg width="48" height="48" viewBox="0 0 48 48" fill="none" xmlns="http://www.w3.org/2000/svg" xmlns:xlink="http://www.w3.org/1999/xlink">
<path d="M22.892,3.864C23.302,2.878 24.698,2.878 25.108,3.864L30.067,15.786C30.239,16.201 30.63,16.485 31.079,16.521L43.949,17.553C45.013,17.638 45.445,18.966 44.634,19.66L34.828,28.061C34.486,28.353 34.337,28.813 34.441,29.25L37.437,41.81C37.685,42.848 36.556,43.669 35.645,43.113L24.626,36.382C24.241,36.147 23.759,36.147 23.374,36.382L12.355,43.113C11.444,43.669 10.315,42.848 10.563,41.81L13.559,29.25C13.663,28.813 13.514,28.353 13.172,28.061L3.366,19.66C2.555,18.966 2.987,17.638 4.051,17.553L16.921,16.521C17.37,16.485 17.761,16.201 17.933,15.786L22.892,3.864Z" fill="#F2F4F7"/>
<path d="M22.892,3.864C23.302,2.878 24.698,2.878 25.108,3.864L30.067,15.786C30.239,16.201 30.63,16.485 31.079,16.521L43.949,17.553C45.013,17.638 45.445,18.966 44.634,19.66L34.828,28.061C34.486,28.353 34.337,28.813 34.441,29.25L37.437,41.81C37.685,42.848 36.556,43.669 35.645,43.113L24.626,36.382C24.241,36.147 23.759,36.147 23.374,36.382L12.355,43.113C11.444,43.669 10.315,42.848 10.563,41.81L13.559,29.25C13.663,28.813 13.514,28.353 13.172,28.061L3.366,19.66C2.555,18.966 2.987,17.638 4.051,17.553L16.921,16.521C17.37,16.485 17.761,16.201 17.933,15.786L22.892,3.864Z" fill="#000000"/>
</svg>
