<svg width="40" height="42" viewBox="0 0 40 42" fill="none" xmlns="http://www.w3.org/2000/svg" xmlns:xlink="http://www.w3.org/1999/xlink">
<path d="M40,20.563C40,31.608 31.046,40.563 20,40.563C8.954,40.563 0,31.608 0,20.563C0,9.517 8.954,0.563 20,0.563C31.046,0.563 40,9.517 40,20.563ZM30.409,17.638C32.023,17.638 33.333,18.948 33.333,20.562C33.333,21.755 32.608,22.785 31.649,23.253C31.696,23.533 31.719,23.814 31.719,24.118C31.719,28.609 26.503,32.235 20.047,32.235C13.591,32.235 8.374,28.609 8.374,24.118C8.374,23.814 8.398,23.51 8.444,23.229C7.415,22.761 6.713,21.755 6.713,20.562C6.713,18.948 8.023,17.638 9.637,17.638C10.409,17.638 11.135,17.966 11.649,18.457C13.661,16.984 16.444,16.071 19.556,15.978L21.029,9.007C21.076,8.867 21.146,8.75 21.263,8.679C21.38,8.609 21.52,8.586 21.661,8.609L26.503,9.638C26.83,8.937 27.532,8.469 28.351,8.469C29.497,8.469 30.433,9.405 30.433,10.551C30.433,11.697 29.497,12.633 28.351,12.633C27.228,12.633 26.316,11.744 26.269,10.644L21.942,9.732L20.608,15.978C23.649,16.095 26.409,17.03 28.398,18.457C28.912,17.943 29.614,17.638 30.409,17.638ZM15.415,20.562C14.269,20.562 13.333,21.498 13.333,22.644C13.333,23.79 14.269,24.726 15.415,24.726C16.561,24.726 17.497,23.79 17.497,22.644C17.497,21.498 16.561,20.562 15.415,20.562ZM20.023,29.662C20.819,29.662 23.532,29.568 24.959,28.141C25.17,27.931 25.17,27.603 25.006,27.37C24.795,27.159 24.444,27.159 24.234,27.37C23.322,28.258 21.427,28.586 20.047,28.586C18.667,28.586 16.749,28.258 15.86,27.37C15.649,27.159 15.298,27.159 15.088,27.37C14.877,27.58 14.877,27.931 15.088,28.141C16.491,29.545 19.228,29.662 20.023,29.662ZM22.503,22.644C22.503,23.79 23.439,24.726 24.585,24.726C25.731,24.726 26.667,23.79 26.667,22.644C26.667,21.498 25.731,20.562 24.585,20.562C23.439,20.562 22.503,21.498 22.503,22.644Z" clip-rule="evenodd" fill-rule="evenodd" fill="#000000"/>
</svg>
