<svg width="40" height="42" viewBox="0 0 40 42" fill="none" xmlns="http://www.w3.org/2000/svg" xmlns:xlink="http://www.w3.org/1999/xlink">
<path d="M40,20.408C40,31.454 31.046,40.408 20,40.408C8.954,40.408 0,31.454 0,20.408C0,9.363 8.954,0.408 20,0.408C31.046,0.408 40,9.363 40,20.408ZM30.409,17.484C32.023,17.484 33.333,18.794 33.333,20.408C33.333,21.601 32.608,22.63 31.649,23.098C31.696,23.379 31.719,23.66 31.719,23.964C31.719,28.455 26.503,32.081 20.047,32.081C13.591,32.081 8.374,28.455 8.374,23.964C8.374,23.66 8.398,23.356 8.444,23.075C7.415,22.607 6.713,21.601 6.713,20.408C6.713,18.794 8.023,17.484 9.637,17.484C10.409,17.484 11.135,17.812 11.649,18.303C13.661,16.829 16.444,15.917 19.556,15.823L21.029,8.853C21.076,8.712 21.146,8.595 21.263,8.525C21.38,8.455 21.52,8.432 21.661,8.455L26.503,9.484C26.83,8.782 27.532,8.315 28.351,8.315C29.497,8.315 30.433,9.25 30.433,10.396C30.433,11.543 29.497,12.478 28.351,12.478C27.228,12.478 26.316,11.589 26.269,10.49L21.942,9.578L20.608,15.823C23.649,15.94 26.409,16.876 28.398,18.303C28.912,17.788 29.614,17.484 30.409,17.484ZM15.415,20.408C14.269,20.408 13.333,21.344 13.333,22.49C13.333,23.636 14.269,24.572 15.415,24.572C16.561,24.572 17.497,23.636 17.497,22.49C17.497,21.344 16.561,20.408 15.415,20.408ZM20.023,29.508C20.819,29.508 23.532,29.414 24.959,27.987C25.17,27.777 25.17,27.449 25.006,27.215C24.795,27.005 24.444,27.005 24.234,27.215C23.322,28.104 21.427,28.432 20.047,28.432C18.667,28.432 16.749,28.104 15.86,27.215C15.649,27.005 15.298,27.005 15.088,27.215C14.877,27.426 14.877,27.777 15.088,27.987C16.491,29.391 19.228,29.508 20.023,29.508ZM22.503,22.49C22.503,23.636 23.439,24.572 24.585,24.572C25.731,24.572 26.667,23.636 26.667,22.49C26.667,21.344 25.731,20.408 24.585,20.408C23.439,20.408 22.503,21.344 22.503,22.49Z" clip-rule="evenodd" fill-rule="evenodd" fill="#000000"/>
</svg>
