<svg width="40" height="40" viewBox="0 0 40 40" fill="none" xmlns="http://www.w3.org/2000/svg" xmlns:xlink="http://www.w3.org/1999/xlink">
<path d="M40,20C40,31.046 31.046,40 20,40C8.954,40 0,31.046 0,20C0,8.954 8.954,0 20,0C31.046,0 40,8.954 40,20ZM30.409,17.076C32.023,17.076 33.333,18.386 33.333,20C33.333,21.193 32.608,22.222 31.649,22.69C31.696,22.971 31.719,23.251 31.719,23.556C31.719,28.047 26.503,31.672 20.047,31.672C13.591,31.672 8.374,28.047 8.374,23.556C8.374,23.251 8.398,22.947 8.444,22.667C7.415,22.199 6.713,21.193 6.713,20C6.713,18.386 8.023,17.076 9.637,17.076C10.409,17.076 11.135,17.403 11.649,17.895C13.661,16.421 16.444,15.509 19.556,15.415L21.029,8.444C21.076,8.304 21.146,8.187 21.263,8.117C21.38,8.047 21.52,8.023 21.661,8.047L26.503,9.076C26.83,8.374 27.532,7.906 28.351,7.906C29.497,7.906 30.433,8.842 30.433,9.988C30.433,11.134 29.497,12.07 28.351,12.07C27.228,12.07 26.316,11.181 26.269,10.082L21.942,9.17L20.608,15.415C23.649,15.532 26.409,16.468 28.398,17.895C28.912,17.38 29.614,17.076 30.409,17.076ZM15.415,20C14.269,20 13.333,20.936 13.333,22.082C13.333,23.228 14.269,24.164 15.415,24.164C16.561,24.164 17.497,23.228 17.497,22.082C17.497,20.936 16.561,20 15.415,20ZM20.023,29.099C20.819,29.099 23.532,29.006 24.959,27.579C25.17,27.368 25.17,27.041 25.006,26.807C24.795,26.596 24.444,26.596 24.234,26.807C23.322,27.696 21.427,28.023 20.047,28.023C18.667,28.023 16.749,27.696 15.86,26.807C15.649,26.596 15.298,26.596 15.088,26.807C14.877,27.018 14.877,27.368 15.088,27.579C16.491,28.982 19.228,29.099 20.023,29.099ZM22.503,22.082C22.503,23.228 23.439,24.164 24.585,24.164C25.731,24.164 26.667,23.228 26.667,22.082C26.667,20.936 25.731,20 24.585,20C23.439,20 22.503,20.936 22.503,22.082Z" clip-rule="evenodd" fill-rule="evenodd" fill="#000000"/>
</svg>
