<svg width="112" height="78" viewBox="0 0 112 78" fill="none" xmlns="http://www.w3.org/2000/svg" xmlns:xlink="http://www.w3.org/1999/xlink">
<path d="M22.494,61.729C19.306,61.729 16.408,59.218 16.408,56.157C16.408,53.096 19.012,50.568 22.494,50.568C25.994,50.568 28.623,53.083 28.623,56.157C28.623,59.218 25.707,61.729 22.515,61.729L22.494,61.729ZM97.216,31.304C96.575,26.839 93.716,23.2 89.939,20.423L88.466,19.299L87.279,20.686C84.983,23.2 84.056,27.666 84.343,31.003C84.619,33.538 85.452,36.049 86.933,38C85.729,38.597 84.273,39.124 83.139,39.704C80.479,40.545 77.889,40.828 75.302,40.828L0.455,40.828L0.161,42.478C-0.405,47.923 0.5,53.415 2.79,58.422L3.938,60.376L3.938,60.636C10.938,71.817 23.387,76.846 36.967,76.846C63.073,76.846 84.472,65.965 94.622,42.499C101.276,42.779 107.989,41.108 111.139,34.956L111.979,33.568L110.593,32.721C106.802,30.49 101.622,30.193 97.289,31.317L97.195,31.334L97.216,31.304ZM59.846,26.839L48.51,26.839L48.51,37.733L59.846,37.733L59.846,26.839ZM59.846,13.146L48.51,13.146L48.51,24.041L59.846,24.041L59.846,13.146ZM59.846,-0.83L48.51,-0.83L48.51,10.068L59.846,10.068L59.846,-0.83ZM73.699,26.839L62.433,26.839L62.433,37.733L73.734,37.733L73.734,26.839L73.699,26.839ZM31.72,26.839L20.454,26.839L20.454,37.733L31.755,37.733L31.755,26.839L31.72,26.839ZM45.846,26.839L34.657,26.839L34.657,37.733L45.923,37.733L45.923,26.839L45.846,26.839ZM17.721,26.839L6.524,26.839L6.524,37.733L17.864,37.733L17.864,26.839L17.721,26.839ZM45.846,13.146L34.657,13.146L34.657,24.041L45.923,24.041L45.923,13.16L45.846,13.146ZM31.643,13.146L20.471,13.146L20.471,24.041L31.738,24.041L31.738,13.16L31.664,13.146L31.643,13.146Z" fill="#000000"/>
</svg>
