<svg xmlns="http://www.w3.org/2000/svg" width="53" height="30" fill="none" viewBox="0 0 53 30">
  <path fill="#000" d="M27.432 4.091c-1.421 5.276-1.33 4.994-2.62 9.82a.779.779 0 0 1-.102.34.867.867 0 0 1-.248.273.974.974 0 0 1-.35.157 1.01 1.01 0 0 1-.391.013h.006-1.462a.954.954 0 0 1-.658-.141.817.817 0 0 1-.232-.23.735.735 0 0 1-.114-.295v-.004c-1.25-3.615-2.925-8.636-4.051-11.995-.416-1.24-.143-1.21.944-1.185.377.01.741 0 1.116 0a.91.91 0 0 1 .606.157.75.75 0 0 1 .317.492v.004c.366 1.184.609 2.093 2.7 9.556.039.147.09.286.143.421h.11c.05-.184.11-.356.163-.542.791-3.02 1.58-6.042 2.366-9.067.245-.94.68-1.028 1.733-1.028h.772c.693.01.914.137 1.087.761.61 2.149 2.388 9.342 2.71 10.133.52-1.68-.181.724 2.895-10.003.213-.743.416-.89 1.25-.89h1.281c.548.01.71.165.578.653-.244.873-.294.908-4.192 12.196-.316.909-.427.991-1.482.991H31.23c-.74 0-.934-.12-1.116-.771-.437-1.487-2.366-8.784-2.682-9.812v-.004ZM13.643 14.296a.828.828 0 0 0 .267.294.981.981 0 0 0 .806.123.91.91 0 0 0 .36-.197l.639-.386c.693-.413.74-.578.366-1.24a4.749 4.749 0 0 1-.641-2.385v-.088.004c0-.286.06-5.112-.091-6.13a3.77 3.77 0 0 0-.974-2.228A4.458 4.458 0 0 0 12.161.745l-.03-.006A10.646 10.646 0 0 0 8.768.467l.035-.002a10.963 10.963 0 0 0-4.387 1.07l.054-.023a.81.81 0 0 0-.414.445l-.002.006a3.3 3.3 0 0 0-.072 1.126l-.002-.016c.06.543.264.642.832.47.52-.157 1.016-.356 1.534-.495a8.213 8.213 0 0 1 4.528-.145l-.052-.012c.687.186 1.222.654 1.448 1.251l.004.014c.235.724.316 1.483.238 2.234l.002-.023c0 .505-.01.505-.558.413a14.372 14.372 0 0 0-4.306-.282l.052-.004c-.75.049-1.48.236-2.146.55a5.405 5.405 0 0 0-1.725 1.277l-.01.01a4.063 4.063 0 0 0-.9 2.542c0 .386.054.758.158 1.114l-.007-.03a3.31 3.31 0 0 0 .883 1.738 3.88 3.88 0 0 0 1.771 1.046l.026.006a6.84 6.84 0 0 0 3.06.236 6.555 6.555 0 0 0 2.812-1.118l-.013.01c.386-.256.732-.568 1.127-.873.316.458.589.889.903 1.284l.002.01Zm-1.56-5.653h.011a.465.465 0 0 1 .338.145.38.38 0 0 1 .086.155.355.355 0 0 1 .003.173v-.001c-.022.348.01.697-.03 1.045-.109 1.024-.817 1.878-1.799 2.28l-.02.008a5.16 5.16 0 0 1-2.668.458l.02.002a2.35 2.35 0 0 1-.91-.233 2.124 2.124 0 0 1-.714-.56 1.877 1.877 0 0 1-.384-.781 1.78 1.78 0 0 1 .02-.854l-.002.013c.056-1.073.997-1.933 2.175-2h.007a11.101 11.101 0 0 1 3.952.167l-.07-.014-.015-.003ZM47.5 14.617c1.033-.308 1.905-.948 2.451-1.799.546-.85.728-1.853.51-2.816l.005.025a3.286 3.286 0 0 0-.85-1.67 3.827 3.827 0 0 0-1.683-1.03l-.026-.008a46.415 46.415 0 0 1-5.163-1.773l.28.104a1.35 1.35 0 0 1-.555-.45 1.17 1.17 0 0 1-.217-.644 1.449 1.449 0 0 1 .036-.639c.06-.207.166-.402.311-.572a1.72 1.72 0 0 1 .534-.415c.208-.104.436-.17.672-.192h.007a7.752 7.752 0 0 1 2.897-.03l-.044-.005c.742.13 1.452.386 2.174.578.284.082.6.192.793-.147.183-.354.21-.759.073-1.13a1.58 1.58 0 0 0-.806-.866l-.008-.004a9.279 9.279 0 0 0-3.653-.73c-1.183 0-2.31.215-3.337.603l.056-.02a4.145 4.145 0 0 0-1.896 1.345A3.543 3.543 0 0 0 39.3 4.4a3.508 3.508 0 0 0 .628 2.103 4.079 4.079 0 0 0 1.81 1.44l.026.01c.782.341 1.633.543 2.456.817.824.274 1.645.533 2.449.834.268.134.493.327.654.562.162.235.253.504.266.78.012.277-.054.551-.192.798a1.676 1.676 0 0 1-.6.61l-.007.004c-2.812 1.41-6.586-.222-7.026-.35-.334-.099-.538.02-.64.342a1.403 1.403 0 0 0 .052 1.285c.11.198.268.372.461.51.193.137.416.235.655.286l.011.002c1.235.44 2.551.663 3.878.658 1.183 0 2.323-.174 3.387-.495l-.076.02.007.001ZM30.96 29.55c5.179-.486 10.18-1.985 14.652-4.395l-.164.082c.812-.43 1.573-.94 2.344-1.44.741-.47.325-1.689-1.148-1.121-5.079 2.015-10.977 3.304-17.171 3.566l-.11.004c-3.182.13-6.37-.023-9.519-.46l.267.031c-6.754-.88-12.835-2.855-18.263-5.732l.236.116a2.49 2.49 0 0 0-.643-.273l-.018-.004c-.498-.1-.782.431-.244.89 6.906 5.777 15.974 8.98 25.384 8.965h.03-.002c1.463-.075 2.925-.082 4.366-.23h.002Zm17.738-8.46c1.504.074 1.97.542 1.594 1.852-.385 1.36-.944 2.681-1.41 4.02-.09.267-.427.579-.082.81.377.239.66-.092.914-.302a8.427 8.427 0 0 0 2.262-3.045l.022-.057a8.345 8.345 0 0 0 .884-3.758v-.092.004c-.022-.568-.182-.809-.793-.964a9.238 9.238 0 0 0-1.64-.29l-.035-.002a12.337 12.337 0 0 0-6.361 1l.065-.028a5.261 5.261 0 0 0-.893.548l.008-.006c-.11.083-.325.486.245.56.205.014.411.004.614-.029l-.016.002a30.356 30.356 0 0 1 4.66-.22h-.04l.002-.003Z"/>
</svg>
