<svg width="90" height="90" viewBox="0 0 90 90" fill="none" xmlns="http://www.w3.org/2000/svg" xmlns:xlink="http://www.w3.org/1999/xlink">
<path d="M86.467,39.567L48.433,1.533C47.267,0.367 45.633,-0.333 44,-0.333C42.367,-0.333 40.733,0.367 39.567,1.533L31.4,9.7L40.967,19.267C41.9,18.8 42.833,18.567 44,18.567C47.967,18.567 51,21.6 51,25.567C51,26.733 50.767,27.667 50.3,28.6L59.633,37.933C60.567,37.467 61.5,37.233 62.667,37.233C66.633,37.233 69.667,40.267 69.667,44.233C69.667,48.2 66.633,51.233 62.667,51.233C58.7,51.233 55.667,48.2 55.667,44.233C55.667,43.067 55.9,42.133 56.367,41.2L47.033,31.867C46.8,31.867 46.567,32.1 46.333,32.1L46.333,56.367C49.133,57.3 51,59.867 51,62.9C51,66.867 47.967,69.9 44,69.9C40.033,69.9 37,66.867 37,62.9C37,59.867 38.867,57.3 41.667,56.367L41.667,31.867C38.867,30.933 37,28.367 37,25.333C37,24.167 37.233,23.233 37.7,22.3L28.133,12.733L1.533,39.567C0.367,40.733 -0.333,42.367 -0.333,44C-0.333,45.633 0.367,47.267 1.533,48.433L39.567,86.467C40.733,87.633 42.367,88.333 44,88.333C45.633,88.333 47.267,87.633 48.433,86.467L86.467,48.433C87.633,47.267 88.333,45.633 88.333,44C88.333,42.367 87.633,40.733 86.467,39.567Z" fill="#000000"/>
</svg>
