<svg width="66" height="112" viewBox="0 0 66 112" fill="none" xmlns="http://www.w3.org/2000/svg" xmlns:xlink="http://www.w3.org/1999/xlink">
<path d="M44.853,12.483C39.052,6.906 34.057,1.242 33.037,0.065C32.93,-0.022 32.768,-0.022 32.661,0.065C31.641,1.242 26.646,6.906 20.845,12.483C-28.943,63.941 28.687,98.667 28.687,98.667L29.17,98.929C29.6,104.288 30.674,112 30.674,112L32.822,112L34.971,112C34.971,112 36.045,104.331 36.474,98.929L36.958,98.624C37.011,98.624 94.641,63.941 44.853,12.483ZM32.822,97.883C32.822,97.883 30.244,96.096 29.546,95.181L29.546,95.095L32.661,39.062C32.661,38.887 32.983,38.887 32.983,39.062L36.098,95.095L36.098,95.181C35.4,96.096 32.822,97.883 32.822,97.883Z" fill="#000000"/>
</svg>
