<svg width="114" height="112" viewBox="0 0 114 112" fill="none" xmlns="http://www.w3.org/2000/svg" xmlns:xlink="http://www.w3.org/1999/xlink">
<path d="M112.334,54.766C112.029,36.041 101.589,17.81 85.436,8.209C72.71,0.283 56.635,-1.85 42.155,1.808C20.363,7.294 2.989,27.03 0.78,49.525C-1.964,70.77 8.781,92.865 27.144,103.761C45.127,115.038 69.587,114.581 87.169,102.711C103.019,92.424 112.848,73.661 112.316,54.782L112.334,54.766ZM59.452,103.687C34.002,106.202 9.39,84.639 8.702,59.111C6.777,38.386 20.436,17.888 39.943,11.03C67.299,0.058 100.903,20.326 103.722,49.665C108.143,76.027 86.198,102.865 59.452,103.687ZM42.705,53.165L79.507,23.065L59.62,53.24C53.982,53.24 48.343,53.242 42.705,53.165ZM53.053,58.73L69.968,58.807L33.166,88.982L53.053,58.73Z" fill="#010101"/>
</svg>
