<svg width="30" height="32" viewBox="0 0 30 32" fill="none" xmlns="http://www.w3.org/2000/svg" xmlns:xlink="http://www.w3.org/1999/xlink">
<path d="M29,3.206L29,28.794C29,29.379 28.768,29.94 28.354,30.354C27.94,30.768 27.379,31 26.794,31L1.206,31C0.621,31 0.06,30.768 -0.354,30.354C-0.768,29.94 -1,29.379 -1,28.794L-1,3.206C-1,2.621 -0.768,2.06 -0.354,1.646C0.06,1.232 0.621,1 1.206,1L26.794,1C27.379,1 27.94,1.232 28.354,1.646C28.768,2.06 29,2.621 29,3.206L29,3.206ZM7.824,12.471L3.412,12.471L3.412,26.588L7.824,26.588L7.824,12.471ZM8.221,7.618C8.223,7.284 8.159,6.953 8.034,6.644C7.908,6.335 7.723,6.053 7.489,5.816C7.254,5.578 6.976,5.389 6.668,5.259C6.361,5.129 6.031,5.061 5.697,5.059L5.618,5.059C4.939,5.059 4.288,5.328 3.808,5.808C3.328,6.288 3.059,6.939 3.059,7.618C3.059,8.296 3.328,8.947 3.808,9.427C4.288,9.907 4.939,10.176 5.618,10.176L5.618,10.176C5.951,10.185 6.283,10.127 6.595,10.007C6.906,9.887 7.191,9.706 7.433,9.476C7.675,9.246 7.869,8.97 8.004,8.665C8.139,8.36 8.213,8.031 8.221,7.697L8.221,7.618ZM24.588,18.012C24.588,13.768 21.888,12.118 19.206,12.118C18.328,12.074 17.453,12.261 16.67,12.66C15.886,13.06 15.221,13.657 14.741,14.394L14.618,14.394L14.618,12.471L10.471,12.471L10.471,26.588L14.882,26.588L14.882,19.079C14.819,18.31 15.061,17.547 15.556,16.956C16.052,16.364 16.761,15.992 17.529,15.921L17.697,15.921C19.1,15.921 20.141,16.803 20.141,19.026L20.141,26.588L24.553,26.588L24.588,18.012Z" fill="#000000"/>
</svg>
