<svg width="112" height="66" viewBox="0 0 112 66" fill="none" xmlns="http://www.w3.org/2000/svg" xmlns:xlink="http://www.w3.org/1999/xlink">
<path d="M111.5,62.783C107.426,63.819 104.906,62.828 102.645,59.433L86.566,37.187L84.242,34.107L65.465,59.507C63.319,62.562 61.069,63.892 57.065,62.811L81.109,30.534L58.723,1.378C62.573,0.629 65.233,1.011 67.596,4.458L84.273,26.981L101.074,4.581C103.226,1.525 105.539,0.363 109.403,1.49L100.723,12.998L88.964,28.311C87.563,30.061 87.756,31.258 89.044,32.949L111.5,62.783ZM-0.472,29.995L1.495,20.321C6.85,1.175 28.795,-6.78 43.929,5.05C52.774,12.008 54.972,21.85 54.534,32.875L4.68,32.875C3.931,52.72 18.215,64.697 36.425,58.586C42.812,56.441 46.575,51.439 48.458,45.181C49.413,42.045 50.996,41.555 53.943,42.451C52.438,50.277 49.042,56.815 41.868,60.907C31.147,67.032 15.845,65.051 7.795,56.539C3,51.6 1.019,45.342 0.13,38.65C-0.01,37.544 -0.29,36.491 -0.5,35.43C-0.481,33.619 -0.472,31.809 -0.472,29.998L-0.472,29.995ZM4.771,28.665L49.823,28.665C49.529,14.314 40.593,4.122 28.382,4.035C14.977,3.93 5.352,13.88 4.771,28.665Z" fill="#000000"/>
</svg>
