<svg width="184" height="110" viewBox="0 0 184 110" fill="none" xmlns="http://www.w3.org/2000/svg" xmlns:xlink="http://www.w3.org/1999/xlink">
<path d="M92.218,0C67.782,0 52.509,12.218 46.4,36.655C55.563,24.436 66.254,19.855 78.473,22.909C85.444,24.65 90.426,29.711 95.941,35.307C104.925,44.427 115.324,54.982 138.036,54.982C162.472,54.982 177.745,42.764 183.854,18.327C174.691,30.545 164,35.127 151.782,32.073C144.81,30.332 139.828,25.271 134.313,19.675C125.329,10.555 114.93,0 92.218,0ZM46.4,54.982C21.963,54.982 6.691,67.2 0.582,91.636C9.745,79.418 20.436,74.836 32.654,77.891C39.625,79.635 44.608,84.692 50.123,90.289C59.107,99.408 69.506,109.964 92.218,109.964C116.654,109.964 131.927,97.745 138.036,73.309C128.873,85.527 118.182,90.109 105.963,87.055C98.992,85.313 94.01,80.253 88.495,74.656C79.511,65.537 69.112,54.982 46.4,54.982Z" clip-rule="evenodd" fill-rule="evenodd" fill="#000000"/>
</svg>
