<svg width="24" height="14" viewBox="0 0 24 14" fill="none" xmlns="http://www.w3.org/2000/svg" xmlns:xlink="http://www.w3.org/1999/xlink">
<path d="M3.414,1.253C2.633,0.471 1.367,0.471 0.586,1.253C-0.195,2.034 -0.195,3.3 0.586,4.081L3.414,1.253ZM23.414,4.081C24.195,3.3 24.195,2.034 23.414,1.253C22.633,0.471 21.367,0.471 20.586,1.253L23.414,4.081ZM0.586,4.081L7.757,11.253L10.586,8.424L3.414,1.253L0.586,4.081ZM16.243,11.253L23.414,4.081L20.586,1.253L13.414,8.424L16.243,11.253ZM7.757,11.253C10.1,13.596 13.9,13.596 16.243,11.253L13.414,8.424C12.633,9.205 11.367,9.205 10.586,8.424L7.757,11.253Z" fill="#000000"/>
</svg>
