<svg width="114" height="66" viewBox="0 0 114 66" fill="none" xmlns="http://www.w3.org/2000/svg" xmlns:xlink="http://www.w3.org/1999/xlink">
<path d="M112.742,62.783C108.668,63.819 106.148,62.828 103.887,59.433L87.808,37.187L85.484,34.107L66.707,59.507C64.561,62.562 62.311,63.892 58.307,62.811L82.352,30.534L59.966,1.379C63.816,0.63 66.476,1.011 68.838,4.459L85.516,26.981L102.316,4.581C104.468,1.526 106.782,0.364 110.646,1.491L101.966,12.999L90.206,28.311C88.806,30.061 88.998,31.258 90.286,32.949L112.742,62.783ZM0.77,29.995L2.737,20.321C8.092,1.176 30.037,-6.78 45.171,5.05C54.016,12.008 56.214,21.85 55.776,32.875L5.922,32.875C5.173,52.72 19.457,64.697 37.667,58.586C44.055,56.441 47.817,51.439 49.7,45.181C50.656,42.045 52.238,41.555 55.185,42.451C53.68,50.277 50.285,56.815 43.11,60.907C32.389,67.032 17.087,65.051 9.037,56.539C4.242,51.6 2.261,45.342 1.372,38.65C1.232,37.544 0.952,36.491 0.742,35.43C0.761,33.62 0.77,31.809 0.77,29.998L0.77,29.995ZM6.013,28.665L51.065,28.665C50.771,14.315 41.836,4.123 29.624,4.035C16.219,3.93 6.594,13.881 6.013,28.665Z" fill="#000000"/>
</svg>
