<svg width="40" height="34" viewBox="0 0 40 34" fill="none" xmlns="http://www.w3.org/2000/svg" xmlns:xlink="http://www.w3.org/1999/xlink">
<path d="M12.584,32.657C27.674,32.657 35.93,20.152 35.93,9.311C35.93,8.959 35.923,8.6 35.907,8.248C37.513,7.087 38.899,5.648 40,4C38.504,4.665 36.916,5.1 35.29,5.289C37.002,4.262 38.284,2.65 38.898,0.75C37.288,1.705 35.526,2.378 33.689,2.742C32.451,1.427 30.815,0.556 29.033,0.264C27.251,-0.028 25.422,0.276 23.83,1.128C22.237,1.979 20.97,3.332 20.223,4.976C19.476,6.621 19.292,8.465 19.699,10.225C16.437,10.061 13.247,9.214 10.333,7.738C7.42,6.262 4.849,4.19 2.788,1.657C1.741,3.463 1.42,5.6 1.892,7.634C2.363,9.668 3.592,11.447 5.327,12.607C4.024,12.566 2.75,12.215 1.609,11.584L1.609,11.686C1.608,13.581 2.264,15.418 3.464,16.885C4.664,18.352 6.336,19.358 8.194,19.732C6.987,20.063 5.72,20.111 4.491,19.873C5.016,21.503 6.036,22.929 7.41,23.951C8.783,24.974 10.442,25.542 12.154,25.576C9.247,27.859 5.657,29.098 1.961,29.092C1.305,29.091 0.651,29.051 0,28.971C3.755,31.38 8.123,32.66 12.584,32.657Z" fill="#000000"/>
</svg>
