<svg width="114" height="112" viewBox="0 0 114 112" fill="none" xmlns="http://www.w3.org/2000/svg" xmlns:xlink="http://www.w3.org/1999/xlink">
<path d="M112.979,54.766C112.674,36.041 102.234,17.81 86.081,8.209C73.355,0.283 57.28,-1.85 42.8,1.808C21.008,7.294 3.634,27.03 1.425,49.525C-1.319,70.77 9.426,92.865 27.789,103.761C45.772,115.038 70.232,114.581 87.814,102.711C103.664,92.424 113.493,73.661 112.961,54.782L112.979,54.766ZM60.097,103.687C34.647,106.202 10.035,84.639 9.347,59.111C7.422,38.386 21.081,17.888 40.588,11.03C67.944,0.058 101.548,20.326 104.367,49.665C108.788,76.027 86.843,102.865 60.097,103.687ZM43.35,53.165L80.152,23.065L60.265,53.24C54.627,53.24 48.988,53.242 43.35,53.165ZM53.698,58.73L70.613,58.807L33.811,88.982L53.698,58.73Z" fill="#010101"/>
</svg>
