<svg width="34" height="34" viewBox="0 0 34 34" fill="none" xmlns="http://www.w3.org/2000/svg" xmlns:xlink="http://www.w3.org/1999/xlink">
<path d="M32.667,16.101C32.667,6.84 25.206,-0.667 16,-0.667C6.795,-0.667 -0.667,6.84 -0.667,16.101C-0.667,24.472 5.427,31.409 13.396,32.667L13.396,20.949L9.165,20.949L9.165,16.1L13.396,16.1L13.396,12.407C13.396,8.204 15.883,5.882 19.691,5.882C21.513,5.882 23.422,6.21 23.422,6.21L23.422,10.337L21.319,10.337C19.249,10.337 18.605,11.63 18.605,12.957L18.605,16.101L23.227,16.101L22.488,20.948L18.605,20.948L18.605,32.667C26.573,31.409 32.667,24.472 32.667,16.101Z" fill="#000000"/>
</svg>
