<svg width="34" height="28" viewBox="0 0 34 28" fill="none" xmlns="http://www.w3.org/2000/svg" xmlns:xlink="http://www.w3.org/1999/xlink">
<path d="M29.254,7.2C29.274,7.494 29.274,7.788 29.274,8.084C29.274,17.121 22.395,27.543 9.816,27.543L9.816,27.537C6.1,27.543 2.462,26.478 -0.667,24.471C-0.126,24.536 0.417,24.569 0.961,24.57C4.041,24.573 7.032,23.54 9.455,21.637C6.528,21.582 3.962,19.674 3.066,16.888C4.091,17.086 5.147,17.045 6.153,16.77C2.963,16.126 0.667,13.322 0.667,10.067C0.667,10.037 0.667,10.009 0.667,9.98C1.618,10.51 2.682,10.804 3.771,10.836C0.766,8.828 -0.16,4.83 1.655,1.705C5.127,5.977 10.25,8.575 15.749,8.85C15.198,6.474 15.951,3.985 17.727,2.316C20.482,-0.274 24.814,-0.141 27.403,2.612C28.935,2.31 30.403,1.748 31.746,0.952C31.235,2.535 30.167,3.88 28.74,4.734C30.095,4.574 31.42,4.211 32.667,3.658C31.749,5.033 30.592,6.232 29.254,7.2Z" fill="#000000"/>
</svg>
