<svg width="72" height="50" viewBox="0 0 72 50" fill="none" xmlns="http://www.w3.org/2000/svg" xmlns:xlink="http://www.w3.org/1999/xlink">
<path d="M44.73,33.835C46.882,37.332 49.222,40.683 54.178,40.683C58.341,40.683 60.525,38.614 60.525,35.752C60.525,32.326 58.266,31.11 53.686,29.116L51.176,28.045C43.93,24.972 39.111,21.12 39.111,12.984C39.111,5.487 44.851,-0.219 53.82,-0.219C60.207,-0.219 64.796,1.993 68.106,7.786L60.285,12.785C58.565,9.712 56.704,8.501 53.82,8.501C50.877,8.501 49.014,10.359 49.014,12.785C49.014,15.784 50.88,16.998 55.189,18.855L57.7,19.925C66.24,23.562 71.056,27.277 71.056,35.627C71.056,44.624 63.95,49.556 54.411,49.556C45.081,49.556 39.783,44.873 36.834,39.077L44.73,33.835ZM8.684,34.09C10.258,36.909 12.651,39.077 16.092,39.077C19.383,39.077 21.278,37.777 21.278,32.721L21.278,-0.222L31.647,-0.222L31.647,34.314C31.647,44.789 25.571,49.556 16.698,49.556C8.681,49.556 2.894,44.124 0.536,39.077L8.684,34.09Z" fill="#FFFFFF"/>
</svg>
