<svg width="82" height="104" viewBox="0 0 82 104" fill="none" xmlns="http://www.w3.org/2000/svg" xmlns:xlink="http://www.w3.org/1999/xlink">
<path d="M25.665,80.256C8.872,84.696 35.882,93.869 57.265,85.199C53.763,83.91 51.251,82.424 51.251,82.424C41.716,84.13 37.293,84.264 28.637,83.328C21.494,82.554 25.665,80.256 25.665,80.256ZM54.705,71.594C42.067,73.895 34.766,73.821 25.52,72.919C18.371,72.219 23.051,68.939 23.051,68.939C4.556,74.75 33.347,81.342 59.196,74.186C56.449,73.271 54.705,71.594 54.705,71.594ZM64.609,21.43C64.61,21.43 27.22,30.265 45.077,49.741C50.348,55.484 43.694,60.647 43.694,60.647C43.694,60.647 57.072,54.113 50.929,45.926C45.19,38.295 40.791,34.504 64.609,21.43ZM73.357,88.627C73.357,88.627 76.445,91.037 69.955,92.9C57.616,96.437 18.588,97.504 7.747,93.041C3.854,91.436 11.159,89.211 13.458,88.742C15.854,88.251 17.223,88.34 17.223,88.34C12.89,85.452 -10.789,94.013 5.199,96.468C48.792,103.156 84.663,93.456 73.357,88.627ZM58.375,63.508C60.47,62.155 63.365,60.98 63.365,60.98C63.365,60.98 55.119,62.375 46.904,63.028C36.846,63.827 26.058,63.984 20.643,63.298C7.823,61.676 27.672,57.213 27.672,57.213C27.672,57.213 19.961,56.72 10.484,61.059C-0.727,66.189 38.213,68.528 58.375,63.508ZM63.283,76.05C63.188,76.29 62.873,76.56 62.873,76.56C90.237,69.752 80.176,52.562 67.092,56.913C65.944,57.297 65.342,58.19 65.342,58.19C65.342,58.19 66.068,57.914 67.686,57.594C74.3,56.29 83.776,65.974 63.283,76.05ZM40.158,57.026C36.121,48.39 22.431,40.834 40.164,27.579C62.276,11.06 50.93,0.314 50.93,0.314C55.507,17.38 34.786,22.535 27.306,33.164C22.213,40.406 29.806,48.187 40.158,57.026ZM64.023,99.88C47.234,102.871 26.526,102.522 14.247,100.604C14.247,100.604 16.762,102.575 29.687,103.362C49.354,104.552 79.562,102.7 80.276,93.892C80.277,93.892 78.902,97.231 64.023,99.88Z" fill="#000000"/>
</svg>
