<svg width="70" height="50" viewBox="0 0 70 50" fill="none" xmlns="http://www.w3.org/2000/svg" xmlns:xlink="http://www.w3.org/1999/xlink">
<path d="M43.23,33.835C45.382,37.332 47.722,40.683 52.678,40.683C56.841,40.683 59.025,38.614 59.025,35.752C59.025,32.326 56.766,31.11 52.186,29.116L49.676,28.045C42.43,24.972 37.611,21.12 37.611,12.984C37.611,5.487 43.351,-0.219 52.32,-0.219C58.707,-0.219 63.296,1.993 66.606,7.786L58.785,12.785C57.065,9.712 55.204,8.501 52.32,8.501C49.377,8.501 47.514,10.359 47.514,12.785C47.514,15.784 49.38,16.998 53.689,18.855L56.2,19.925C64.74,23.562 69.556,27.277 69.556,35.627C69.556,44.624 62.45,49.556 52.911,49.556C43.581,49.556 38.283,44.873 35.334,39.077L43.23,33.835ZM7.184,34.09C8.758,36.909 11.151,39.077 14.592,39.077C17.883,39.077 19.778,37.777 19.778,32.721L19.778,-0.222L30.147,-0.222L30.147,34.314C30.147,44.789 24.071,49.556 15.198,49.556C7.181,49.556 1.394,44.124 -0.964,39.077L7.184,34.09Z" fill="#FFFFFF"/>
</svg>
