<svg width="72" height="50" viewBox="0 0 72 50" fill="none" xmlns="http://www.w3.org/2000/svg" xmlns:xlink="http://www.w3.org/1999/xlink">
<path d="M44.23,33.835C46.382,37.332 48.722,40.683 53.678,40.683C57.841,40.683 60.025,38.614 60.025,35.752C60.025,32.326 57.766,31.11 53.186,29.116L50.676,28.045C43.43,24.972 38.611,21.12 38.611,12.984C38.611,5.487 44.351,-0.219 53.32,-0.219C59.707,-0.219 64.296,1.993 67.606,7.786L59.785,12.785C58.065,9.712 56.204,8.501 53.32,8.501C50.377,8.501 48.514,10.359 48.514,12.785C48.514,15.784 50.38,16.998 54.689,18.855L57.2,19.925C65.74,23.562 70.556,27.277 70.556,35.627C70.556,44.624 63.45,49.556 53.911,49.556C44.581,49.556 39.283,44.873 36.334,39.077L44.23,33.835ZM8.184,34.09C9.758,36.909 12.151,39.077 15.592,39.077C18.883,39.077 20.778,37.777 20.778,32.721L20.778,-0.222L31.147,-0.222L31.147,34.314C31.147,44.789 25.071,49.556 16.198,49.556C8.181,49.556 2.394,44.124 0.036,39.077L8.184,34.09Z" fill="#000000"/>
</svg>
