<svg width="40" height="34" viewBox="0 0 40 34" fill="none" xmlns="http://www.w3.org/2000/svg" xmlns:xlink="http://www.w3.org/1999/xlink">
<path d="M12.584,32.813C27.674,32.813 35.93,20.307 35.93,9.466C35.93,9.114 35.923,8.755 35.907,8.403C37.513,7.242 38.899,5.803 40,4.155C38.504,4.82 36.916,5.255 35.29,5.444C37.002,4.418 38.284,2.805 38.898,0.906C37.288,1.86 35.526,2.534 33.689,2.897C32.451,1.582 30.815,0.711 29.033,0.419C27.251,0.128 25.422,0.431 23.83,1.283C22.237,2.135 20.97,3.487 20.223,5.132C19.476,6.776 19.292,8.62 19.699,10.38C16.437,10.216 13.247,9.369 10.333,7.893C7.42,6.417 4.849,4.345 2.788,1.812C1.741,3.618 1.42,5.755 1.892,7.79C2.363,9.824 3.592,11.602 5.327,12.763C4.024,12.721 2.75,12.371 1.609,11.739L1.609,11.841C1.608,13.736 2.264,15.574 3.464,17.041C4.664,18.508 6.336,19.514 8.194,19.888C6.987,20.218 5.72,20.266 4.491,20.028C5.016,21.659 6.036,23.084 7.41,24.107C8.783,25.129 10.442,25.697 12.154,25.732C9.247,28.015 5.657,29.253 1.961,29.247C1.305,29.246 0.651,29.206 0,29.127C3.755,31.536 8.123,32.815 12.584,32.813Z" fill="#000000"/>
</svg>
