<svg width="40" height="42" viewBox="0 0 40 42" fill="none" xmlns="http://www.w3.org/2000/svg" xmlns:xlink="http://www.w3.org/1999/xlink">
<path d="M40,20.408C40,9.363 31.046,0.408 20,0.408C8.954,0.408 0,9.363 0,20.408C0,30.391 7.314,38.665 16.875,40.165L16.875,26.189L11.797,26.189L11.797,20.408L16.875,20.408L16.875,16.002C16.875,10.989 19.861,8.221 24.429,8.221C26.617,8.221 28.906,8.611 28.906,8.611L28.906,13.533L26.384,13.533C23.9,13.533 23.125,15.075 23.125,16.658L23.125,20.408L28.672,20.408L27.785,26.189L23.125,26.189L23.125,40.165C32.686,38.665 40,30.391 40,20.408Z" fill="#FFFFFF"/>
</svg>
