<svg width="186" height="250" viewBox="0 0 186 250" fill="none" xmlns="http://www.w3.org/2000/svg" xmlns:xlink="http://www.w3.org/1999/xlink">
<path d="M59.61,192.616C21.226,203.34 82.964,225.494 131.84,204.554C123.834,201.442 118.092,197.852 118.092,197.852C96.298,201.972 86.188,202.296 66.404,200.036C50.076,198.166 59.61,192.616 59.61,192.616ZM125.988,171.696C97.1,177.254 80.414,177.076 59.28,174.896C42.938,173.206 53.636,165.286 53.636,165.286C11.362,179.318 77.17,195.24 136.254,177.958C129.974,175.746 125.988,171.696 125.988,171.696ZM148.626,50.546C148.628,50.546 63.164,71.884 103.98,118.92C116.028,132.79 100.82,145.26 100.82,145.26C100.82,145.26 131.398,129.478 117.358,109.706C104.24,91.276 94.184,82.12 148.626,50.546ZM168.622,212.834C168.622,212.834 175.68,218.654 160.846,223.152C132.642,231.696 43.434,234.272 18.656,223.494C9.756,219.618 26.454,214.244 31.708,213.11C37.186,211.924 40.314,212.14 40.314,212.14C30.41,205.166 -23.712,225.84 12.83,231.77C112.472,247.922 194.464,224.496 168.622,212.834ZM134.376,152.168C139.166,148.9 145.782,146.062 145.782,146.062C145.782,146.062 126.934,149.432 108.156,151.01C85.168,152.938 60.51,153.318 48.132,151.662C18.828,147.744 64.198,136.966 64.198,136.966C64.198,136.966 46.574,135.774 24.91,146.254C-0.714,158.644 88.292,164.292 134.376,152.168ZM145.594,182.458C145.378,183.038 144.658,183.69 144.658,183.69C207.204,167.248 184.208,125.732 154.302,136.24C151.678,137.168 150.302,139.326 150.302,139.326C150.302,139.326 151.96,138.658 155.658,137.886C170.776,134.736 192.436,158.124 145.594,182.458ZM92.738,136.514C83.51,115.656 52.218,97.408 92.752,65.396C143.294,25.502 117.36,-0.45 117.36,-0.45C127.82,40.766 80.458,53.216 63.362,78.884C51.72,96.374 69.076,115.168 92.738,136.514ZM147.286,240.01C108.912,247.234 61.578,246.392 33.512,241.758C33.512,241.758 39.26,246.518 68.804,248.42C113.756,251.294 182.804,246.82 184.436,225.548C184.438,225.548 181.296,233.612 147.286,240.01Z" transform="rotate(7.768 92.375 124.377)" fill="#000000"/>
</svg>
