<svg width="90" height="90" viewBox="0 0 90 90" fill="none" xmlns="http://www.w3.org/2000/svg" xmlns:xlink="http://www.w3.org/1999/xlink">
<path d="M86.988,39.567L48.954,1.533C47.788,0.367 46.154,-0.333 44.521,-0.333C42.887,-0.333 41.254,0.367 40.087,1.533L31.921,9.7L41.488,19.267C42.421,18.8 43.354,18.567 44.521,18.567C48.488,18.567 51.521,21.6 51.521,25.567C51.521,26.733 51.288,27.667 50.821,28.6L60.154,37.933C61.087,37.467 62.021,37.233 63.188,37.233C67.154,37.233 70.188,40.267 70.188,44.233C70.188,48.2 67.154,51.233 63.188,51.233C59.221,51.233 56.188,48.2 56.188,44.233C56.188,43.067 56.421,42.133 56.887,41.2L47.554,31.867C47.321,31.867 47.087,32.1 46.854,32.1L46.854,56.367C49.654,57.3 51.521,59.867 51.521,62.9C51.521,66.867 48.488,69.9 44.521,69.9C40.554,69.9 37.521,66.867 37.521,62.9C37.521,59.867 39.387,57.3 42.188,56.367L42.188,31.867C39.387,30.933 37.521,28.367 37.521,25.333C37.521,24.167 37.754,23.233 38.221,22.3L28.654,12.733L2.054,39.567C0.887,40.733 0.188,42.367 0.188,44C0.188,45.633 0.887,47.267 2.054,48.433L40.087,86.467C41.254,87.633 42.887,88.333 44.521,88.333C46.154,88.333 47.788,87.633 48.954,86.467L86.988,48.433C88.154,47.267 88.854,45.633 88.854,44C88.854,42.367 88.154,40.733 86.988,39.567Z" fill="#000000"/>
</svg>
