<svg width="48" height="60" viewBox="0 0 48 60" fill="none" xmlns="http://www.w3.org/2000/svg" xmlns:xlink="http://www.w3.org/1999/xlink">
<path d="M24,0.667L0,11.333L0,27.333C0,42.133 10.24,55.973 24,59.333C37.76,55.973 48,42.133 48,27.333L48,11.333L24,0.667ZM24,16.667C27.733,16.667 31.467,19.6 31.467,23.333L31.467,27.333C33.067,27.333 34.667,28.933 34.667,30.8L34.667,40.133C34.667,41.733 33.067,43.333 31.2,43.333L16.533,43.333C14.933,43.333 13.333,41.733 13.333,39.867L13.333,30.533C13.333,28.933 14.933,27.333 16.533,27.333L16.533,23.333C16.533,19.6 20.267,16.667 24,16.667ZM24,19.867C21.867,19.867 20,21.2 20,23.333L20,27.333L28,27.333L28,23.333C28,21.2 26.133,19.867 24,19.867Z" fill="#000000"/>
</svg>
