<svg width="104" height="78" viewBox="0 0 104 78" fill="none" xmlns="http://www.w3.org/2000/svg" xmlns:xlink="http://www.w3.org/1999/xlink">
<path d="M89.023,44.564C85.434,44.583 82.326,45.444 79.722,46.729C78.77,44.828 77.804,43.155 77.643,41.911C77.454,40.46 77.235,39.592 77.464,37.863C77.692,36.134 78.693,33.684 78.679,33.499C78.665,33.315 78.455,32.435 76.386,32.419C74.316,32.405 72.545,32.818 72.337,33.364C72.13,33.91 71.731,35.14 71.483,36.423C71.122,38.299 67.351,44.993 65.211,48.493C64.511,47.126 63.916,45.922 63.793,44.97C63.604,43.519 63.384,42.651 63.613,40.922C63.842,39.193 64.843,36.743 64.829,36.558C64.815,36.374 64.605,35.494 62.535,35.478C60.465,35.464 58.694,35.877 58.487,36.423C58.279,36.969 58.055,38.245 57.633,39.482C57.208,40.716 52.198,51.881 50.885,54.777C50.215,56.252 49.634,57.437 49.223,58.244L49.221,58.24C49.221,58.24 49.195,58.293 49.153,58.384C48.801,59.073 48.593,59.453 48.593,59.453C48.593,59.453 48.596,59.458 48.6,59.467C48.32,59.973 48.022,60.442 47.875,60.442C47.772,60.442 47.564,59.096 47.919,57.248C48.666,53.375 50.455,47.336 50.439,47.126C50.43,47.019 50.773,45.966 49.27,45.416C47.809,44.881 47.289,45.773 47.156,45.775C47.028,45.777 46.932,46.09 46.932,46.09C46.932,46.09 48.558,39.298 43.829,39.298C40.87,39.298 36.773,42.534 34.754,45.467C33.48,46.162 30.753,47.651 27.862,49.24C26.751,49.851 25.617,50.474 24.541,51.067C24.469,50.985 24.394,50.906 24.32,50.824C18.582,44.704 7.979,40.376 8.427,32.146C8.591,29.155 9.631,21.277 28.804,11.725C44.51,3.899 57.084,6.052 59.257,10.824C62.36,17.644 52.537,30.317 36.227,32.146C30.013,32.844 26.739,30.433 25.925,29.537C25.069,28.592 24.94,28.55 24.621,28.728C24.1,29.017 24.429,29.85 24.621,30.347C25.108,31.614 27.106,33.861 30.512,34.981C33.511,35.966 40.807,36.505 49.629,33.091C59.513,29.269 67.23,18.634 64.962,9.746C62.656,0.707 47.667,-2.266 33.48,2.774C25.027,5.775 15.887,10.483 9.314,16.629C1.5,23.937 0.254,30.3 0.767,32.958C2.592,42.403 15.609,48.554 20.822,53.111C20.565,53.253 20.323,53.386 20.103,53.508C17.49,54.8 7.566,59.994 5.084,65.48C2.267,71.703 5.532,76.169 7.692,76.771C14.387,78.633 21.256,75.282 24.95,69.776C28.641,64.271 28.191,57.101 26.497,53.83C26.476,53.79 26.452,53.75 26.431,53.708C27.106,53.309 27.794,52.903 28.475,52.502C29.805,51.72 31.112,50.992 32.244,50.376C31.609,52.112 31.145,54.196 30.904,57.204C30.62,60.736 32.069,65.303 33.963,67.099C34.799,67.89 35.802,67.909 36.437,67.909C38.642,67.909 39.647,66.075 40.756,63.905C42.114,61.245 43.32,58.146 43.32,58.146C43.32,58.146 41.808,66.514 45.929,66.514C47.431,66.514 48.941,64.565 49.615,63.574C49.618,63.585 49.618,63.59 49.618,63.59C49.618,63.59 49.657,63.525 49.734,63.396C49.891,63.158 49.979,63.007 49.979,63.007C49.979,63.007 49.982,62.99 49.986,62.962C50.591,61.915 51.93,59.525 53.937,55.584C56.531,50.493 59.019,44.114 59.019,44.114C59.019,44.114 59.25,45.672 60.008,48.253C60.454,49.77 61.401,51.447 62.15,53.057C61.548,53.893 61.179,54.371 61.179,54.371C61.179,54.371 61.182,54.38 61.189,54.397C60.708,55.036 60.169,55.724 59.604,56.396C57.556,58.835 55.117,61.621 54.791,62.423C54.406,63.371 54.497,64.066 55.241,64.628C55.785,65.037 56.751,65.102 57.761,65.034C59.602,64.911 60.895,64.453 61.534,64.176C62.53,63.823 63.69,63.27 64.777,62.47C66.786,60.993 67.997,58.881 67.881,56.081C67.815,54.539 67.325,53.011 66.702,51.569C66.884,51.307 67.066,51.041 67.251,50.775C70.417,46.146 72.874,41.059 72.874,41.059C72.874,41.059 73.105,42.618 73.863,45.199C74.246,46.503 75.004,47.929 75.686,49.324C72.708,51.744 70.863,54.555 70.221,56.399C69.036,59.81 69.964,61.355 71.705,61.707C72.494,61.866 73.609,61.504 74.447,61.149C75.49,60.804 76.743,60.228 77.914,59.367C79.923,57.89 81.855,55.822 81.738,53.025C81.685,51.751 81.339,50.486 80.87,49.273C83.395,48.22 86.662,47.637 90.824,48.122C99.754,49.165 101.504,54.74 101.17,57.073C100.834,59.406 98.963,60.69 98.335,61.077C97.71,61.464 97.519,61.6 97.57,61.887C97.647,62.304 97.936,62.29 98.471,62.199C99.206,62.076 103.158,60.302 103.329,55.995C103.541,50.521 98.303,44.515 89.023,44.564ZM20.197,67.767C17.238,70.994 13.108,72.212 11.335,71.185C9.421,70.077 10.18,65.326 13.808,61.901C16.02,59.815 18.876,57.892 20.771,56.709C21.202,56.45 21.835,56.07 22.605,55.608C22.733,55.535 22.805,55.496 22.805,55.496L22.803,55.491C22.952,55.402 23.104,55.311 23.26,55.216C24.583,60.09 23.302,64.381 20.197,67.767ZM41.745,53.12C40.716,55.631 38.56,62.057 37.246,61.712C36.119,61.415 35.433,56.532 37.022,51.725C37.82,49.305 39.528,46.414 40.532,45.292C42.146,43.486 43.924,42.896 44.356,43.628C44.904,44.562 42.391,51.545 41.745,53.12ZM59.546,61.614C59.11,61.842 58.708,61.985 58.524,61.875C58.386,61.793 58.704,61.492 58.704,61.492C58.704,61.492 60.93,59.096 61.807,58.006C62.318,57.372 62.908,56.618 63.552,55.778C63.557,55.862 63.559,55.946 63.559,56.028C63.555,58.898 60.783,60.834 59.546,61.614ZM73.259,58.487C72.932,58.256 72.988,57.507 74.059,55.171C74.479,54.254 75.441,52.712 77.107,51.237C77.3,51.844 77.417,52.425 77.415,52.966C77.394,56.578 74.818,57.927 73.259,58.487Z" fill="#000000"/>
</svg>
