<svg xmlns="http://www.w3.org/2000/svg" width="82" height="65" fill="none" viewBox="0 0 82 65">
  <path fill="#000" d="M47.338 39.425a.57.57 0 0 0-.268.066.42.42 0 0 0-.178.173.317.317 0 0 0-.027.224.37.37 0 0 0 .132.198.528.528 0 0 0 .247.106c.093.015.19.008.279-.022a.475.475 0 0 0 .216-.142.322.322 0 0 0 .045-.363.394.394 0 0 0-.105-.126.503.503 0 0 0-.156-.084.586.586 0 0 0-.185-.03Zm0-1.408a.336.336 0 0 0-.081-.215.476.476 0 0 0-.217-.143.594.594 0 0 0-.279-.022.528.528 0 0 0-.247.106.371.371 0 0 0-.132.198.317.317 0 0 0 .027.224c.037.07.099.131.178.174.08.043.173.065.268.065a.55.55 0 0 0 .34-.112.354.354 0 0 0 .143-.272m-3.807-.285c-1.39.748-2.923 1.452-3.314 2.812a38.385 38.385 0 0 0 6.584 2.345 21.218 21.218 0 0 0-3.27-5.157Zm12.025 9.393a51.9 51.9 0 0 0 3.972.076c-.8-.301-3.267-.68-3.972-.076Zm.068-1.23a25.143 25.143 0 0 0 3.526-.162c-.945-.263-2.997-.488-3.526.162Zm-.706-.658c1.323.068 2.278-.991 3.635-1.208a5.288 5.288 0 0 0-1.999.253 4.407 4.407 0 0 0-1.636.955ZM41.742 26.566c-1.316 0-.202.588.017.813a6.051 6.051 0 0 0 1.85 1.649 9.372 9.372 0 0 0 4.937.019c.36-.15.637-.402.776-.707-2.997.068-6.547.306-7.58-1.774Zm6.662.704a4.369 4.369 0 0 0-.108-1.23 18.269 18.269 0 0 1-6.27-.65c.685 1.471 3.77 1.986 6.378 1.88Zm.574-.067a5.698 5.698 0 0 0 2.614-.794c.758-.461 1.333-1.089 1.656-1.806a14.393 14.393 0 0 1-4.27 1.37 3.919 3.919 0 0 0 0 1.23Zm-21.725-6.105c-.228.41-.322.86-.274 1.308.047.448.236.878.548 1.251 0-.847-.17-2.296.732-2.253.631.027.76 1.11 1.296 1.354.594-2.288-2.97-3.445-3.341-1.286.287-.146.52-.574 1.04-.374Zm18.468 4.22c2.321.107 4.61-.471 6.436-1.625-.067-.347.52-.975.358-1.493-.057-.178-.567-.438-.874-.71a18.101 18.101 0 0 1-3.665-4.035c-.078-.138-.122-.92-.652-.61.265 1.818 1.33 3.499 3.004 4.74.641.62 1.418.973.702 1.934-1.147.352-3 1.354-4.59 1.135-.85-.116-.675-.888-.965-1.305-.256.298-.372.66-.327 1.02.045.36.248.697.573.949Zm-5.319-6.352c-.897 1.138 1.755 1.355 2.896 1.084.38-.126.702-.341.925-.618.317-.715-.338-1.029-.652-1.283a7.76 7.76 0 0 1-1.407-2.116c-.354.813.61 2.167 1.15 2.871-.704.553-1.97.098-2.912.063Zm13.986-.303a18.938 18.938 0 0 1-1.687-2.648h-.112c0 .833.253 1.653.736 2.39-.574.29-1.687.11-2.362.337-.03 1.53 2.97.777 3.425-.079Zm-17.752-2.738c.725-1.295 1.913-2.546 4.303-2.099.459-.604-.361-1.048-.969-1.121a4.74 4.74 0 0 0-2.15.596c-.63.36-1.12.857-1.41 1.432-.162.36-.429 1.067.226 1.192Zm14.94 22.74.453-.626a2.14 2.14 0 0 0-.916-.72 2.775 2.775 0 0 0-1.254-.215 2.812 2.812 0 0 0-.675.163 30.59 30.59 0 0 1-.283 2.957c-.114.903-.34 1.794-.675 2.66a27.423 27.423 0 0 0 2.45-2.98c.301-.406.602-.82.9-1.24Zm1.823 2.743a30.522 30.522 0 0 0 2.322-5.76c.051-.21.152-.543.227-.873l-.095-.057-3.871-2.307-.192-.117c.797 1.427.864 3.049.185 4.515.149.43.655.593.86.98-1.35 1.95-2.861 3.773-4.248 5.688 1.032-.515 2.5-.092 3.712-.477.446-.13.766-.942 1.1-1.592ZM31.371 12.166c.712-.14 1.316-1.425 1.85-1.896.43-.317.88-.617 1.35-.896l-.318.103c-1.786.536-3.356 1.454-4.54 2.654l-.1.108c.22-.052.446-.085.674-.1.36.036.722.045 1.084.027Zm-5.005 6.527.084-.03a4.025 4.025 0 0 1 3.162.198c.395.194.72.467.945.791.225.325.343.69.341 1.061h.02a.598.598 0 0 0 .22-.026.506.506 0 0 0 .181-.102.38.38 0 0 0 .108-.155.319.319 0 0 0 .011-.177 2.721 2.721 0 0 0-.233-.813 4.494 4.494 0 0 1-.124-.36c-.111-1.595.01-3.196.36-4.77a3.5 3.5 0 0 0-.087-.852h-.05c-4.118.512-4.989 2.546-5.063 4.016-.017.34.007.682.07 1.019.03.077.046.144.055.2Zm6.861 27.268-2.46-.31-1.141-.633h.56c.058-.734 1.293-.314 1.4-.85.082-.42-.718-.45-.458-1.11.675.194 1.012.622 1.721.782.648-1.138 0-3.147.084-4.095 0-.179.112-.989.608-.848a.233.233 0 0 1 .074.049.18.18 0 0 1 .044.068l.152.146.901.883v3.968c3.216-.33 6.494-.542 9.966-.623a30.7 30.7 0 0 1-2.902-1.046c-.587-.27-2.437-.812-2.606-1.265-.27-.712.71-1.083.878-1.706-1.765.775-2.11-.736-2.525-1.806a11.38 11.38 0 0 1-.675-2.254 33.413 33.413 0 0 1-4.448-1.914 3.025 3.025 0 0 1-.337-.298l-.102.038-7.509 2.66s3.061 9.75 1.907 13.67l-.024.082c2.392 1.252 5.108 2.049 7.942 2.33-.368-2.086-.706-3.968-.945-5.91l-.105-.008Zm27.955-3.088c-.24-.439-.672-.792-1.215-.991l-.111-.038.06-.081c2.158-3 3.292-6.401 3.288-9.864.027-5.12-2.457-10.044-6.916-13.707-.203-.166-.41-.328-.62-.488l-.03-.027v-.027c-.072-1.869-.597-3.709-1.547-5.416-1.16-1.52-2.663-2.854-4.431-3.933-1.992-.95-4.22-1.536-6.525-1.717a19.447 19.447 0 0 0-6.816.666l-.368.109c-.965.255-1.9.58-2.791.97-.416.197-.84.384-1.25.565-2.18.964-4.238 1.874-4.88 3.927v.041l-.047.016c-1.458.526-2.244 1.864-2.328 3.982v.037l-.04.025c-.598.401-1.17.826-1.715 1.273-4.436 3.673-6.916 8.587-6.916 13.701 0 5.115 2.48 10.029 6.916 13.702.44.36.909.715 1.404 1.061l.033.025v.035l.085 1.062v.19c.018.27.027.54.027.812-.043.47.023.941.195 1.392.19.322.79.5 1.37.671.237.068.473.136.676.217.405.152.796.309 1.215.477 1.85.937 4.006 1.408 6.193 1.354h.084l.027.068.439 1.191c.523 1.463 1.07 2.98 1.714 4.252 3.492.684 7.115.822 10.672.407.81-.076 1.826-.396 2.059-1.038v-.068c-.08-.4-.112-.805-.095-1.21v-.065h.081l.25-.043c.932-.147 1.981-.315 2.164-1.043a3.974 3.974 0 0 0-.27-1.931c-.31-.75-.4-1.547-.264-2.33v-.043l.142-.035c.53-.135.986-.255.911-.858v-.057l.061-.027a7.823 7.823 0 0 1 3.31-.455h.062l.027.043c.135.208.312.398.523.56 1.526.289 3.118.256 4.624-.094 1.458-.382 2.26-2.885 1.893-4.122a16.565 16.565 0 0 0-1.33-3.123Zm-5.501-23.562v-.21l.175.155c3.411 2.996 5.519 6.799 6.005 10.838.487 4.039-.672 8.096-3.305 11.56l-.027.038h-.033c-1.62.16-3.185.573-4.607 1.216l-.236.095.09-.2c1.098-2.319 2.026-4.675 2.829-6.88.056-.148.12-.307.192-.479.326-.637.489-1.32.48-2.01-.081-.509-.878-1.056-1.58-1.535-.23-.157-.435-.304-.618-.442a16.33 16.33 0 0 0-.533-.368c-.958-.644-1.822-1.248-1.903-1.57-.081-.326.337-.895.708-1.387.139-.19.274-.369.351-.504.359-.652.652-1.326.878-2.015v-.038a20.378 20.378 0 0 0 1.13-6.262l.004-.002Zm-27.726-6.736c1.637-2.04 4.192-3.496 7.132-4.063a.622.622 0 0 1 .278.028.5.5 0 0 1 .218.143l.027.027v.035c0 .309-.31.385-.55.444-.066.015-.13.033-.193.055-.07.065-.145.127-.222.186a6.65 6.65 0 0 1-.554.35c-.29.156-.557.338-.796.542a5.49 5.49 0 0 0-.591.717c-.398.542-.81 1.108-1.313 1.208-.232.033-.47.033-.702 0a2.082 2.082 0 0 0-.391-.027c-.221.016-.44.05-.652.1-.173.04-.344.085-.513.136-.344.11-.701.192-1.066.244l-.19.016.078-.141Zm-1.208 1.896c1.138-.992 2.71-1.59 4.388-1.669h.077l.04.055c.093.189.163.385.21.585.066.287.095.58.088.872a8.77 8.77 0 0 1-.23 1.958 6.338 6.338 0 0 0-.115 2.838c.03.098.065.201.105.312v.035c.12.255.194.522.223.793a.44.44 0 0 1-.023.215.516.516 0 0 1-.126.192.778.778 0 0 1-.472.14h-.115v-.084a1.77 1.77 0 0 0-.323-1.019 2.37 2.37 0 0 0-.902-.763 3.43 3.43 0 0 0-1.406-.35 3.513 3.513 0 0 0-1.73.377l-.148.079-.02-.2-.145.067-.149.073-.027-.27c-.405-1.442-.118-2.954.803-4.234l-.003-.002Zm-1.85 7.242a2.21 2.21 0 0 1 .33-.998c.192-.312.46-.59.788-.817a3.08 3.08 0 0 1 1.016-.453 3.501 3.501 0 0 1 1.157-.088c1.296.113 1.762 1.224 2.025 2.201.523.02 1.586 0 1.93-.422a5.598 5.598 0 0 0-.337-1.435 4.45 4.45 0 0 1-.317-1.571c.053-.67.183-1.333.388-1.983a4.455 4.455 0 0 0 0-3.52l-.02-.033.02-.033c1.57-2.013 3.885-3.581 6.622-4.485a15.51 15.51 0 0 1 5.299-.397 14.67 14.67 0 0 1 5.028 1.4c1.344.734 2.496 1.673 3.392 2.762l.452.477.203.208-.314-.076a2.743 2.743 0 0 0-1.093-.095 2.552 2.552 0 0 0-1.016.336c-.14.102-.25.228-.32.369a.802.802 0 0 0-.079.444c.242-.139.517-.235.808-.281a2.6 2.6 0 0 1 .88.01c.514.086.999.258 1.424.506.424.247.779.564 1.04.93a7.574 7.574 0 0 1 .675 3.43c.004.196.015.392.033.589.315 3.52-.775 7.03-3.111 10.02l-.365.434a5.95 5.95 0 0 1-1.627 1.53 10.972 10.972 0 0 1-3.767 1.444c-1.37.259-2.794.277-4.174.054-2.923-.903-5.364-2.593-6.905-4.78.343 1.044 1.059 1.985 2.059 2.708.839.846 1.894 1.539 3.094 2.031l-.06.163c-1.043-.196-2.383-.206-2.74.411l-.031.054h-.074c-2.363-.124-4.432-.33-5.512-1.57a12.08 12.08 0 0 1-2.1-3.92 3.764 3.764 0 0 1-.178-.996 1.22 1.22 0 0 1 .506-.596c.338-.27.611-.482.405-.872-.34.025-.657.146-.897.341a1.872 1.872 0 0 1-.939.374c-.375.02-.75-.027-1.1-.137-.35-.11-.666-.28-.925-.5-1.022-.849-1.587-1.987-1.572-3.168Zm18.3 13.658c.38.063.75.165 1.097.306l.06.024-.033.78-.048.025c-.354.196-.692.41-1.012.642a10.32 10.32 0 0 1-1.634.964l-.236.094c-.223.081-.448.158-.675.23-.331.105-.67.196-1.012.272a5.444 5.444 0 0 1-.361.062l-.264.019a.839.839 0 0 1-.165-.014c-.284-.054-.361-.27-.439-.49l-.064-.17a11.58 11.58 0 0 0-.213-.461 5.295 5.295 0 0 1-.64-1.912l-.021-.325c-.047-.964-.017-1.912.547-2.302.118-.078.258-.132.407-.158.15-.026.305-.024.453.006 1.222.21 2.4.556 3.504 1.027l.202.097.203.1c.112.064.23.122.35.176.287.128.605.202.932.217h.101l-.02.398-.044.025c-.3.133-.624.224-.962.27a7.395 7.395 0 0 0-.337.063c.112.003.22.014.324.032v.003Zm-.091 2.486.364-.192.081-.044.058.06a18.038 18.038 0 0 1 2.902 4.436l.385.742.088.163-.216-.049a38.372 38.372 0 0 1-6.605-2.356l-.068-.027.017-.062c.519-1.174 1.595-2.132 2.994-2.67Zm3.375 2.763a12.99 12.99 0 0 0-2.268-3.359l-.061-.054.067-.054c.088-.078.174-.157.257-.238l.216-.2.05-.044.068.022c.161.044.333.056.5.037.17-.02.33-.07.469-.148.214-.107.462-.164.715-.163.303.05.584.162.817.325.325.235.744.369 1.181.377h.115v.094a51.62 51.62 0 0 0-.078 1.281 13.72 13.72 0 0 1-.64 4.182l-.079.19-.118-.174c-.459-.669-.84-1.384-1.215-2.077l.004.003Zm-1.83-5.959v-.04l.044-.027c.254-.145.551-.23.86-.247.159-.002.315.03.452.093s.25.154.329.265a.926.926 0 0 1 .172.503.844.844 0 0 1-.236.599 1.02 1.02 0 0 1-.362.22 1.23 1.23 0 0 1-.445.072 2.07 2.07 0 0 1-.527-.07l-.06-.014v-.054l-.024-.103c0-.067-.034-.127-.047-.184l-.054-.149v-.032l-.034-.12-.02-.07c0-.048-.024-.095-.034-.14a1.742 1.742 0 0 1-.017-.496l.003-.006Zm3.477 8.198c.334-.86.56-1.746.675-2.643.168-1.105.246-2.215.283-2.952v-.049l.058-.021c.227-.088.471-.146.722-.171a2.94 2.94 0 0 1 1.31.226c.401.172.734.432.961.749l.034.04-.034.047-.452.623-.128.181-.777 1.083a27.475 27.475 0 0 1-2.46 2.98l-.381.387.189-.48Zm3.527-6.863a1.332 1.332 0 0 1-.318.661l-.033.033h-.054a20.795 20.795 0 0 1-4.05-.447l-.085-.019.017-.076v-.815a.669.669 0 0 1 .054-.25v-.026l.027-.014c.095-.055.201-.096.314-.122.207-.046.42-.076.634-.089l-.074-.014a2.723 2.723 0 0 0-.938 0l-.125.025v-.103a.928.928 0 0 0-.152-.434l-.094-.189-.034-.081.101-.027a6.169 6.169 0 0 0 1.013-.483c.968-.541 2.173-1.191 3.003-.798.716.333.844 2.329.848 2.415.021.286 0 .572-.065.853h.01Zm-3.905-3.168c-.35.193-.688.399-1.013.617-.24.161-.487.316-.739.466l-.027.016h-.526c-.953.04-1.889-.216-2.613-.715l-.054-.032.017-.054a.132.132 0 0 1 .042-.06.18.18 0 0 1 .073-.035v-.1l.142.051c.342.117.71.176 1.083.174a10.769 10.769 0 0 0 2.049-.271c.213-.042.423-.08.627-.117.283-.051.57-.089.858-.11l.418-.03-.337.2Zm-10.922 1.549h-.111c-.766-.038-2.95-.623-3.24-1.232a.31.31 0 0 1-.021-.225.372.372 0 0 1 .142-.195l.061-.049.074.04c.64.25 1.347.371 2.06.353.39.024.802.046 1.167.097h.074v.06c.014.184-.02.368-.098.542-.071.17-.112.346-.121.525l.013.084ZM23.902 45.04l-.155-.125c-4.21-3.49-6.565-8.158-6.565-13.016 0-4.858 2.354-9.526 6.565-13.016.263-.219.535-.432.816-.64l.135-.1.04.144c.11.286.145.588.102.885-.075.165-.19.317-.337.447a1.119 1.119 0 0 0-.166.19 4.916 4.916 0 0 0-.316 2.696c.15.907.555 1.774 1.184 2.536a4.29 4.29 0 0 0 1.319 1.033c.522.269 1.106.45 1.718.533h.081v.067c.058.66.273 1.303.635 1.896.084.14.184.273.297.398.337.44.8.986.526 1.43-.5.396-1.085.714-1.728.94l-.469.214c-.47.226-.92.436-1.35.631a35.832 35.832 0 0 0-3.071 1.55 6.274 6.274 0 0 1-.898.398c-.827.316-1.539.59-1.37 1.5a9.37 9.37 0 0 0 .752 1.977c.151.32.287.625.409.915.157.4.338.79.543 1.17.294.553.542 1.12.743 1.699a20.06 20.06 0 0 1 .786 3.612l.034.236-.26-.2Zm10.375 6.928c-2.407-.174-4.73-.797-6.784-1.818a55.94 55.94 0 0 0-1.208-.506l-.675-.271-.054-.035v-.054c.013-4.669-1.149-9.291-3.416-13.59l-.034-.06.068-.044a36.951 36.951 0 0 1 8.1-4.04c.169-.055.456.162 1.522 1.175l.338.298c.103.102.216.198.337.287a29.622 29.622 0 0 0 3.949 1.722l.533.204v.046c.145.76.371 1.508.675 2.237l.118.314c.24.658.517 1.4 1.107 1.598.194.045.397.054.595.028a1.55 1.55 0 0 0 .553-.18l.202-.087-.05.182a1.83 1.83 0 0 1-.473.685c-.283.298-.553.585-.405.975.111.295 1.181.69 1.89.953.231.08.456.17.675.271a19.1 19.1 0 0 0 2.21.813c.237.074.462.149.676.224l.438.152h-.472c-3.33.075-6.652.282-9.956.62l-.186.02-.675.07h-.064l-.034-.046a2.33 2.33 0 0 1-.304-1.544v-.65c-.005-.425.021-.85.078-1.273a4.362 4.362 0 0 0 .02-1.625c-.022-.041-.04-.063-.054-.065a.202.202 0 0 0-.165 0c-.21.218-.318.488-.304.764a6.53 6.53 0 0 0 .085 1.251c.226.96.16 1.951-.193 2.887l-.034.068-.087-.022a3.329 3.329 0 0 1-.962-.42 3.61 3.61 0 0 0-.675-.33.44.44 0 0 0 .021.298c.042.096.116.18.215.244a.576.576 0 0 1 .2.21.447.447 0 0 1 .053.26c-.057.307-.405.361-.719.407-.398.068-.64.127-.675.42.355.016.71.01 1.063-.02a5.26 5.26 0 0 1 1.928.11l.057.02v.052c.027.271.058.542.094.813.223 1.828.54 3.634.878 5.547l.08.46-.1-.005Zm13.79 5.57a21.203 21.203 0 0 1-4.995.542 26.162 26.162 0 0 1-6.13-.707l-.05-.013-.02-.04a48.121 48.121 0 0 1-3.102-12.232v-.075l.095-.017a48.623 48.623 0 0 1 13.061-.414l.068.014v.054c.166 1.006.262 2.018.287 3.033.037.794.074 1.609.189 2.408.141.996.178 2.066.219 3.098 0 1.423.15 2.844.445 4.247l.02.075-.087.028Zm2.454-2.418v.06l-.068.016-.31.09-.27.075c-.15.04-.303.075-.456.106a5.423 5.423 0 0 1-.989.081h-.111v-.081c-.02-.336-.05-.726-.081-1.138a26.103 26.103 0 0 1-.122-2.928v-.086h.108c.236-.005.469-.038.692-.098a2.06 2.06 0 0 1 .813-.08l.071.013v.06c.034.208.075.433.139.698.067.263.121.477.189.715l.128.48c.109.41.188.827.236 1.245.016.177.027.348.034.512 0 .087-.005.173-.014.26h.01Zm0-4.93c-.782.136-1.57.246-2.363.331l-.169.02v-.09c-.108-1.165-.243-2.708-.28-4.233v-1.582l.071-.019a6.658 6.658 0 0 1 1.765-.173h.236l.017.062c.133.404.237.814.31 1.227.146.772.22 1.609.291 2.416.057.65.118 1.322.213 1.95v.078l-.091.014Zm.02-6.905a4.315 4.315 0 0 0-1.88.27l-.358.182.21-.293a100.71 100.71 0 0 1 1.923-2.564 83.332 83.332 0 0 0 2.299-3.096 1.738 1.738 0 0 0-.365-.374 1.374 1.374 0 0 1-.48-.582v-.033l.021-.03c.665-1.439.598-3.03-.186-4.43a1.092 1.092 0 0 0-.373-.358 1.424 1.424 0 0 0-.534-.184 1.63 1.63 0 0 0-.675.114l-.358.135.223-.27a2.18 2.18 0 0 1 .418-.342l.338-.22c.332-.182.63-.404.88-.657l.068-.082.084.063c.541.355 1.054.737 1.536 1.143.337.27.675.558 1.097.856.133.09.284.186.455.29.554.338 1.182.72 1.27 1.224.014.247-.013.495-.082.736-.046.207-.098.413-.155.618l-.067.27a29.826 29.826 0 0 1-2.33 5.77l-.168.349c-.3.606-.58 1.175-.989 1.305a6.24 6.24 0 0 1-1.842.19h.02Zm3.071 5.736v.068l-.088.013a3.987 3.987 0 0 0-.55.141c-.3.112-.627.172-.958.176h-.176v-.076c-.09-.885-.27-1.806-.449-2.708A33.126 33.126 0 0 1 51 44.387v-.09h.115c.121.004.25-.002.388-.018.336-.036.678-.03 1.012.016h.044l.024.032c.794 1.479 1.139 3.087 1.005 4.694h.024Zm5.964.631a9.872 9.872 0 0 1-1.82.162 4.552 4.552 0 0 1-1.43-.176l-.183-.07.18-.081a6.856 6.856 0 0 1 1.737-.385c.302-.04.598-.086.888-.14a10.068 10.068 0 0 0-2.68-.063c-.616.05-1.237.067-1.856.049h-.108v-.073l-.081-.686a17.726 17.726 0 0 0-.719-3.832l-.017-.046.04-.035a6.919 6.919 0 0 1 2.488-.986c.691-.16 1.357-.384 1.985-.666.867-.444 1.906.195 2.27.636.548.99.936 2.03 1.155 3.099l.054.197a2.085 2.085 0 0 1-.201 1.852c-.358.575-.973 1.02-1.723 1.244h.02Zm-9.697-3.865a4.423 4.423 0 0 1-1.977.439c.04 1.49.168 2.98.273 4.122a40.715 40.715 0 0 0 2.187-.306 32.779 32.779 0 0 1-.2-1.896c-.067-.785-.144-1.603-.283-2.359Z"/>
</svg>
