<svg width="112" height="112" viewBox="0 0 112 112" fill="none" xmlns="http://www.w3.org/2000/svg" xmlns:xlink="http://www.w3.org/1999/xlink">
<path d="M110.979,54.766C110.675,36.041 100.234,17.81 84.081,8.209C71.356,0.283 55.28,-1.85 40.8,1.808C19.008,7.294 1.634,27.03 -0.575,49.525C-3.319,70.77 7.426,92.865 25.789,103.761C43.772,115.038 68.232,114.581 85.814,102.711C101.664,92.424 111.494,73.661 110.962,54.782L110.979,54.766ZM58.097,103.687C32.647,106.202 8.035,84.639 7.347,59.111C5.422,38.386 19.081,17.888 38.588,11.03C65.944,0.058 99.548,20.326 102.367,49.665C106.788,76.027 84.843,102.865 58.097,103.687ZM41.35,53.165L78.152,23.065L58.266,53.24C52.627,53.24 46.988,53.242 41.35,53.165ZM51.698,58.73L68.613,58.807L31.811,88.982L51.698,58.73Z" fill="#010101"/>
</svg>
