<svg width="102" height="78" viewBox="0 0 102 78" fill="none" xmlns="http://www.w3.org/2000/svg" xmlns:xlink="http://www.w3.org/1999/xlink">
<path d="M87.605,44.564C84.016,44.583 80.908,45.444 78.304,46.729C77.352,44.828 76.386,43.155 76.225,41.911C76.036,40.46 75.817,39.592 76.045,37.863C76.274,36.134 77.275,33.684 77.261,33.499C77.247,33.315 77.037,32.435 74.967,32.419C72.898,32.405 71.127,32.818 70.919,33.364C70.711,33.91 70.312,35.14 70.065,36.423C69.703,38.299 65.933,44.993 63.793,48.493C63.093,47.126 62.498,45.922 62.374,44.97C62.185,43.519 61.966,42.651 62.195,40.922C62.423,39.193 63.424,36.743 63.41,36.558C63.396,36.374 63.186,35.494 61.117,35.478C59.047,35.464 57.276,35.877 57.068,36.423C56.861,36.969 56.637,38.245 56.214,39.482C55.79,40.716 50.78,51.881 49.466,54.777C48.797,56.252 48.216,57.437 47.805,58.244L47.803,58.24C47.803,58.24 47.777,58.293 47.735,58.384C47.383,59.073 47.175,59.453 47.175,59.453C47.175,59.453 47.177,59.458 47.182,59.467C46.902,59.973 46.603,60.442 46.456,60.442C46.354,60.442 46.146,59.096 46.501,57.248C47.247,53.375 49.037,47.336 49.021,47.126C49.011,47.019 49.354,45.966 47.852,45.416C46.391,44.881 45.871,45.773 45.738,45.775C45.609,45.777 45.514,46.09 45.514,46.09C45.514,46.09 47.14,39.298 42.41,39.298C39.452,39.298 35.354,42.534 33.336,45.467C32.062,46.162 29.334,47.651 26.443,49.24C25.333,49.851 24.199,50.474 23.123,51.067C23.051,50.985 22.976,50.906 22.901,50.824C17.164,44.704 6.561,40.376 7.009,32.146C7.172,29.155 8.213,21.277 27.386,11.725C43.092,3.899 55.666,6.052 57.838,10.824C60.942,17.644 51.118,30.317 34.808,32.146C28.595,32.844 25.321,30.433 24.507,29.537C23.65,28.592 23.522,28.55 23.202,28.728C22.682,29.017 23.011,29.85 23.202,30.347C23.69,31.614 25.687,33.861 29.094,34.981C32.092,35.966 39.389,36.505 48.211,33.091C58.095,29.269 65.811,18.634 63.543,9.746C61.238,0.707 46.249,-2.266 32.062,2.774C23.608,5.775 14.469,10.483 7.896,16.629C0.081,23.937 -1.165,30.3 -0.651,32.958C1.173,42.403 14.191,48.554 19.404,53.111C19.147,53.253 18.904,53.386 18.685,53.508C16.072,54.8 6.148,59.994 3.665,65.48C0.849,71.703 4.113,76.169 6.274,76.771C12.968,78.633 19.838,75.282 23.531,69.776C27.223,64.271 26.772,57.101 25.078,53.83C25.057,53.79 25.034,53.75 25.013,53.708C25.687,53.309 26.376,52.903 27.057,52.502C28.387,51.72 29.694,50.992 30.825,50.376C30.191,52.112 29.726,54.196 29.486,57.204C29.201,60.736 30.65,65.303 32.545,67.099C33.38,67.89 34.384,67.909 35.018,67.909C37.223,67.909 38.229,66.075 39.337,63.905C40.695,61.245 41.902,58.146 41.902,58.146C41.902,58.146 40.39,66.514 44.51,66.514C46.013,66.514 47.523,64.565 48.197,63.574C48.199,63.585 48.199,63.59 48.199,63.59C48.199,63.59 48.239,63.525 48.316,63.396C48.472,63.158 48.561,63.007 48.561,63.007C48.561,63.007 48.563,62.99 48.568,62.962C49.172,61.915 50.512,59.525 52.518,55.584C55.113,50.493 57.6,44.114 57.6,44.114C57.6,44.114 57.831,45.672 58.59,48.253C59.035,49.77 59.983,51.447 60.732,53.057C60.13,53.893 59.761,54.371 59.761,54.371C59.761,54.371 59.763,54.38 59.77,54.397C59.29,55.036 58.751,55.724 58.186,56.396C56.137,58.835 53.699,61.621 53.372,62.423C52.987,63.371 53.078,64.066 53.823,64.628C54.366,65.037 55.332,65.102 56.343,65.034C58.184,64.911 59.476,64.453 60.116,64.176C61.112,63.823 62.272,63.27 63.359,62.47C65.368,60.993 66.579,58.881 66.462,56.081C66.397,54.539 65.907,53.011 65.284,51.569C65.466,51.307 65.648,51.041 65.832,50.775C68.999,46.146 71.456,41.059 71.456,41.059C71.456,41.059 71.687,42.618 72.445,45.199C72.828,46.503 73.586,47.929 74.267,49.324C71.29,51.744 69.444,54.555 68.803,56.399C67.617,59.81 68.546,61.355 70.287,61.707C71.075,61.866 72.191,61.504 73.028,61.149C74.071,60.804 75.324,60.228 76.496,59.367C78.505,57.89 80.437,55.822 80.32,53.025C80.266,51.751 79.921,50.486 79.452,49.273C81.977,48.22 85.243,47.637 89.406,48.122C98.336,49.165 100.086,54.74 99.752,57.073C99.416,59.406 97.545,60.69 96.917,61.077C96.292,61.464 96.1,61.6 96.152,61.887C96.229,62.304 96.518,62.29 97.052,62.199C97.787,62.076 101.74,60.302 101.91,55.995C102.123,50.521 96.884,44.515 87.605,44.564ZM18.778,67.767C15.82,70.994 11.69,72.212 9.916,71.185C8.003,70.077 8.761,65.326 12.39,61.901C14.602,59.815 17.458,57.892 19.352,56.709C19.784,56.45 20.416,56.07 21.186,55.608C21.315,55.535 21.387,55.496 21.387,55.496L21.385,55.491C21.534,55.402 21.686,55.311 21.842,55.216C23.165,60.09 21.884,64.381 18.778,67.767ZM40.327,53.12C39.298,55.631 37.142,62.057 35.828,61.712C34.701,61.415 34.015,56.532 35.604,51.725C36.402,49.305 38.11,46.414 39.113,45.292C40.728,43.486 42.506,42.896 42.938,43.628C43.486,44.562 40.973,51.545 40.327,53.12ZM58.128,61.614C57.691,61.842 57.29,61.985 57.106,61.875C56.968,61.793 57.285,61.492 57.285,61.492C57.285,61.492 59.511,59.096 60.389,58.006C60.9,57.372 61.49,56.618 62.134,55.778C62.139,55.862 62.141,55.946 62.141,56.028C62.136,58.898 59.364,60.834 58.128,61.614ZM71.841,58.487C71.514,58.256 71.57,57.507 72.641,55.171C73.061,54.254 74.022,52.712 75.688,51.237C75.882,51.844 75.999,52.425 75.996,52.966C75.975,56.578 73.399,57.927 71.841,58.487Z" fill="#000000"/>
</svg>
