<svg width="90" height="90" viewBox="0 0 90 90" fill="none" xmlns="http://www.w3.org/2000/svg" xmlns:xlink="http://www.w3.org/1999/xlink">
<path d="M87.467,39.567L49.433,1.533C48.267,0.367 46.633,-0.333 45,-0.333C43.367,-0.333 41.733,0.367 40.567,1.533L32.4,9.7L41.967,19.267C42.9,18.8 43.833,18.567 45,18.567C48.967,18.567 52,21.6 52,25.567C52,26.733 51.767,27.667 51.3,28.6L60.633,37.933C61.567,37.467 62.5,37.233 63.667,37.233C67.633,37.233 70.667,40.267 70.667,44.233C70.667,48.2 67.633,51.233 63.667,51.233C59.7,51.233 56.667,48.2 56.667,44.233C56.667,43.067 56.9,42.133 57.367,41.2L48.033,31.867C47.8,31.867 47.567,32.1 47.333,32.1L47.333,56.367C50.133,57.3 52,59.867 52,62.9C52,66.867 48.967,69.9 45,69.9C41.033,69.9 38,66.867 38,62.9C38,59.867 39.867,57.3 42.667,56.367L42.667,31.867C39.867,30.933 38,28.367 38,25.333C38,24.167 38.233,23.233 38.7,22.3L29.133,12.733L2.533,39.567C1.367,40.733 0.667,42.367 0.667,44C0.667,45.633 1.367,47.267 2.533,48.433L40.567,86.467C41.733,87.633 43.367,88.333 45,88.333C46.633,88.333 48.267,87.633 49.433,86.467L87.467,48.433C88.633,47.267 89.333,45.633 89.333,44C89.333,42.367 88.633,40.733 87.467,39.567Z" fill="#000000"/>
</svg>
