<svg width="106" height="110" viewBox="0 0 106 110" fill="none" xmlns="http://www.w3.org/2000/svg" xmlns:xlink="http://www.w3.org/1999/xlink">
<path d="M61.909,-0.142C61.143,-0.142 60.432,0.028 59.776,0.254C61.171,1.217 61.936,2.491 62.319,3.936C62.347,4.134 62.402,4.275 62.429,4.474C62.456,4.644 62.484,4.813 62.484,4.983C62.593,7.475 61.854,7.787 61.335,9.259C60.541,11.156 60.76,13.195 61.718,14.838C61.8,15.036 61.909,15.262 62.046,15.461C61.006,8.296 66.778,7.22 67.845,4.983C67.927,3.03 66.368,1.727 65.137,0.821C63.961,0.085 62.894,-0.142 61.909,-0.142ZM70.608,1.472C70.498,2.123 70.58,1.953 70.553,2.293C70.526,2.52 70.526,2.803 70.498,3.029C70.444,3.256 70.389,3.483 70.307,3.709C70.252,3.936 70.17,4.162 70.088,4.389C69.979,4.615 69.897,4.813 69.787,5.04C69.705,5.153 69.65,5.267 69.568,5.38C69.514,5.465 69.459,5.55 69.404,5.635C69.267,5.833 69.131,6.031 68.994,6.201C68.83,6.371 68.693,6.569 68.502,6.711L68.502,6.739C68.337,6.881 68.173,7.051 67.982,7.192C67.407,7.645 66.751,7.985 66.149,8.41C65.958,8.551 65.766,8.665 65.602,8.834C65.411,8.976 65.246,9.118 65.082,9.288C64.891,9.457 64.754,9.627 64.59,9.826C64.453,9.995 64.289,10.194 64.18,10.392C64.043,10.59 63.906,10.788 63.797,10.987C63.687,11.213 63.605,11.411 63.496,11.638C63.414,11.864 63.332,12.063 63.277,12.289C63.195,12.544 63.14,12.77 63.085,12.997C63.058,13.11 63.058,13.252 63.031,13.365C63.003,13.478 63.003,13.592 62.976,13.705C62.976,13.931 62.949,14.186 62.949,14.413C62.949,14.583 62.949,14.753 62.976,14.923C62.976,15.149 63.004,15.376 63.058,15.63C63.086,15.857 63.14,16.084 63.195,16.31C63.277,16.537 63.332,16.763 63.414,16.99C63.468,17.131 63.551,17.273 63.605,17.386L57.314,14.866C56.247,14.554 55.208,14.271 54.141,14.016C53.566,13.875 52.992,13.733 52.418,13.592C50.776,13.252 49.108,12.997 47.439,12.827C47.384,12.827 47.357,12.799 47.302,12.799C45.661,12.629 44.047,12.544 42.406,12.544C41.202,12.544 39.999,12.601 38.823,12.685C37.154,12.799 35.485,13.025 33.817,13.308C33.407,13.365 32.996,13.45 32.586,13.535C31.738,13.705 30.917,13.903 30.124,14.101C29.714,14.215 29.303,14.328 28.893,14.441C28.483,14.611 28.1,14.809 27.717,14.979C27.416,15.121 27.115,15.262 26.814,15.404C26.76,15.432 26.705,15.432 26.677,15.46C26.404,15.602 26.158,15.715 25.912,15.857C25.829,15.885 25.775,15.914 25.72,15.942C25.419,16.083 25.118,16.253 24.872,16.395C24.681,16.48 24.489,16.593 24.325,16.678C24.243,16.735 24.134,16.791 24.079,16.82C23.833,16.961 23.586,17.103 23.368,17.244C23.121,17.386 22.903,17.528 22.711,17.669C22.52,17.811 22.328,17.924 22.164,18.066C22.137,18.094 22.109,18.094 22.082,18.122C21.918,18.236 21.726,18.377 21.562,18.519C21.562,18.519 21.535,18.547 21.508,18.575C21.371,18.689 21.234,18.802 21.097,18.915C21.043,18.943 20.988,19 20.933,19.028C20.796,19.142 20.66,19.283 20.523,19.396C20.495,19.453 20.441,19.481 20.413,19.51C20.249,19.68 20.085,19.821 19.921,19.991C19.894,19.991 19.894,20.019 19.866,20.048C19.702,20.189 19.538,20.359 19.374,20.529C19.347,20.557 19.347,20.586 19.319,20.586C19.183,20.727 19.046,20.869 18.909,21.039C18.854,21.095 18.772,21.152 18.718,21.209C18.581,21.379 18.417,21.548 18.253,21.718C18.225,21.775 18.171,21.803 18.143,21.86C17.924,22.086 17.733,22.313 17.514,22.54C17.487,22.568 17.459,22.596 17.432,22.625C16.994,23.106 16.529,23.587 16.037,24.012C15.545,24.465 15.025,24.89 14.505,25.258C13.958,25.654 13.438,25.994 12.864,26.334C12.317,26.645 11.742,26.929 11.141,27.183C10.566,27.438 9.964,27.665 9.363,27.863C8.214,28.118 7.037,28.599 6.025,28.684C5.807,28.684 5.56,28.741 5.342,28.769C5.095,28.826 4.877,28.883 4.658,28.939C4.439,29.024 4.22,29.109 4.001,29.194C3.782,29.279 3.564,29.392 3.345,29.505C3.153,29.647 2.934,29.76 2.743,29.902C2.551,30.043 2.36,30.213 2.196,30.383C2.004,30.525 1.813,30.723 1.649,30.893C1.485,31.091 1.32,31.261 1.184,31.459C1.047,31.686 0.883,31.884 0.773,32.111C0.637,32.309 0.5,32.535 0.39,32.762C0.281,33.017 0.172,33.243 0.09,33.498C0.007,33.725 -0.075,33.979 -0.157,34.234C-0.211,34.461 -0.266,34.687 -0.293,34.914C-0.293,34.942 -0.321,34.971 -0.321,34.999C-0.375,35.254 -0.375,35.594 -0.403,35.763C-0.43,35.962 -0.458,36.132 -0.458,36.33C-0.458,36.443 -0.458,36.585 -0.43,36.698C-0.403,36.896 -0.375,37.066 -0.321,37.236C-0.266,37.406 -0.211,37.576 -0.129,37.746L-0.129,37.774C-0.047,37.944 0.062,38.114 0.172,38.284C0.281,38.454 0.391,38.623 0.527,38.793C0.664,38.935 0.828,39.105 0.992,39.246C1.156,39.416 1.321,39.558 1.512,39.7C2.169,40.294 2.333,40.492 3.181,40.945C3.317,41.03 3.454,41.087 3.618,41.172C3.646,41.172 3.673,41.2 3.7,41.2C3.7,41.257 3.7,41.285 3.728,41.342C3.755,41.568 3.81,41.795 3.865,42.022C3.919,42.276 4.001,42.503 4.083,42.701C4.165,42.871 4.22,43.041 4.302,43.211C4.33,43.267 4.357,43.324 4.384,43.352C4.494,43.579 4.603,43.777 4.713,43.975C4.849,44.174 4.986,44.372 5.123,44.57C5.26,44.74 5.424,44.938 5.588,45.108C5.752,45.278 5.916,45.42 6.108,45.589C6.108,45.589 6.135,45.618 6.162,45.618C6.326,45.759 6.49,45.901 6.655,46.014C6.846,46.156 7.038,46.269 7.256,46.382C7.448,46.496 7.667,46.609 7.886,46.694C8.05,46.779 8.241,46.835 8.433,46.892C8.46,46.92 8.487,46.92 8.542,46.949C8.652,46.977 8.788,47.005 8.898,47.034C8.816,48.563 8.788,50.007 9.007,50.517C9.253,51.083 10.457,49.356 11.66,47.373C11.496,49.327 11.387,51.621 11.66,52.301C11.961,53.008 13.603,50.8 15.025,48.365C34.419,43.721 52.117,57.596 53.977,77.191C53.621,74.133 49.983,72.434 48.315,72.858C47.494,74.954 46.099,77.644 43.856,79.315C44.047,77.446 43.965,75.52 43.582,73.651C42.981,76.256 41.804,78.692 40.191,80.787C37.592,80.985 34.993,79.683 33.626,77.729C33.516,77.644 33.489,77.474 33.407,77.361C33.325,77.163 33.243,76.964 33.188,76.766C33.106,76.568 33.051,76.37 33.024,76.171C32.996,75.973 32.996,75.775 32.996,75.549C32.996,75.407 32.996,75.265 32.996,75.124C33.024,74.926 33.078,74.727 33.133,74.529C33.188,74.331 33.243,74.133 33.325,73.934C33.434,73.736 33.516,73.538 33.653,73.34C34.118,71.981 34.118,70.876 33.27,70.225C33.106,70.112 32.942,70.027 32.75,69.942C32.641,69.913 32.504,69.857 32.395,69.829C32.313,69.8 32.258,69.772 32.176,69.744C31.984,69.687 31.793,69.63 31.601,69.602C31.41,69.545 31.218,69.517 31.027,69.517C30.835,69.489 30.617,69.46 30.425,69.46C30.288,69.46 30.152,69.489 30.015,69.489C29.796,69.489 29.604,69.517 29.413,69.574C29.222,69.602 29.03,69.63 28.839,69.687C28.647,69.744 28.456,69.8 28.264,69.885C28.073,69.97 27.909,70.055 27.717,70.14C27.553,70.225 27.389,70.338 27.197,70.423C20.824,74.727 24.626,84.808 28.975,87.725C27.334,88.036 25.666,88.404 25.201,88.772C25.173,88.801 25.146,88.829 25.146,88.829C26.322,89.565 27.553,90.188 28.839,90.726C30.589,91.321 32.449,91.859 33.27,92.086L33.27,92.114C35.54,92.595 37.838,92.765 40.163,92.624C52.281,91.746 62.21,82.203 64.016,69.63C64.07,69.885 64.125,70.112 64.18,70.367C64.262,70.876 64.371,71.414 64.426,71.952L64.426,71.981C64.481,72.236 64.508,72.49 64.536,72.717L64.536,72.83C64.563,73.085 64.59,73.34 64.59,73.567C64.618,73.878 64.645,74.19 64.645,74.501L64.645,74.954C64.645,75.096 64.672,75.266 64.672,75.407C64.672,75.577 64.645,75.747 64.645,75.917L64.645,76.313C64.645,76.511 64.617,76.681 64.617,76.88C64.617,76.993 64.617,77.106 64.59,77.248C64.59,77.446 64.563,77.644 64.563,77.871C64.535,77.956 64.535,78.041 64.535,78.126C64.508,78.352 64.481,78.55 64.453,78.777C64.453,78.862 64.453,78.947 64.426,79.032C64.398,79.315 64.344,79.57 64.316,79.853L64.316,79.881L64.316,79.91C64.262,80.164 64.207,80.448 64.152,80.702L64.152,80.787C64.098,81.042 64.043,81.297 63.988,81.552C63.988,81.58 63.961,81.637 63.961,81.665C63.906,81.92 63.851,82.175 63.769,82.43L63.769,82.515C63.687,82.798 63.605,83.053 63.55,83.308C63.523,83.336 63.523,83.364 63.523,83.364C63.441,83.647 63.359,83.931 63.277,84.214C63.167,84.497 63.085,84.752 62.976,85.035C62.866,85.318 62.784,85.601 62.675,85.856C62.566,86.139 62.456,86.394 62.347,86.677L62.319,86.677C62.21,86.932 62.101,87.215 61.964,87.47C61.936,87.555 61.909,87.612 61.882,87.668C61.854,87.697 61.854,87.725 61.827,87.753C60.049,91.463 57.423,94.719 54.141,97.268C53.922,97.409 53.703,97.579 53.484,97.749C53.429,97.806 53.347,97.834 53.293,97.891C53.101,98.032 52.91,98.174 52.691,98.315L52.773,98.485L52.8,98.485C53.183,98.429 53.566,98.372 53.949,98.315L53.977,98.315C54.688,98.202 55.399,98.061 56.11,97.919C56.302,97.891 56.52,97.834 56.712,97.777C56.849,97.749 56.958,97.721 57.095,97.692C57.286,97.664 57.478,97.608 57.669,97.579C57.833,97.523 57.998,97.494 58.162,97.438C60.897,96.758 63.55,95.824 66.094,94.719C61.745,100.864 55.919,105.819 49.108,109.076C52.253,108.849 55.399,108.311 58.435,107.405C69.459,104.035 78.732,96.362 84.285,86.026C83.163,92.567 80.647,98.797 76.926,104.234C79.58,102.421 82.014,100.326 84.23,97.947C90.357,91.321 94.378,82.911 95.746,73.878C96.676,78.352 96.95,82.968 96.539,87.527C116.289,59.012 98.18,29.449 90.603,21.662C90.576,21.606 90.549,21.577 90.549,21.521C90.521,21.549 90.521,21.549 90.521,21.577C90.521,21.549 90.521,21.549 90.494,21.521C90.494,21.86 90.467,22.2 90.439,22.54C90.357,23.191 90.275,23.814 90.166,24.437C90.029,25.06 89.865,25.683 89.701,26.306C89.509,26.901 89.29,27.524 89.044,28.118C88.798,28.685 88.525,29.279 88.224,29.846C87.923,30.384 87.594,30.95 87.239,31.46C86.883,31.998 86.5,32.507 86.117,32.989C85.707,33.498 85.269,33.952 84.832,34.405C84.558,34.659 84.312,34.886 84.038,35.113C83.82,35.311 83.628,35.481 83.409,35.679C82.917,36.075 82.425,36.443 81.878,36.783C81.358,37.123 80.811,37.463 80.264,37.746C79.689,38.029 79.115,38.284 78.54,38.539C77.966,38.765 77.364,38.964 76.762,39.134C76.161,39.303 75.531,39.445 74.93,39.558C74.3,39.672 73.671,39.728 73.07,39.785C72.632,39.813 72.194,39.841 71.757,39.841C71.127,39.841 70.498,39.785 69.896,39.728C69.267,39.671 68.638,39.586 68.036,39.445C67.407,39.332 66.805,39.162 66.204,38.964L66.176,38.964C66.778,38.907 67.38,38.85 67.982,38.737C68.611,38.624 69.213,38.482 69.814,38.312C70.416,38.142 71.018,37.944 71.592,37.718C72.194,37.491 72.769,37.208 73.316,36.925C73.89,36.642 74.41,36.33 74.957,35.99C75.477,35.622 75.996,35.254 76.489,34.858C76.981,34.461 77.446,34.036 77.884,33.583C78.349,33.159 78.759,32.677 79.169,32.196C79.58,31.686 79.963,31.176 80.318,30.667C80.373,30.582 80.428,30.469 80.482,30.384C80.756,29.93 81.029,29.477 81.276,29.024C81.577,28.458 81.85,27.892 82.096,27.297C82.342,26.702 82.561,26.108 82.753,25.485C82.944,24.89 83.081,24.267 83.218,23.644C83.327,22.993 83.437,22.37 83.491,21.747C83.546,21.096 83.601,20.444 83.601,19.821C83.601,19.368 83.573,18.915 83.546,18.462C83.491,17.811 83.409,17.188 83.327,16.565C83.218,15.914 83.081,15.291 82.917,14.668C82.726,14.073 82.534,13.45 82.315,12.856C82.096,12.261 81.823,11.666 81.549,11.1C81.248,10.534 80.948,9.967 80.619,9.429C80.264,8.891 79.908,8.382 79.525,7.872C79.115,7.39 78.704,6.909 78.267,6.428C78.048,6.201 77.802,5.946 77.556,5.72C76.325,4.729 75.039,3.794 73.753,2.945C73.562,2.831 73.398,2.746 73.206,2.662C72.304,2.067 71.456,1.755 70.608,1.472Z" clip-rule="evenodd" fill-rule="evenodd" fill="#000000"/>
</svg>
