<svg width="108" height="110" viewBox="0 0 108 110" fill="none" xmlns="http://www.w3.org/2000/svg" xmlns:xlink="http://www.w3.org/1999/xlink">
<path d="M62.909,-0.142C62.143,-0.142 61.432,0.028 60.776,0.254C62.171,1.217 62.936,2.491 63.319,3.936C63.347,4.134 63.402,4.275 63.429,4.474C63.456,4.644 63.484,4.813 63.484,4.983C63.593,7.475 62.854,7.787 62.335,9.259C61.541,11.156 61.76,13.195 62.718,14.838C62.8,15.036 62.909,15.262 63.046,15.461C62.006,8.296 67.778,7.22 68.845,4.983C68.927,3.03 67.368,1.727 66.137,0.821C64.961,0.085 63.894,-0.142 62.909,-0.142ZM71.608,1.472C71.498,2.123 71.58,1.953 71.553,2.293C71.526,2.52 71.526,2.803 71.498,3.029C71.444,3.256 71.389,3.483 71.307,3.709C71.252,3.936 71.17,4.162 71.088,4.389C70.979,4.615 70.897,4.813 70.787,5.04C70.705,5.153 70.65,5.267 70.568,5.38C70.514,5.465 70.459,5.55 70.404,5.635C70.267,5.833 70.131,6.031 69.994,6.201C69.83,6.371 69.693,6.569 69.502,6.711L69.502,6.739C69.337,6.881 69.173,7.051 68.982,7.192C68.407,7.645 67.751,7.985 67.149,8.41C66.958,8.551 66.766,8.665 66.602,8.834C66.411,8.976 66.246,9.118 66.082,9.288C65.891,9.457 65.754,9.627 65.59,9.826C65.453,9.995 65.289,10.194 65.18,10.392C65.043,10.59 64.906,10.788 64.797,10.987C64.687,11.213 64.605,11.411 64.496,11.638C64.414,11.864 64.332,12.063 64.277,12.289C64.195,12.544 64.14,12.77 64.085,12.997C64.058,13.11 64.058,13.252 64.031,13.365C64.003,13.478 64.003,13.592 63.976,13.705C63.976,13.931 63.949,14.186 63.949,14.413C63.949,14.583 63.949,14.753 63.976,14.923C63.976,15.149 64.004,15.376 64.058,15.63C64.086,15.857 64.14,16.084 64.195,16.31C64.277,16.537 64.332,16.763 64.414,16.99C64.468,17.131 64.551,17.273 64.605,17.386L58.314,14.866C57.247,14.554 56.208,14.271 55.141,14.016C54.566,13.875 53.992,13.733 53.418,13.592C51.776,13.252 50.108,12.997 48.439,12.827C48.384,12.827 48.357,12.799 48.302,12.799C46.661,12.629 45.047,12.544 43.406,12.544C42.202,12.544 40.999,12.601 39.823,12.685C38.154,12.799 36.485,13.025 34.817,13.308C34.407,13.365 33.996,13.45 33.586,13.535C32.738,13.705 31.917,13.903 31.124,14.101C30.714,14.215 30.303,14.328 29.893,14.441C29.483,14.611 29.1,14.809 28.717,14.979C28.416,15.121 28.115,15.262 27.814,15.404C27.76,15.432 27.705,15.432 27.677,15.46C27.404,15.602 27.158,15.715 26.912,15.857C26.829,15.885 26.775,15.914 26.72,15.942C26.419,16.083 26.118,16.253 25.872,16.395C25.681,16.48 25.489,16.593 25.325,16.678C25.243,16.735 25.134,16.791 25.079,16.82C24.833,16.961 24.586,17.103 24.368,17.244C24.121,17.386 23.903,17.528 23.711,17.669C23.52,17.811 23.328,17.924 23.164,18.066C23.137,18.094 23.109,18.094 23.082,18.122C22.918,18.236 22.726,18.377 22.562,18.519C22.562,18.519 22.535,18.547 22.508,18.575C22.371,18.689 22.234,18.802 22.097,18.915C22.043,18.943 21.988,19 21.933,19.028C21.796,19.142 21.66,19.283 21.523,19.396C21.495,19.453 21.441,19.481 21.413,19.51C21.249,19.68 21.085,19.821 20.921,19.991C20.894,19.991 20.894,20.019 20.866,20.048C20.702,20.189 20.538,20.359 20.374,20.529C20.347,20.557 20.347,20.586 20.319,20.586C20.183,20.727 20.046,20.869 19.909,21.039C19.854,21.095 19.772,21.152 19.718,21.209C19.581,21.379 19.417,21.548 19.253,21.718C19.225,21.775 19.171,21.803 19.143,21.86C18.924,22.086 18.733,22.313 18.514,22.54C18.487,22.568 18.459,22.596 18.432,22.625C17.994,23.106 17.529,23.587 17.037,24.012C16.545,24.465 16.025,24.89 15.505,25.258C14.958,25.654 14.438,25.994 13.864,26.334C13.317,26.645 12.742,26.929 12.141,27.183C11.566,27.438 10.964,27.665 10.363,27.863C9.214,28.118 8.037,28.599 7.025,28.684C6.807,28.684 6.56,28.741 6.342,28.769C6.095,28.826 5.877,28.883 5.658,28.939C5.439,29.024 5.22,29.109 5.001,29.194C4.782,29.279 4.564,29.392 4.345,29.505C4.153,29.647 3.934,29.76 3.743,29.902C3.551,30.043 3.36,30.213 3.196,30.383C3.004,30.525 2.813,30.723 2.649,30.893C2.485,31.091 2.32,31.261 2.184,31.459C2.047,31.686 1.883,31.884 1.773,32.111C1.637,32.309 1.5,32.535 1.39,32.762C1.281,33.017 1.172,33.243 1.09,33.498C1.007,33.725 0.925,33.979 0.843,34.234C0.789,34.461 0.734,34.687 0.707,34.914C0.707,34.942 0.679,34.971 0.679,34.999C0.625,35.254 0.625,35.594 0.597,35.763C0.57,35.962 0.542,36.132 0.542,36.33C0.542,36.443 0.542,36.585 0.57,36.698C0.597,36.896 0.625,37.066 0.679,37.236C0.734,37.406 0.789,37.576 0.871,37.746L0.871,37.774C0.953,37.944 1.062,38.114 1.172,38.284C1.281,38.454 1.391,38.623 1.527,38.793C1.664,38.935 1.828,39.105 1.992,39.246C2.156,39.416 2.321,39.558 2.512,39.7C3.169,40.294 3.333,40.492 4.181,40.945C4.317,41.03 4.454,41.087 4.618,41.172C4.646,41.172 4.673,41.2 4.7,41.2C4.7,41.257 4.7,41.285 4.728,41.342C4.755,41.568 4.81,41.795 4.865,42.022C4.919,42.276 5.001,42.503 5.083,42.701C5.165,42.871 5.22,43.041 5.302,43.211C5.33,43.267 5.357,43.324 5.384,43.352C5.494,43.579 5.603,43.777 5.713,43.975C5.849,44.174 5.986,44.372 6.123,44.57C6.26,44.74 6.424,44.938 6.588,45.108C6.752,45.278 6.916,45.42 7.108,45.589C7.108,45.589 7.135,45.618 7.162,45.618C7.326,45.759 7.49,45.901 7.655,46.014C7.846,46.156 8.038,46.269 8.256,46.382C8.448,46.496 8.667,46.609 8.886,46.694C9.05,46.779 9.241,46.835 9.433,46.892C9.46,46.92 9.487,46.92 9.542,46.949C9.652,46.977 9.788,47.005 9.898,47.034C9.816,48.563 9.788,50.007 10.007,50.517C10.253,51.083 11.457,49.356 12.66,47.373C12.496,49.327 12.387,51.621 12.66,52.301C12.961,53.008 14.603,50.8 16.025,48.365C35.419,43.721 53.117,57.596 54.977,77.191C54.621,74.133 50.983,72.434 49.315,72.858C48.494,74.954 47.099,77.644 44.856,79.315C45.047,77.446 44.965,75.52 44.582,73.651C43.981,76.256 42.804,78.692 41.191,80.787C38.592,80.985 35.993,79.683 34.626,77.729C34.516,77.644 34.489,77.474 34.407,77.361C34.325,77.163 34.243,76.964 34.188,76.766C34.106,76.568 34.051,76.37 34.024,76.171C33.996,75.973 33.996,75.775 33.996,75.549C33.996,75.407 33.996,75.265 33.996,75.124C34.024,74.926 34.078,74.727 34.133,74.529C34.188,74.331 34.243,74.133 34.325,73.934C34.434,73.736 34.516,73.538 34.653,73.34C35.118,71.981 35.118,70.876 34.27,70.225C34.106,70.112 33.942,70.027 33.75,69.942C33.641,69.913 33.504,69.857 33.395,69.829C33.313,69.8 33.258,69.772 33.176,69.744C32.984,69.687 32.793,69.63 32.601,69.602C32.41,69.545 32.218,69.517 32.027,69.517C31.835,69.489 31.617,69.46 31.425,69.46C31.288,69.46 31.152,69.489 31.015,69.489C30.796,69.489 30.604,69.517 30.413,69.574C30.222,69.602 30.03,69.63 29.839,69.687C29.647,69.744 29.456,69.8 29.264,69.885C29.073,69.97 28.909,70.055 28.717,70.14C28.553,70.225 28.389,70.338 28.197,70.423C21.824,74.727 25.626,84.808 29.975,87.725C28.334,88.036 26.666,88.404 26.201,88.772C26.173,88.801 26.146,88.829 26.146,88.829C27.322,89.565 28.553,90.188 29.839,90.726C31.589,91.321 33.449,91.859 34.27,92.086L34.27,92.114C36.54,92.595 38.838,92.765 41.163,92.624C53.281,91.746 63.21,82.203 65.016,69.63C65.07,69.885 65.125,70.112 65.18,70.367C65.262,70.876 65.371,71.414 65.426,71.952L65.426,71.981C65.481,72.236 65.508,72.49 65.536,72.717L65.536,72.83C65.563,73.085 65.59,73.34 65.59,73.567C65.618,73.878 65.645,74.19 65.645,74.501L65.645,74.954C65.645,75.096 65.672,75.266 65.672,75.407C65.672,75.577 65.645,75.747 65.645,75.917L65.645,76.313C65.645,76.511 65.617,76.681 65.617,76.88C65.617,76.993 65.617,77.106 65.59,77.248C65.59,77.446 65.563,77.644 65.563,77.871C65.535,77.956 65.535,78.041 65.535,78.126C65.508,78.352 65.481,78.55 65.453,78.777C65.453,78.862 65.453,78.947 65.426,79.032C65.398,79.315 65.344,79.57 65.316,79.853L65.316,79.881L65.316,79.91C65.262,80.164 65.207,80.448 65.152,80.702L65.152,80.787C65.098,81.042 65.043,81.297 64.988,81.552C64.988,81.58 64.961,81.637 64.961,81.665C64.906,81.92 64.851,82.175 64.769,82.43L64.769,82.515C64.687,82.798 64.605,83.053 64.55,83.308C64.523,83.336 64.523,83.364 64.523,83.364C64.441,83.647 64.359,83.931 64.277,84.214C64.167,84.497 64.085,84.752 63.976,85.035C63.866,85.318 63.784,85.601 63.675,85.856C63.566,86.139 63.456,86.394 63.347,86.677L63.319,86.677C63.21,86.932 63.101,87.215 62.964,87.47C62.936,87.555 62.909,87.612 62.882,87.668C62.854,87.697 62.854,87.725 62.827,87.753C61.049,91.463 58.423,94.719 55.141,97.268C54.922,97.409 54.703,97.579 54.484,97.749C54.429,97.806 54.347,97.834 54.293,97.891C54.101,98.032 53.91,98.174 53.691,98.315L53.773,98.485L53.8,98.485C54.183,98.429 54.566,98.372 54.949,98.315L54.977,98.315C55.688,98.202 56.399,98.061 57.11,97.919C57.302,97.891 57.52,97.834 57.712,97.777C57.849,97.749 57.958,97.721 58.095,97.692C58.286,97.664 58.478,97.608 58.669,97.579C58.833,97.523 58.998,97.494 59.162,97.438C61.897,96.758 64.55,95.824 67.094,94.719C62.745,100.864 56.919,105.819 50.108,109.076C53.253,108.849 56.399,108.311 59.435,107.405C70.459,104.035 79.732,96.362 85.285,86.026C84.163,92.567 81.647,98.797 77.926,104.234C80.58,102.421 83.014,100.326 85.23,97.947C91.357,91.321 95.378,82.911 96.746,73.878C97.676,78.352 97.95,82.968 97.539,87.527C117.289,59.012 99.18,29.449 91.603,21.662C91.576,21.606 91.549,21.577 91.549,21.521C91.521,21.549 91.521,21.549 91.521,21.577C91.521,21.549 91.521,21.549 91.494,21.521C91.494,21.86 91.467,22.2 91.439,22.54C91.357,23.191 91.275,23.814 91.166,24.437C91.029,25.06 90.865,25.683 90.701,26.306C90.509,26.901 90.29,27.524 90.044,28.118C89.798,28.685 89.525,29.279 89.224,29.846C88.923,30.384 88.594,30.95 88.239,31.46C87.883,31.998 87.5,32.507 87.117,32.989C86.707,33.498 86.269,33.952 85.832,34.405C85.558,34.659 85.312,34.886 85.038,35.113C84.82,35.311 84.628,35.481 84.409,35.679C83.917,36.075 83.425,36.443 82.878,36.783C82.358,37.123 81.811,37.463 81.264,37.746C80.689,38.029 80.115,38.284 79.54,38.539C78.966,38.765 78.364,38.964 77.762,39.134C77.161,39.303 76.531,39.445 75.93,39.558C75.3,39.672 74.671,39.728 74.07,39.785C73.632,39.813 73.194,39.841 72.757,39.841C72.127,39.841 71.498,39.785 70.896,39.728C70.267,39.671 69.638,39.586 69.036,39.445C68.407,39.332 67.805,39.162 67.204,38.964L67.176,38.964C67.778,38.907 68.38,38.85 68.982,38.737C69.611,38.624 70.213,38.482 70.814,38.312C71.416,38.142 72.018,37.944 72.592,37.718C73.194,37.491 73.769,37.208 74.316,36.925C74.89,36.642 75.41,36.33 75.957,35.99C76.477,35.622 76.996,35.254 77.489,34.858C77.981,34.461 78.446,34.036 78.884,33.583C79.349,33.159 79.759,32.677 80.169,32.196C80.58,31.686 80.963,31.176 81.318,30.667C81.373,30.582 81.428,30.469 81.482,30.384C81.756,29.93 82.029,29.477 82.276,29.024C82.577,28.458 82.85,27.892 83.096,27.297C83.342,26.702 83.561,26.108 83.753,25.485C83.944,24.89 84.081,24.267 84.218,23.644C84.327,22.993 84.437,22.37 84.491,21.747C84.546,21.096 84.601,20.444 84.601,19.821C84.601,19.368 84.573,18.915 84.546,18.462C84.491,17.811 84.409,17.188 84.327,16.565C84.218,15.914 84.081,15.291 83.917,14.668C83.726,14.073 83.534,13.45 83.315,12.856C83.096,12.261 82.823,11.666 82.549,11.1C82.248,10.534 81.948,9.967 81.619,9.429C81.264,8.891 80.908,8.382 80.525,7.872C80.115,7.39 79.704,6.909 79.267,6.428C79.048,6.201 78.802,5.946 78.556,5.72C77.325,4.729 76.039,3.794 74.753,2.945C74.562,2.831 74.398,2.746 74.206,2.662C73.304,2.067 72.456,1.755 71.608,1.472Z" clip-rule="evenodd" fill-rule="evenodd" fill="#000000"/>
</svg>
