<svg width="110" height="110" viewBox="0 0 110 110" fill="none" xmlns="http://www.w3.org/2000/svg" xmlns:xlink="http://www.w3.org/1999/xlink">
<path d="M63.745,-0.142C62.955,-0.142 62.22,0.028 61.543,0.254C62.983,1.217 63.773,2.491 64.169,3.936C64.197,4.134 64.253,4.275 64.282,4.474C64.31,4.643 64.338,4.813 64.338,4.983C64.451,7.475 63.689,7.787 63.152,9.259C62.333,11.156 62.559,13.195 63.548,14.837C63.632,15.036 63.745,15.262 63.886,15.46C62.813,8.296 68.771,7.22 69.872,4.983C69.957,3.029 68.348,1.727 67.077,0.821C65.863,0.084 64.762,-0.142 63.745,-0.142ZM72.724,1.472C72.611,2.123 72.696,1.953 72.668,2.293C72.64,2.52 72.64,2.803 72.611,3.029C72.555,3.256 72.498,3.482 72.414,3.709C72.357,3.936 72.273,4.162 72.188,4.389C72.075,4.615 71.99,4.813 71.877,5.04C71.793,5.153 71.736,5.266 71.651,5.38C71.595,5.465 71.538,5.55 71.482,5.635C71.341,5.833 71.2,6.031 71.058,6.201C70.889,6.371 70.748,6.569 70.55,6.711L70.55,6.739C70.381,6.88 70.211,7.05 70.014,7.192C69.421,7.645 68.743,7.985 68.122,8.41C67.924,8.551 67.727,8.664 67.557,8.834C67.36,8.976 67.19,9.118 67.021,9.287C66.823,9.457 66.682,9.627 66.512,9.825C66.371,9.995 66.202,10.194 66.089,10.392C65.948,10.59 65.807,10.788 65.694,10.986C65.581,11.213 65.496,11.411 65.383,11.638C65.298,11.864 65.214,12.062 65.157,12.289C65.072,12.544 65.016,12.77 64.959,12.997C64.931,13.11 64.931,13.252 64.903,13.365C64.875,13.478 64.875,13.592 64.847,13.705C64.847,13.931 64.818,14.186 64.818,14.413C64.818,14.583 64.818,14.753 64.847,14.922C64.847,15.149 64.875,15.375 64.931,15.63C64.96,15.857 65.016,16.083 65.072,16.31C65.157,16.536 65.214,16.763 65.298,16.99C65.355,17.131 65.44,17.273 65.496,17.386L59.002,14.866C57.9,14.554 56.827,14.271 55.726,14.016C55.133,13.875 54.54,13.733 53.947,13.592C52.253,13.252 50.531,12.997 48.808,12.827C48.752,12.827 48.724,12.799 48.667,12.799C46.973,12.629 45.307,12.544 43.613,12.544C42.37,12.544 41.128,12.6 39.914,12.685C38.191,12.799 36.469,13.025 34.747,13.308C34.323,13.365 33.9,13.45 33.476,13.535C32.601,13.705 31.754,13.903 30.935,14.101C30.511,14.215 30.088,14.328 29.664,14.441C29.241,14.611 28.845,14.809 28.45,14.979C28.139,15.121 27.829,15.262 27.518,15.404C27.462,15.432 27.405,15.432 27.377,15.46C27.095,15.602 26.84,15.715 26.586,15.857C26.502,15.885 26.445,15.913 26.389,15.942C26.078,16.083 25.768,16.253 25.513,16.395C25.316,16.48 25.118,16.593 24.949,16.678C24.864,16.735 24.751,16.791 24.695,16.82C24.44,16.961 24.186,17.103 23.96,17.244C23.706,17.386 23.48,17.527 23.283,17.669C23.085,17.811 22.887,17.924 22.718,18.065C22.69,18.094 22.662,18.094 22.633,18.122C22.464,18.235 22.266,18.377 22.097,18.519C22.097,18.519 22.069,18.547 22.04,18.575C21.899,18.688 21.758,18.802 21.617,18.915C21.56,18.943 21.504,19 21.447,19.028C21.306,19.142 21.165,19.283 21.024,19.396C20.996,19.453 20.939,19.481 20.911,19.51C20.741,19.68 20.572,19.821 20.403,19.991C20.374,19.991 20.374,20.019 20.346,20.048C20.177,20.189 20.007,20.359 19.838,20.529C19.81,20.557 19.81,20.586 19.781,20.586C19.64,20.727 19.499,20.869 19.358,21.039C19.302,21.095 19.217,21.152 19.16,21.209C19.019,21.379 18.85,21.548 18.68,21.718C18.652,21.775 18.596,21.803 18.567,21.86C18.341,22.086 18.144,22.313 17.918,22.54C17.89,22.568 17.862,22.596 17.833,22.625C17.381,23.106 16.901,23.587 16.393,24.012C15.885,24.465 15.348,24.89 14.812,25.258C14.247,25.654 13.711,25.994 13.118,26.334C12.553,26.645 11.96,26.929 11.339,27.183C10.746,27.438 10.125,27.665 9.504,27.863C8.318,28.118 7.103,28.599 6.059,28.684C5.833,28.684 5.579,28.741 5.353,28.769C5.099,28.826 4.873,28.883 4.647,28.939C4.421,29.024 4.195,29.109 3.969,29.194C3.743,29.279 3.517,29.392 3.292,29.505C3.094,29.647 2.868,29.76 2.67,29.902C2.473,30.043 2.275,30.213 2.106,30.383C1.908,30.525 1.71,30.723 1.541,30.893C1.371,31.091 1.202,31.261 1.061,31.459C0.92,31.686 0.75,31.884 0.637,32.111C0.496,32.309 0.355,32.535 0.242,32.762C0.129,33.017 0.016,33.243 -0.069,33.498C-0.153,33.725 -0.238,33.979 -0.323,34.234C-0.379,34.461 -0.436,34.687 -0.464,34.914C-0.464,34.942 -0.492,34.971 -0.492,34.999C-0.549,35.254 -0.549,35.594 -0.577,35.763C-0.605,35.962 -0.633,36.132 -0.633,36.33C-0.633,36.443 -0.633,36.585 -0.605,36.698C-0.577,36.896 -0.549,37.066 -0.492,37.236C-0.436,37.406 -0.379,37.576 -0.294,37.746L-0.294,37.774C-0.21,37.944 -0.097,38.114 0.016,38.284C0.129,38.454 0.242,38.623 0.383,38.793C0.524,38.935 0.694,39.105 0.863,39.246C1.033,39.416 1.202,39.558 1.4,39.7C2.077,40.294 2.247,40.492 3.122,40.945C3.263,41.03 3.405,41.087 3.574,41.172C3.602,41.172 3.63,41.2 3.659,41.2C3.659,41.257 3.659,41.285 3.687,41.342C3.715,41.568 3.772,41.795 3.828,42.022C3.885,42.276 3.969,42.503 4.054,42.701C4.139,42.871 4.195,43.041 4.28,43.211C4.308,43.267 4.336,43.324 4.365,43.352C4.478,43.579 4.591,43.777 4.703,43.975C4.845,44.174 4.986,44.372 5.127,44.57C5.268,44.74 5.438,44.938 5.607,45.108C5.776,45.278 5.946,45.42 6.144,45.589C6.144,45.589 6.172,45.618 6.2,45.618C6.369,45.759 6.539,45.901 6.708,46.014C6.906,46.156 7.104,46.269 7.329,46.382C7.527,46.496 7.753,46.609 7.979,46.694C8.148,46.779 8.346,46.835 8.544,46.892C8.572,46.92 8.6,46.92 8.657,46.949C8.77,46.977 8.911,47.005 9.024,47.034C8.939,48.563 8.911,50.007 9.137,50.517C9.391,51.083 10.633,49.356 11.876,47.373C11.706,49.327 11.593,51.621 11.876,52.301C12.186,53.008 13.88,50.8 15.349,48.365C35.368,43.721 53.637,57.596 55.557,77.191C55.19,74.133 51.435,72.434 49.712,72.858C48.865,74.954 47.425,77.644 45.11,79.315C45.307,77.446 45.223,75.52 44.827,73.651C44.206,76.256 42.992,78.692 41.326,80.787C38.643,80.985 35.961,79.683 34.549,77.729C34.436,77.644 34.408,77.474 34.323,77.361C34.239,77.163 34.154,76.964 34.097,76.766C34.013,76.568 33.956,76.37 33.928,76.171C33.9,75.973 33.9,75.775 33.9,75.549C33.9,75.407 33.9,75.265 33.9,75.124C33.928,74.926 33.984,74.727 34.041,74.529C34.097,74.331 34.154,74.133 34.239,73.934C34.352,73.736 34.436,73.538 34.577,73.34C35.057,71.981 35.057,70.876 34.182,70.225C34.013,70.112 33.843,70.027 33.646,69.942C33.533,69.913 33.391,69.857 33.279,69.829C33.194,69.8 33.137,69.772 33.053,69.744C32.855,69.687 32.657,69.63 32.46,69.602C32.262,69.545 32.064,69.517 31.867,69.517C31.669,69.489 31.443,69.46 31.246,69.46C31.104,69.46 30.963,69.489 30.822,69.489C30.596,69.489 30.398,69.517 30.201,69.574C30.003,69.602 29.805,69.63 29.608,69.687C29.41,69.744 29.213,69.8 29.015,69.885C28.817,69.97 28.648,70.055 28.45,70.14C28.281,70.225 28.111,70.338 27.914,70.423C21.335,74.727 25.259,84.808 29.749,87.725C28.055,88.036 26.332,88.404 25.852,88.772C25.824,88.801 25.796,88.829 25.796,88.829C27.01,89.565 28.281,90.188 29.608,90.726C31.415,91.321 33.335,91.859 34.182,92.086L34.182,92.114C36.526,92.595 38.898,92.765 41.298,92.624C53.806,91.746 64.056,82.203 65.92,69.63C65.976,69.885 66.033,70.112 66.089,70.367C66.174,70.876 66.287,71.414 66.343,71.952L66.343,71.981C66.4,72.236 66.428,72.49 66.456,72.717L66.456,72.83C66.485,73.085 66.513,73.34 66.513,73.567C66.541,73.878 66.569,74.19 66.569,74.501L66.569,74.954C66.569,75.096 66.597,75.266 66.597,75.407C66.597,75.577 66.569,75.747 66.569,75.917L66.569,76.313C66.569,76.511 66.541,76.681 66.541,76.88C66.541,76.993 66.541,77.106 66.513,77.248C66.513,77.446 66.484,77.644 66.484,77.871C66.456,77.956 66.456,78.041 66.456,78.126C66.428,78.352 66.4,78.55 66.371,78.777C66.371,78.862 66.371,78.947 66.343,79.032C66.315,79.315 66.258,79.57 66.23,79.853L66.23,79.881L66.23,79.91C66.174,80.164 66.117,80.448 66.061,80.702L66.061,80.787C66.004,81.042 65.948,81.297 65.891,81.552C65.891,81.58 65.863,81.637 65.863,81.665C65.806,81.92 65.75,82.175 65.665,82.43L65.665,82.515C65.581,82.798 65.496,83.053 65.439,83.308C65.411,83.336 65.411,83.364 65.411,83.364C65.326,83.647 65.242,83.931 65.157,84.214C65.044,84.497 64.959,84.752 64.846,85.035C64.733,85.318 64.649,85.601 64.536,85.856C64.423,86.139 64.31,86.394 64.197,86.677L64.169,86.677C64.056,86.932 63.943,87.215 63.802,87.47C63.773,87.555 63.745,87.612 63.717,87.668C63.689,87.697 63.689,87.725 63.66,87.753C61.825,91.463 59.114,94.719 55.726,97.268C55.5,97.409 55.274,97.579 55.048,97.749C54.992,97.806 54.907,97.834 54.851,97.891C54.653,98.032 54.455,98.174 54.229,98.315L54.314,98.485L54.342,98.485C54.738,98.429 55.133,98.372 55.528,98.315L55.557,98.315C56.291,98.202 57.025,98.061 57.759,97.919C57.957,97.891 58.183,97.834 58.38,97.777C58.521,97.749 58.634,97.721 58.776,97.692C58.973,97.664 59.171,97.608 59.369,97.579C59.538,97.523 59.707,97.494 59.877,97.438C62.7,96.758 65.439,95.824 68.065,94.719C63.576,100.864 57.561,105.819 50.531,109.076C53.778,108.849 57.025,108.311 60.159,107.405C71.538,104.035 81.111,96.362 86.842,86.026C85.685,92.567 83.087,98.797 79.247,104.234C81.986,102.421 84.499,100.326 86.786,97.947C93.111,91.321 97.262,82.911 98.674,73.878C99.634,78.352 99.916,82.968 99.492,87.527C119.879,59.012 101.187,29.449 93.365,21.662C93.337,21.606 93.309,21.577 93.309,21.521C93.28,21.549 93.28,21.549 93.28,21.577C93.28,21.549 93.28,21.549 93.252,21.521C93.252,21.86 93.224,22.2 93.196,22.54C93.111,23.191 93.026,23.814 92.913,24.437C92.772,25.06 92.603,25.683 92.433,26.306C92.236,26.901 92.01,27.524 91.756,28.118C91.501,28.685 91.219,29.279 90.908,29.846C90.598,30.384 90.259,30.95 89.892,31.46C89.525,31.998 89.13,32.507 88.734,32.989C88.311,33.498 87.859,33.952 87.407,34.405C87.125,34.659 86.871,34.886 86.588,35.113C86.362,35.311 86.165,35.481 85.939,35.679C85.431,36.075 84.922,36.443 84.358,36.783C83.821,37.123 83.256,37.463 82.692,37.746C82.099,38.029 81.506,38.284 80.913,38.539C80.32,38.765 79.699,38.964 79.077,39.134C78.456,39.303 77.807,39.445 77.186,39.558C76.536,39.672 75.887,39.728 75.266,39.785C74.814,39.813 74.362,39.841 73.91,39.841C73.261,39.841 72.611,39.785 71.99,39.728C71.341,39.671 70.691,39.586 70.07,39.445C69.421,39.332 68.799,39.162 68.178,38.964L68.15,38.964C68.771,38.907 69.392,38.85 70.014,38.737C70.663,38.624 71.284,38.482 71.905,38.312C72.527,38.142 73.148,37.944 73.741,37.718C74.362,37.491 74.955,37.208 75.52,36.925C76.113,36.642 76.649,36.33 77.214,35.99C77.75,35.622 78.287,35.254 78.795,34.858C79.303,34.461 79.783,34.036 80.235,33.583C80.715,33.159 81.139,32.677 81.562,32.196C81.986,31.686 82.381,31.176 82.748,30.667C82.805,30.582 82.861,30.469 82.918,30.384C83.2,29.93 83.482,29.477 83.736,29.024C84.047,28.458 84.329,27.892 84.584,27.297C84.838,26.702 85.064,26.108 85.261,25.485C85.459,24.89 85.6,24.267 85.741,23.644C85.854,22.993 85.967,22.37 86.024,21.747C86.08,21.096 86.137,20.444 86.137,19.821C86.137,19.368 86.108,18.915 86.08,18.462C86.024,17.811 85.939,17.188 85.854,16.565C85.741,15.914 85.6,15.291 85.431,14.668C85.233,14.073 85.035,13.45 84.81,12.855C84.584,12.261 84.301,11.666 84.019,11.1C83.708,10.533 83.398,9.967 83.059,9.429C82.692,8.891 82.325,8.381 81.929,7.872C81.506,7.39 81.082,6.909 80.631,6.428C80.405,6.201 80.15,5.946 79.896,5.72C78.626,4.729 77.299,3.794 75.972,2.945C75.774,2.831 75.604,2.746 75.407,2.661C74.475,2.067 73.6,1.755 72.724,1.472Z" clip-rule="evenodd" fill-rule="evenodd" fill="#000000"/>
</svg>
