<svg width="40" height="42" viewBox="0 0 40 42" fill="none" xmlns="http://www.w3.org/2000/svg" xmlns:xlink="http://www.w3.org/1999/xlink">
<path d="M40,20.563C40,9.517 31.046,0.563 20,0.563C8.954,0.563 0,9.517 0,20.563C0,30.545 7.314,38.819 16.875,40.319L16.875,26.344L11.797,26.344L11.797,20.563L16.875,20.563L16.875,16.156C16.875,11.144 19.861,8.375 24.429,8.375C26.617,8.375 28.906,8.766 28.906,8.766L28.906,13.688L26.384,13.688C23.9,13.688 23.125,15.229 23.125,16.813L23.125,20.563L28.672,20.563L27.785,26.344L23.125,26.344L23.125,40.319C32.686,38.819 40,30.545 40,20.563Z" fill="#FFFFFF"/>
</svg>
