<svg width="112" height="112" viewBox="0 0 112 112" fill="none" xmlns="http://www.w3.org/2000/svg" xmlns:xlink="http://www.w3.org/1999/xlink">
<path d="M111.479,54.766C111.175,36.041 100.734,17.81 84.581,8.209C71.856,0.283 55.78,-1.85 41.3,1.808C19.508,7.294 2.134,27.03 -0.075,49.525C-2.819,70.77 7.926,92.865 26.289,103.761C44.272,115.038 68.732,114.581 86.314,102.711C102.164,92.424 111.994,73.661 111.462,54.782L111.479,54.766ZM58.597,103.687C33.147,106.202 8.535,84.639 7.848,59.111C5.923,38.386 19.581,17.888 39.088,11.03C66.444,0.058 100.048,20.326 102.867,49.665C107.288,76.027 85.343,102.865 58.597,103.687ZM41.85,53.165L78.652,23.065L58.766,53.24C53.127,53.24 47.488,53.242 41.85,53.165ZM52.198,58.73L69.113,58.807L32.311,88.982L52.198,58.73Z" fill="#000000"/>
</svg>
